G04 ================== begin FILE IDENTIFICATION RECORD ==================*
G04 Layout Name:  E:/ORCAD_sch/RZSK/PI_BSP/v3/pcb/v3.brd*
G04 Film Name:    MASK_BOT*
G04 File Format:  Gerber RS274X*
G04 File Origin:  Cadence Allegro 16.5-S013*
G04 Origin Date:  Wed Apr 18 10:31:22 2012*
G04 *
G04 Layer:  VIA CLASS/SOLDERMASK_BOTTOM*
G04 Layer:  PIN/SOLDERMASK_BOTTOM*
G04 Layer:  PACKAGE GEOMETRY/SOLDERMASK_BOTTOM*
G04 *
G04 Offset:    (0.000 0.000)*
G04 Mirror:    No*
G04 Mode:      Positive*
G04 Rotation:  0*
G04 FullContactRelief:  No*
G04 UndefLineWidth:     0.000*
G04 ================== end FILE IDENTIFICATION RECORD ====================*
%FSLAX34Y34*MOMM*%
%IR0*IPPOS*OFA0.00000B0.00000*MIA0B0*SFA1.00000B1.00000*%
%ADD11C,3.*%
%ADD15C,2.4*%
%ADD13C,1.8*%
%ADD10C,6.3*%
%ADD16C,2.8*%
%ADD12R,1.8X1.8*%
%ADD14R,2.7X1.4*%
%LPD*%
G75*
G54D10*
X60000Y79970D03*
Y1379970D03*
X810000Y79970D03*
Y1379970D03*
G54D11*
X80000Y140000D03*
Y1250000D03*
X790000Y140000D03*
Y1250000D03*
G54D12*
X100000Y642470D03*
X350000Y1339970D03*
X360000Y667470D03*
X390000Y59970D03*
X480000Y449970D03*
G54D13*
X100000Y667870D03*
X125400Y642470D03*
Y667870D03*
X150800Y642470D03*
Y667870D03*
X201600Y642470D03*
X176200D03*
X201600Y667870D03*
X176200D03*
X334600Y667470D03*
Y718270D03*
Y692870D03*
Y743670D03*
Y769070D03*
X350000Y1365370D03*
X360000Y718270D03*
Y692870D03*
Y743670D03*
Y769070D03*
X375400Y1339970D03*
Y1365370D03*
X390000Y85370D03*
X400800Y1339970D03*
Y1365370D03*
X440800Y85370D03*
Y59970D03*
X415400Y85370D03*
Y59970D03*
X426200Y1339970D03*
Y1365370D03*
X466200Y85370D03*
Y59970D03*
X451600Y1339970D03*
Y1365370D03*
X491600Y85370D03*
Y59970D03*
X480000Y475370D03*
X502400Y1339970D03*
X477000D03*
X502400Y1365370D03*
X477000D03*
X530800Y475370D03*
Y449970D03*
X505400Y475370D03*
Y449970D03*
X527800Y1339970D03*
Y1365370D03*
X556200Y475370D03*
Y449970D03*
X553200Y1339970D03*
Y1365370D03*
X581600Y475370D03*
Y449970D03*
X578600Y1339970D03*
Y1365370D03*
G54D14*
X182340Y826770D03*
Y902970D03*
Y991870D03*
Y1068070D03*
Y1156970D03*
Y1233170D03*
X307340Y826770D03*
Y902970D03*
Y991870D03*
Y1068070D03*
Y1156970D03*
Y1233170D03*
X372500Y826770D03*
Y902970D03*
Y991870D03*
Y1068070D03*
Y1156970D03*
Y1233170D03*
X497500Y826770D03*
Y902970D03*
Y991870D03*
Y1068070D03*
Y1156970D03*
Y1233170D03*
X562660Y826770D03*
Y902970D03*
Y991870D03*
Y1068070D03*
Y1156970D03*
Y1233170D03*
X687660Y826770D03*
Y902970D03*
Y991870D03*
Y1068070D03*
Y1156970D03*
Y1233170D03*
G54D15*
X235000Y1319970D03*
X210000Y1344970D03*
X235000Y1369970D03*
X732500Y649970D03*
Y699970D03*
G54D16*
X522500Y552470D03*
X572500D03*
M02*
