G04 ================== begin FILE IDENTIFICATION RECORD ==================*
G04 Layout Name:  E:/ORCAD_sch/RZSK/PI_BSP/v3/pcb/v3.brd*
G04 Film Name:    MASK_TOP*
G04 File Format:  Gerber RS274X*
G04 File Origin:  Cadence Allegro 16.5-S013*
G04 Origin Date:  Wed Apr 18 10:31:22 2012*
G04 *
G04 Layer:  VIA CLASS/SOLDERMASK_TOP*
G04 Layer:  PIN/SOLDERMASK_TOP*
G04 Layer:  PACKAGE GEOMETRY/SOLDERMASK_TOP*
G04 *
G04 Offset:    (0.000 0.000)*
G04 Mirror:    No*
G04 Mode:      Positive*
G04 Rotation:  0*
G04 FullContactRelief:  No*
G04 UndefLineWidth:     0.000*
G04 ================== end FILE IDENTIFICATION RECORD ====================*
%FSLAX34Y34*MOMM*%
%IR0*IPPOS*OFA0.00000B0.00000*MIA0B0*SFA1.00000B1.00000*%
%ADD11C,3.*%
%ADD26R,.6X1.7*%
%ADD25R,.8X2.4*%
%ADD22R,.7X1.7*%
%ADD18C,2.4*%
%ADD23R,.91X1.05*%
%ADD20R,1.7X.7*%
%ADD16C,1.8*%
%ADD10C,6.3*%
%ADD21C,2.8*%
%ADD15R,1.8X1.8*%
%ADD27R,1.6X1.2*%
%ADD12R,2.2X3.2*%
%ADD19R,1.2X1.6*%
%ADD17R,2.X1.8*%
%ADD13R,1.8X2.*%
%ADD28R,1.7X1.5*%
%ADD24R,2.4X2.6*%
%ADD14R,1.5X1.7*%
%LPD*%
G75*
G54D10*
X60000Y79970D03*
Y1379970D03*
X810000Y79970D03*
Y1379970D03*
G54D20*
X490000Y622470D03*
Y630470D03*
Y638470D03*
Y646470D03*
Y654470D03*
Y662470D03*
Y670470D03*
Y678470D03*
Y686470D03*
Y694470D03*
Y702470D03*
Y710470D03*
Y718470D03*
Y726470D03*
Y734470D03*
Y742470D03*
X645000Y646470D03*
Y638470D03*
Y630470D03*
Y622470D03*
Y678470D03*
Y670470D03*
Y662470D03*
Y654470D03*
Y702470D03*
Y694470D03*
Y686470D03*
Y734470D03*
Y726470D03*
Y718470D03*
Y710470D03*
Y742470D03*
G54D11*
X80000Y140000D03*
Y1250000D03*
X790000Y140000D03*
Y1250000D03*
G54D12*
X57500Y737470D03*
X97500D03*
G54D21*
X522500Y552470D03*
X572500D03*
G54D13*
X60000Y789970D03*
X88000D03*
X570000Y50000D03*
Y89970D03*
X598000Y50000D03*
Y89970D03*
X634500Y532500D03*
X662500D03*
X670000Y1319970D03*
Y1359970D03*
X698000Y1319970D03*
Y1359970D03*
X712000Y1229000D03*
Y1259970D03*
X740000Y1229000D03*
Y1259970D03*
G54D22*
X523500Y604970D03*
X515500D03*
X507500D03*
Y759970D03*
X515500D03*
X523500D03*
X547500Y604970D03*
X539500D03*
X531500D03*
Y759970D03*
X539500D03*
X547500D03*
X579500Y604970D03*
X571500D03*
X563500D03*
X555500D03*
Y759970D03*
X563500D03*
X571500D03*
X579500D03*
X611500Y604970D03*
X603500D03*
X595500D03*
X587500D03*
Y759970D03*
X595500D03*
X603500D03*
X611500D03*
X627500Y604970D03*
X619500D03*
Y759970D03*
X627500D03*
G54D14*
X60000Y829970D03*
X80000D03*
X427500Y622500D03*
X428000Y714000D03*
X447500Y622500D03*
X448000Y714000D03*
X670000Y159970D03*
X650000D03*
X675000Y189970D03*
X662500Y562500D03*
X695000Y189970D03*
X682500Y562500D03*
X735000Y190000D03*
X755000D03*
X782500D03*
X802500D03*
X820000Y219970D03*
X800000D03*
G54D23*
X609400Y809470D03*
Y839970D03*
Y894470D03*
Y924970D03*
X634800Y809470D03*
X622100D03*
X634800Y839970D03*
X622100D03*
X634800Y894470D03*
X622100D03*
X634800Y924970D03*
X622100D03*
X647500Y809470D03*
X669400D03*
X647500Y839970D03*
X669400D03*
X647500Y894470D03*
X669400D03*
X647500Y924970D03*
X669400D03*
X694800Y809470D03*
X682100D03*
X694800Y839970D03*
X682100D03*
X694800Y894470D03*
X682100D03*
X694800Y924970D03*
X682100D03*
X707500Y809470D03*
Y839970D03*
Y894470D03*
Y924970D03*
G54D24*
X643000Y50000D03*
Y89970D03*
X690000Y50000D03*
Y89970D03*
G54D15*
X100000Y642470D03*
X350000Y1339970D03*
X360000Y667470D03*
X390000Y59970D03*
X480000Y449970D03*
G54D16*
X100000Y667870D03*
X125400Y642470D03*
Y667870D03*
X150800Y642470D03*
Y667870D03*
X201600Y642470D03*
X176200D03*
X201600Y667870D03*
X176200D03*
X334600Y667470D03*
Y718270D03*
Y692870D03*
Y743670D03*
Y769070D03*
X350000Y1365370D03*
X360000Y718270D03*
Y692870D03*
Y743670D03*
Y769070D03*
X375400Y1339970D03*
Y1365370D03*
X390000Y85370D03*
X400800Y1339970D03*
Y1365370D03*
X440800Y85370D03*
Y59970D03*
X415400Y85370D03*
Y59970D03*
X426200Y1339970D03*
Y1365370D03*
X466200Y85370D03*
Y59970D03*
X451600Y1339970D03*
Y1365370D03*
X491600Y85370D03*
Y59970D03*
X480000Y475370D03*
X502400Y1339970D03*
X477000D03*
X502400Y1365370D03*
X477000D03*
X530800Y475370D03*
Y449970D03*
X505400Y475370D03*
Y449970D03*
X527800Y1339970D03*
Y1365370D03*
X556200Y475370D03*
Y449970D03*
X553200Y1339970D03*
Y1365370D03*
X581600Y475370D03*
Y449970D03*
X578600Y1339970D03*
Y1365370D03*
G54D25*
X655700Y227970D03*
X668400D03*
X655700Y319970D03*
X668400D03*
X681100Y227970D03*
X693800D03*
X681100Y319970D03*
X693800D03*
X706500Y227970D03*
X719200D03*
X731900D03*
X706500Y319970D03*
X719200D03*
X731900D03*
X744600Y227970D03*
X757300D03*
X744600Y319970D03*
X757300D03*
X755000Y752470D03*
Y804470D03*
X770000Y227970D03*
Y319970D03*
X793100Y752470D03*
X780400D03*
X767700D03*
X793100Y804470D03*
X780400D03*
X767700D03*
G54D17*
X130000Y529970D03*
Y557970D03*
X170000Y529970D03*
Y557970D03*
X260000Y529970D03*
Y557970D03*
X300000Y529970D03*
Y557970D03*
X412500Y555000D03*
Y583000D03*
X445000Y555000D03*
Y583000D03*
X579000Y840000D03*
Y868000D03*
X580000Y896970D03*
Y924970D03*
X660000Y374970D03*
Y402970D03*
X697500Y377470D03*
Y405470D03*
G54D26*
X673050Y446470D03*
Y497470D03*
X698450Y446470D03*
X692100D03*
X685750D03*
X679400D03*
Y497470D03*
X685750D03*
X692100D03*
X698450D03*
X717500Y446470D03*
X711150D03*
X704800D03*
Y497470D03*
X711150D03*
X717500D03*
G54D27*
X649000Y1268970D03*
X670000Y1277970D03*
Y1259970D03*
G54D18*
X235000Y1319970D03*
X210000Y1344970D03*
X235000Y1369970D03*
X732500Y649970D03*
Y699970D03*
G54D28*
X687500Y627500D03*
Y647500D03*
X752500Y374970D03*
Y354970D03*
X742500Y424970D03*
Y444970D03*
X775000Y637500D03*
Y657500D03*
Y685000D03*
Y705000D03*
X797500Y855000D03*
Y835000D03*
G54D19*
X386000Y448970D03*
X377000Y469970D03*
X395000D03*
X386000Y503970D03*
X377000Y524970D03*
X395000D03*
M02*
