M48
METRIC,TZ
T01C.5
T02C1.
T03C1.2
T04C3.2
;LEADER: 12 
;HEADER: 
;CODE  : ASCII 
;FILE  : v3-1-2.drl for board v3.brd ... layers TOP and BOTTOM
;T01 Holesize 1. = 0.500000 Tolerance = +0.000000/-0.000000 PLATED MM Quantity = 58
;T02 Holesize 2. = 1.000000 Tolerance = +0.000000/-0.000000 PLATED MM Quantity = 65
;T03 Holesize 3. = 1.200000 Tolerance = +0.000000/-0.000000 PLATED MM Quantity = 2
;T04 Holesize 4. = 3.200000 Tolerance = +0.000000/-0.000000 NON_PLATED MM Quantity = 4
%
G90
T01
X670000Y1339970
X713000Y50000
X712500Y89970
X650000Y204970
X687500Y159970
X820000Y202470
X497500Y844970
X692100Y464970
X650000Y464200
X497500Y1137470
X667500Y959970
X670000Y864970
X726570Y939970
X712000Y1156970
X695000Y867470
X712500Y991870
X682100Y878140
X712500Y957470
X411000Y714000
X760000Y1259970
X717500Y427470
X731900Y351870
X719200Y341670
X693800Y341170
X776000Y855000
X682500Y580000
X677500Y479970
X742500Y407470
X655700Y341770
X625000Y667470
X507500Y707470
X427000Y641000
X470000Y639690
X105000Y789970
X698000Y1300470
X688000Y1277970
X88000Y806970
Y772970
X95000Y829970
X80000Y844970
X688000Y609000
X793100Y733070
X767700Y827270
X735000Y374970
X706500Y351470
X707500Y856540
X307340Y922470
Y972470
X622500Y942470
Y877470
X634820Y859970
Y959790
X497500Y972470
X307340Y1137470
X647500Y942470
Y877470
X660000Y769970
X685000
T02
X390000Y59970
Y85370
X415400Y59970
Y85370
X440800Y59970
Y85370
X466200Y59970
Y85370
X491600Y59970
Y85370
X235000Y1369970
X210000Y1344970
X235000Y1319970
X350000Y1339970
Y1365370
X375400Y1339970
Y1365370
X400800Y1339970
Y1365370
X426200Y1339970
Y1365370
X451600Y1339970
Y1365370
X477000Y1339970
Y1365370
X502400Y1339970
Y1365370
X527800Y1339970
Y1365370
X553200Y1339970
Y1365370
X578600Y1339970
Y1365370
X100000Y642470
Y667870
X125400Y642470
Y667870
X150800Y642470
Y667870
X176200Y642470
Y667870
X201600Y642470
Y667870
X480000Y449970
Y475370
X505400Y449970
Y475370
X530800Y449970
Y475370
X556200Y449970
Y475370
X581600Y449970
Y475370
X360000Y667470
X334600
X360000Y692870
X334600
X360000Y718270
X334600
X360000Y743670
X334600
X360000Y769070
X334600
X732500Y649970
Y699970
T03
X522500Y552470
X572500
T04
X60000Y79970
Y1379970
X810000
Y79970
M30
