G04 ================== begin FILE IDENTIFICATION RECORD ==================*
G04 Layout Name:  D:/Project/Circuit/BSP-PI/03v3/pcb/03v3.brd*
G04 Film Name:    PASTE_TOP*
G04 File Format:  Gerber RS274X*
G04 File Origin:  Cadence Allegro 16.6-2015-S073*
G04 Origin Date:  Tue Nov 29 15:06:10 2016*
G04 *
G04 Layer:  PIN/PASTEMASK_TOP*
G04 Layer:  PACKAGE GEOMETRY/PASTEMASK_TOP*
G04 *
G04 Offset:    (0.000 0.000)*
G04 Mirror:    No*
G04 Mode:      Positive*
G04 Rotation:  0*
G04 FullContactRelief:  No*
G04 UndefLineWidth:     0.000*
G04 ================== end FILE IDENTIFICATION RECORD ====================*
%FSLAX34Y34*MOMM*%
%IR0*IPPOS*OFA0.00000B0.00000*MIA0B0*SFA1.00000B1.00000*%
%ADD32O,.55X1.*%
%ADD16R,1.X.6*%
%ADD25R,2.X.6*%
%ADD30R,.4X1.5*%
%ADD33R,.55X1.*%
%ADD22R,.5X1.5*%
%ADD20R,1.5X.5*%
%ADD18R,1.15X.6*%
%ADD35R,.6X1.55*%
%ADD23O,1.8X.64*%
%ADD24R,1.8X.64*%
%ADD28R,1.15X1.15*%
%ADD31R,1.85X.45*%
%ADD29R,1.4X1.*%
%ADD12R,1.1X1.4*%
%ADD15R,1.4X1.1*%
%ADD10R,2.X3.4*%
%ADD26R,1.2X3.4*%
%ADD21R,1.8X1.2*%
%ADD27R,1.05X1.15*%
%ADD14R,1.X1.75*%
%ADD17R,1.8X1.4*%
%ADD13R,1.75X1.*%
%ADD11R,1.25X1.8*%
%ADD34R,1.8X1.25*%
%ADD36R,.95X.8*%
%ADD19R,.55X.55*%
%LPD*%
G75*
G54D10*
X-581100Y394830D03*
X-546100D03*
G54D11*
X-581600Y437830D03*
X-551600D03*
G54D20*
X-153600Y277300D03*
Y285300D03*
Y293300D03*
Y301300D03*
Y309300D03*
Y317300D03*
Y325300D03*
Y333300D03*
Y341300D03*
Y349300D03*
Y357300D03*
Y365300D03*
Y373300D03*
Y381300D03*
Y389300D03*
Y397300D03*
X1400Y277300D03*
Y301300D03*
Y293300D03*
Y285300D03*
Y333300D03*
Y325300D03*
Y317300D03*
Y309300D03*
Y365300D03*
Y357300D03*
Y349300D03*
Y341300D03*
Y397300D03*
Y389300D03*
Y381300D03*
Y373300D03*
G54D21*
X-116000Y-294750D03*
Y-265250D03*
G54D12*
X-565100Y469830D03*
X-582100D03*
X-202100Y277330D03*
X-212100Y368830D03*
X-185100Y277330D03*
X-195100Y368830D03*
X-140100Y-169800D03*
X-123100D03*
X37900Y-231170D03*
X33900Y-167800D03*
X35900Y245830D03*
X18900D03*
X54900Y-231170D03*
X50900Y-167800D03*
X147900Y-120170D03*
Y-91800D03*
X164900Y-120170D03*
Y-91800D03*
G54D30*
X35800Y101300D03*
X29450D03*
Y152300D03*
X35800D03*
X67550Y101300D03*
X61200D03*
X54850D03*
X48500D03*
X42150D03*
Y152300D03*
X48500D03*
X54850D03*
X61200D03*
X67550D03*
X73900Y101300D03*
Y152300D03*
G54D13*
X-513600Y184830D03*
Y214830D03*
X-473600Y184830D03*
Y214830D03*
X-309600Y-187170D03*
Y-157170D03*
X-231600Y209830D03*
Y239830D03*
X-197600Y209830D03*
Y239830D03*
X-63600Y495830D03*
Y549830D03*
Y525830D03*
Y579830D03*
X16400Y24830D03*
Y54830D03*
X48000Y-301000D03*
X76000D03*
X48000Y-271000D03*
X76000D03*
X56400Y24830D03*
Y54830D03*
X158400Y-176800D03*
Y-146800D03*
X156400Y-33200D03*
Y-3200D03*
X180400Y-33200D03*
Y-3200D03*
G54D31*
X56400Y-127420D03*
Y-120920D03*
Y-114420D03*
Y-107920D03*
Y-101420D03*
Y-94920D03*
Y-88420D03*
Y-81920D03*
Y-75420D03*
Y-68920D03*
Y-62420D03*
Y-55920D03*
Y-49420D03*
Y-42920D03*
X126400Y-114420D03*
Y-120920D03*
Y-127420D03*
Y-88420D03*
Y-94920D03*
Y-101420D03*
Y-107920D03*
Y-55920D03*
Y-62420D03*
Y-68920D03*
Y-75420D03*
Y-81920D03*
Y-42920D03*
Y-49420D03*
G54D22*
X-112100Y259800D03*
X-120100D03*
X-128100D03*
X-136100D03*
Y414800D03*
X-128100D03*
X-120100D03*
X-112100D03*
X-88100Y259800D03*
X-96100D03*
X-104100D03*
Y414800D03*
X-96100D03*
X-88100D03*
X-56100Y259800D03*
X-64100D03*
X-72100D03*
X-80100D03*
Y414800D03*
X-72100D03*
X-64100D03*
X-56100D03*
X-24100Y259800D03*
X-32100D03*
X-40100D03*
X-48100D03*
Y414800D03*
X-40100D03*
X-32100D03*
X-24100D03*
X-16100Y259800D03*
Y414800D03*
G54D14*
X-388600Y172330D03*
X-358600D03*
X-300600Y106830D03*
X-270600D03*
X-178600Y-227800D03*
Y-203800D03*
X-148600Y-227800D03*
Y-203800D03*
X-10600Y221830D03*
X19400D03*
X26400Y974800D03*
X23400Y1014830D03*
X56400Y-10170D03*
X53400Y883830D03*
Y914830D03*
X56400Y974800D03*
X53400Y1014830D03*
X86400Y-10170D03*
X83400Y883830D03*
Y914830D03*
G54D23*
X-79250Y-314700D03*
X-16750Y-302000D03*
Y-314700D03*
Y-289300D03*
G54D32*
X91400Y-248800D03*
X81900D03*
X72400Y-223560D03*
X91400D03*
G54D15*
X-336100Y-176170D03*
Y-159170D03*
X-128000Y-242500D03*
Y-225500D03*
X-127600Y-206300D03*
Y-189300D03*
X-95600Y-91300D03*
Y-108300D03*
X16000Y-269500D03*
Y-286500D03*
X28400Y-114200D03*
Y-131200D03*
X31400Y-53670D03*
Y-36670D03*
X43900Y284330D03*
Y301330D03*
X95400Y118330D03*
Y101330D03*
X131400Y296330D03*
Y313330D03*
Y342330D03*
Y359330D03*
X115400Y484800D03*
Y501800D03*
G54D24*
X-79250Y-289300D03*
G54D33*
X72400Y-248800D03*
G54D34*
X108900Y-10170D03*
Y19830D03*
G54D25*
X-92600Y-224620D03*
Y-211920D03*
Y-199220D03*
Y-186520D03*
Y-173820D03*
Y-161120D03*
Y-148420D03*
Y-135720D03*
X400Y-211920D03*
Y-224620D03*
Y-173820D03*
Y-186520D03*
Y-199220D03*
Y-148420D03*
Y-161120D03*
Y-135720D03*
G54D16*
X-283100Y148830D03*
X-260100Y158330D03*
Y139330D03*
Y187330D03*
X-283100Y196830D03*
X-260100Y206330D03*
G54D17*
X-238600Y-143670D03*
Y-116670D03*
X-178600Y-143670D03*
Y-116670D03*
G54D26*
X-67250Y-258000D03*
X-24750D03*
G54D35*
X124100Y407300D03*
X111400D03*
Y461300D03*
X124100D03*
X149500Y407300D03*
X136800D03*
Y461300D03*
X149500D03*
G54D36*
X156400Y-51800D03*
Y-67800D03*
X180400Y-51800D03*
Y-67800D03*
G54D27*
X-21950Y462830D03*
Y494830D03*
Y551830D03*
Y583830D03*
X-9250Y462830D03*
Y494830D03*
Y551830D03*
Y583830D03*
X38050Y462830D03*
Y494830D03*
X40050Y551330D03*
Y583330D03*
X50750Y462830D03*
Y494830D03*
X52750Y551330D03*
Y583330D03*
G54D18*
X-221600Y-182170D03*
Y-172670D03*
Y-163170D03*
X-195600Y-172670D03*
Y-182170D03*
Y-163170D03*
G54D19*
X-204600Y-139170D03*
Y-121170D03*
X-212600Y-139170D03*
Y-121170D03*
G54D28*
X-35150Y462830D03*
Y494830D03*
Y551830D03*
Y583830D03*
X3950Y462830D03*
Y494830D03*
Y551830D03*
Y583830D03*
X24850Y462830D03*
Y494830D03*
X26850Y551330D03*
Y583330D03*
X63950Y462830D03*
Y494830D03*
X65950Y551330D03*
Y583330D03*
G54D29*
X5400Y923800D03*
X26400Y932800D03*
Y914800D03*
M02*
