G04 ================== begin FILE IDENTIFICATION RECORD ==================*
G04 Layout Name:  D:/Project/Circuit/BSP-PI/03v3/pcb/03v3.brd*
G04 Film Name:    TOP*
G04 File Format:  Gerber RS274X*
G04 File Origin:  Cadence Allegro 16.6-2015-S053*
G04 Origin Date:  Fri Nov 13 09:53:15 2015*
G04 *
G04 Layer:  ETCH/TOP*
G04 Layer:  PIN/TOP*
G04 Layer:  VIA CLASS/TOP*
G04 *
G04 Offset:    (0.000 0.000)*
G04 Mirror:    No*
G04 Mode:      Positive*
G04 Rotation:  0*
G04 FullContactRelief:  No*
G04 UndefLineWidth:     0.250*
G04 ================== end FILE IDENTIFICATION RECORD ====================*
%FSLAX34Y34*MOMM*%
%IR0*IPPOS*OFA0.00000B0.00000*MIA0B0*SFA1.00000B1.00000*%
%ADD41O,.55X1.*%
%ADD22R,1.X.6*%
%ADD34R,2.X.6*%
%ADD39R,.4X1.5*%
%ADD11C,1.*%
%ADD42R,.55X1.*%
%ADD31R,.5X1.5*%
%ADD28R,1.5X.5*%
%ADD18C,2.2*%
%ADD25R,1.15X.6*%
%ADD30C,2.5*%
%ADD16C,1.6*%
%ADD10C,5.2*%
%ADD44R,.6X1.55*%
%ADD32O,1.8X.64*%
%ADD21C,3.6*%
%ADD33R,1.8X.64*%
%ADD24C,1.75*%
%ADD37R,1.15X1.15*%
%ADD40R,1.85X.45*%
%ADD27R,1.7X1.7*%
%ADD15R,1.55X1.55*%
%ADD38R,1.4X1.*%
%ADD14R,1.1X1.4*%
%ADD20R,1.4X1.1*%
%ADD12R,2.X3.4*%
%ADD35R,1.2X3.4*%
%ADD29R,1.8X1.2*%
%ADD36R,1.05X1.15*%
%ADD19R,1.X1.75*%
%ADD23R,1.8X1.4*%
%ADD17R,1.75X1.*%
%ADD13R,1.25X1.8*%
%ADD43R,1.8X1.25*%
%ADD45R,.95X.8*%
%ADD26R,.55X.55*%
%ADD46C,.4*%
%ADD47C,.5*%
%ADD48C,.25*%
%ADD49C,.45*%
%ADD50C,.75*%
%ADD51C,3.404*%
G75*
%LPD*%
G75*
G36*
G01X-622600Y32830D02*
Y358810D01*
G02X-620600Y360810I2000J0D01*
G01X-572580D01*
G03X-570580Y362810I0J2000D01*
G01Y371310D01*
G02X-568580Y373310I2000J0D01*
G03X-566580Y375310I0J2000D01*
G01Y414350D01*
G03X-568580Y416350I-2000J0D01*
G02X-570580Y418350I0J2000D01*
G01Y457540D01*
G02X-568580Y459540I2000J0D01*
G01X-558310D01*
G03X-556310Y461540I0J2000D01*
G01Y478120D01*
G03X-558310Y480120I-2000J0D01*
G01X-568580D01*
G02X-570580Y482120I0J2000D01*
G01Y508320D01*
G03X-572580Y510320I-2000J0D01*
G01X-583580D01*
G02X-585580Y512320I0J2000D01*
G01Y515280D01*
G02X-583580Y517280I2000J0D01*
G01X-551080D01*
G02X-549660Y516690I2J-2000D01*
G01X-516710Y483740D01*
G02X-516120Y482320I-1410J-1418D01*
G01Y444370D01*
G03X-511730Y433760I15020J1D01*
G01X-332150Y254180D01*
X-332140Y254170D01*
G03X-321530Y249780I10611J10630D01*
G01X-246870D01*
G02X-244870Y247780I0J-2000D01*
G01Y232310D01*
G03X-242870Y230310I2000J0D01*
G01X-220330D01*
G03X-218330Y232310I0J2000D01*
G01Y247780D01*
G02X-216330Y249780I2000J0D01*
G01X-212870D01*
G02X-210870Y247780I0J-2000D01*
G01Y232310D01*
G03X-208870Y230310I2000J0D01*
G01X-186330D01*
G03X-184330Y232310I0J2000D01*
G01Y247780D01*
G02X-182330Y249780I2000J0D01*
G01X-170620D01*
G02X-168620Y247780I0J-2000D01*
G01Y246810D01*
G03X-166620Y244810I2000J0D01*
G01X-147310D01*
G02X-145470Y243580I-5J-1999D01*
G01X-145230Y243010D01*
X-145460Y241830D01*
X-170610Y216690D01*
G02X-172030Y216100I-1418J1409D01*
G01X-182330D01*
G02X-184330Y218100I0J2000D01*
G01Y218180D01*
X-185500Y219350D01*
X-208870D01*
G03X-210870Y217350I0J-2000D01*
G01Y202310D01*
G03X-208870Y200310I2000J0D01*
G01X-186330D01*
G03X-184330Y202310I0J2000D01*
G01Y202390D01*
X-183160Y203560D01*
X-178530D01*
G02X-176690Y202330I-5J-1999D01*
G01X-176450Y201760D01*
X-176680Y200580D01*
X-183080Y194190D01*
G02X-184500Y193600I-1418J1409D01*
G01X-223330D01*
G02X-225330Y195600I0J2000D01*
G01Y198310D01*
G02X-223330Y200310I2000J0D01*
G01X-220330D01*
G03X-218330Y202310I0J2000D01*
G01Y217350D01*
G03X-220330Y219350I-2000J0D01*
G01X-242870D01*
G03X-244870Y217350I0J-2000D01*
G01Y202310D01*
G03X-242870Y200310I2000J0D01*
G01X-239870D01*
G02X-237870Y198310I0J-2000D01*
G01Y195260D01*
G02X-238460Y193840I-1999J-2D01*
G01X-238700Y193600D01*
X-248580D01*
G02X-250580Y195600I0J2000D01*
G01Y211850D01*
G03X-252580Y213850I-2000J0D01*
G01X-267620D01*
G03X-269620Y211850I0J-2000D01*
G01Y206350D01*
G02X-271620Y204350I-2000J0D01*
G01X-291930D01*
X-292220Y204060D01*
G02X-293170Y203530I-1412J1414D01*
G01X-294150Y203290D01*
G03X-299490Y200310I2616J-10963D01*
G01X-320610Y179190D01*
G02X-322030Y178600I-1418J1409D01*
G01X-347080D01*
G02X-349080Y180600I0J2000D01*
G01Y183600D01*
G03X-351080Y185600I-2000J0D01*
G01X-366870D01*
X-367880Y186290D01*
X-368110Y186870D01*
G03X-370620Y190720I-10497J-4100D01*
G01X-370630D01*
X-386680Y206780D01*
G03X-394470Y210070I-7960J-7980D01*
G01X-394550D01*
X-458330D01*
G02X-460330Y212070I0J2000D01*
G01Y222350D01*
G03X-462330Y224350I-2000J0D01*
G01X-462450D01*
Y226580D01*
X-462350Y227010D01*
X-462250Y227220D01*
G03X-461130Y232120I-10150J4898D01*
G01Y284760D01*
G02X-460230Y286430I1999J0D01*
G03X-457680Y288630I-7160J10877D01*
G02X-456190Y289300I1493J-1328D01*
G01X-453210D01*
G02X-451720Y288630I-3J-1998D01*
G03X-434070Y307620I9717J8666D01*
G01X-434430Y307900D01*
X-434830Y308690D01*
X-434950Y312700D01*
X-434600Y313510D01*
X-434260Y313810D01*
G03X-451480Y329710I-7739J8894D01*
G02X-453090Y328890I-1615J1181D01*
G01X-456310D01*
G02X-457920Y329710I5J2001D01*
G03X-476290Y330440I-9478J-7011D01*
G01X-476590Y330100D01*
X-477400Y329750D01*
X-481410Y329870D01*
X-482200Y330270D01*
X-482480Y330630D01*
G03X-502520Y331370I-10326J-7930D01*
G02X-504010Y330700I-1493J1328D01*
G01X-506990D01*
G02X-508480Y331370I3J1998D01*
G03X-526010Y333120I-9718J-8669D01*
G02X-527210Y332720I-1200J1599D01*
G01X-532630D01*
X-533730Y333610D01*
X-533870Y334320D01*
G03X-535770Y339060I-14022J-2870D01*
G02X-536080Y340120I1688J1069D01*
G01Y371310D01*
G02X-534080Y373310I2000J0D01*
G01X-533580D01*
G03X-531580Y375310I0J2000D01*
G01Y414350D01*
G03X-533580Y416350I-2000J0D01*
G01X-558620D01*
G03X-560620Y414350I0J-2000D01*
G01Y375310D01*
G03X-558620Y373310I2000J0D01*
G01X-558120D01*
G02X-556120Y371310I0J-2000D01*
G01Y337460D01*
G03X-554700Y331270I14260J13D01*
G02X-554780Y329370I-1798J-876D01*
G03X-554820Y316100I11181J-6669D01*
G01X-554550Y315630D01*
X-554540Y314560D01*
X-556110Y311820D01*
G03X-556370Y310830I1740J-986D01*
G01Y286530D01*
G03X-554370Y284530I2000J0D01*
G01X-551870D01*
G02X-549870Y282530I0J-2000D01*
G01Y219400D01*
G03X-546580Y211440I11271J-2D01*
G01X-527960Y192830D01*
Y192820D01*
G03X-527530Y192420I7888J8048D01*
G02X-526870Y190930I-1341J-1485D01*
G01Y177310D01*
G03X-524870Y175310I2000J0D01*
G01X-521870D01*
G02X-519870Y173310I0J-2000D01*
G01Y156440D01*
G03X-516580Y148480I11271J-2D01*
G01X-516570D01*
X-404950Y36850D01*
G03X-401800Y34640I7953J7986D01*
G01X-401270Y34390D01*
X-400650Y33420D01*
Y32830D01*
G02X-402650Y30830I-2000J0D01*
G01X-620600D01*
G02X-622600Y32830I0J2000D01*
G37*
G36*
G01X105970Y1067100D02*
X105660Y1066520D01*
G03X198090Y974050I60737J-31719D01*
G01X198670Y974350D01*
X199980Y974310D01*
X204200Y971750D01*
G02X205400Y969610I-1300J-2135D01*
G01Y47330D01*
G02X202900Y44830I-2500J0D01*
G01X183900D01*
G02X181400Y47330I0J2500D01*
G01Y916790D01*
G03X180670Y918560I-2500J4D01*
G01X160130Y939100D01*
G03X158360Y939830I-1766J-1770D01*
G01X87430D01*
G02X85670Y940560I5J2499D01*
G01X77130Y949070D01*
G02X76400Y950840I1771J1766D01*
G01Y1023790D01*
G03X75670Y1025560I-2500J4D01*
G01X56140Y1045090D01*
G03X54370Y1045820I-1766J-1771D01*
G01X-487100Y1044860D01*
G03X-489600Y1042360I0J-2500D01*
G01Y950870D01*
G02X-490330Y949100I-2500J-4D01*
G01X-498870Y940560D01*
G02X-500640Y939830I-1766J1770D01*
G01X-570560D01*
G03X-572330Y939100I-4J-2500D01*
G01X-592870Y918560D01*
G03X-593600Y916790I1770J-1766D01*
G01Y504800D01*
G03X-591100Y502300I2500J0D01*
G01X-581100D01*
G02X-578600Y499800I0J-2500D01*
G01Y483120D01*
G02X-581100Y480620I-2500J0D01*
G01X-588890D01*
G03X-591390Y478120I0J-2500D01*
G01Y461540D01*
G03X-588890Y459040I2500J0D01*
G01X-581100D01*
G02X-578600Y456540I0J-2500D01*
G01Y453120D01*
G02X-581100Y450620I-2500J0D01*
G01X-589140D01*
G03X-591640Y448120I0J-2500D01*
G01Y427540D01*
G03X-589140Y425040I2500J0D01*
G01X-581100D01*
G02X-578600Y422540I0J-2500D01*
G01Y418120D01*
G02X-581100Y415620I-2500J0D01*
G01X-592390D01*
G03X-594890Y413120I0J-2500D01*
G01Y376540D01*
G03X-592390Y374040I2500J0D01*
G01X-581100D01*
G02X-578600Y371540I0J-2500D01*
G01Y371330D01*
G02X-581100Y368830I-2500J0D01*
G01X-620100D01*
G02X-622600Y371330I0J2500D01*
G01Y969610D01*
G02X-621400Y971750I2500J5D01*
G01X-617180Y974310D01*
X-615870Y974350D01*
X-615290Y974050D01*
G03X-522860Y1066520I31693J60751D01*
G01X-523170Y1067100D01*
X-523130Y1068410D01*
X-520570Y1072630D01*
G02X-518430Y1073830I2136J-1301D01*
G01X101230D01*
G02X103370Y1072630I4J-2501D01*
G01X105930Y1068410D01*
X105970Y1067100D01*
G37*
G36*
G01X-320040Y270410D02*
X-495490Y445860D01*
G02X-496080Y447280I1410J1418D01*
G01Y485230D01*
G03X-500470Y495840I-15020J-1D01*
G01X-500480Y495850D01*
X-537560Y532930D01*
G03X-548030Y537320I-10612J-10629D01*
G01X-548080D01*
X-583580D01*
G02X-585580Y539320I0J2000D01*
G01Y913680D01*
G02X-584990Y915090I1998J-8D01*
G01X-568860Y931220D01*
G02X-567450Y931810I1418J-1408D01*
G01X-497110D01*
G03X-495690Y932400I2J2000D01*
G01X-482170Y945920D01*
G03X-481580Y947340I-1410J1418D01*
G01Y1034860D01*
G02X-479580Y1036860I2000J0D01*
G01X-426890Y1036950D01*
G02X-425210Y1036040I3J-2000D01*
G01X-423100Y1032790D01*
X-423020Y1031790D01*
X-423230Y1031320D01*
G03X-423920Y1020110I14630J-6527D01*
G01X-423760Y1019580D01*
X-424020Y1018510D01*
X-427310Y1015220D01*
X-428380Y1014960D01*
X-428910Y1015120D01*
G03X-428730Y984540I-4690J-15318D01*
G01X-428190Y984710D01*
X-427110Y984450D01*
X-423950Y981290D01*
X-423690Y980210D01*
X-423860Y979670D01*
G03X-394370Y967450I15263J-4859D01*
G02X-392590Y968530I1777J-921D01*
G01X-281760D01*
G02X-279920Y967300I-5J-1999D01*
G01X-279680Y966730D01*
X-279910Y965550D01*
X-288810Y956660D01*
G02X-290230Y956070I-1418J1409D01*
G01X-377280D01*
G03X-381380Y955260I10J-10830D01*
G01X-384850Y953840D01*
G03X-385510Y953400I758J-1853D01*
G01X-436580Y902330D01*
G03X-439870Y894370I7981J-7958D01*
G01Y487500D01*
G03X-436580Y479540I11271J-2D01*
G01X-436570D01*
X-366580Y409540D01*
G02X-365990Y408120I-1409J-1418D01*
G01Y332020D01*
G03X-362700Y324060I11271J-2D01*
G01X-362690D01*
X-329860Y291220D01*
G03X-322070Y287930I7960J7980D01*
G01X-321990D01*
X-251300D01*
G03X-243340Y291220I2J11271D01*
G01Y291230D01*
X-232120Y302440D01*
G02X-230700Y303030I1418J-1409D01*
G01X-170620D01*
G02X-168620Y301030I0J-2000D01*
G01Y286350D01*
G02X-170620Y284350I-2000J0D01*
G01X-173080D01*
G02X-175080Y286350I0J2000D01*
G01Y286850D01*
G03X-177080Y288850I-2000J0D01*
G01X-193950D01*
X-195120Y287680D01*
Y287620D01*
X-208890D01*
G03X-210890Y285620I0J-2000D01*
G01Y271820D01*
G02X-212890Y269820I-2000J0D01*
G01X-318620D01*
G02X-320040Y270410I-2J2000D01*
G37*
G36*
G01X-397050Y46690D02*
X-506740Y156380D01*
G02X-507330Y157800I1409J1418D01*
G01Y173310D01*
G02X-505330Y175310I2000J0D01*
G01X-502330D01*
G03X-500330Y177310I0J2000D01*
G01Y187530D01*
G02X-498330Y189530I2000J0D01*
G01X-488870D01*
G02X-486870Y187530I0J-2000D01*
G01Y177310D01*
G03X-484870Y175310I2000J0D01*
G01X-481870D01*
G02X-479870Y173310I0J-2000D01*
G01Y159370D01*
G03X-476580Y151410I11271J-2D01*
G01X-476570D01*
X-382020Y56850D01*
G03X-374060Y53560I7958J7981D01*
G01X-13140D01*
G03X-5180Y56850I2J11271D01*
G01Y56860D01*
X-280Y61750D01*
G02X1900Y62180I1412J-1415D01*
G01X2460Y61950D01*
X3130Y60950D01*
Y48100D01*
G02X1130Y46100I-2000J0D01*
G01X-395630D01*
G02X-397050Y46690I-2J1999D01*
G37*
G36*
G01X-374120Y66690D02*
X-466740Y159310D01*
G02X-467330Y160730I1409J1418D01*
G01Y173310D01*
G02X-465330Y175310I2000J0D01*
G01X-462330D01*
G03X-460330Y177310I0J2000D01*
G01Y187530D01*
G02X-458330Y189530I2000J0D01*
G01X-425500D01*
G02X-424080Y188940I2J-1999D01*
G01X-404490Y169360D01*
Y169350D01*
G03X-399580Y166480I7959J7981D01*
G01X-398930Y166300D01*
X-398120Y165230D01*
Y161060D01*
G03X-396120Y159060I2000J0D01*
G01X-381870D01*
G02X-379870Y157060I0J-2000D01*
G01Y149400D01*
G03X-376580Y141440I11271J-2D01*
G01X-338990Y103860D01*
Y103850D01*
G03X-331030Y100560I7958J7981D01*
G01X-312120D01*
G02X-310120Y98560I0J-2000D01*
G01Y95560D01*
G03X-308120Y93560I2000J0D01*
G01X-291830D01*
X-290820Y92870D01*
X-290590Y92290D01*
G03X-288080Y88440I10497J4100D01*
G01X-283490Y83860D01*
Y83850D01*
G03X-275530Y80560I7958J7981D01*
G01X-129600D01*
G03X-118540Y89650I0J11273D01*
G01X-118470Y90040D01*
X-118040Y90690D01*
X-115080Y92720D01*
X-114320Y92880D01*
X-113930Y92820D01*
G03X-102420Y97420I2033J11612D01*
G02X-100810Y98240I1615J-1181D01*
G01X-97590D01*
G02X-95980Y97420I-5J-2001D01*
G03X-82810Y93230I9481J7009D01*
G01X-82460Y93350D01*
X-81750Y93320D01*
X-78650Y92010D01*
X-78130Y91520D01*
X-77970Y91190D01*
G03X-75830Y88190I10122J4957D01*
G01X-75820D01*
X-71490Y83850D01*
G03X-63530Y80560I7958J7981D01*
G01X-43670D01*
G03X-35710Y83850I2J11271D01*
G01Y83860D01*
X-8120Y111440D01*
G03X-6640Y113270I-7976J7964D01*
G01X-6380Y113680D01*
X-5560Y114150D01*
X-1360Y114390D01*
X-500Y114010D01*
X-190Y113630D01*
G03X7330Y110560I6591J5399D01*
G02X8660Y110240I225J-1987D01*
G01X9710Y109540D01*
G02X10530Y108400I-1111J-1664D01*
G03X13420Y103410I10873J2965D01*
G01X18510Y98330D01*
Y98320D01*
G03X21770Y96060I7951J7987D01*
G01X22300Y95810D01*
X22930Y94830D01*
Y88070D01*
G02X20930Y86070I-2000J0D01*
G01X10970D01*
G03X3010Y82780I-2J-11271D01*
G01X-13080Y66690D01*
G02X-14500Y66100I-1418J1409D01*
G01X-372700D01*
G02X-374120Y66690I-2J1999D01*
G37*
G36*
G01X-394370Y982150D02*
G03X-413470Y990060I-14232J-7350D01*
G01X-414010Y989890D01*
X-415090Y990150D01*
X-418250Y993310D01*
X-418510Y994390D01*
X-418340Y994930D01*
G03X-418280Y1004490I-15260J4876D01*
G01X-418440Y1005020D01*
X-418180Y1006090D01*
X-414890Y1009380D01*
X-413820Y1009640D01*
X-413290Y1009480D01*
G03X-394370Y1017450I4686J15319D01*
G02X-392590Y1018530I1777J-921D01*
G01X-364530D01*
G02X-363110Y1017940I2J-1999D01*
G01X-349490Y1004330D01*
Y1004320D01*
G03X-341530Y1001030I7958J7981D01*
G01X-307140D01*
G02X-305140Y999030I0J-2000D01*
G01Y983070D01*
G02X-307140Y981070I-2000J0D01*
G01X-392590D01*
G02X-394370Y982150I-3J2001D01*
G37*
G36*
G01X-91510Y-314100D02*
G02X-93120Y-317330I-4978J465D01*
G01X-98100Y-321870D01*
G02X-101470Y-323170I-3363J3701D01*
G01X-388600D01*
G02X-393600Y-318170I0J5000D01*
G01Y-60170D01*
G02X-388600Y-55170I5000J0D01*
G01X-88600D01*
G02X-83600Y-60170I0J-5000D01*
G01Y-77510D01*
G02X-88600Y-82510I-5000J0D01*
G01X-100890D01*
G03X-105890Y-87510I0J-5000D01*
G01Y-98280D01*
X-107120D01*
Y-107440D01*
G02X-112120Y-112440I-5000J0D01*
G01X-113540D01*
X-115950Y-110950D01*
X-116590Y-109670D01*
G03X-143660Y-92780I-27309J-13630D01*
G01X-143670D01*
G02X-147170Y-91300I51J5000D01*
G01X-152130Y-86300D01*
G02X-153580Y-82780I3550J3521D01*
G01Y-80180D01*
G03X-158580Y-75180I-5000J0D01*
G01X-195620D01*
Y-76070D01*
G03X-207640Y-77320I-3982J-20130D01*
G02X-211560I-1960J4600D01*
G03X-229020Y-77970I-8039J-18880D01*
G02X-233850Y-77840I-2297J4441D01*
G03X-264340Y-88270I-10749J-18357D01*
G02X-266360Y-90670I-4643J1857D01*
G01X-268910Y-92240D01*
G02X-272060Y-92950I-2616J4262D01*
G03X-294600Y-99650I-3244J-30350D01*
G01X-295280Y-100200D01*
X-296890Y-100780D01*
X-298780D01*
G03X-318380Y-109110I125J-27519D01*
G02X-318440Y-109170I-3566J3506D01*
G01X-318680Y-109400D01*
X-320490Y-110150D01*
X-326530D01*
G03X-345960Y-118180I-1J-27520D01*
G01X-350570Y-122790D01*
G03X-358620Y-142230I19470J-19449D01*
G01Y-159170D01*
G03X-348610Y-177890I22509J0D01*
G01X-348600D01*
G02X-346390Y-182050I-2792J-4150D01*
G01X-343480Y-184960D01*
X-326640D01*
G02X-321640Y-189960I0J-5000D01*
G01Y-190460D01*
G03X-316640Y-195460I5000J0D01*
G01X-302560D01*
G03X-297560Y-190460I0J5000D01*
G01Y-178780D01*
G02X-295660Y-174850I5001J6D01*
G03X-287550Y-161730I-13940J17683D01*
G01Y-161710D01*
X-287360Y-160830D01*
X-286420Y-159320D01*
X-280490Y-154780D01*
G02X-277150Y-153760I3039J-3972D01*
G03X-260880Y-150200I1859J30463D01*
G01X-258510Y-149600D01*
G02X-256130Y-150210I-14J-5001D01*
G01X-250890Y-153050D01*
Y-153960D01*
X-236870D01*
G02X-231870Y-158960I0J-5000D01*
G01Y-184690D01*
G03X-226870Y-189690I5000J0D01*
G01X-219870D01*
G02X-214880Y-194300I0J-5006D01*
G01Y-207980D01*
G03X-213680Y-210750I3783J-6D01*
G01X-203550Y-220880D01*
G03X-200780Y-222080I2764J2583D01*
G01X-194650D01*
X-191870Y-224460D01*
X-191580Y-226280D01*
G03X-189690Y-229860I6191J980D01*
G01X-188930Y-230570D01*
X-188120Y-232460D01*
Y-236070D01*
G03X-183120Y-241070I5000J0D01*
G01X-174080D01*
G03X-169080Y-236070I0J5000D01*
G01Y-195530D01*
G03X-174080Y-190530I-5000J0D01*
G01X-180330D01*
G02X-185330Y-185530I0J5000D01*
G01Y-178630D01*
X-184100Y-176390D01*
X-183020Y-175700D01*
G03X-181420Y-174410I-5141J8014D01*
G01X-176860Y-169850D01*
G03X-174940Y-167080I-6740J6722D01*
G01Y-167070D01*
X-174930D01*
G02X-172630Y-164680I4548J-2075D01*
G01X-166220Y-161480D01*
X-164520Y-161270D01*
X-163680Y-161460D01*
G03X-161560Y-161690I2135J9791D01*
G01X-153890D01*
G02X-148890Y-166690I0J-5000D01*
G01Y-175090D01*
G03X-143890Y-180090I5000J0D01*
G01X-142890D01*
G02X-137890Y-185090I0J-5000D01*
G01Y-185530D01*
G02X-142890Y-190530I-5000J0D01*
G01X-153120D01*
G03X-158120Y-195530I0J-5000D01*
G01Y-236070D01*
G03X-153120Y-241070I5000J0D01*
G01X-143290D01*
G02X-138290Y-246070I0J-5000D01*
G01Y-246290D01*
G03X-133290Y-251290I5000J0D01*
G01X-132440D01*
X-129520Y-254210D01*
Y-300270D01*
G03X-124520Y-305270I5000J0D01*
G01X-107480D01*
G03X-102480Y-300270I0J5000D01*
G01Y-299700D01*
X-98020Y-299210D01*
G03X-93960Y-297790I-1031J9461D01*
G01X-93360Y-297410D01*
X-92010Y-297020D01*
X-88600D01*
G02X-83600Y-302020I0J-5000D01*
G01Y-305400D01*
X-85510Y-308030D01*
X-87060Y-308530D01*
G03X-91510Y-314100I2011J-6169D01*
G37*
G36*
G01X-331090Y113690D02*
X-366740Y149340D01*
G02X-367330Y150760I1409J1418D01*
G01Y157060D01*
G02X-365330Y159060I2000J0D01*
G01X-351080D01*
G03X-349080Y161060I0J2000D01*
G01Y164060D01*
G02X-347080Y166060I2000J0D01*
G01X-320670D01*
G03X-312710Y169350I2J11271D01*
G01Y169360D01*
X-293340Y188720D01*
G02X-291920Y189310I1418J-1409D01*
G01X-271620D01*
G02X-269620Y187310I0J-2000D01*
G01Y181810D01*
G03X-267620Y179810I2000J0D01*
G01X-249870D01*
G02X-247870Y177810I0J-2000D01*
G01Y167850D01*
G02X-249870Y165850I-2000J0D01*
G01X-267620D01*
G03X-269620Y163850I0J-2000D01*
G01Y158350D01*
G02X-271620Y156350I-2000J0D01*
G01X-290620D01*
G03X-292620Y154350I0J-2000D01*
G01Y143310D01*
G03X-290620Y141310I2000J0D01*
G01X-290540D01*
X-289370Y140140D01*
Y130450D01*
G02X-289710Y129340I-2000J5D01*
G03X-291370Y123920I8010J-5418D01*
G01Y122100D01*
G02X-293370Y120100I-2000J0D01*
G01X-308120D01*
G03X-310120Y118100I0J-2000D01*
G01Y115100D01*
G02X-312120Y113100I-2000J0D01*
G01X-329670D01*
G02X-331090Y113690I-2J1999D01*
G37*
G36*
G01X-327560Y320820D02*
X-342860Y336120D01*
G02X-343450Y337540I1409J1418D01*
G01Y404790D01*
X-343440Y404800D01*
Y413630D01*
G03X-346730Y421590I-11271J2D01*
G01X-367050Y441910D01*
G02Y444740I1413J1415D01*
G01X-366570Y445220D01*
X-365230Y445400D01*
X-364640Y445060D01*
G03X-359200Y443560I5620J9768D01*
G01X-359120D01*
X-327620D01*
G02X-325780Y442330I-5J-1999D01*
G01X-325540Y441760D01*
X-325770Y440580D01*
X-333100Y433250D01*
X-333110D01*
G03X-336620Y424760I8511J-8489D01*
G01Y357900D01*
G03X-333110Y349410I12021J-1D01*
G01X-325090Y341400D01*
G03X-323680Y340810I1418J1408D01*
G01X-323320D01*
X-323190Y340680D01*
X-321010D01*
G02X-319410Y339880I0J-2000D01*
G03X-316930Y337380I10397J7833D01*
G01X-316570Y337100D01*
X-316170Y336310D01*
X-316050Y332300D01*
X-316400Y331490D01*
X-316740Y331190D01*
G03X-320750Y323300I7737J-8896D01*
G01X-320800Y322720D01*
X-321500Y321800D01*
X-325460Y320350D01*
G02X-327560Y320820I-682J1881D01*
G37*
G36*
G01X-73350Y440940D02*
X-102710Y470300D01*
Y470310D01*
G03X-110670Y473600I-7958J-7981D01*
G01X-165570D01*
G02X-166990Y474190I-2J1999D01*
G01X-230510Y537700D01*
X-230660Y538060D01*
G03X-237000Y542240I-6340J-2718D01*
G01X-343810D01*
G02X-345230Y542830I-2J1999D01*
G01X-354240Y551840D01*
G02X-354830Y553260I1409J1418D01*
G01Y818900D01*
G02X-354240Y820320I1999J2D01*
G01X-346590Y827970D01*
G02X-345170Y828560I1418J-1409D01*
G01X-241390D01*
X-241220D01*
G03X-233430Y831850I-170J11270D01*
G01X-87430Y977860D01*
X-87420D01*
G03X-84640Y982480I-7986J7952D01*
G02X-83750Y983610I1913J-591D01*
G03X-80680Y986130I-6630J11207D01*
G02X-79190Y986800I1493J-1328D01*
G01X-76210D01*
G02X-74720Y986130I-3J-1998D01*
G03X-56330Y1004520I9720J8670D01*
G02X-57000Y1006010I1328J1493D01*
G01Y1008990D01*
G02X-56330Y1010480I1998J-3D01*
G03X-54930Y1011950I-8701J9688D01*
G02X-53380Y1012680I1545J-1271D01*
G01X-42940D01*
G02X-41530Y1012090I-8J-1999D01*
G01X-2710Y973270D01*
G02X-2120Y971860I-1409J-1418D01*
G01Y935320D01*
G02X-4120Y933320I-2000J0D01*
G03X-6120Y931320I0J-2000D01*
G01Y916280D01*
G03X-4120Y914280I2000J0D01*
G01X12880D01*
G02X14880Y912280I0J-2000D01*
G01Y907280D01*
G03X16880Y905280I2000J0D01*
G01X35920D01*
G03X37920Y907280I0J2000D01*
G01Y907360D01*
X39090Y908530D01*
X41880D01*
G02X43880Y906530I0J-2000D01*
G01Y903560D01*
G03X45880Y901560I2000J0D01*
G01X45960D01*
X47130Y900390D01*
Y899100D01*
G02X45130Y897100I-2000J0D01*
G01X45050D01*
X43880Y895930D01*
Y872560D01*
G03X45880Y870560I2000J0D01*
G01X60920D01*
G03X62920Y872560I0J2000D01*
G01Y895100D01*
G03X60920Y897100I-2000J0D01*
G01X60840D01*
X59670Y898270D01*
Y899560D01*
G02X61670Y901560I2000J0D01*
G01X61750D01*
X62920Y902730D01*
Y926100D01*
G03X60920Y928100I-2000J0D01*
G01X45880D01*
G03X43880Y926100I0J-2000D01*
G01Y923070D01*
G02X41880Y921070I-2000J0D01*
G01X39920D01*
G02X37920Y923070I0J2000D01*
G01Y923150D01*
X36750Y924320D01*
X36690D01*
Y939090D01*
G03X34690Y941090I-2000J0D01*
G01X14920D01*
G02X12920Y943090I0J2000D01*
G01Y959530D01*
G02X14920Y961530I2000J0D01*
G01X33920D01*
G03X35920Y963530I0J2000D01*
G01Y986070D01*
G03X33920Y988070I-2000J0D01*
G01X33650D01*
X30810Y991620D01*
X30610Y992500D01*
X30710Y992950D01*
G03X30110Y998460I-8310J1883D01*
G01X29920Y998860D01*
Y999560D01*
G02X31920Y1001560I2000J0D01*
G01X32920Y1002560D01*
Y1026100D01*
G03X30920Y1028100I-2000J0D01*
G01X15880D01*
G03X13880Y1026100I0J-2000D01*
G01Y1002560D01*
X14290Y1002150D01*
G02X14880Y1000730I-1410J-1418D01*
G01Y998860D01*
X14690Y998460D01*
G03X16310Y988870I7709J-3630D01*
G02X16880Y987470I-1430J-1398D01*
G01Y984320D01*
G02X14880Y982320I-2000J0D01*
G01X10340D01*
G02X8930Y982910I8J1999D01*
G01X-32230Y1024060D01*
G03X-41070Y1027720I-8845J-8859D01*
G01X-53380D01*
G02X-54930Y1028450I-5J2001D01*
G03X-74720Y1028870I-10075J-8249D01*
G02X-76210Y1028200I-1493J1328D01*
G01X-79190D01*
G02X-80680Y1028870I3J1998D01*
G03X-93020Y1032950I-9712J-8672D01*
G01X-93510Y1032850D01*
X-94470Y1033140D01*
X-95460Y1034120D01*
G02X-95890Y1036300I1418J1412D01*
G01X-95660Y1036870D01*
X-94660Y1037540D01*
X51260Y1037790D01*
G02X52680Y1037210I12J-2000D01*
G01X58380Y1031510D01*
G02X58810Y1029330I-1418J-1412D01*
G01X58570Y1028770D01*
X57580Y1028100D01*
X45880D01*
G03X43880Y1026100I0J-2000D01*
G01Y1003560D01*
G03X45880Y1001560I2000J0D01*
G01X60920D01*
G03X62920Y1003560I0J2000D01*
G01Y1005310D01*
G02X64920Y1007310I2000J0D01*
G01X66380D01*
G02X68380Y1005310I0J-2000D01*
G01Y988840D01*
G02X66380Y986840I-2000J0D01*
G01X50110D01*
G03X48110Y984840I0J-2000D01*
G01Y964760D01*
G03X50110Y962760I2000J0D01*
G01X66380D01*
G02X68380Y960760I0J-2000D01*
G01Y947300D01*
G03X68970Y945880I2001J-1D01*
G01X82500Y932390D01*
G03X83910Y931810I1409J1421D01*
G01X155250D01*
G02X156660Y931220I-8J-1998D01*
G01X172790Y915090D01*
G02X173380Y913680I-1408J-1418D01*
G01Y456820D01*
G02X171380Y454820I-2000J0D01*
G01X157790D01*
G02X155790Y456820I0J2000D01*
G01Y470340D01*
G03X153790Y472340I-2000J0D01*
G01X128920D01*
G02X126920Y474340I0J2000D01*
G01Y493650D01*
X125750Y494820D01*
X125690D01*
Y508590D01*
G03X123690Y510590I-2000J0D01*
G01X107170D01*
G02X105170Y512590I0J2000D01*
G01Y867530D01*
G03X103070Y873830I-10511J-4D01*
G01X102870Y874090D01*
X102670Y874700D01*
Y876280D01*
G03X99380Y884240I-11271J2D01*
G01X96810Y886800D01*
Y886810D01*
G03X94000Y888850I-7946J-7991D01*
G01X93500Y889110D01*
X92920Y890060D01*
Y895100D01*
G03X90920Y897100I-2000J0D01*
G01X75880D01*
G03X73880Y895100I0J-2000D01*
G01Y872560D01*
G03X75880Y870560I2000J0D01*
G01X89770D01*
X90760Y869910D01*
X91000Y869360D01*
G03X92230Y867230I9699J4181D01*
G02X92630Y866040I-1599J-1200D01*
G01Y799140D01*
G02X90630Y797140I-2000J0D01*
G01X89970D01*
X88920Y797910D01*
X88720Y798540D01*
G03X85950Y803120I-10753J-3376D01*
G01X77190Y811880D01*
X76900Y812470D01*
X76860Y812810D01*
G03X67390Y803340I-8460J-1010D01*
G01X67730Y803300D01*
X68320Y803010D01*
X76110Y795220D01*
G02X76700Y793800I-1409J-1418D01*
G01Y658630D01*
G02X75880Y657010I-2001J-5D01*
G01X72880Y654820D01*
X71950Y654670D01*
X71490Y654820D01*
G03X62200Y641430I-2594J-8118D01*
G02X62630Y640200I-1569J-1239D01*
G01Y618800D01*
G02X62200Y617570I-1999J9D01*
G03X73600Y605190I6694J-5275D01*
G01X73850Y605360D01*
X74400Y605520D01*
X74700D01*
G02X76700Y603520I0J-2000D01*
G01Y601300D01*
G02X76270Y600070I-1999J9D01*
G03X74470Y595450I6698J-5270D01*
G01X74410Y594660D01*
X73270Y593600D01*
X14220D01*
Y594100D01*
X13520D01*
X12350Y595270D01*
Y596210D01*
X12360Y596330D01*
G03X10600Y602570I-8463J981D01*
G02X10170Y603800I1569J1239D01*
G01Y614840D01*
G02X11400Y616680I1999J-5D01*
G01X11970Y616920D01*
X13150Y616690D01*
X15110Y614720D01*
X15400Y614130D01*
X15440Y613790D01*
G03X24910Y623260I8460J1010D01*
G01X24570Y623300D01*
X23980Y623590D01*
X23260Y624310D01*
G02X22670Y625730I1409J1418D01*
G01Y762730D01*
G03X19380Y770690I-11271J2D01*
G01X19370D01*
X-5210Y795280D01*
G03X-13170Y798570I-7958J-7981D01*
G01X-139600D01*
G02X-140830Y799000I9J1999D01*
G03X-153990Y789080I-5271J-6696D01*
G01X-153800Y788610D01*
X-153900Y787630D01*
X-156030Y784450D01*
G02X-157690Y783570I-1658J1121D01*
G01X-317830D01*
G02X-319250Y784160I-2J1999D01*
G01X-327470Y792380D01*
X-327760Y792970D01*
X-327800Y793310D01*
G03X-337270Y783840I-8460J-1010D01*
G01X-336930Y783800D01*
X-336340Y783510D01*
X-327150Y774320D01*
G03X-319360Y771030I7960J7980D01*
G01X-319280D01*
X-19530D01*
G02X-18110Y770440I2J-1999D01*
G01X-2960Y755290D01*
G02X-2370Y753870I-1409J-1418D01*
G01Y626910D01*
G02X-3100Y625360I-2000J-5D01*
G01X-5830Y623110D01*
X-6690Y622890D01*
X-7140Y622980D01*
G03X-14050Y621320I-1646J-8361D01*
G02X-15280Y620890I-1239J1569D01*
G01X-129990D01*
G02X-131410Y621480I-2J1999D01*
G01X-137310Y627380D01*
X-137600Y627970D01*
X-137640Y628310D01*
G03X-147110Y618840I-8460J-1010D01*
G01X-146770Y618800D01*
X-146180Y618510D01*
X-139310Y611640D01*
G03X-131350Y608350I7958J7981D01*
G01X-26460D01*
G02X-24460Y606350I0J-2000D01*
G01Y605810D01*
X-24980Y604900D01*
X-25440Y604630D01*
G03X-26370Y604000I4304J-7355D01*
G02X-27600Y603570I-1239J1569D01*
G01X-302830D01*
G02X-304250Y604160I-2J1999D01*
G01X-327470Y627380D01*
X-327760Y627970D01*
X-327800Y628310D01*
G03X-337270Y618840I-8460J-1010D01*
G01X-336930Y618800D01*
X-336340Y618510D01*
X-312150Y594330D01*
Y594320D01*
G03X-304190Y591030I7958J7981D01*
G01X-78870D01*
G02X-76870Y589030I0J-2000D01*
G01Y572310D01*
G03X-74870Y570310I2000J0D01*
G01X-52330D01*
G03X-50330Y572310I0J2000D01*
G01Y572390D01*
X-49160Y573560D01*
X16580D01*
Y573060D01*
X75050D01*
X76220Y574230D01*
Y574640D01*
X82290Y568570D01*
G02X82880Y567150I-1409J-1418D01*
G01Y470010D01*
G02X82290Y468590I-1999J-2D01*
G01X77630Y463930D01*
G02X75450Y463500I-1412J1415D01*
G01X74890Y463730D01*
X74220Y464730D01*
Y471100D01*
G03X72220Y473100I-2000J0D01*
G01X-43420D01*
G03X-45420Y471100I0J-2000D01*
G01Y453990D01*
G02X-46010Y452570I-1999J-2D01*
G01X-54420Y444160D01*
G02X-56600Y443730I-1412J1415D01*
G01X-57160Y443960D01*
X-57830Y444960D01*
Y451800D01*
X-57530Y452540D01*
X-57330Y452730D01*
Y484310D01*
G02X-55330Y486310I2000J0D01*
G01X-52330D01*
G03X-50330Y488310I0J2000D01*
G01Y500560D01*
G02X-48330Y502560I2000J0D01*
G01X-47420D01*
G02X-45420Y500560I0J-2000D01*
G01Y486560D01*
G03X-43420Y484560I2000J0D01*
G01X72220D01*
G03X74220Y486560I0J2000D01*
G01Y505640D01*
G03X73760Y506920I-2000J4D01*
G01X72420Y508530D01*
X72200Y509390D01*
X72280Y509820D01*
G03X70600Y516640I-8379J1553D01*
G02X70170Y517870I1569J1239D01*
G01Y539060D01*
G02X72170Y541060I2000J0D01*
G01X74220D01*
G03X76220Y543060I0J2000D01*
G01Y559600D01*
G03X74220Y561600I-2000J0D01*
G01X14220D01*
Y562100D01*
X-43420D01*
G03X-45420Y560100I0J-2000D01*
G01Y543560D01*
G03X-43420Y541560I2000J0D01*
G02X-41420Y539560I0J-2000D01*
G01Y517100D01*
G02X-43420Y515100I-2000J0D01*
G01X-48330D01*
G02X-50330Y517100I0J2000D01*
G01Y533350D01*
G03X-52330Y535350I-2000J0D01*
G01X-55330D01*
G02X-57330Y537350I0J2000D01*
G01Y538310D01*
G02X-55330Y540310I2000J0D01*
G01X-52330D01*
G03X-50330Y542310I0J2000D01*
G01Y557350D01*
G03X-52330Y559350I-2000J0D01*
G01X-75950D01*
G02X-77370Y559940I-2J1999D01*
G01X-97710Y580280D01*
G03X-105670Y583570I-7958J-7981D01*
G01X-329760D01*
G02X-330990Y584000I9J1999D01*
G03Y570600I-5270J-6700D01*
G02X-329760Y571030I1239J-1569D01*
G01X-107030D01*
G02X-105610Y570440I2J-1999D01*
G01X-82020Y546860D01*
Y546850D01*
G03X-78140Y544330I7947J7989D01*
G01X-77560Y544100D01*
X-76870Y543090D01*
Y542310D01*
G03X-74870Y540310I2000J0D01*
G01X-71870D01*
G02X-69870Y538310I0J-2000D01*
G01Y537350D01*
G02X-71870Y535350I-2000J0D01*
G01X-74870D01*
G03X-76870Y533350I0J-2000D01*
G01Y517100D01*
G02X-78870Y515100I-2000J0D01*
G01X-135000D01*
G03X-142960Y511810I-2J-11271D01*
G01X-146180Y508590D01*
X-146770Y508300D01*
X-147110Y508260D01*
G03X-137640Y498790I1010J-8460D01*
G01X-137600Y499130D01*
X-137310Y499720D01*
X-135060Y501970D01*
G02X-133640Y502560I1418J-1409D01*
G01X-78870D01*
G02X-76870Y500560I0J-2000D01*
G01Y488310D01*
G03X-74870Y486310I2000J0D01*
G01X-71870D01*
G02X-69870Y484310I0J-2000D01*
G01Y458360D01*
X-70170Y457620D01*
X-70370Y457430D01*
Y442790D01*
G02X-71600Y440950I-1999J5D01*
G01X-72170Y440710D01*
X-73350Y440940D01*
G37*
G36*
G01X-261080Y115100D02*
Y118100D01*
G03X-263080Y120100I-2000J0D01*
G01X-276830D01*
G02X-278830Y122100I0J2000D01*
G01Y122510D01*
X-278660Y123070D01*
X-278490Y123320D01*
G03X-276830Y128730I-8010J5418D01*
G01Y128740D01*
Y139310D01*
G02X-274830Y141310I2000J0D01*
G01X-271620D01*
G02X-269620Y139310I0J-2000D01*
G01Y133810D01*
G03X-267620Y131810I2000J0D01*
G01X-251750D01*
X-250580Y132980D01*
Y133270D01*
X-249270Y133760D01*
G03X-245210Y136350I-3891J10577D01*
G01X-238630Y142940D01*
X-238620D01*
G03X-235330Y150900I-7981J7958D01*
G01Y178400D01*
G02X-234740Y179820I1999J2D01*
G01X-234090Y180470D01*
G02X-232670Y181060I1418J-1409D01*
G01X-183140D01*
G03X-175180Y184350I2J11271D01*
G01Y184360D01*
X-172380Y187150D01*
G02X-170200Y187580I1412J-1415D01*
G01X-169640Y187350D01*
X-168970Y186350D01*
Y142370D01*
G02X-169870Y140700I-1999J0D01*
G03X-173570Y137000I7170J-10870D01*
G02X-175240Y136100I-1670J1099D01*
G01X-227530D01*
G03X-235490Y132810I-2J-11271D01*
G01Y132800D01*
X-254610Y113690D01*
G02X-256030Y113100I-1418J1409D01*
G01X-259080D01*
G02X-261080Y115100I0J2000D01*
G37*
G36*
G01X-257330Y401830D02*
G03X-260620Y409790I-11271J2D01*
G01X-270660Y419830D01*
X-270950Y420790D01*
X-270850Y421280D01*
G03X-271700Y429190I-12751J2630D01*
G01X-271910Y429660D01*
X-271830Y430660D01*
X-269720Y433900D01*
G02X-268050Y434810I1676J-1089D01*
G01X-253340D01*
G02X-251920Y434220I2J-1999D01*
G01X-203210Y385510D01*
G02X-202620Y384090I-1409J-1418D01*
G01Y382350D01*
G02X-204620Y380350I-2000J0D01*
G01X-205120D01*
Y380290D01*
X-206290Y379120D01*
X-218890D01*
G03X-220890Y377120I0J-2000D01*
G01Y365570D01*
G02X-222890Y363570I-2000J0D01*
G01X-247670D01*
G02X-249090Y364160I-2J1999D01*
G01X-256740Y371810D01*
G02X-257330Y373230I1409J1418D01*
G01Y401830D01*
G37*
G36*
G01X-261080Y95100D02*
Y98560D01*
G02X-259080Y100560I2000J0D01*
G01X-254670D01*
G03X-246710Y103850I2J11271D01*
G01X-227590Y122970D01*
G02X-226170Y123560I1418J-1409D01*
G01X-175240D01*
G02X-173570Y122660I0J-1999D01*
G03X-170630Y119510I10856J7185D01*
G01X-170270Y119230D01*
X-169870Y118440D01*
X-169750Y114430D01*
X-170100Y113620D01*
X-170440Y113320D01*
G03X-173140Y98960I7742J-8889D01*
G01X-172900Y98490D01*
X-172930Y97440D01*
X-174970Y94060D01*
G02X-176690Y93100I-1709J1042D01*
G01X-259080D01*
G02X-261080Y95100I0J2000D01*
G37*
G36*
G01X-152980Y138500D02*
G03X-155530Y140700I-9710J-8677D01*
G02X-156430Y142370I1099J1670D01*
G01Y192290D01*
G02X-155840Y193710I1999J2D01*
G01X-154570Y194990D01*
X-144770Y204780D01*
G02X-142830Y205290I1410J-1419D01*
G01X-138960Y204230D01*
X-138200Y203470D01*
X-138070Y202940D01*
G03X-104390Y212560I16970J4356D01*
G01X-104560Y213100D01*
X-104290Y214180D01*
X-82530Y235940D01*
G02X-80350Y236370I1412J-1415D01*
G01X-79790Y236140D01*
X-79120Y235140D01*
Y230720D01*
G03X-78530Y229310I1998J8D01*
G01X-78420Y229200D01*
X-78120Y228460D01*
Y224610D01*
G02X-79200Y222840I-1999J5D01*
G03X-57070Y196800I8105J-15536D01*
G01X-56680Y197330D01*
X-55460Y197710D01*
X-51240Y196310D01*
G02X-49870Y194410I-631J-1899D01*
G01Y187260D01*
G02X-50460Y185840I-1999J-2D01*
G01X-61610Y174690D01*
G02X-63030Y174100I-1418J1409D01*
G01X-118500D01*
G03X-126460Y170810I-2J-11271D01*
G01X-140270Y156990D01*
X-140280D01*
G03X-143570Y149030I7981J-7958D01*
G01Y142370D01*
G02X-144470Y140700I-1999J0D01*
G03X-147020Y138500I7160J-10877D01*
G02X-148510Y137830I-1493J1328D01*
G01X-151490D01*
G02X-152980Y138500I3J1998D01*
G37*
G36*
G01X-160600Y257830D02*
Y274280D01*
G02X-155600Y279280I5000J0D01*
G01X-147580D01*
G03X-142580Y284280I0J5000D01*
G01Y345140D01*
G02X-141450Y348300I4999J-6D01*
G01X-136910Y353870D01*
X-135440Y354760D01*
X-134590Y354930D01*
G03Y369670I-1510J7370D01*
G01X-135440Y369840D01*
X-136910Y370730D01*
X-141450Y376300D01*
G02X-142580Y379460I3869J3166D01*
G01Y398780D01*
G02X-137580Y403780I5000J0D01*
G01X-14620D01*
G02X-9620Y398780I0J-5000D01*
G01Y339790D01*
G02X-10980Y336360I-5000J-2D01*
G01X-16350Y330660D01*
X-18070Y329860D01*
X-19040Y329810D01*
G03X-18770Y314780I440J-7510D01*
G02X-16350Y314090I-117J-4998D01*
G03X-13560Y313000I4816J8212D01*
G01X-11830Y312620D01*
X-9620Y309880D01*
Y275820D01*
G02X-14620Y270820I-5000J0D01*
G01X-137120D01*
G03X-142120Y265820I0J-5000D01*
G01Y257830D01*
G02X-147120Y252830I-5000J0D01*
G01X-155600D01*
G02X-160600Y257830I0J5000D01*
G37*
G36*
G01X-40620Y233190D02*
X-40630D01*
X-48830Y241400D01*
G02X-49260Y243580I1415J1412D01*
G01X-49030Y244140D01*
X-48030Y244810D01*
X-21620D01*
G02X-20200Y244220I1J-2000D01*
G01X-17920Y241930D01*
X-17620Y241190D01*
Y240790D01*
Y237100D01*
G02X-19620Y235100I-2000J0D01*
G01X-20120D01*
Y210560D01*
G03X-18120Y208560I2000J0D01*
G01X-17620D01*
Y187570D01*
G02X-18210Y186150I-1999J-2D01*
G01X-39600Y164750D01*
X-39610D01*
G03X-43120Y156260I8511J-8489D01*
G01Y133170D01*
G02X-43710Y131750I-1999J-2D01*
G01X-44920Y130540D01*
G02X-47100Y130110I-1412J1415D01*
G01X-47660Y130340D01*
X-48330Y131340D01*
Y140600D01*
G03X-50330Y142600I-2000J0D01*
G01X-54980D01*
X-55930Y143160D01*
X-56190Y143650D01*
G03X-58120Y146240I-9910J-5370D01*
G01X-58130D01*
X-60690Y148810D01*
G03X-68650Y152100I-7958J-7981D01*
G01X-115530D01*
G03X-123490Y148810I-2J-11271D01*
G01Y148800D01*
X-127580Y144720D01*
G03X-127610Y144690I7956J-7986D01*
G01X-127890Y144400D01*
X-128630Y144100D01*
X-129030D01*
G02X-131030Y146100I0J2000D01*
G01Y147670D01*
G02X-130440Y149090I1999J2D01*
G01X-118560Y160970D01*
G02X-117140Y161560I1418J-1409D01*
G01X-61670D01*
G03X-53710Y164850I2J11271D01*
G01Y164860D01*
X-40620Y177940D01*
G03X-37330Y185900I-7981J7958D01*
G01Y225230D01*
G03X-40620Y233190I-11271J2D01*
G37*
G36*
G01X-105470Y-245980D02*
G02X-105360Y-245760I469J-97D01*
G01X-102070Y-242470D01*
X-98860Y-241960D01*
X-97420Y-242700D01*
G03X-87770Y-240200I3413J6699D01*
G01X-87070Y-239160D01*
X-84880Y-238000D01*
X-81540D01*
G02X-76540Y-243000I0J-5000D01*
G01Y-273000D01*
G02X-81540Y-278000I-5000J0D01*
G01X-85120Y-281580D01*
X-97480D01*
G02X-102480Y-276580I0J5000D01*
G01Y-257650D01*
X-105400Y-254730D01*
X-105600D01*
Y-249410D01*
X-105560Y-249100D01*
G03X-105480Y-247930I-9438J1233D01*
G01X-105470Y-245980D01*
G37*
G36*
G01X-3150Y-322240D02*
X-5240Y-318950D01*
X-5300Y-317940D01*
X-5080Y-317470D01*
G03X-4640Y-313200I-5871J2763D01*
G01X-4750Y-312740D01*
X-4550Y-311860D01*
X-2320Y-309030D01*
G02X-750Y-308270I1570J-1241D01*
G01X20770D01*
G03X22180Y-307680I-8J1998D01*
G01X22290Y-307570D01*
X23030Y-307270D01*
X32730D01*
G02X34730Y-309270I0J-2000D01*
G01Y-309350D01*
X35900Y-310520D01*
X87270D01*
G03X89270Y-308520I0J2000D01*
G01Y-293480D01*
G03X87270Y-291480I-2000J0D01*
G01X40250D01*
G02X38630Y-290650I2J2000D01*
G01X36450Y-287620D01*
X36300Y-286670D01*
X36460Y-286200D01*
G03X37020Y-282780I-10180J3423D01*
G01Y-282520D01*
G02X39020Y-280520I2000J0D01*
G01X87270D01*
G03X89270Y-278520I0J2000D01*
G01Y-263480D01*
G03X87270Y-261480I-2000J0D01*
G01X87100D01*
Y-259070D01*
X87260Y-258690D01*
G03X87480Y-258140I-10352J4460D01*
G01X89230Y-257220D01*
G02X90470Y-257020I922J-1775D01*
G03X92970Y-256880I920J5969D01*
G01X93440Y-256750D01*
X94380Y-256950D01*
X97650Y-259620D01*
X98040Y-260500D01*
X98010Y-260990D01*
G03X120630Y-316190I68390J-4210D01*
G01X121100Y-316610D01*
X121390Y-317810D01*
X119830Y-321890D01*
G02X117960Y-323170I-1867J721D01*
G01X-1460D01*
G02X-3150Y-322240I0J2000D01*
G37*
G36*
G01X-8070Y-282140D02*
G03X-8600Y-281950I-2868J-7165D01*
G01Y-280000D01*
G03X-10600Y-278000I-2000J0D01*
G01X-13460D01*
G02X-15460Y-276000I0J2000D01*
G01Y-240000D01*
G02X-13460Y-238000I2000J0D01*
G01X-6720D01*
X-5710Y-238680D01*
X-5480Y-239240D01*
G03X330Y-244270I7884J3236D01*
G01X600Y-244330D01*
X1070Y-244600D01*
X1980Y-245500D01*
Y-245510D01*
G03X10470Y-249020I8489J8511D01*
G01X20260D01*
G02X21680Y-249610I2J-1999D01*
G01X22390Y-250320D01*
G02X22980Y-251740I-1409J-1418D01*
G01Y-258710D01*
G02X20980Y-260710I-2000J0D01*
G01X7710D01*
G03X5710Y-262710I0J-2000D01*
G01Y-275310D01*
X4540Y-276480D01*
X4480D01*
Y-279120D01*
X3800Y-280130D01*
X3240Y-280360D01*
G03X580Y-281870I4456J-10947D01*
G02X-630Y-282280I-1213J1590D01*
G01X-7330D01*
G02X-8070Y-282140I-5J2001D01*
G37*
G36*
G01X10920Y-123800D02*
G03X-2360Y-116740I-8517J0D01*
G01X-2830Y-117050D01*
X-3930Y-117110D01*
X-7540Y-115190D01*
G02X-8600Y-113420I941J1766D01*
G01Y31560D01*
G02X-6600Y33560I2000J0D01*
G01X1130D01*
G02X3130Y31560I0J-2000D01*
G01Y17310D01*
G03X5130Y15310I2000J0D01*
G01X8130D01*
G02X10130Y13310I0J-2000D01*
G01Y-59350D01*
G03X13420Y-67310I11271J-2D01*
G01X13430D01*
X18010Y-71900D01*
G03X25970Y-75190I7958J7981D01*
G01X40630D01*
G02X42630Y-77190I0J-2000D01*
G01Y-103410D01*
G02X40630Y-105410I-2000J0D01*
G01X20110D01*
G03X18110Y-107410I0J-2000D01*
G01Y-120010D01*
X16940Y-121180D01*
X16880D01*
Y-123600D01*
X16140Y-124630D01*
X15540Y-124840D01*
G03X13850Y-125570I3909J-11370D01*
G02X10920Y-123800I-932J1768D01*
G37*
G36*
G01X96080Y-242690D02*
X95720Y-242330D01*
G03X88670Y-241160I-4322J-4219D01*
G02X86500Y-240920I-901J1785D01*
G03X79670Y-239630I-4600J-5630D01*
G01Y-239280D01*
X79530D01*
G02X77690Y-238080I-6J2001D01*
G01X77240Y-237040D01*
G02X77470Y-235050I1837J796D01*
G03X79420Y-229170I-7908J5886D01*
G01Y-227710D01*
X79470Y-227490D01*
G03X79670Y-225810I-7068J1693D01*
G01Y-221310D01*
G03X65720Y-218440I-7270J0D01*
G01X65480Y-219000D01*
X64490Y-219650D01*
X46050D01*
X44880Y-220820D01*
Y-220880D01*
X31110D01*
G03X29110Y-222880I0J-2000D01*
G01Y-231300D01*
G02X28380Y-232850I-2001J-4D01*
G01X25620Y-235100D01*
X24760Y-235310D01*
X24320Y-235220D01*
G03X21930Y-234980I-2390J-11780D01*
G01X11810D01*
X10750Y-234190D01*
X10560Y-233550D01*
G03X10540Y-233500I-7889J-3127D01*
G01X10460Y-233210D01*
Y-232910D01*
G02X12460Y-230910I2000J0D01*
G01X12520D01*
X13690Y-229740D01*
Y-220610D01*
X14860Y-219440D01*
X14920D01*
Y-217780D01*
X15440Y-216870D01*
X15890Y-216600D01*
G03X17360Y-215560I-5754J9692D01*
G02X18640Y-215090I1288J-1529D01*
G01X23300D01*
G03X24710Y-214500I-8J1998D01*
G01X34060Y-205160D01*
G02X35480Y-204570I1418J-1409D01*
G01X89940D01*
G02X91780Y-205800I-5J-1999D01*
G01X92020Y-206370D01*
X91790Y-207550D01*
X88430Y-210910D01*
X88420D01*
G03X85270Y-217130I7985J-7952D01*
G02X85040Y-217790I-1976J319D01*
G03X84130Y-221310I6353J-3520D01*
G01Y-225810D01*
G03X98670I7270J0D01*
G01Y-221310D01*
G03X98520Y-219830I-7271J11D01*
G01X98410Y-219330D01*
X98700Y-218370D01*
X133410Y-183660D01*
G02X134830Y-183070I1418J-1409D01*
G01X143130D01*
G02X145130Y-185070I0J-2000D01*
G01Y-185150D01*
X146300Y-186320D01*
X169670D01*
G03X171670Y-184320I0J2000D01*
G01Y-169280D01*
G03X169670Y-167280I-2000J0D01*
G01X147130D01*
G03X145130Y-169280I0J-2000D01*
G01Y-169360D01*
X143960Y-170530D01*
X133470D01*
G03X125510Y-173820I-2J-11271D01*
G01X116580Y-182750D01*
G02X114400Y-183180I-1412J1415D01*
G01X113840Y-182950D01*
X113170Y-181950D01*
Y-136190D01*
G02X115170Y-134190I2000J0D01*
G01X138170D01*
G03X140170Y-132190I0J2000D01*
G01Y-131690D01*
X156750D01*
X157920Y-130520D01*
Y-130460D01*
X171690D01*
G03X173690Y-128460I0J2000D01*
G01Y-114070D01*
G02X175690Y-112070I2000J0D01*
G01X178970D01*
G02X180390Y-112660I2J-1999D01*
G01X183540Y-115810D01*
G02X184130Y-117230I-1409J-1418D01*
G01Y-136370D01*
G02X183540Y-137790I-1999J-2D01*
G01X181390Y-139940D01*
G02X179970Y-140530I-1418J1409D01*
G01X173670D01*
G02X171670Y-138530I0J2000D01*
G01Y-138450D01*
X170500Y-137280D01*
X147130D01*
G03X145130Y-139280I0J-2000D01*
G01Y-154320D01*
G03X147130Y-156320I2000J0D01*
G01X169670D01*
G03X171670Y-154320I0J2000D01*
G01Y-154240D01*
X172840Y-153070D01*
X181330D01*
X181500D01*
G03X189290Y-149780I-170J11270D01*
G01X193370Y-145690D01*
X193380D01*
G03X196670Y-137730I-7981J7958D01*
G01Y-115870D01*
G03X193380Y-107910I-11271J2D01*
G01X188290Y-102830D01*
Y-102820D01*
G03X180330Y-99530I-7958J-7981D01*
G01X175690D01*
G02X173690Y-97530I0J2000D01*
G01Y-86070D01*
G02X175690Y-84070I2000J0D01*
G01X176400D01*
G03X185950Y-77580I0J10271D01*
G01X186180Y-77010D01*
X187190Y-76320D01*
X187670D01*
G03X189670Y-74320I0J2000D01*
G01Y-44720D01*
G02X191670Y-42720I2000J0D01*
G03X193670Y-40720I0J2000D01*
G01Y-25680D01*
G03X191670Y-23680I-2000J0D01*
G01X145130D01*
G03X143130Y-25680I0J-2000D01*
G01Y-34150D01*
G02X141130Y-36150I-2000J0D01*
G01X114630D01*
G03X112630Y-38150I0J-2000D01*
G01Y-55020D01*
X113800Y-56190D01*
X113860D01*
Y-60980D01*
X112690Y-62150D01*
X112630D01*
Y-86650D01*
G02X110630Y-88650I-2000J0D01*
G01X104580D01*
G02X103160Y-88060I-2J1999D01*
G01X99510Y-84410D01*
G02X98920Y-82990I1409J1418D01*
G01Y-44110D01*
G02X99510Y-42700I1999J-8D01*
G01X112760Y-29440D01*
G03X116260Y-22620I-8854J8852D01*
G01X116380Y-21890D01*
X117490Y-20940D01*
X120420D01*
G03X122420Y-18940I0J2000D01*
G01Y-18730D01*
X123340Y-17620D01*
X124060Y-17490D01*
G03X130670Y-14030I-2237J12317D01*
G01X130680D01*
X139720Y-4990D01*
G02X141900Y-4550I1419J-1410D01*
G01X142460Y-4790D01*
X143130Y-5780D01*
Y-10720D01*
G03X145130Y-12720I2000J0D01*
G01X191670D01*
G03X193670Y-10720I0J2000D01*
G01Y4320D01*
G03X191670Y6320I-2000J0D01*
G01X189920D01*
G02X187920Y8320I0J2000D01*
G01Y34810D01*
G02X189920Y36810I2000J0D01*
G01X203400D01*
G02X205400Y34810I0J-2000D01*
G01Y-201690D01*
G02X204420Y-203410I-2001J1D01*
G01X200990Y-205430D01*
X199940Y-205450D01*
X199470Y-205190D01*
G03X102320Y-240940I-33070J-60011D01*
G01X102130Y-241430D01*
X101360Y-242090D01*
X97050Y-242990D01*
X96080Y-242690D01*
G37*
G36*
G01X85370Y-185530D02*
X27580D01*
G03X26170Y-186120I8J-1998D01*
G01X26040Y-186250D01*
G02X23210I-1415J1416D01*
G01X22890Y-185930D01*
X22590Y-185090D01*
X22630Y-184650D01*
G03X22670Y-183800I-8950J847D01*
G01Y-181320D01*
G02X24670Y-179320I2000J0D01*
G01X42750D01*
X43920Y-178150D01*
Y-178090D01*
X57690D01*
G03X59690Y-176090I0J2000D01*
G01Y-159510D01*
G03X57690Y-157510I-2000J0D01*
G01X45090D01*
X43920Y-156340D01*
Y-156280D01*
X23880D01*
Y-156500D01*
X21580Y-157380D01*
G02X19560Y-157020I-708J1872D01*
G03X16340Y-155240I-5848J-6776D01*
G01X15700Y-155050D01*
X14920Y-153990D01*
Y-153600D01*
X14860D01*
X13690Y-152430D01*
Y-144410D01*
X14860Y-143240D01*
X14920D01*
Y-142750D01*
X15520Y-141790D01*
X16050Y-141540D01*
G03X16250Y-141440I-5276J10802D01*
G01X16470Y-141330D01*
X16920Y-141220D01*
X37240D01*
G02X38650Y-141810I-8J-1999D01*
G01X39890Y-143050D01*
X39900D01*
G03X48740Y-146710I8845J8859D01*
G01X70310D01*
G03X79150Y-143050I-5J12519D01*
G01X90720Y-131490D01*
G02X92900Y-131050I1419J-1410D01*
G01X93460Y-131290D01*
X94130Y-132280D01*
Y-176770D01*
G02X93540Y-178190I-1999J-2D01*
G01X86790Y-184940D01*
G02X85370Y-185530I-1418J1409D01*
G37*
G36*
G01X79460Y-56520D02*
X79020Y-56420D01*
G03X76580Y-56150I-2452J-10999D01*
G01X72170D01*
G02X70170Y-54150I0J2000D01*
G01Y-38150D01*
G03X68170Y-36150I-2000J0D01*
G01X64670D01*
G02X62670Y-34150I0J2000D01*
G01Y-25440D01*
G02X64670Y-23440I2000J0D01*
G01X64750D01*
X65920Y-22270D01*
Y1100D01*
G03X63920Y3100I-2000J0D01*
G01X63840D01*
X62670Y4270D01*
Y13310D01*
G02X64670Y15310I2000J0D01*
G01X67670D01*
G03X69670Y17310I0J2000D01*
G01Y32350D01*
G03X67670Y34350I-2000J0D01*
G01X45130D01*
G03X43130Y32350I0J-2000D01*
G01Y17310D01*
G03X45130Y15310I2000J0D01*
G01X48130D01*
G02X50130Y13310I0J-2000D01*
G01Y5100D01*
G02X48130Y3100I-2000J0D01*
G01X48050D01*
X46880Y1930D01*
Y-21440D01*
G03X48880Y-23440I2000J0D01*
G01X48960D01*
X50130Y-24610D01*
Y-34150D01*
G02X48130Y-36150I-2000J0D01*
G01X43690D01*
G02X41690Y-34150I0J2000D01*
G01Y-29880D01*
G03X39690Y-27880I-2000J0D01*
G01X24670D01*
G02X22670Y-25880I0J2000D01*
G01Y13310D01*
G02X24670Y15310I2000J0D01*
G01X27670D01*
G03X29670Y17310I0J2000D01*
G01Y32560D01*
X30560Y33660D01*
X31250Y33810D01*
G03X40100Y43540I-2346J11024D01*
G01X40180Y44300D01*
X41320Y45310D01*
X67670D01*
G03X69670Y47310I0J2000D01*
G01Y62350D01*
G03X67670Y64350I-2000J0D01*
G01X64670D01*
G02X62670Y66350I0J2000D01*
G01Y73870D01*
G02X63260Y75290I1999J2D01*
G01X64180Y76210D01*
G03X67470Y84170I-7981J7958D01*
G01Y87280D01*
G02X69470Y89280I2000J0D01*
G01X78420D01*
G03X80420Y91280I0J2000D01*
G01Y91310D01*
X104920D01*
G03X106920Y93310I0J2000D01*
G01X107920Y94310D01*
X171380D01*
G02X173380Y92310I0J-2000D01*
G01Y50770D01*
G02X172790Y49360I-1999J8D01*
G01X124620Y1190D01*
G02X123210Y600I-1418J1409D01*
G01X97920D01*
G02X95920Y2600I0J2000D01*
G01Y3100D01*
X78880D01*
G03X76880Y1100I0J-2000D01*
G01Y-21440D01*
G03X78880Y-23440I2000J0D01*
G01X92670D01*
G02X94520Y-24670I3J-2002D01*
G01X94750Y-25240D01*
X94520Y-26420D01*
X87540Y-33390D01*
Y-33400D01*
G03X83880Y-42240I8859J-8845D01*
G01Y-52510D01*
G02X83130Y-54070I-1999J1D01*
G01X80340Y-56310D01*
X79460Y-56520D01*
G37*
G36*
G01X24670Y141510D02*
X28110D01*
X29280Y140340D01*
Y140280D01*
X78420D01*
G03X80420Y142280I0J2000D01*
G01Y144030D01*
G02X82420Y146030I2000J0D01*
G01X129300D01*
G03X137260Y149320I2J11271D01*
G01Y149330D01*
X169970Y182030D01*
G02X172150Y182460I1412J-1415D01*
G01X172710Y182230D01*
X173380Y181230D01*
Y110350D01*
G02X171380Y108350I-2000J0D01*
G01X108920D01*
G02X106920Y110350I0J2000D01*
G01X105920Y111350D01*
X105690D01*
Y125120D01*
G03X103690Y127120I-2000J0D01*
G01X87110D01*
G03X85110Y125120I0J-2000D01*
G01Y113350D01*
G02X83110Y111350I-2000J0D01*
G01X81590D01*
X79620Y113320D01*
X60770D01*
G02X59220Y114050I-4J2002D01*
G01X56970Y116800D01*
X56760Y117660D01*
X56850Y118110D01*
G03X40150I-8350J1690D01*
G01X40240Y117660D01*
X40030Y116800D01*
X37780Y114050D01*
G02X36230Y113320I-1546J1272D01*
G01X24670D01*
G02X22670Y115320I0J2000D01*
G01Y139510D01*
G02X24670Y141510I2000J0D01*
G37*
G36*
G01X25660Y184880D02*
G03X25670Y185400I-11261J477D01*
G01Y206560D01*
G02X27670Y208560I2000J0D01*
G01X27750D01*
X28920Y209730D01*
Y233540D01*
G02X30920Y235540I2000J0D01*
G01X42690D01*
G03X44690Y237540I0J2000D01*
G01Y254120D01*
G03X42690Y256120I-2000J0D01*
G01X30090D01*
X28920Y257290D01*
Y257350D01*
X27170D01*
G02X25170Y259350I0J2000D01*
G01Y291750D01*
G03X25160Y292290I-11271J61D01*
G01X26730Y293780D01*
G02X28180Y294320I1369J-1459D01*
G03X28660Y294310I490J12010D01*
G01X30380D01*
G02X32380Y292310I0J-2000D01*
G01X33380Y291310D01*
X33610D01*
Y277540D01*
G03X35610Y275540I2000J0D01*
G01X52190D01*
G03X54190Y277540I0J2000D01*
G01Y290140D01*
X55360Y291310D01*
X55420D01*
Y309350D01*
G03X53420Y311350I-2000J0D01*
G01X34380D01*
G03X32380Y309350I0J-2000D01*
G01X31380Y308350D01*
X30330D01*
G02X28910Y308940I-2J1999D01*
G01X25040Y312800D01*
Y312810D01*
G03X23880Y313820I-8456J-8541D01*
G02X23180Y315950I1225J1582D01*
G01X23420Y316820D01*
G02X25350Y318280I1926J-541D01*
G01X60000D01*
G02X62000Y316280I0J-2000D01*
G01Y272900D01*
G03X64000Y270900I2000J0D01*
G01X150900D01*
Y270800D01*
X153130D01*
G02X155130Y268800I0J-2000D01*
G01Y205310D01*
G02X154540Y203890I-1999J-2D01*
G01X137320Y186670D01*
G02X135900Y186080I-1418J1409D01*
G01X36400D01*
G03X28970Y183290I-6J-11272D01*
G02X25660Y184880I-1314J1504D01*
G37*
G36*
G01X150900Y378800D02*
Y378850D01*
X123390D01*
G02X121550Y380080I5J1999D01*
G01X121310Y380650D01*
X121540Y381830D01*
X127080Y387360D01*
G03X130200Y393380I-7983J7956D01*
G01X130330Y394090D01*
X131440Y395030D01*
X143150D01*
X144320Y396200D01*
Y396260D01*
X153130D01*
G02X155130Y394260I0J-2000D01*
G01Y380800D01*
G02X153130Y378800I-2000J0D01*
G01X150900D01*
G37*
%LPC*%
G75*
G36*
G01X-559140Y450120D02*
X-544060D01*
G02X-542060Y448120I0J-2000D01*
G01Y427540D01*
G02X-544060Y425540I-2000J0D01*
G01X-559140D01*
G02X-561140Y427540I0J2000D01*
G01Y448120D01*
G02X-559140Y450120I2000J0D01*
G37*
G36*
G01X77110Y926870D02*
X89690D01*
G02X91690Y924870I0J-2000D01*
G01Y904790D01*
G02X89690Y902790I-2000J0D01*
G01X77110D01*
G02X75110Y904790I0J2000D01*
G01Y924870D01*
G02X77110Y926870I2000J0D01*
G37*
G36*
G01X98610Y29370D02*
X119190D01*
G02X121190Y27370I0J-2000D01*
G01Y12290D01*
G02X119190Y10290I-2000J0D01*
G01X98610D01*
G02X96610Y12290I0J2000D01*
G01Y27370D01*
G02X98610Y29370I2000J0D01*
G37*
G54D51*
X-563600Y904830D03*
X146400D03*
%LPD*%
G75*
G54D10*
X-583600Y-265200D03*
Y1034800D03*
X166400Y-265200D03*
Y1034800D03*
G54D20*
X-336100Y-176170D03*
Y-159170D03*
X-128000Y-242500D03*
Y-225500D03*
X-127600Y-206300D03*
Y-189300D03*
X-95600Y-91300D03*
Y-108300D03*
X16000Y-269500D03*
Y-286500D03*
X28400Y-114200D03*
Y-131200D03*
X31400Y-53670D03*
Y-36670D03*
X43900Y284330D03*
Y301330D03*
X95400Y118330D03*
Y101330D03*
X131400Y296330D03*
Y313330D03*
Y342330D03*
Y359330D03*
X115400Y484800D03*
Y501800D03*
G54D11*
G01X-598600Y527300D02*
X-548170D01*
G02X-544640Y525840I-1J-5000D01*
G01X-507560Y488760D01*
G02X-506100Y485230I-3540J-3531D01*
G01Y444370D01*
G03X-504640Y440840I5000J1D01*
G01X-325060Y261260D01*
G03X-321530Y259800I3531J3540D01*
G01X-231600D01*
G01X-518200Y322700D02*
X-543600D01*
G01X-546100Y394830D02*
Y337480D01*
G03X-544860Y334480I4240J-4D01*
G02X-543600Y331440I-3030J-3037D01*
G01Y322700D01*
G01X-293600Y1020200D02*
Y1054800D01*
G01X-198600Y259800D02*
X-231600D01*
G01X-148630D02*
X-198600D01*
X-612600Y106030D03*
Y206030D03*
X-616000Y352000D03*
X-563600Y-205170D03*
X-566370Y294700D03*
X-564000Y366000D03*
Y510000D03*
X-575580Y630110D03*
Y730110D03*
Y830110D03*
X-563600Y904830D03*
X-536780Y40830D03*
X-546060Y196790D03*
X-536100Y437330D03*
X-548600Y469830D03*
X-531070Y540560D03*
X-535690Y921810D03*
X-493780Y111540D03*
X-520700Y349250D03*
X-498300Y406190D03*
X-524000Y478000D03*
X-520700Y774700D03*
X-494100Y163800D03*
X-486080Y451250D03*
X-495300Y622300D03*
X-492100Y872800D03*
X-474000Y1028000D03*
X-444500Y165100D03*
Y254000D03*
X-445270Y353160D03*
X-449870Y583850D03*
Y683850D03*
Y783850D03*
X-457060Y983590D03*
X-423070Y40830D03*
X-415700Y380210D03*
X-431800Y457200D03*
X-386000Y-316000D03*
Y-234000D03*
Y-154000D03*
Y-62000D03*
X-396100Y57800D03*
X-393700Y139700D03*
X-387350Y222250D03*
X-392230Y300130D03*
X-381000Y406400D03*
X-383600Y999800D03*
X-354000Y-182000D03*
X-352000Y-116000D03*
X-368300Y88900D03*
X-353000Y437000D03*
X-320000Y-316000D03*
Y-248000D03*
X-336100Y-190170D03*
X-330200Y139700D03*
Y190500D03*
X-339200Y247100D03*
X-336260Y577300D03*
Y627300D03*
X-344830Y695930D03*
X-336260Y792300D03*
X-309600Y-201670D03*
X-298000Y-94000D03*
X-316000Y-62000D03*
X-304800Y76200D03*
Y279400D03*
X-299520Y613570D03*
X-307590Y761030D03*
X-304100Y810800D03*
X-280000Y-164000D03*
X-266700Y127000D03*
X-285750Y171450D03*
X-260350Y425450D03*
X-238000Y-316000D03*
Y-246000D03*
X-238600Y-165170D03*
X-238000Y-62000D03*
X-228600Y101600D03*
X-254000Y242000D03*
X-228600Y286800D03*
X-227600Y368830D03*
X-228600Y685800D03*
X-232590Y761030D03*
X-245150Y793570D03*
X-240860Y818560D03*
X-198000Y-232000D03*
X-224000Y-198000D03*
X-194830Y516160D03*
X-224520Y613570D03*
X-168000Y-316000D03*
X-178000Y-184000D03*
X-182000Y116000D03*
X-190500Y165100D03*
X-171450Y234950D03*
X-173600Y294520D03*
X-185330Y561030D03*
X-170150Y793570D03*
X-183850Y867280D03*
X-148000Y-248000D03*
X-164000Y-168000D03*
X-152000Y-184000D03*
X-160000Y-62000D03*
X-146050Y171450D03*
X-146100Y499800D03*
Y627300D03*
X-157590Y761030D03*
X-146100Y792300D03*
X-112000Y-228000D03*
X-111600Y-154140D03*
X-114000Y-102000D03*
X-136100Y362300D03*
X-112000Y496000D03*
X-110330Y561030D03*
X-133350Y685800D03*
X-130810Y920320D03*
X-100000Y-316000D03*
X-94000Y-262000D03*
Y-274000D03*
Y-250000D03*
Y-236000D03*
Y-124000D03*
X-90000Y-62000D03*
X-100000Y86000D03*
X-95250Y184150D03*
X-84000Y522000D03*
X-81630Y630890D03*
X-82590Y761030D03*
X-88900Y857250D03*
X-77780Y973350D03*
X-50800Y152400D03*
X-52000Y458000D03*
X-76000Y456000D03*
X-31750Y234950D03*
X-18600Y322300D03*
X-21100Y532300D03*
Y597300D03*
X-21660Y808570D03*
X-31750Y946150D03*
X6000Y-316000D03*
X-2000Y-262000D03*
Y-274000D03*
X2400Y-236000D03*
X-2000Y-250000D03*
X2400Y-123800D03*
X-2000Y-110000D03*
Y10000D03*
X-2100Y51800D03*
X0Y101600D03*
X6400Y119030D03*
X-8780Y514800D03*
X3900Y532300D03*
Y597300D03*
X-8780Y614620D03*
X-12370Y659670D03*
Y734670D03*
X11900Y887800D03*
X-8000Y968000D03*
X-4000Y1030000D03*
X42000Y-286000D03*
X16000Y-254000D03*
X20000Y-228000D03*
X38400Y-211170D03*
X20000Y-148000D03*
X28000Y-98000D03*
X36400Y-82170D03*
X31400Y-21170D03*
X33900Y134800D03*
X16400Y424800D03*
X26400Y519800D03*
X38500Y532970D03*
X40850Y607320D03*
X23900Y614800D03*
X32670Y681870D03*
Y756870D03*
X20000Y954000D03*
X22400Y994830D03*
X66400Y-167800D03*
X48500Y119800D03*
X50800Y203200D03*
X51400Y245830D03*
X43900Y268830D03*
X70130Y260900D03*
X44430Y424800D03*
X63900Y511370D03*
X51400Y522300D03*
X68900Y612300D03*
Y646700D03*
X66700Y677720D03*
Y752720D03*
X68400Y811800D03*
X44400Y932800D03*
X54400Y955300D03*
X60000Y994000D03*
X94000Y-286000D03*
X98000Y-236000D03*
X80400Y-211170D03*
X82400Y-177800D03*
X86400Y-145800D03*
X76000Y-50000D03*
X73900Y82300D03*
X95400Y132830D03*
X76000Y478000D03*
X82970Y594800D03*
X82630Y826010D03*
X98400Y914830D03*
X110000Y-316000D03*
X120400Y-169800D03*
Y-141800D03*
X106400Y-107670D03*
Y-83800D03*
Y-57670D03*
X108900Y34830D03*
X127000Y203200D03*
X132000Y480000D03*
X120650Y514350D03*
X114300Y615950D03*
Y723900D03*
Y831850D03*
X107950Y895350D03*
X136000Y-192000D03*
Y-20000D03*
X145130Y260900D03*
X149500Y387900D03*
X146400Y904830D03*
X176000Y-162000D03*
X178400Y-120170D03*
X182400Y-91800D03*
X164000Y52000D03*
X166000Y86000D03*
X164000Y116000D03*
X166000Y168000D03*
X164000Y464000D03*
X165100Y584200D03*
Y685800D03*
Y793750D03*
Y869950D03*
X198400Y-195800D03*
Y-149800D03*
Y-101800D03*
Y-49800D03*
Y26200D03*
G54D12*
X-581100Y394830D03*
X-546100D03*
G54D21*
X-275300Y-123300D03*
X-143900D03*
G54D30*
X-121100Y207300D03*
X-71100D03*
G54D13*
X-581600Y437830D03*
X-551600D03*
G54D40*
X56400Y-127420D03*
Y-120920D03*
Y-114420D03*
Y-107920D03*
Y-101420D03*
Y-94920D03*
Y-88420D03*
Y-81920D03*
Y-75420D03*
Y-68920D03*
Y-62420D03*
Y-55920D03*
Y-49420D03*
Y-42920D03*
X126400Y-114420D03*
Y-120920D03*
Y-127420D03*
Y-88420D03*
Y-94920D03*
Y-101420D03*
Y-107920D03*
Y-55920D03*
Y-62420D03*
Y-68920D03*
Y-75420D03*
Y-81920D03*
Y-42920D03*
Y-49420D03*
G54D31*
X-112100Y259800D03*
X-120100D03*
X-128100D03*
X-136100D03*
Y414800D03*
X-128100D03*
X-120100D03*
X-112100D03*
X-88100Y259800D03*
X-96100D03*
X-104100D03*
Y414800D03*
X-96100D03*
X-88100D03*
X-56100Y259800D03*
X-64100D03*
X-72100D03*
X-80100D03*
Y414800D03*
X-72100D03*
X-64100D03*
X-56100D03*
X-24100Y259800D03*
X-32100D03*
X-40100D03*
X-48100D03*
Y414800D03*
X-40100D03*
X-32100D03*
X-24100D03*
X-16100Y259800D03*
Y414800D03*
G54D22*
X-283100Y148830D03*
X-260100Y158330D03*
Y139330D03*
Y187330D03*
X-283100Y196830D03*
X-260100Y206330D03*
G54D50*
G01X-597390Y394830D02*
X-581100D01*
G01X-594140Y437830D02*
X-581600D01*
G01X-593890Y469830D02*
X-582100D01*
G01X-581100Y371540D02*
Y394830D01*
G01D02*
Y418120D01*
G01X-581600Y422540D02*
Y437830D01*
G01X-582100Y456540D02*
Y469830D01*
G01X-581600Y437830D02*
Y453120D01*
G01X-582100Y469830D02*
Y483120D01*
G54D23*
X-238600Y-143670D03*
Y-116670D03*
X-178600Y-143670D03*
Y-116670D03*
G54D14*
X-565100Y469830D03*
X-582100D03*
X-202100Y277330D03*
X-212100Y368830D03*
X-185100Y277330D03*
X-195100Y368830D03*
X-140100Y-169800D03*
X-123100D03*
X37900Y-231170D03*
X33900Y-167800D03*
X35900Y245830D03*
X18900D03*
X54900Y-231170D03*
X50900Y-167800D03*
X147900Y-120170D03*
Y-91800D03*
X164900Y-120170D03*
Y-91800D03*
G54D32*
X-79250Y-314700D03*
X-16750Y-302000D03*
Y-314700D03*
Y-289300D03*
G54D41*
X91400Y-248800D03*
X81900D03*
X72400Y-223560D03*
X91400D03*
G54D15*
X-543600Y297300D03*
X-293600Y994800D03*
X-283600Y322300D03*
X-61100Y129830D03*
G54D24*
X-244600Y-96200D03*
G54D33*
X-79250Y-289300D03*
G54D42*
X72400Y-248800D03*
G54D43*
X108900Y-10170D03*
Y19830D03*
G54D16*
X-543600Y322700D03*
X-518200Y297300D03*
Y322700D03*
X-467400Y297300D03*
X-492800D03*
X-467400Y322700D03*
X-492800D03*
X-442000Y297300D03*
Y322700D03*
X-309000Y322300D03*
Y373100D03*
Y347700D03*
Y398500D03*
Y423900D03*
X-293600Y1020200D03*
X-283600Y373100D03*
Y347700D03*
Y398500D03*
Y423900D03*
X-268200Y994800D03*
Y1020200D03*
X-242800Y994800D03*
Y1020200D03*
X-219600Y-96200D03*
X-199600D03*
X-217400Y994800D03*
Y1020200D03*
X-166600Y994800D03*
X-192000D03*
X-166600Y1020200D03*
X-192000D03*
X-162700Y104430D03*
Y129830D03*
X-137300Y104430D03*
Y129830D03*
X-141200Y994800D03*
Y1020200D03*
X-111900Y104430D03*
Y129830D03*
X-115800Y994800D03*
Y1020200D03*
X-86500Y104430D03*
Y129830D03*
X-90400Y994800D03*
Y1020200D03*
X-61100Y104430D03*
X-65000Y994800D03*
Y1020200D03*
G54D25*
X-221600Y-182170D03*
Y-172670D03*
Y-163170D03*
X-195600Y-172670D03*
Y-182170D03*
Y-163170D03*
G54D34*
X-92600Y-224620D03*
Y-211920D03*
Y-199220D03*
Y-186520D03*
Y-173820D03*
Y-161120D03*
Y-148420D03*
Y-135720D03*
X400Y-211920D03*
Y-224620D03*
Y-173820D03*
Y-186520D03*
Y-199220D03*
Y-148420D03*
Y-161120D03*
Y-135720D03*
G54D26*
X-204600Y-139170D03*
Y-121170D03*
X-212600Y-139170D03*
Y-121170D03*
G54D17*
X-513600Y184830D03*
Y214830D03*
X-473600Y184830D03*
Y214830D03*
X-309600Y-187170D03*
Y-157170D03*
X-231600Y209830D03*
Y239830D03*
X-197600Y209830D03*
Y239830D03*
X-63600Y495830D03*
Y549830D03*
Y525830D03*
Y579830D03*
X16400Y24830D03*
Y54830D03*
X48000Y-301000D03*
X76000D03*
X48000Y-271000D03*
X76000D03*
X56400Y24830D03*
Y54830D03*
X158400Y-176800D03*
Y-146800D03*
X156400Y-33200D03*
Y-3200D03*
X180400Y-33200D03*
Y-3200D03*
G54D35*
X-67250Y-258000D03*
X-24750D03*
G54D44*
X124100Y407300D03*
X111400D03*
Y461300D03*
X124100D03*
X149500Y407300D03*
X136800D03*
Y461300D03*
X149500D03*
G54D45*
X156400Y-51800D03*
Y-67800D03*
X180400Y-51800D03*
Y-67800D03*
G54D36*
X-21950Y462830D03*
Y494830D03*
Y551830D03*
Y583830D03*
X-9250Y462830D03*
Y494830D03*
Y551830D03*
Y583830D03*
X38050Y462830D03*
Y494830D03*
X40050Y551330D03*
Y583330D03*
X50750Y462830D03*
Y494830D03*
X52750Y551330D03*
Y583330D03*
G54D27*
X-174600Y-96200D03*
G54D18*
X-433600Y999800D03*
X-408600Y974800D03*
Y1024800D03*
X88900Y304800D03*
Y354800D03*
G54D46*
G01X-195100Y368830D02*
X-195600D01*
Y385760D01*
G03X-197060Y389290I-5000J-1D01*
G01X-248140Y440370D01*
G03X-251670Y441830I-3531J-3540D01*
G01X-312530D01*
G03X-316060Y440370I1J-5000D01*
G01X-328140Y428290D01*
G03X-329600Y424760I3540J-3531D01*
G01Y357900D01*
G03X-328140Y354370I5000J1D01*
G01X-321600Y347830D01*
X-320410D01*
X-320280Y347700D01*
X-309000D01*
G01X-178600Y-143670D02*
Y-163130D01*
G02X-180060Y-166660I-5000J1D01*
G01X-184610Y-171210D01*
G02X-188140Y-172670I-3531J3540D01*
G01X-195600D01*
G01X-185100Y277330D02*
X-164410D01*
X-164380Y277300D01*
X-153600D01*
G01Y285300D02*
X-162310D01*
G02X-165840Y286760I1J5000D01*
G01X-173600Y294520D01*
G01X-153600Y373300D02*
X-162080D01*
G03X-165610Y371840I1J-5000D01*
G01X-167160Y370290D01*
G02X-170690Y368830I-3531J3540D01*
G01X-195100D01*
G01X-153600Y365300D02*
X-141170D01*
G02X-137640Y363840I-1J-5000D01*
G01X-136100Y362300D01*
G01X-137170Y373300D02*
X-153600D01*
G01X-79250Y-289300D02*
X-89460D01*
G03X-92990Y-290760I1J-5000D01*
G01X-95520Y-293290D01*
G02X-99050Y-294750I-3531J3540D01*
G01X-116000D01*
G01X-94000Y-236000D02*
X-99930D01*
G03X-103460Y-237460I1J-5000D01*
G01X-108540Y-242540D01*
G03X-110000Y-246070I3540J-3531D01*
G01Y-247900D01*
G02X-111460Y-251430I-5000J1D01*
G01X-114540Y-254510D01*
G03X-116000Y-258040I3540J-3531D01*
G01Y-265250D01*
G01X-92600Y-224620D02*
X-106550D01*
G03X-110080Y-226080I1J-5000D01*
G01X-112000Y-228000D01*
G01X-92600Y-148420D02*
X-103810D01*
G03X-107340Y-149880I1J-5000D01*
G01X-111600Y-154140D01*
G01X-121100Y207300D02*
X-81560Y246840D01*
G03X-80100Y250370I-3540J3531D01*
G01Y259800D01*
G01X-133640Y374760D02*
G02X-137170Y373300I-3531J3540D01*
G01X-94000Y-124000D02*
Y-132350D01*
G03X-92610Y-135710I4750J-2D01*
G01X-92600Y-135720D01*
G01X-10600Y221830D02*
Y185900D01*
G02X-12060Y182370I-5000J1D01*
G01X-34640Y159790D01*
G03X-36100Y156260I3540J-3531D01*
G01Y131500D01*
G02X-37560Y127970I-5000J1D01*
G01X-61100Y104430D01*
G01X-71100Y207300D02*
Y231800D01*
X-72100Y232800D01*
Y259800D01*
G01X-16750Y-289300D02*
X950D01*
G03X4310Y-287910I2J4750D01*
G02X7710Y-286500I3398J-3390D01*
G01X16000D01*
G01X2400Y-236000D02*
X6940Y-240540D01*
G03X10470Y-242000I3531J3540D01*
G01X21930D01*
G02X25460Y-243460I-1J-5000D01*
G01X30000Y-248000D01*
G01X28400Y-131200D02*
X19470D01*
G03X15940Y-132660I1J-5000D01*
G01X14340Y-134260D01*
G02X10810Y-135720I-3531J3540D01*
G01X400D01*
G01D02*
Y-127870D01*
G02X1860Y-124340I5000J-1D01*
G01X2400Y-123800D01*
G01X-18600Y279800D02*
X-5060Y266260D01*
G02X-3600Y262730I-3540J-3531D01*
G01Y251870D01*
G02X-5060Y248340I-5000J1D01*
G01X-9140Y244260D01*
G03X-10600Y240730I3540J-3531D01*
G01Y221830D01*
G01X-19100Y309300D02*
X1400D01*
G01X43900Y301330D02*
X28660D01*
G02X25130Y302790I1J5000D01*
G01X20080Y307840D01*
G03X16550Y309300I-3531J-3540D01*
G01X1400D01*
G01X88900Y304800D02*
X69860Y323840D01*
G03X66330Y325300I-3531J-3540D01*
G01X1400D01*
G01Y317300D02*
X-11530D01*
G02X-15060Y318760I1J5000D01*
G01X-18600Y322300D01*
G01X1400Y317300D02*
X49330D01*
G01X88900Y354800D02*
X68860Y334760D01*
G02X65330Y333300I-3531J3540D01*
G01X1400D01*
G01X48000Y-271000D02*
X37070D01*
G02X33540Y-269540I1J5000D01*
G01X30000Y-266000D01*
G01D02*
Y-248000D01*
G01X16000Y-286500D02*
X26280D01*
G03X30000Y-282780I0J3720D01*
G01Y-266000D01*
G01Y-248000D02*
X50000D01*
G03X54900Y-243100I0J4900D01*
G01Y-231170D01*
G01X72400Y-223560D02*
Y-229170D01*
G02X69560Y-232010I-2840J0D01*
G01X63240D01*
X62400Y-231170D01*
X54900D01*
G01X52860Y315840D02*
X87950Y280750D01*
G03X91480Y279290I3531J3540D01*
G01X138790D01*
G03X142320Y280750I-1J5000D01*
G01X148940Y287370D01*
G03X150400Y290900I-3540J3531D01*
G01Y317760D01*
G03X148940Y321290I-5000J-1D01*
G01X143400Y326830D01*
G01X49330Y317300D02*
G02X52860Y315840I-1J-5000D01*
G01X143400Y326830D02*
X147940Y331370D01*
G03X149400Y334900I-3540J3531D01*
G01Y362760D01*
G03X147940Y366290I-5000J-1D01*
G01X140890Y373340D01*
G03X137360Y374800I-3531J-3540D01*
G01X80970D01*
G03X77440Y373340I1J-5000D01*
G01X47860Y343760D01*
G02X44330Y342300I-3531J3540D01*
G01X95400Y101330D02*
X185900D01*
G01X131400Y296330D02*
X113720D01*
G02X110190Y297790I1J5000D01*
G01X104640Y303340D01*
G03X101110Y304800I-3531J-3540D01*
G01X88900D01*
G01X131400Y359330D02*
X109780D01*
G03X106250Y357870I1J-5000D01*
G01X104640Y356260D01*
G02X101110Y354800I-3531J3540D01*
G01X88900D01*
G01X183400Y447800D02*
X115400D01*
G02X111400Y451800I0J4000D01*
G01Y461300D01*
G01X115400Y484800D02*
Y478400D01*
G02X113940Y474870I-5000J1D01*
G01X112130Y473060D01*
G03X111400Y471290I1770J-1766D01*
G01Y461300D01*
G01X131400Y313330D02*
Y326830D01*
G01Y342330D02*
Y326830D01*
G01D02*
X143400D01*
G01X149500Y407300D02*
Y387900D01*
G01X185900Y101330D02*
X186400Y100830D01*
G54D19*
X-388600Y172330D03*
X-358600D03*
X-300600Y106830D03*
X-270600D03*
X-178600Y-227800D03*
Y-203800D03*
X-148600Y-227800D03*
Y-203800D03*
X-10600Y221830D03*
X19400D03*
X26400Y974800D03*
X23400Y1014830D03*
X56400Y-10170D03*
X53400Y883830D03*
Y914830D03*
X56400Y974800D03*
X53400Y1014830D03*
X86400Y-10170D03*
X83400Y883830D03*
Y914830D03*
G54D37*
X-35150Y462830D03*
Y494830D03*
Y551830D03*
Y583830D03*
X3950Y462830D03*
Y494830D03*
Y551830D03*
Y583830D03*
X24850Y462830D03*
Y494830D03*
X26850Y551330D03*
Y583330D03*
X63950Y462830D03*
Y494830D03*
X65950Y551330D03*
Y583330D03*
G54D28*
X-153600Y277300D03*
Y285300D03*
Y293300D03*
Y301300D03*
Y309300D03*
Y317300D03*
Y325300D03*
Y333300D03*
Y341300D03*
Y349300D03*
Y357300D03*
Y365300D03*
Y373300D03*
Y381300D03*
Y389300D03*
Y397300D03*
X1400Y277300D03*
Y301300D03*
Y293300D03*
Y285300D03*
Y333300D03*
Y325300D03*
Y317300D03*
Y309300D03*
Y365300D03*
Y357300D03*
Y349300D03*
Y341300D03*
Y397300D03*
Y389300D03*
Y381300D03*
Y373300D03*
G54D47*
G01X-536600Y437830D02*
X-536100Y437330D01*
G01X-336100Y-159170D02*
Y-142240D01*
G02X-334640Y-138710I5000J-1D01*
G01X-330060Y-134130D01*
G02X-326530Y-132670I3531J-3540D01*
G01X-310100D01*
X-309600Y-132170D01*
G01D02*
Y-157170D01*
G01X-275300Y-123300D02*
X-298660D01*
G03X-302190Y-124760I1J-5000D01*
G01X-309600Y-132170D01*
G01X-244600Y-96200D02*
X-240060Y-100740D01*
G02X-238600Y-104270I-3540J-3531D01*
G01Y-116670D01*
G01X-212100Y368830D02*
X-227600D01*
G01X-178600Y-143670D02*
G02X-175190Y-145080I3J-4820D01*
G01X-165060Y-155210D01*
G03X-161530Y-156670I3531J3540D01*
G01X-131140D01*
G03X-127610Y-155210I-1J5000D01*
G01X-111060Y-138660D01*
G03X-109600Y-135130I-3540J3531D01*
G01Y-129000D01*
G02X-104600Y-124000I5000J0D01*
G01X-94000D01*
G01X-174600Y-96200D02*
X-177140Y-98740D01*
G03X-178600Y-102270I3540J-3531D01*
G01Y-116670D01*
G01X-95600Y-108300D02*
X-95460Y-108440D01*
G02X-94000Y-111970I-3540J-3531D01*
G01Y-124000D01*
G01X-65000Y1020200D02*
X-41070D01*
G02X-37540Y1018740I-1J-5000D01*
G01X6400Y974800D01*
G01X5400Y923800D02*
Y972390D01*
G02X6400Y974800I3400J2D01*
G01X26400D02*
X6400D01*
G01X28400Y-131200D02*
X36610D01*
G02X40140Y-132660I-1J-5000D01*
G01X45210Y-137730D01*
G03X48740Y-139190I3531J3540D01*
G01X70310D01*
G03X73840Y-137730I-1J5000D01*
G01X89940Y-121630D01*
G03X91400Y-118100I-3540J3531D01*
G01Y-85170D01*
G01X35900Y245830D02*
X51400D01*
G01X44400Y932800D02*
X26400D01*
G01X23400Y1014830D02*
G03X22400Y1012420I2400J-2408D01*
G01Y994830D01*
G01X43900Y284330D02*
Y268830D01*
G01X53400Y1014830D02*
X82400D01*
G01X91400Y-75170D02*
Y-85170D01*
G01X108900Y-10170D02*
Y-20600D01*
G02X107440Y-24130I-5000J1D01*
G01X92860Y-38710D01*
G03X91400Y-42240I3540J-3531D01*
G01Y-75170D01*
G01X95400Y118330D02*
Y132830D01*
G01X83400Y914830D02*
X98400D01*
G01X180400Y46330D02*
X125360Y-8710D01*
G02X121830Y-10170I-3531J3540D01*
G01X108900D01*
G01Y19830D02*
Y34830D01*
G01X180400Y-3200D02*
X156400D01*
G01X180400Y46330D02*
Y-3200D01*
G01X183900Y49830D02*
X180400Y46330D01*
G54D29*
X-116000Y-294750D03*
Y-265250D03*
G54D38*
X5400Y923800D03*
X26400Y932800D03*
Y914800D03*
G54D48*
G01X-543600Y297300D02*
Y219400D01*
G03X-542140Y215870I5000J1D01*
G01X-523530Y197260D01*
G03X-520000Y195800I3531J3540D01*
G01X-424140D01*
G02X-420610Y194340I-1J-5000D01*
G01X-400060Y173790D01*
G03X-396530Y172330I3531J3540D01*
G01X-388600D01*
G01X54850Y101300D02*
Y87820D01*
G02X53390Y84290I-5000J1D01*
G01X35360Y66260D01*
G03X33900Y62730I3540J-3531D01*
G01Y44830D01*
G02X28900Y39830I-5000J0D01*
G01X-396990D01*
G02X-400520Y41290I1J5000D01*
G01X-512140Y152910D01*
G02X-513600Y156440I3540J3531D01*
G01Y184830D01*
G01Y214830D02*
Y221780D01*
G03X-515060Y225310I-5000J-1D01*
G01X-516740Y226990D01*
G02X-518200Y230520I3540J3531D01*
G01Y297300D01*
G01X35800Y101300D02*
Y91270D01*
G02X34340Y87740I-5000J1D01*
G01X27860Y81260D01*
G02X24330Y79800I-3531J3540D01*
G01X10970D01*
G03X7440Y78340I1J-5000D01*
G01X-9610Y61290D01*
G02X-13140Y59830I-3531J3540D01*
G01X-374060D01*
G02X-377590Y61290I1J5000D01*
G01X-472140Y155840D01*
G02X-473600Y159370I3540J3531D01*
G01Y184830D01*
G01X-492800Y297300D02*
Y211080D01*
G03X-491340Y207550I5000J1D01*
G01X-489050Y205260D01*
G03X-485520Y203800I3531J3540D01*
G01X-394640D01*
G02X-391110Y202340I-1J-5000D01*
G01X-375060Y186290D01*
G02X-373600Y182760I-3540J-3531D01*
G01Y149400D01*
G03X-372140Y145870I5000J1D01*
G01X-334560Y108290D01*
G03X-331030Y106830I3531J3540D01*
G01X-300600D01*
G01X-473600Y214830D02*
Y221780D01*
G02X-472140Y225310I5000J-1D01*
G01X-468860Y228590D01*
G03X-467400Y232120I-3540J3531D01*
G01Y297300D01*
G01X-153600Y317300D02*
X-234040D01*
G03X-237570Y315840I1J-5000D01*
G01X-252750Y300660D01*
G02X-256280Y299200I-3531J3540D01*
G01X-319820D01*
G02X-323350Y300660I1J5000D01*
G01X-353260Y330570D01*
G02X-354720Y334100I3540J3531D01*
G01Y411560D01*
G03X-356180Y415090I-5000J-1D01*
G01X-427140Y486050D01*
G02X-428600Y489580I3540J3531D01*
G01Y892290D01*
G02X-427140Y895820I5000J-1D01*
G01X-379610Y943350D01*
X-376930Y944450D01*
G02X-375180Y944800I1756J-4229D01*
G01X-284350D01*
G03X-280820Y946260I-1J5000D01*
G01X-244260Y982820D01*
G03X-242800Y986350I-3540J3531D01*
G01Y994800D01*
G01X-153600Y309300D02*
X-232060D01*
G03X-235590Y307840I1J-5000D01*
G01X-247770Y295660D01*
G02X-251300Y294200I-3531J3540D01*
G01X-321900D01*
G02X-325430Y295660I1J5000D01*
G01X-358260Y328490D01*
G02X-359720Y332020I3540J3531D01*
G01Y409480D01*
G03X-361180Y413010I-5000J-1D01*
G01X-432140Y483970D01*
G02X-433600Y487500I3540J3531D01*
G01Y894370D01*
G02X-432140Y897900I5000J-1D01*
G01X-381680Y948360D01*
X-379000Y949460D01*
G02X-377270Y949800I1728J-4220D01*
G01X-288870D01*
G03X-285340Y951260I-1J5000D01*
G01X-256960Y979640D01*
G03X-255500Y983170I-3540J3531D01*
G01Y1005430D01*
G03X-256960Y1008960I-5000J-1D01*
G01X-268200Y1020200D01*
G01X-153600Y325300D02*
X-236060D01*
G03X-239590Y323840I1J-5000D01*
G01X-257770Y305660D01*
G02X-261300Y304200I-3531J3540D01*
G01X-317740D01*
G02X-321270Y305660I1J5000D01*
G01X-348260Y332650D01*
G02X-349720Y336180I3540J3531D01*
G01Y407390D01*
X-349710Y407400D01*
Y413630D01*
G03X-351170Y417160I-5000J-1D01*
G01X-422140Y488130D01*
G02X-423600Y491660I3540J3531D01*
G01Y890210D01*
G02X-422140Y893740I5000J-1D01*
G01X-377540Y938340D01*
G02X-374010Y939800I3531J-3540D01*
G01X-280250D01*
G03X-276720Y941260I-1J5000D01*
G01X-231560Y986420D01*
G03X-230100Y989950I-3540J3531D01*
G01Y1005430D01*
G03X-231560Y1008960I-5000J-1D01*
G01X-242800Y1020200D01*
G01X-153600Y381300D02*
X-165530D01*
G02X-169060Y382760I1J5000D01*
G01X-234670Y448370D01*
G03X-238200Y449830I-3531J-3540D01*
G01X-359030D01*
G02X-362560Y451290I1J5000D01*
G01X-414640Y503370D01*
G02X-416100Y506900I3540J3531D01*
G01Y866500D01*
G02X-414640Y870030I5000J-1D01*
G01X-363800Y920870D01*
G02X-360270Y922330I3531J-3540D01*
G01X-266910D01*
G03X-263380Y923790I-1J5000D01*
G01X-218860Y968310D01*
G03X-217400Y971840I-3540J3531D01*
G01Y994800D01*
G01X-433600Y999800D02*
X-408600Y974800D01*
G01X-153600Y389300D02*
X-166450D01*
G02X-169980Y390760I1J5000D01*
G01X-232590Y453370D01*
G03X-236120Y454830I-3531J-3540D01*
G01X-356950D01*
G02X-360480Y456290I1J5000D01*
G01X-409640Y505450D01*
G02X-411100Y508980I3540J3531D01*
G01Y864420D01*
G02X-409640Y867950I5000J-1D01*
G01X-361720Y915870D01*
G02X-358190Y917330I3531J-3540D01*
G01X-264830D01*
G03X-261300Y918790I-1J5000D01*
G01X-206160Y973930D01*
G03X-204700Y977460I-3540J3531D01*
G01Y1005430D01*
G03X-206160Y1008960I-5000J-1D01*
G01X-217400Y1020200D01*
G01X-136100Y414800D02*
X-177780D01*
G02X-181310Y416260I1J5000D01*
G01X-228430Y463370D01*
G03X-231960Y464830I-3531J-3540D01*
G01X-351530D01*
G02X-355060Y466290I1J5000D01*
G01X-399640Y510870D01*
G02X-401100Y514400I3540J3531D01*
G01Y860260D01*
G02X-399640Y863790I5000J-1D01*
G01X-357560Y905870D01*
G02X-354030Y907330I3531J-3540D01*
G01X-260670D01*
G03X-257140Y908790I-1J5000D01*
G01X-180760Y985170D01*
G03X-179300Y988700I-3540J3531D01*
G01Y1005430D01*
G03X-180760Y1008960I-5000J-1D01*
G01X-192000Y1020200D01*
G01X-153600Y397300D02*
X-167370D01*
G02X-170900Y398760I1J5000D01*
G01X-230510Y458370D01*
G03X-234040Y459830I-3531J-3540D01*
G01X-354030D01*
G02X-357560Y461290I1J5000D01*
G01X-404640Y508370D01*
G02X-406100Y511900I3540J3531D01*
G01Y862340D01*
G02X-404640Y865870I5000J-1D01*
G01X-359640Y910870D01*
G02X-356110Y912330I3531J-3540D01*
G01X-262750D01*
G03X-259220Y913790I-1J5000D01*
G01X-193460Y979550D01*
G03X-192000Y983080I-3540J3531D01*
G01Y994800D01*
G01X-120100Y414800D02*
Y424230D01*
G03X-121560Y427760I-5000J-1D01*
G01X-129640Y435840D01*
G03X-133170Y437300I-3531J-3540D01*
G01X-179420D01*
G02X-182950Y438760I1J5000D01*
G01X-250060Y505870D01*
G03X-253590Y507330I-3531J-3540D01*
G01X-358030D01*
G02X-361560Y508790I1J5000D01*
G01X-387140Y534370D01*
G02X-388600Y537900I3540J3531D01*
G01Y839420D01*
G02X-387140Y842950I5000J-1D01*
G01X-365990Y864100D01*
G02X-362460Y865560I3531J-3540D01*
G01X-251600D01*
G03X-248070Y867020I-1J5000D01*
G01X-155060Y960030D01*
G03X-153600Y963560I-3540J3531D01*
G01Y1005130D01*
G03X-155060Y1008660I-5000J-1D01*
G01X-166600Y1020200D01*
G01X-128100Y414800D02*
Y422750D01*
G03X-129560Y426280I-5000J-1D01*
G01X-134120Y430840D01*
G03X-137650Y432300I-3531J-3540D01*
G01X-181500D01*
G02X-185030Y433760I1J5000D01*
G01X-252140Y500870D01*
G03X-255670Y502330I-3531J-3540D01*
G01X-360110D01*
G02X-363640Y503790I1J5000D01*
G01X-392140Y532290D01*
G02X-393600Y535820I3540J3531D01*
G01Y841500D01*
G02X-392140Y845030I5000J-1D01*
G01X-368070Y869100D01*
G02X-364540Y870560I3531J-3540D01*
G01X-253680D01*
G03X-250150Y872020I-1J5000D01*
G01X-168060Y954110D01*
G03X-166600Y957640I-3540J3531D01*
G01Y994800D01*
G01X-112100Y414800D02*
Y426230D01*
G03X-113560Y429760I-5000J-1D01*
G01X-124640Y440840D01*
G03X-128170Y442300I-3531J-3540D01*
G01X-177340D01*
G02X-180870Y443760I1J5000D01*
G01X-247980Y510870D01*
G03X-251510Y512330I-3531J-3540D01*
G01X-355950D01*
G02X-359480Y513790I1J5000D01*
G01X-382140Y536450D01*
G02X-383600Y539980I3540J3531D01*
G01Y837340D01*
G02X-382140Y840870I5000J-1D01*
G01X-363910Y859100D01*
G02X-360380Y860560I3531J-3540D01*
G01X-249520D01*
G03X-245990Y862020I-1J5000D01*
G01X-142660Y965350D01*
G03X-141200Y968880I-3540J3531D01*
G01Y994800D01*
G01X-408600Y974800D02*
X-273200D01*
G03X-268200Y979800I0J5000D01*
G01Y994800D01*
G01X-408600Y1024800D02*
X-363170D01*
G02X-359640Y1023340I-1J-5000D01*
G01X-345060Y1008760D01*
G03X-341530Y1007300I3531J3540D01*
G01X-286100D01*
G03X-281100Y1012300I0J5000D01*
G01Y1029800D01*
G02X-276100Y1034800I5000J0D01*
G01X-107070D01*
G02X-103540Y1033340I-1J-5000D01*
G01X-90400Y1020200D01*
G01X-283100Y196830D02*
X-283600Y197330D01*
X-291530D01*
G03X-295060Y195870I1J-5000D01*
G01X-317140Y173790D01*
G02X-320670Y172330I-3531J3540D01*
G01X-358600D01*
G01X-72100Y414800D02*
Y428760D01*
G03X-73560Y432290I-5000J-1D01*
G01X-107140Y465870D01*
G03X-110670Y467330I-3531J-3540D01*
G01X-166930D01*
G02X-170460Y468790I1J5000D01*
G01X-236370Y534700D01*
Y535340D01*
G03X-237000Y535970I-630J0D01*
G01X-345170D01*
G02X-348700Y537430I1J5000D01*
G01X-359640Y548370D01*
G02X-361100Y551900I3540J3531D01*
G01Y820260D01*
G02X-359640Y823790I5000J-1D01*
G01X-350060Y833370D01*
G02X-346530Y834830I3531J-3540D01*
G01X-241390D01*
G03X-237860Y836290I-1J5000D01*
G01X-91860Y982290D01*
G03X-90400Y985820I-3540J3531D01*
G01Y994800D01*
G01X-88100Y414800D02*
Y429760D01*
G03X-89560Y433290I-5000J-1D01*
G01X-112140Y455870D01*
G03X-115670Y457330I-3531J-3540D01*
G01X-171520D01*
G02X-175050Y458790I1J5000D01*
G01X-240430Y524170D01*
G03X-243960Y525630I-3531J-3540D01*
G01X-348990D01*
G02X-352520Y527090I1J5000D01*
G01X-369640Y544210D01*
G02X-371100Y547740I3540J3531D01*
G01Y825260D01*
G02X-369640Y828790I5000J-1D01*
G01X-355060Y843370D01*
G02X-351530Y844830I3531J-3540D01*
G01X-245550D01*
G03X-242020Y846290I-1J5000D01*
G01X-117260Y971050D01*
G03X-115800Y974580I-3540J3531D01*
G01Y994800D01*
G01X-104100Y414800D02*
Y428230D01*
G03X-105560Y431760I-5000J-1D01*
G01X-119640Y445840D01*
G03X-123170Y447300I-3531J-3540D01*
G01X-175260D01*
G02X-178790Y448760I1J5000D01*
G01X-245900Y515870D01*
G03X-249430Y517330I-3531J-3540D01*
G01X-353870D01*
G02X-357400Y518790I1J5000D01*
G01X-377140Y538530D01*
G02X-378600Y542060I3540J3531D01*
G01Y835260D01*
G02X-377140Y838790I5000J-1D01*
G01X-361830Y854100D01*
G02X-358300Y855560I3531J-3540D01*
G01X-247440D01*
G03X-243910Y857020I-1J5000D01*
G01X-129960Y970970D01*
G03X-128500Y974500I-3540J3531D01*
G01Y1005430D01*
G03X-129960Y1008960I-5000J-1D01*
G01X-141200Y1020200D01*
G01X-80100Y414800D02*
Y429260D01*
G03X-81560Y432790I-5000J-1D01*
G01X-109640Y460870D01*
G03X-113170Y462330I-3531J-3540D01*
G01X-169440D01*
G02X-172970Y463790I1J5000D01*
G01X-238690Y529510D01*
G03X-242220Y530970I-3531J-3540D01*
G01X-347250D01*
G02X-350780Y532430I1J5000D01*
G01X-364640Y546290D01*
G02X-366100Y549820I3540J3531D01*
G01Y822340D01*
G02X-364640Y825870I5000J-1D01*
G01X-352140Y838370D01*
G02X-348610Y839830I3531J-3540D01*
G01X-243470D01*
G03X-239940Y841290I-1J5000D01*
G01X-104560Y976670D01*
G03X-103100Y980200I-3540J3531D01*
G01Y1005430D01*
G03X-104560Y1008960I-5000J-1D01*
G01X-115800Y1020200D01*
G01X-336260Y577300D02*
X-105670D01*
G02X-102140Y575840I-1J-5000D01*
G01X-77590Y551290D01*
G03X-74060Y549830I3531J3540D01*
G01X-63600D01*
G01X-336260Y627300D02*
X-307720Y598760D01*
G03X-304190Y597300I3531J3540D01*
G01X-21100D01*
G01X3900D02*
Y755230D01*
G03X2440Y758760I-5000J-1D01*
G01X-14640Y775840D01*
G03X-18170Y777300I-3531J-3540D01*
G01X-319190D01*
G02X-322720Y778760I1J5000D01*
G01X-336260Y792300D01*
G01X-153600Y341300D02*
X-257530D01*
G03X-261060Y339840I1J-5000D01*
G01X-264140Y336760D01*
G02X-267670Y335300I-3531J3540D01*
G01X-288530D01*
G02X-292060Y336760I1J5000D01*
G01X-294640Y339340D01*
G02X-296100Y342870I3540J3531D01*
G01Y358530D01*
G02X-294640Y362060I5000J-1D01*
G01X-283600Y373100D01*
G01X-283100Y148830D02*
Y128740D01*
G02X-284100Y126330I-3400J-2D01*
G03X-285100Y123920I2400J-2408D01*
G01Y96400D01*
G03X-283640Y92870I5000J1D01*
G01X-279060Y88290D01*
G03X-275530Y86830I3531J3540D01*
G01X-129600D01*
G03X-124600Y91830I0J5000D01*
G01Y136760D01*
G02X-123140Y140290I5000J-1D01*
G01X-119060Y144370D01*
G02X-115530Y145830I3531J-3540D01*
G01X-68650D01*
G02X-65120Y144370I-1J-5000D01*
G01X-62560Y141810D01*
G02X-61100Y138280I-3540J-3531D01*
G01Y129830D01*
G01X-270600Y106830D02*
X-254670D01*
G03X-251140Y108290I-1J5000D01*
G01X-231060Y128370D01*
G02X-227530Y129830I3531J-3540D01*
G01X-162700D01*
G01X-153600Y333300D02*
X-253030D01*
G03X-256560Y331840I1J-5000D01*
G01X-264640Y323760D01*
G02X-268170Y322300I-3531J3540D01*
G01X-283600D01*
G01X-153600Y349300D02*
X-270350D01*
G03X-272280Y348500I-3J-2720D01*
G02X-274210Y347700I-1927J1920D01*
G01X-283600D01*
G01X-153600Y357300D02*
X-249030D01*
G02X-252560Y358760I1J5000D01*
G01X-262140Y368340D01*
G02X-263600Y371870I3540J3531D01*
G01Y401830D01*
G03X-265060Y405360I-5000J-1D01*
G01X-283600Y423900D01*
G01X-260100Y139330D02*
X-253170D01*
G03X-249640Y140790I-1J5000D01*
G01X-243060Y147370D01*
G03X-241600Y150900I-3540J3531D01*
G01Y179760D01*
G02X-240140Y183290I5000J-1D01*
G01X-236100Y187330D01*
G01X-231600Y209830D02*
Y193900D01*
G02X-233060Y190370I-5000J1D01*
G01X-236100Y187330D01*
G01X-260100D02*
X-236100D01*
G01X-128100Y259800D02*
Y242370D01*
G02X-129560Y238840I-5000J1D01*
G01X-179610Y188790D01*
G02X-183140Y187330I-3531J3540D01*
G01X-236100D01*
G01X-211100Y-160670D02*
Y-207980D01*
X-200780Y-218300D01*
X-190390D01*
G02X-187890Y-220800I0J-2500D01*
G01Y-225300D01*
G03X-185390Y-227800I2500J0D01*
G01X-178600D01*
G01X-206100Y-160670D02*
Y-205900D01*
X-198700Y-213300D01*
X-190390D01*
G03X-187890Y-210800I0J2500D01*
G01Y-206300D01*
G02X-185390Y-203800I2500J0D01*
G01X-178600D01*
G01X-212600Y-139170D02*
Y-143650D01*
G03X-211850Y-145460I2550J-4D01*
G02X-211100Y-147270I-1800J-1806D01*
G01Y-160670D01*
G01D02*
X-212140Y-161710D01*
G02X-215670Y-163170I-3531J3540D01*
G01X-221600D01*
G01X-204600Y-139170D02*
Y-143650D01*
G02X-205350Y-145460I-2550J-4D01*
G03X-206100Y-147270I1800J-1806D01*
G01Y-160670D01*
G01D02*
X-205060Y-161710D01*
G03X-201530Y-163170I3531J3540D01*
G01X-195600D01*
G01X-219600Y-96200D02*
X-214060Y-101740D01*
G02X-212600Y-105270I-3540J-3531D01*
G01Y-121170D01*
G01X-199600Y-96200D02*
X-203140Y-99740D01*
G03X-204600Y-103270I3540J-3531D01*
G01Y-121170D01*
G01X-231600Y239830D02*
Y259800D01*
G01X-136100D02*
Y244400D01*
G02X-137560Y240870I-5000J1D01*
G01X-167140Y211290D01*
G02X-170670Y209830I-3531J3540D01*
G01X-197600D01*
G01Y239830D02*
Y257390D01*
G03X-198600Y259800I-3400J2D01*
G01X-127600Y-206300D02*
X-144030D01*
G02X-147560Y-204840I1J5000D01*
G01X-148600Y-203800D01*
G01X-128000Y-225500D02*
X-144230D01*
G03X-147760Y-226960I1J-5000D01*
G01X-148600Y-227800D01*
G01X-120100Y259800D02*
Y240370D01*
G02X-121560Y236840I-5000J1D01*
G01X-159000Y199420D01*
X-161240Y197180D01*
G03X-162700Y193650I3540J-3531D01*
G01Y129830D01*
G01X-35150Y508830D02*
X-135000D01*
G03X-138530Y507370I1J-5000D01*
G01X-146100Y499800D01*
G01X-8780Y614620D02*
X-131350D01*
G02X-134880Y616080I1J5000D01*
G01X-146100Y627300D01*
G01Y792300D02*
X-13170D01*
G02X-9640Y790840I-1J-5000D01*
G01X14940Y766260D01*
G02X16400Y762730I-3540J-3531D01*
G01Y624370D01*
G03X17860Y620840I5000J1D01*
G01X23900Y614800D01*
G01X-92600Y-199220D02*
X-103020D01*
X-111600Y-207800D01*
X-126100D01*
X-127600Y-206300D01*
G01X-128000Y-225500D02*
X-120890Y-223300D01*
X-111890Y-214300D01*
X-108900D01*
X-106520Y-211920D01*
X-92600D01*
G01X-123100Y-169800D02*
X-112680D01*
G02X-110910Y-170530I4J-2500D01*
G01X-109600Y-171840D01*
G01X-56100Y259800D02*
Y241870D01*
G03X-54640Y238340I5000J1D01*
G01X-45060Y228760D01*
G02X-43600Y225230I-3540J-3531D01*
G01Y185900D01*
G02X-45060Y182370I-5000J1D01*
G01X-58140Y169290D01*
G02X-61670Y167830I-3531J3540D01*
G01X-118500D01*
G03X-122030Y166370I1J-5000D01*
G01X-135840Y152560D01*
G03X-137300Y149030I3540J-3531D01*
G01Y129830D01*
G01X19400Y221830D02*
Y185400D01*
G02X17940Y181870I-5000J1D01*
G01X-9640Y154290D01*
G03X-11100Y150760I3540J-3531D01*
G01Y119400D01*
G02X-12560Y115870I-5000J1D01*
G01X-40140Y88290D01*
G02X-43670Y86830I-3531J3540D01*
G01X-63530D01*
G02X-67060Y88290I1J5000D01*
G01X-71390Y92620D01*
G02X-72850Y96150I3540J3531D01*
G01Y109010D01*
G03X-74310Y112540I-5000J-1D01*
G01X-77140Y115370D01*
G03X-80670Y116830I-3531J-3540D01*
G01X-96830D01*
G02X-100360Y118290I1J5000D01*
G01X-111900Y129830D01*
G01X-133600Y374800D02*
X-133640Y374760D01*
G01X-107620Y-173820D02*
X-109600Y-171840D01*
G01X-107620Y-173820D02*
X-109600Y-175800D01*
Y-183800D01*
G03X-106880Y-186520I2720J0D01*
G01X-92600D01*
G01Y-173820D02*
X-107620D01*
G01X-109600Y-171840D02*
Y-167670D01*
G02X-108140Y-164140I5000J-1D01*
G01X-106580Y-162580D01*
G02X-103050Y-161120I3531J-3540D01*
G01X-92600D01*
G01X-64100Y414800D02*
Y454830D01*
X-63600Y455330D01*
Y495830D01*
G01X-56100Y414800D02*
Y431540D01*
G02X-54640Y435070I5000J-1D01*
G01X-36610Y453100D01*
G03X-35150Y456630I-3540J3531D01*
G01Y462830D01*
G01X-63600Y549830D02*
Y525830D01*
G01Y579830D02*
X-49490D01*
G03X-45960Y581290I-1J5000D01*
G01X-44880Y582370D01*
G02X-41350Y583830I3531J-3540D01*
G01X-35150D01*
G01X-32100Y414800D02*
Y423760D01*
G02X-30640Y427290I5000J-1D01*
G01X-20560Y437370D01*
G02X-17030Y438830I3531J-3540D01*
G01X-12170D01*
G03X-8640Y440290I-1J5000D01*
G01X3900Y452830D01*
Y454510D01*
X3950Y454560D01*
Y462830D01*
G01X-40100Y414800D02*
Y423760D01*
G02X-38640Y427290I5000J-1D01*
G01X-10710Y455220D01*
G03X-9250Y458750I-3540J3531D01*
G01Y462830D01*
G01X-48100Y414800D02*
Y426340D01*
G02X-46640Y429870I5000J-1D01*
G01X-23410Y453100D01*
G03X-21950Y456630I-3540J3531D01*
G01Y462830D01*
G01X-24100Y414800D02*
Y422750D01*
G02X-22640Y426280I5000J-1D01*
G01X-17550Y431370D01*
G02X-14020Y432830I3531J-3540D01*
G01X-6670D01*
G03X-3140Y434290I-1J5000D01*
G01X11940Y449370D01*
G02X15470Y450830I3531J-3540D01*
G01X21400D01*
X23900Y453330D01*
Y453610D01*
X24850Y454560D01*
Y462830D01*
G01X-35150Y551830D02*
Y508830D01*
G01D02*
Y494830D01*
G01Y583830D02*
X-21950D01*
G01X-16750Y-302000D02*
X19000D01*
X20000Y-301000D01*
X48000D01*
G01X126400Y-127420D02*
X110380D01*
X106900Y-130900D01*
Y-182900D01*
X91500Y-198300D01*
X34120D01*
G03X30590Y-199760I1J-5000D01*
G01X21530Y-208820D01*
X17360D01*
G03X13830Y-210280I1J-5000D01*
G01X13650Y-210460D01*
G02X10120Y-211920I-3531J3540D01*
G01X400D01*
G01X126400Y-120920D02*
X107680D01*
X101860Y-126740D01*
G03X100400Y-130270I3540J-3531D01*
G01Y-180200D01*
X88800Y-191800D01*
X29350D01*
X18830Y-202320D01*
X17060D01*
G02X14040Y-201070I-1J4270D01*
G01X13650Y-200680D01*
G03X10120Y-199220I-3531J-3540D01*
G01X400D01*
G01X14400Y-173800D02*
X16400Y-175800D01*
Y-183800D01*
G02X13680Y-186520I-2720J0D01*
G01X400D01*
G01Y-173820D02*
X12920D01*
X12940Y-173800D01*
X14400D01*
G01X16400Y-171800D02*
Y-163800D01*
G03X13720Y-161120I-2680J0D01*
G01X400D01*
G01X6400Y119030D02*
Y149810D01*
G02X7860Y153340I5000J-1D01*
G01X32870Y178350D01*
G02X36400Y179810I3531J-3540D01*
G01X137260D01*
G03X140790Y181270I-1J5000D01*
G01X159940Y200420D01*
G03X161400Y203950I-3540J3531D01*
G01Y417730D01*
G03X159940Y421260I-5000J-1D01*
G01X158140Y423060D01*
G03X156360Y423800I-1780J-1771D01*
G01X87100D01*
G03X85320Y423060I0J-2511D01*
G01X21020Y358760D01*
G02X17490Y357300I-3531J3540D01*
G01X1400D01*
G01X18900Y245830D02*
Y291750D01*
G03X17440Y295280I-5000J-1D01*
G01X12880Y299840D01*
G03X9350Y301300I-3531J-3540D01*
G01X1400D01*
G01Y365300D02*
X18410D01*
G03X21940Y366760I-1J5000D01*
G01X85240Y430060D01*
G02X87020Y430800I1780J-1771D01*
G01X156440D01*
G02X158220Y430060I0J-2511D01*
G01X164940Y423340D01*
G02X166400Y419810I-3540J-3531D01*
G01Y201870D01*
G02X164940Y198340I-5000J1D01*
G01X142870Y176270D01*
G02X139340Y174810I-3531J3540D01*
G01X38480D01*
G03X34950Y173350I1J-5000D01*
G01X17860Y156260D01*
G03X16400Y152730I3540J-3531D01*
G01Y111370D01*
G03X17860Y107840I5000J1D01*
G01X22940Y102760D01*
G03X26470Y101300I3531J3540D01*
G01X29450D01*
G01X124100Y407300D02*
Y395320D01*
G02X122640Y391790I-5000J1D01*
G01X117140Y386290D01*
G02X113610Y384830I-3531J3540D01*
G01X72470D01*
G03X70690Y384090I0J-2511D01*
G01X32920Y346320D01*
G02X20800Y341300I-12124J12130D01*
G01X1400D01*
G01X111400Y407300D02*
Y394300D01*
G02X108900Y391800I-2500J0D01*
G01X71160D01*
G03X62860Y388370I-4J-11747D01*
G01X25250Y350760D01*
G02X21720Y349300I-3531J3540D01*
G01X1400D01*
G01Y373300D02*
X14910D01*
G03X18440Y374760I-1J5000D01*
G01X81740Y438060D01*
G02X83520Y438800I1780J-1771D01*
G01X158860D01*
G02X160640Y438060I0J-2511D01*
G01X172440Y426260D01*
G02X173900Y422730I-3540J-3531D01*
G01Y196900D01*
G02X172440Y193370I-5000J1D01*
G01X132830Y153760D01*
G02X129300Y152300I-3531J3540D01*
G01X73900D01*
G01X1400Y381300D02*
X13300D01*
G03X16830Y382760I-1J5000D01*
G01X97440Y463370D01*
G03X98900Y466900I-3540J3531D01*
G01Y867520D01*
G03X97660Y870520I-4240J4D01*
G02X96400Y873560I3030J3037D01*
G01Y876280D01*
G03X94940Y879810I-5000J-1D01*
G01X92380Y882370D01*
G03X88850Y883830I-3531J-3540D01*
G01X83400D01*
G01X1400Y389300D02*
X9350D01*
G03X12880Y390760I-1J5000D01*
G01X31190Y409070D01*
G03X32650Y412600I-3540J3531D01*
G01Y426360D01*
G02X34110Y429880I4976J-1D01*
G01X62490Y458260D01*
G03X63950Y461790I-3540J3531D01*
G01Y462830D01*
G01X-16100Y397300D02*
X-13910D01*
Y399520D01*
G01D02*
X8450Y421880D01*
G02X11980Y423340I3531J-3540D01*
G01X12130D01*
G02X15660Y424800I3531J-3540D01*
G01X16400D01*
G01X-16100Y414800D02*
X-13150D01*
G03X-9620Y416260I-1J5000D01*
G01X17490Y443370D01*
G02X21020Y444830I3531J-3540D01*
G01X31400D01*
X33900Y447330D01*
Y447830D01*
X37440Y451370D01*
G03X38900Y454900I-3540J3531D01*
G01Y460780D01*
G03X38050Y462830I-2890J3D01*
G01X1400Y397300D02*
X4330D01*
G03X7860Y398760I-1J5000D01*
G01X24940Y415840D01*
G03X26400Y419370I-3540J3531D01*
G01Y430130D01*
G02X27860Y433660I5000J-1D01*
G01X48940Y454800D01*
X49850Y455710D01*
G03X50750Y457880I-2160J2167D01*
G01Y462830D01*
G01X3950Y494830D02*
X3900Y494880D01*
Y532300D01*
G01X-9250Y494830D02*
X-8780Y495300D01*
Y514800D01*
G01X-9250Y551830D02*
X-8780Y551360D01*
Y514800D01*
G01X-21950Y494830D02*
G03X-21100Y496880I-2040J2047D01*
G01Y532300D01*
G01X3950Y551830D02*
X3900Y551780D01*
Y532300D01*
G01X-21950Y551830D02*
G02X-21100Y549780I-2040J-2047D01*
G01Y532300D01*
G01X-21950Y583830D02*
X-9250D01*
G01D02*
X3950D01*
G01X26850Y583330D02*
X12720D01*
X12220Y583830D01*
X3950D01*
G01X14400Y-173800D02*
X16400Y-171800D01*
G01X33900Y-167800D02*
X22470D01*
G03X18940Y-169260I1J-5000D01*
G01X16400Y-171800D01*
G01X31400Y-53670D02*
G02X33960Y-54730I1J-3620D01*
G01X40190Y-60960D01*
G03X43720Y-62420I3531J3540D01*
G01X56400D01*
G01Y-81920D02*
X56150Y-82170D01*
X36400D01*
G01X56400Y-68920D02*
X25970D01*
G02X22440Y-67460I1J5000D01*
G01X17860Y-62880D01*
G02X16400Y-59350I3540J3531D01*
G01Y24830D01*
G01X42150Y101300D02*
Y84620D01*
G02X40690Y81090I-5000J1D01*
G01X33390Y73790D01*
G02X29860Y72330I-3531J3540D01*
G01X28450D01*
G03X24920Y70870I1J-5000D01*
G01X17860Y63810D01*
G03X16400Y60280I3540J-3531D01*
G01Y54830D01*
G01X33900Y134800D02*
X30910Y137790D01*
G01D02*
G02X29450Y141320I3540J3531D01*
G01Y152300D01*
G01X19400Y221830D02*
Y233100D01*
X18900Y233600D01*
Y245830D01*
G01X38050Y494830D02*
X38500Y495280D01*
Y532970D01*
G01X24850Y494830D02*
X24940Y494920D01*
G03X26400Y498450I-3540J3531D01*
G01Y519800D01*
G01X26850Y551330D02*
X26400Y550880D01*
Y519800D01*
G01X40050Y583330D02*
X26850D01*
G01X26400Y914800D02*
X45850D01*
X45880Y914830D01*
X53400D01*
G01X48000Y-301000D02*
X76000D01*
G01X91400Y-75170D02*
X80110Y-63880D01*
G03X76580Y-62420I-3531J-3540D01*
G01X56400D01*
G01Y-42920D02*
Y-10170D01*
G01D02*
Y24830D01*
G01X61200Y101300D02*
Y84170D01*
G02X59740Y80640I-5000J1D01*
G01X57860Y78760D01*
G03X56400Y75230I3540J-3531D01*
G01Y54830D01*
G01X69010Y87190D02*
G02X67550Y90720I3540J3531D01*
G01Y101300D01*
G01X48500D02*
Y119800D01*
G01X44430Y424800D02*
X45300D01*
G03X48830Y426260I-1J5000D01*
G01X87690Y465120D01*
G03X89150Y468650I-3540J3531D01*
G01Y568510D01*
G03X87690Y572040I-5000J-1D01*
G01X78360Y581370D01*
G03X74830Y582830I-3531J-3540D01*
G01X66450D01*
X65950Y583330D01*
G01X63950Y494830D02*
X63900Y494880D01*
Y511370D01*
G01X65950Y551330D02*
X65360Y550740D01*
G03X63900Y547210I3540J-3531D01*
G01Y511370D01*
G01X50750Y494830D02*
X51400Y495480D01*
Y522300D01*
G01X40050Y551330D02*
X39960Y551240D01*
G03X38500Y547710I3540J-3531D01*
G01Y532970D01*
G01X52750Y551330D02*
X52740Y551320D01*
G03X51400Y548080I3240J-3237D01*
G01Y522300D01*
G01X52750Y583330D02*
X40050D01*
G01X65950D02*
X52750D01*
G01X53400Y883830D02*
Y914830D01*
G01X76000Y-271000D02*
Y-264290D01*
G02X77460Y-260760I5000J-1D01*
G01X80440Y-257780D01*
G03X81900Y-254250I-3540J3531D01*
G01Y-248800D01*
G01X158400Y-176800D02*
X133470D01*
G03X129940Y-178260I1J-5000D01*
G01X92860Y-215340D01*
G03X91400Y-218870I3540J-3531D01*
G01Y-223560D01*
G01Y-85170D02*
X99690Y-93460D01*
G03X103220Y-94920I3531J3540D01*
G01X126400D01*
G01X86400Y-10170D02*
X108900D01*
G01X73900Y82300D02*
X69010Y87190D01*
G01X95400Y101330D02*
X95430Y101300D01*
X73900D01*
G01X82970Y594800D02*
Y795160D01*
G03X81510Y798690I-5000J-1D01*
G01X68400Y811800D01*
G01X68900Y646700D02*
Y612300D01*
G01X147900Y-120170D02*
X141400D01*
X139400Y-118170D01*
Y-117110D01*
X136710Y-114420D01*
X126400D01*
G01Y-94920D02*
X141280D01*
G03X143830Y-94220I-2J5000D01*
G01X147900Y-91800D01*
G01X126400Y-107920D02*
X126150Y-107670D01*
X106400D01*
G01X126400Y-88420D02*
X113090D01*
G02X109560Y-86960I1J5000D01*
G01D02*
X106400Y-83800D01*
G01X158400Y-146800D02*
X181330D01*
G03X184860Y-145340I-1J5000D01*
G01X188940Y-141260D01*
G03X190400Y-137730I-3540J3531D01*
G01Y-115870D01*
G03X188940Y-112340I-5000J-1D01*
G01X183860Y-107260D01*
G03X180330Y-105800I-3531J-3540D01*
G01X144620D01*
G02X141090Y-104340I1J5000D01*
G01X139630Y-102880D01*
G03X136100Y-101420I-3531J-3540D01*
G01X126400D01*
G01Y-55920D02*
X110220D01*
G01X126400Y-62420D02*
X113220D01*
G02X109690Y-60960I1J5000D01*
G01X110220Y-55920D02*
G03X106690Y-57380I1J-5000D01*
G01X106400Y-57670D01*
G01X109690Y-60960D02*
X106400Y-57670D01*
G01X180400Y-67800D02*
Y-73800D01*
G02X176400Y-77800I-4000J0D01*
G01X144470D01*
G03X140940Y-79260I1J-5000D01*
G01X139740Y-80460D01*
G02X136210Y-81920I-3531J3540D01*
G01X126400D01*
G01X156400Y-67800D02*
X146470D01*
G03X142940Y-69260I1J-5000D01*
G01X138240Y-73960D01*
G02X134710Y-75420I-3531J3540D01*
G01X126400D01*
G01X156400Y-51800D02*
Y-33200D01*
G01X180400Y-51800D02*
Y-33200D01*
G54D39*
X35800Y101300D03*
X29450D03*
Y152300D03*
X35800D03*
X67550Y101300D03*
X61200D03*
X54850D03*
X48500D03*
X42150D03*
Y152300D03*
X48500D03*
X54850D03*
X61200D03*
X67550D03*
X73900Y101300D03*
Y152300D03*
G54D49*
G01X-563140Y437830D02*
X-551600D01*
G01X-565100Y457540D02*
Y469830D01*
G01D02*
Y482120D01*
G01Y469830D02*
X-554310D01*
G01X-551600Y423540D02*
Y437830D01*
G01D02*
Y452120D01*
G01Y437830D02*
X-540060D01*
G01X-442000Y322700D02*
Y336490D01*
G01Y322700D02*
X-428210D01*
G01X-467400D02*
Y336490D01*
G01X-351390Y-176170D02*
X-336100D01*
G01X-326640Y-187170D02*
X-309600D01*
G01X-336100Y-189960D02*
Y-176170D01*
G01X-322790Y322300D02*
X-309000D01*
G01X-309600Y-200460D02*
Y-187170D01*
G01D02*
X-292560D01*
G01X-307140Y994800D02*
X-293600D01*
G01X-235640Y-172670D02*
X-221600D01*
G01X-238600Y-158960D02*
Y-143670D01*
G01X-202100Y277330D02*
Y289620D01*
G01X-212890Y277330D02*
X-202100D01*
G01X-212100Y368830D02*
Y381120D01*
G01X-176490Y104430D02*
X-162700D01*
G01X-143290Y-242500D02*
X-128000D01*
G01X-142890Y-189300D02*
X-127600D01*
G01X-153890Y-169800D02*
X-140100D01*
G01Y-185090D02*
Y-169800D01*
G01X-111900Y90640D02*
Y104430D01*
G01X-96540Y-314700D02*
X-79250D01*
G01X-81540Y-258000D02*
X-67250D01*
G01X-95600Y-91300D02*
Y-77510D01*
G01X-110890Y-91300D02*
X-95600D01*
G01X-86500Y90640D02*
Y104430D01*
G01X-78860Y-270640D02*
X-67250Y-258000D01*
G01X-78860Y-245360D02*
X-67250Y-258000D01*
G01X-24750D02*
X-13460D01*
G01X-24750D02*
X-15170Y-246860D01*
G01X-24750Y-258000D02*
X-15170Y-269140D01*
G01X-16750Y-314700D02*
X-2460D01*
G01X3710Y-269500D02*
X16000D01*
G01X400Y-224620D02*
X15690D01*
G01X400Y-148420D02*
X15690D01*
G01X16000Y-269500D02*
Y-258710D01*
G01X37900Y-231170D02*
Y-218880D01*
G01X27110Y-231170D02*
X37900D01*
G01X28400Y-114200D02*
Y-103410D01*
G01X16110Y-114200D02*
X28400D01*
G01X31400Y-36670D02*
Y-25880D01*
G01X35900Y233540D02*
Y245830D01*
G01D02*
Y258120D01*
G01X31610Y284330D02*
X43900D01*
G01X26400Y932800D02*
Y943090D01*
G01X50900Y-180090D02*
Y-167800D01*
G01D02*
Y-155510D01*
G01Y-167800D02*
X61690D01*
G01X43900Y284330D02*
X56190D01*
G01X56400Y960760D02*
Y974800D01*
G01D02*
Y988840D01*
G01X46110Y974800D02*
X56400D01*
G01X91400Y-259090D02*
Y-248800D01*
G01D02*
Y-238510D01*
G01X94610Y19830D02*
X108900D01*
G01X83110Y118330D02*
X95400D01*
G01D02*
X107690D01*
G01X83400Y900790D02*
Y914830D01*
G01D02*
Y928870D01*
G01X73110Y914830D02*
X83400D01*
G01X108900Y8290D02*
Y19830D01*
G01D02*
X123190D01*
G01X124100Y461300D02*
X129150Y474340D01*
G01X115400Y501800D02*
Y512590D01*
G01Y501800D02*
X127690D01*
G01X144450Y394260D02*
X149500Y407300D01*
G01Y461300D02*
Y474340D01*
G01Y461300D02*
X157790D01*
G01X136800D02*
Y474340D01*
G01X164900Y-132460D02*
Y-120170D01*
G01D02*
X175690D01*
G01X164900Y-91800D02*
X175690D01*
M02*
