M48
METRIC,TZ
T01C.5
T02C1.
T03C1.1
T04C1.2
T05C2.5
T06C3.2
;LEADER: 12 
;HEADER: 
;CODE  : ASCII 
;FILE  : v3-bl-1-2-bl-1-2.drl for  ... layers 1 and 2
;DESIGN: 03v3.brd
;T01 Holesize 1. = 0.500000 Tolerance = +0.000000/-0.000000 PLATED MM Quantity = 238
;T02 Holesize 2. = 1.000000 Tolerance = +0.000000/-0.000000 PLATED MM Quantity = 55
;T03 Holesize 3. = 1.100000 Tolerance = +0.000000/-0.000000 PLATED MM Quantity = 4
;T04 Holesize 4. = 1.200000 Tolerance = +0.000000/-0.000000 PLATED MM Quantity = 2
;T05 Holesize 5. = 2.500000 Tolerance = +0.000000/-0.000000 PLATED MM Quantity = 2
;T06 Holesize 6. = 3.200000 Tolerance = +0.000000/-0.000000 PLATED MM Quantity = 4
%
G90
T01
X-94000Y-124000
Y-236000
X22400Y994830
X-100000Y-316000
X-168000
X-152000Y-184000
X-111600Y-154140
X-336100Y-190170
X-238600Y-165170
X-114000Y-102000
X-309600Y-201670
X-164000Y-168000
X-94000Y-250000
Y-274000
Y-262000
X-112000Y-228000
X-178000Y-184000
X-148000Y-248000
X-320000Y-316000
X-386000
Y-234000
Y-154000
Y-62000
X-316000
X-238000
X-160000
X-90000
X-238000Y-316000
Y-246000
X-320000Y-248000
X-280000Y-164000
X-298000Y-94000
X-354000Y-182000
X-224000Y-198000
X-198000Y-232000
X-352000Y-116000
X-146100Y499800
X48500Y119800
X6400Y119030
X-146100Y792300
X23900Y614800
X26400Y519800
X82970Y594800
X68400Y811800
X51400Y522300
X68900Y646700
X38500Y532970
X68900Y612300
X98000Y-236000
X176000Y-162000
X120400Y-141800
X106400Y-83800
X182400Y-91800
X178400Y-120170
X106400Y-57670
X86400Y-145800
X-2000Y10000
X36400Y-82170
X106400Y-107670
X166000Y86000
X73900Y82300
X31400Y-21170
X108900Y34830
X-387350Y222250
X-520700Y349250
X-330200Y190500
X-171450Y234950
X-444500Y254000
X-498300Y406190
X-445270Y353160
X-392230Y300130
X-339200Y247100
X-536780Y40830
X-612600Y106030
Y206030
X-566370Y294700
X-546060Y196790
X-493780Y111540
X-423070Y40830
X-536100Y437330
X-548600Y469830
X-2100Y51800
X-396100Y57800
X-494100Y163800
X0Y101600
X-304800Y76200
X-368300Y88900
X-393700Y139700
X-444500Y165100
X-228600Y101600
X-266700Y127000
X-190500Y165100
X-330200Y139700
X-285750Y171450
X-50800Y152400
X-31750Y234950
X33900Y134800
X95400Y132830
X-95250Y184150
X-146050Y171450
X50800Y203200
X127000
X70130Y260900
X145130
X51400Y245830
X-18600Y322300
X43900Y268830
X-304800Y279400
X-431800Y457200
X-381000Y406400
X-495300Y622300
X-520700Y774700
X-492100Y872800
X-415700Y380210
X-486080Y451250
X-531070Y540560
X-575580Y630110
R02Y100000
X-535690Y921810
X-457060Y983590
X-449870Y783850
R02Y-100000
X-173600Y294520
X-228600Y286800
X-260350Y425450
X-227600Y368830
X-136100Y362300
X149500Y387900
X98400Y914830
X54400Y955300
X44400Y932800
X-299520Y613570
X-224520
X-81630Y630890
X-12370Y659670
Y734670
X-82590Y761030
R03X-75000
X-344830Y695930
X-77780Y973350
X-130810Y920320
X-183850Y867280
X-240860Y818560
X-304100Y810800
X-245150Y793570
X-170150
X-21660Y808570
X32670Y756870
Y681870
X40850Y607320
X66700Y677720
Y752720
X82630Y826010
X-110330Y561030
X-185330
X-194830Y516160
X120650Y514350
X165100Y584200
X114300Y615950
X165100Y685800
X114300Y723900
X165100Y793750
X114300Y831850
X165100Y869950
X107950Y895350
X-31750Y946150
X11900Y887800
X-88900Y857250
X-228600Y685800
X-133350
X-383600Y999800
X120400Y-169800
X198400Y-195800
X94000Y-286000
X198400Y-149800
Y-101800
Y-49800
Y26200
X82400Y-177800
X66400Y-167800
X6000Y-316000
X110000
X20000Y-228000
X38400Y-211170
X80400
X20000Y-148000
X-2000Y-110000
X-100000Y86000
X-182000Y116000
X164000
X166000Y168000
X164000Y464000
X132000Y480000
X-84000Y522000
X-76000Y456000
X-112000Y496000
X-52000Y458000
X76000Y478000
X42000Y-286000
X-2000Y-250000
Y-274000
Y-262000
X16000Y-254000
X136000Y-192000
X-474000Y1028000
X-4000Y1030000
X60000Y994000
X20000Y954000
X-8000Y968000
X-616000Y352000
X-564000Y366000
Y510000
X-524000Y478000
X-254000Y242000
X164000Y52000
X76000Y-50000
X136000Y-20000
X28000Y-98000
X-353000Y437000
X63900Y511370
X-336260Y577300
Y627300
X-21100Y597300
Y532300
X-8780Y514800
Y614620
X-146100Y627300
X-336260Y792300
X3900Y597300
Y532300
X16400Y424800
X44430
X2400Y-123800
Y-236000
T02
X-408600Y1024800
X-433600Y999800
X-408600Y974800
X-293600Y994800
Y1020200
X-268200Y994800
Y1020200
X-242800Y994800
Y1020200
X-217400Y994800
Y1020200
X-192000Y994800
Y1020200
X-166600Y994800
Y1020200
X-141200Y994800
Y1020200
X-115800Y994800
Y1020200
X-90400Y994800
Y1020200
X-65000Y994800
Y1020200
X-543600Y297300
Y322700
X-518200Y297300
Y322700
X-492800Y297300
Y322700
X-467400Y297300
Y322700
X-442000Y297300
Y322700
X-61100Y129830
Y104430
X-86500Y129830
Y104430
X-111900Y129830
Y104430
X-137300Y129830
Y104430
X-162700Y129830
Y104430
X-283600Y322300
X-309000
X-283600Y347700
X-309000
X-283600Y373100
X-309000
X-283600Y398500
X-309000
X-283600Y423900
X-309000
X88900Y304800
Y354800
T03
X-174600Y-96200
X-199600
X-219600
X-244600
T04
X-121100Y207300
X-71100
T05
X-275300Y-123300
X-143900
T06
X-583600Y-265200
Y1034800
X166400
Y-265200
M30
