G04 ================== begin FILE IDENTIFICATION RECORD ==================*
G04 Layout Name:  E:/ORCAD_sch/RZSK/PI_BSP/v3/pcb/v3.brd*
G04 Film Name:    BOTTOM*
G04 File Format:  Gerber RS274X*
G04 File Origin:  Cadence Allegro 16.6-S002*
G04 Origin Date:  Fri Feb 01 09:50:21 2013*
G04 *
G04 Layer:  ETCH/BOTTOM*
G04 Layer:  PIN/BOTTOM*
G04 Layer:  VIA CLASS/BOTTOM*
G04 *
G04 Offset:    (0.000 0.000)*
G04 Mirror:    No*
G04 Mode:      Positive*
G04 Rotation:  0*
G04 FullContactRelief:  No*
G04 UndefLineWidth:     0.250*
G04 ================== end FILE IDENTIFICATION RECORD ====================*
%FSLAX34Y34*MOMM*%
%IR0*IPPOS*OFA0.00000B0.00000*MIA0B0*SFA1.00000B1.00000*%
%ADD11C,1.*%
%ADD15C,2.2*%
%ADD19C,2.5*%
%ADD13C,1.6*%
%ADD10C,5.2*%
%ADD16C,3.6*%
%ADD17C,1.75*%
%ADD18R,1.7X1.7*%
%ADD12R,1.55X1.55*%
%ADD14R,2.5X1.2*%
%ADD20C,.5*%
%ADD21C,.25*%
%ADD23C,3.204*%
%ADD22C,3.504*%
G75*
%LPD*%
G75*
G36*
G01X-175000Y-17970D02*
Y294030D01*
G03X-177000Y296030I-2000J0D01*
G01X-787000D01*
G02X-789000Y298030I0J2000D01*
G01Y1236490D01*
Y1236530D01*
G02X-788240Y1238060I2001J-40D01*
G02X-788010Y1238210I1204J-1595D01*
G01X-784580Y1240230D01*
X-783540Y1240250D01*
X-783070Y1239990D01*
G03X-690000Y1333100I33074J60011D01*
G01X-690260Y1333570D01*
X-690240Y1334630D01*
X-688220Y1338050D01*
G02X-686500Y1339030I1720J-1020D01*
G01X-63500D01*
G02X-61780Y1338050I0J-2000D01*
G01X-59760Y1334630D01*
X-59740Y1333570D01*
X-60000Y1333100D01*
G03X33070Y1239990I59996J-33099D01*
G01X33540Y1240250D01*
X34580Y1240230D01*
X38010Y1238210D01*
G02X38240Y1238060I-974J-1745D01*
G02X39000Y1236530I-1241J-1570D01*
G01Y63510D01*
Y63470D01*
G02X38240Y61940I-2001J40D01*
G02X38010Y61790I-1204J1595D01*
G01X34580Y59770D01*
X33540Y59750D01*
X33070Y60010D01*
G03X-66840Y-15090I-33072J-60011D01*
G01Y-15100D01*
G02X-67230Y-16780I-1951J-432D01*
G01X-69180Y-19220D01*
G02X-70740Y-19970I-1561J1250D01*
G01X-173000D01*
G02X-175000Y-17970I0J2000D01*
G37*
G36*
G01X-560000Y-14970D02*
Y205030D01*
G02X-555000Y210030I5000J0D01*
G01X-255000D01*
G02X-250000Y205030I0J-5000D01*
G01Y-14970D01*
G02X-255000Y-19970I-5000J0D01*
G01X-555000D01*
G02X-560000Y-14970I0J5000D01*
G37*
%LPC*%
G75*
G36*
G01X-216550Y376700D02*
X-216280Y376230D01*
G02X-237820Y361700I-11219J-6599D01*
G01X-238100Y362060D01*
X-238890Y362460D01*
X-242900Y362580D01*
X-243710Y362230D01*
X-244010Y361890D01*
G02X-262380Y362620I-8892J7741D01*
G03X-263990Y363440I-1615J-1181D01*
G01X-267210D01*
G03X-268820Y362620I5J-2001D01*
G02X-287780I-9480J7010D01*
G03X-289390Y363440I-1615J-1181D01*
G01X-292610D01*
G03X-294220Y362620I5J-2001D01*
G02X-313180I-9480J7010D01*
G03X-314790Y363440I-1615J-1181D01*
G01X-318010D01*
G03X-319620Y362620I5J-2001D01*
G02X-336840Y378520I-9481J7006D01*
G01X-336500Y378820D01*
X-336150Y379630D01*
X-336270Y383640D01*
X-336670Y384430D01*
X-337030Y384710D01*
G02X-319380Y403700I7933J10324D01*
G03X-317890Y403030I1493J1328D01*
G01X-314910D01*
G03X-313420Y403700I-3J1998D01*
G02X-293980I9720J-8670D01*
G03X-292490Y403030I1493J1328D01*
G01X-289510D01*
G03X-288020Y403700I-3J1998D01*
G02X-268580I9720J-8670D01*
G03X-267090Y403030I1493J1328D01*
G01X-264110D01*
G03X-262620Y403700I-3J1998D01*
G02X-246300Y406250I9714J-8670D01*
G01X-245830Y405980D01*
X-244760Y405970D01*
X-242020Y407540D01*
G02X-241030Y407800I986J-1740D01*
G01X-216730D01*
G02X-214730Y405800I0J-2000D01*
G01Y381500D01*
G02X-214990Y380510I-2000J-4D01*
G01X-216560Y377770D01*
X-216550Y376700D01*
G37*
G36*
G01X-674880Y553830D02*
G02X-691200Y551280I-9714J8670D01*
G01X-691670Y551550D01*
X-692740Y551560D01*
X-695480Y549990D01*
G02X-696470Y549730I-986J1740D01*
G01X-720770D01*
G02X-722770Y551730I0J2000D01*
G01Y576030D01*
G02X-722510Y577020I2000J4D01*
G01X-720940Y579760D01*
X-720950Y580830D01*
X-721220Y581300D01*
G02X-700280Y596570I11221J6605D01*
G03X-698790Y595900I1493J1328D01*
G01X-695810D01*
G03X-694320Y596570I-3J1998D01*
G02X-674880I9720J-8670D01*
G03X-673390Y595900I1493J1328D01*
G01X-670410D01*
G03X-668920Y596570I-3J1998D01*
G02X-648880Y595830I9714J-8670D01*
G01X-648600Y595470D01*
X-647810Y595070D01*
X-643800Y594950D01*
X-642990Y595300D01*
X-642690Y595640D01*
G02X-624320Y594910I8892J-7741D01*
G03X-622710Y594090I1615J1181D01*
G01X-619490D01*
G03X-617880Y594910I-5J2001D01*
G02X-600660Y579010I9481J-7006D01*
G01X-601000Y578710D01*
X-601350Y577900D01*
X-601230Y573890D01*
X-600830Y573100D01*
X-600470Y572820D01*
G02X-618120Y553830I-7933J-10324D01*
G03X-619610Y554500I-1493J-1328D01*
G01X-622590D01*
G03X-624080Y553830I3J-1998D01*
G02X-643520I-9720J8670D01*
G03X-645010Y554500I-1493J-1328D01*
G01X-647990D01*
G03X-649480Y553830I3J-1998D01*
G02X-668920I-9720J8670D01*
G03X-670410Y554500I-1493J-1328D01*
G01X-673390D01*
G03X-674880Y553830I3J-1998D01*
G37*
G36*
G01X-439230Y574730D02*
X-462770D01*
Y574830D01*
X-463330Y575770D01*
X-467400Y577970D01*
X-468490Y577930D01*
X-468960Y577630D01*
G02X-483140Y596390I-6441J9871D01*
G01X-482800Y596690D01*
X-482450Y597500D01*
X-482570Y601510D01*
X-482970Y602300D01*
X-483330Y602580D01*
G02X-484070Y622620I7930J10326D01*
G03X-483400Y624110I-1328J1493D01*
G01Y627090D01*
G03X-484070Y628580I-1998J-3D01*
G02Y648020I8670J9720D01*
G03X-483400Y649510I-1328J1493D01*
G01Y652490D01*
G03X-484070Y653980I-1998J-3D01*
G02X-483330Y674020I8670J9714D01*
G01X-482970Y674300D01*
X-482570Y675090D01*
X-482450Y679100D01*
X-482800Y679910D01*
X-483140Y680210D01*
G02X-466510Y696840I7740J8890D01*
G01X-466210Y696500D01*
X-465400Y696150D01*
X-461390Y696270D01*
X-460600Y696670D01*
X-460320Y697030D01*
G02X-441330Y679380I10324J-7933D01*
G03X-442000Y677890I1328J-1493D01*
G01Y674910D01*
G03X-441330Y673420I1998J3D01*
G02Y653980I-8670J-9720D01*
G03X-442000Y652490I1328J-1493D01*
G01Y649510D01*
G03X-441330Y648020I1998J3D01*
G02Y628580I-8670J-9720D01*
G03X-442000Y627090I1328J-1493D01*
G01Y624110D01*
G03X-441330Y622620I1998J3D01*
G02X-438780Y606300I-8670J-9714D01*
G01X-439050Y605830D01*
X-439060Y604760D01*
X-437490Y602020D01*
G02X-437230Y601030I-1740J-986D01*
G01Y576730D01*
G02X-439230Y574730I-2000J0D01*
G37*
G36*
G01X-106820Y735780D02*
X-137860D01*
G02X-139860Y737780I0J2000D01*
G01Y755820D01*
G02X-137860Y757820I2000J0D01*
G01X-108270D01*
G03X-106270Y759820I0J2000D01*
G01Y769470D01*
X-106680Y770300D01*
X-107060Y770590D01*
G02X-110010Y776210I4561J5978D01*
G01X-110030Y776620D01*
X-110380Y777350D01*
X-113170Y779790D01*
X-113940Y780040D01*
X-114350Y780010D01*
G02X-122500Y787000I-648J7490D01*
G01X-122530Y787420D01*
X-122900Y788140D01*
X-125790Y790530D01*
X-126560Y790760D01*
X-126980Y790710D01*
G02X-128360Y790660I-961J7459D01*
G01X-128810Y790690D01*
X-129650Y790350D01*
X-132360Y787400D01*
X-132630Y786540D01*
X-132560Y786090D01*
G02X-146530Y788730I-7440J-1090D01*
G01X-146400Y788960D01*
X-146270Y789450D01*
Y872900D01*
X-146680Y873730D01*
X-147060Y874020D01*
G02X-137940I4560J5980D01*
G01X-138320Y873730D01*
X-138730Y872900D01*
Y836020D01*
G03X-136730Y834020I2000J0D01*
G01X-103270D01*
G03X-101270Y836020I0J2000D01*
G01Y870400D01*
X-101680Y871230D01*
X-102060Y871520D01*
G02X-92940I4560J5980D01*
G01X-93320Y871230D01*
X-93730Y870400D01*
Y869640D01*
G03X-92680Y867890I1998J9D01*
G01X-89100Y865950D01*
X-88000Y865990D01*
X-87540Y866300D01*
G02X-78870Y854020I4118J-6293D01*
G01X-79250Y853730D01*
X-79660Y852900D01*
Y808640D01*
G02X-82220Y802450I-8770J2D01*
G01X-98380Y786290D01*
G02X-98660Y786030I-6104J6293D01*
G01X-98470Y783780D01*
G03X-97740Y782390I1993J160D01*
G02X-97940Y770590I-4760J-5821D01*
G01X-98320Y770300D01*
X-98730Y769470D01*
Y751090D01*
G02X-103610Y743680I-8066J0D01*
G01X-104170Y743440D01*
X-104820Y742450D01*
Y737780D01*
G02X-106820Y735780I-2000J0D01*
G37*
G36*
G01X-171000Y786270D02*
X-170620Y785980D01*
G02X-179740I-4560J-5980D01*
G01X-179360Y786270D01*
X-178950Y787100D01*
Y789270D01*
G03X-180160Y791110I-1999J3D01*
G01X-181210Y791560D01*
G03X-183160Y791360I-797J-1833D01*
G02X-192060Y803480I-4335J6145D01*
G01X-191680Y803770D01*
X-191270Y804600D01*
Y855400D01*
X-191680Y856230D01*
X-192060Y856520D01*
G02X-183160Y868640I4565J5975D01*
G03X-181210Y868440I1153J1633D01*
G01X-180160Y868890D01*
G03X-178950Y870730I-789J1837D01*
G01Y872720D01*
X-179360Y873550D01*
X-179740Y873840D01*
G02X-170620I4560J5980D01*
G01X-171000Y873550D01*
X-171410Y872720D01*
Y870400D01*
G03X-170150Y868550I1999J7D01*
G01X-169120Y868130D01*
G03X-167140Y868420I739J1860D01*
G02X-157940Y856520I4640J-5919D01*
G01X-158320Y856230D01*
X-158730Y855400D01*
Y804600D01*
X-158320Y803770D01*
X-157940Y803480D01*
G02X-167140Y791580I-4560J-5981D01*
G03X-169120Y791870I-1241J-1570D01*
G01X-170150Y791450D01*
G03X-171410Y789600I739J-1857D01*
G01Y787100D01*
X-171000Y786270D01*
G37*
G36*
G01X-424880Y1251330D02*
G02X-444060Y1251050I-9719J8668D01*
G03X-446160Y1251570I-1454J-1371D01*
G01X-447110Y1251250D01*
G03X-448460Y1249360I651J-1892D01*
G01Y1248460D01*
X-469540D01*
G02X-471540Y1250460I0J2000D01*
G01Y1269540D01*
G02X-469540Y1271540I2000J0D01*
G01X-469220D01*
X-468430Y1273840D01*
G03X-468950Y1275940I-1891J646D01*
G02X-450280Y1294070I8951J9461D01*
G03X-448790Y1293400I1493J1328D01*
G01X-445810D01*
G03X-444320Y1294070I-3J1998D01*
G02X-424880I9720J-8670D01*
G03X-423390Y1293400I1493J1328D01*
G01X-420410D01*
G03X-418920Y1294070I-3J1998D01*
G02X-399480I9720J-8670D01*
G03X-397990Y1293400I1493J1328D01*
G01X-395010D01*
G03X-393520Y1294070I-3J1998D01*
G02X-374080I9720J-8670D01*
G03X-372590Y1293400I1493J1328D01*
G01X-369610D01*
G03X-368120Y1294070I-3J1998D01*
G02X-348680I9720J-8670D01*
G03X-347190Y1293400I1493J1328D01*
G01X-344210D01*
G03X-342720Y1294070I-3J1998D01*
G02X-323280I9720J-8670D01*
G03X-321790Y1293400I1493J1328D01*
G01X-318810D01*
G03X-317320Y1294070I-3J1998D01*
G02X-297880I9720J-8670D01*
G03X-296390Y1293400I1493J1328D01*
G01X-293410D01*
G03X-291920Y1294070I-3J1998D01*
G02X-272480I9720J-8670D01*
G03X-270990Y1293400I1493J1328D01*
G01X-268010D01*
G03X-266520Y1294070I-3J1998D01*
G02X-247080I9720J-8670D01*
G03X-245590Y1293400I1493J1328D01*
G01X-242610D01*
G03X-241120Y1294070I-3J1998D01*
G02X-222730Y1275680I9720J-8670D01*
G03X-223400Y1274190I1328J-1493D01*
G01Y1271210D01*
G03X-222730Y1269720I1998J3D01*
G02X-219890Y1266090I-8674J-9713D01*
G01X-219630Y1265590D01*
X-218690Y1265020D01*
X-150050Y1265050D01*
X-149360Y1265320D01*
X-149080Y1265570D01*
G02Y1254480I5080J-5545D01*
G01X-149360Y1254740D01*
X-150050Y1255010D01*
X-218680Y1254980D01*
X-219620Y1254420D01*
X-219890Y1253920D01*
G02X-241120Y1251330I-11515J6079D01*
G03X-242610Y1252000I-1493J-1328D01*
G01X-245590D01*
G03X-247080Y1251330I3J-1998D01*
G02X-266520I-9720J8670D01*
G03X-268010Y1252000I-1493J-1328D01*
G01X-270990D01*
G03X-272480Y1251330I3J-1998D01*
G02X-291920I-9720J8670D01*
G03X-293410Y1252000I-1493J-1328D01*
G01X-296390D01*
G03X-297880Y1251330I3J-1998D01*
G02X-317320I-9720J8670D01*
G03X-318810Y1252000I-1493J-1328D01*
G01X-321790D01*
G03X-323280Y1251330I3J-1998D01*
G02X-342720I-9720J8670D01*
G03X-344210Y1252000I-1493J-1328D01*
G01X-347190D01*
G03X-348680Y1251330I3J-1998D01*
G02X-368120I-9720J8670D01*
G03X-369610Y1252000I-1493J-1328D01*
G01X-372590D01*
G03X-374080Y1251330I3J-1998D01*
G02X-393520I-9720J8670D01*
G03X-395010Y1252000I-1493J-1328D01*
G01X-397990D01*
G03X-399480Y1251330I3J-1998D01*
G02X-418920I-9720J8670D01*
G03X-420410Y1252000I-1493J-1328D01*
G01X-423390D01*
G03X-424880Y1251330I3J-1998D01*
G37*
G36*
G01X-137860Y1164220D02*
X-106820D01*
G02X-104820Y1162220I0J-2000D01*
G01Y1144180D01*
G02X-106820Y1142180I-2000J0D01*
G01X-137860D01*
G02X-139860Y1144180I0J2000D01*
G01Y1162220D01*
G02X-137860Y1164220I2000J0D01*
G37*
G36*
G01Y999120D02*
X-106820D01*
G02X-104820Y997120I0J-2000D01*
G01Y979080D01*
G02X-106820Y977080I-2000J0D01*
G01X-137860D01*
G02X-139860Y979080I0J2000D01*
G01Y997120D01*
G02X-137860Y999120I2000J0D01*
G37*
G36*
G01X-261630Y1162990D02*
X-233050D01*
G02X-231050Y1160990I0J-2000D01*
G01Y1145410D01*
G02X-233050Y1143410I-2000J0D01*
G01X-261630D01*
G02X-263630Y1145410I0J2000D01*
G01Y1160990D01*
G02X-261630Y1162990I2000J0D01*
G37*
G36*
G01X-262860Y1088020D02*
X-231820D01*
G02X-229820Y1086020I0J-2000D01*
G01Y1067980D01*
G02X-231820Y1065980I-2000J0D01*
G01X-262860D01*
G02X-264860Y1067980I0J2000D01*
G01Y1086020D01*
G02X-262860Y1088020I2000J0D01*
G37*
G36*
G01X-261630Y997890D02*
X-233050D01*
G02X-231050Y995890I0J-2000D01*
G01Y980310D01*
G02X-233050Y978310I-2000J0D01*
G01X-261630D01*
G02X-263630Y980310I0J2000D01*
G01Y995890D01*
G02X-261630Y997890I2000J0D01*
G37*
G36*
G01X-262860Y922920D02*
X-231820D01*
G02X-229820Y920920I0J-2000D01*
G01Y902880D01*
G02X-231820Y900880I-2000J0D01*
G01X-262860D01*
G02X-264860Y902880I0J2000D01*
G01Y920920D01*
G02X-262860Y922920I2000J0D01*
G37*
G36*
G01X-261630Y832790D02*
X-233050D01*
G02X-231050Y830790I0J-2000D01*
G01Y815210D01*
G02X-233050Y813210I-2000J0D01*
G01X-261630D01*
G02X-263630Y815210I0J2000D01*
G01Y830790D01*
G02X-261630Y832790I2000J0D01*
G37*
G36*
G01X-262860Y757820D02*
X-231820D01*
G02X-229820Y755820I0J-2000D01*
G01Y737780D01*
G02X-231820Y735780I-2000J0D01*
G01X-262860D01*
G02X-264860Y737780I0J2000D01*
G01Y755820D01*
G02X-262860Y757820I2000J0D01*
G37*
G36*
G01X-328020Y1164220D02*
X-296980D01*
G02X-294980Y1162220I0J-2000D01*
G01Y1144180D01*
G02X-296980Y1142180I-2000J0D01*
G01X-328020D01*
G02X-330020Y1144180I0J2000D01*
G01Y1162220D01*
G02X-328020Y1164220I2000J0D01*
G37*
G36*
G01Y999120D02*
X-296980D01*
G02X-294980Y997120I0J-2000D01*
G01Y979080D01*
G02X-296980Y977080I-2000J0D01*
G01X-328020D01*
G02X-330020Y979080I0J2000D01*
G01Y997120D01*
G02X-328020Y999120I2000J0D01*
G37*
G36*
G01Y834020D02*
X-296980D01*
G02X-294980Y832020I0J-2000D01*
G01Y813980D01*
G02X-296980Y811980I-2000J0D01*
G01X-328020D01*
G02X-330020Y813980I0J2000D01*
G01Y832020D01*
G02X-328020Y834020I2000J0D01*
G37*
G36*
G01X-451790Y1162990D02*
X-423210D01*
G02X-421210Y1160990I0J-2000D01*
G01Y1145410D01*
G02X-423210Y1143410I-2000J0D01*
G01X-451790D01*
G02X-453790Y1145410I0J2000D01*
G01Y1160990D01*
G02X-451790Y1162990I2000J0D01*
G37*
G36*
G01X-453020Y1088020D02*
X-421980D01*
G02X-419980Y1086020I0J-2000D01*
G01Y1067980D01*
G02X-421980Y1065980I-2000J0D01*
G01X-453020D01*
G02X-455020Y1067980I0J2000D01*
G01Y1086020D01*
G02X-453020Y1088020I2000J0D01*
G37*
G36*
G01X-451790Y997890D02*
X-423210D01*
G02X-421210Y995890I0J-2000D01*
G01Y980310D01*
G02X-423210Y978310I-2000J0D01*
G01X-451790D01*
G02X-453790Y980310I0J2000D01*
G01Y995890D01*
G02X-451790Y997890I2000J0D01*
G37*
G36*
G01X-453020Y922920D02*
X-421980D01*
G02X-419980Y920920I0J-2000D01*
G01Y902880D01*
G02X-421980Y900880I-2000J0D01*
G01X-453020D01*
G02X-455020Y902880I0J2000D01*
G01Y920920D01*
G02X-453020Y922920I2000J0D01*
G37*
G36*
G01X-451790Y832790D02*
X-423210D01*
G02X-421210Y830790I0J-2000D01*
G01Y815210D01*
G02X-423210Y813210I-2000J0D01*
G01X-451790D01*
G02X-453790Y815210I0J2000D01*
G01Y830790D01*
G02X-451790Y832790I2000J0D01*
G37*
G36*
G01X-453020Y757820D02*
X-421980D01*
G02X-419980Y755820I0J-2000D01*
G01Y737780D01*
G02X-421980Y735780I-2000J0D01*
G01X-453020D01*
G02X-455020Y737780I0J2000D01*
G01Y755820D01*
G02X-453020Y757820I2000J0D01*
G37*
G36*
G01X-518180Y1164220D02*
X-487140D01*
G02X-485140Y1162220I0J-2000D01*
G01Y1144180D01*
G02X-487140Y1142180I-2000J0D01*
G01X-518180D01*
G02X-520180Y1144180I0J2000D01*
G01Y1162220D01*
G02X-518180Y1164220I2000J0D01*
G37*
G36*
G01Y999120D02*
X-487140D01*
G02X-485140Y997120I0J-2000D01*
G01Y979080D01*
G02X-487140Y977080I-2000J0D01*
G01X-518180D01*
G02X-520180Y979080I0J2000D01*
G01Y997120D01*
G02X-518180Y999120I2000J0D01*
G37*
G36*
G01Y757820D02*
X-487140D01*
G02X-485140Y755820I0J-2000D01*
G01Y737780D01*
G02X-487140Y735780I-2000J0D01*
G01X-518180D01*
G02X-520180Y737780I0J2000D01*
G01Y755820D01*
G02X-518180Y757820I2000J0D01*
G37*
G36*
G01X-641950Y1162990D02*
X-613370D01*
G02X-611370Y1160990I0J-2000D01*
G01Y1145410D01*
G02X-613370Y1143410I-2000J0D01*
G01X-641950D01*
G02X-643950Y1145410I0J2000D01*
G01Y1160990D01*
G02X-641950Y1162990I2000J0D01*
G37*
G36*
G01X-643180Y1088020D02*
X-612140D01*
G02X-610140Y1086020I0J-2000D01*
G01Y1067980D01*
G02X-612140Y1065980I-2000J0D01*
G01X-643180D01*
G02X-645180Y1067980I0J2000D01*
G01Y1086020D01*
G02X-643180Y1088020I2000J0D01*
G37*
G36*
G01X-641950Y997890D02*
X-613370D01*
G02X-611370Y995890I0J-2000D01*
G01Y980310D01*
G02X-613370Y978310I-2000J0D01*
G01X-641950D01*
G02X-643950Y980310I0J2000D01*
G01Y995890D01*
G02X-641950Y997890I2000J0D01*
G37*
G36*
G01X-643180Y922920D02*
X-612140D01*
G02X-610140Y920920I0J-2000D01*
G01Y902880D01*
G02X-612140Y900880I-2000J0D01*
G01X-643180D01*
G02X-645180Y902880I0J2000D01*
G01Y920920D01*
G02X-643180Y922920I2000J0D01*
G37*
G36*
G01Y834020D02*
X-612140D01*
G02X-610140Y832020I0J-2000D01*
G01Y813980D01*
G02X-612140Y811980I-2000J0D01*
G01X-643180D01*
G02X-645180Y813980I0J2000D01*
G01Y832020D01*
G02X-643180Y834020I2000J0D01*
G37*
G36*
G01X-641950Y756590D02*
X-613370D01*
G02X-611370Y754590I0J-2000D01*
G01Y739010D01*
G02X-613370Y737010I-2000J0D01*
G01X-641950D01*
G02X-643950Y739010I0J2000D01*
G01Y754590D01*
G02X-641950Y756590I2000J0D01*
G37*
G36*
G01X-128340Y380460D02*
X-152900D01*
X-153730Y380050D01*
X-154020Y379670D01*
G02Y388790I-5980J4560D01*
G01X-153730Y388410D01*
X-152900Y388000D01*
X-132290D01*
G03X-130880Y388590I-8J1998D01*
G01X-130690Y388770D01*
X-125000D01*
X-124170Y389180D01*
X-123880Y389560D01*
G02Y380440I5980J-4560D01*
G01X-124170Y380820D01*
X-125000Y381230D01*
X-126740D01*
G03X-128150Y380640I8J-1998D01*
G01X-128340Y380460D01*
G37*
G36*
G01X-129070Y686230D02*
X-142900D01*
X-143730Y685820D01*
X-144020Y685440D01*
G02Y694560I-5980J4560D01*
G01X-143730Y694180D01*
X-142900Y693770D01*
X-129070D01*
X-128240Y694180D01*
X-127950Y694560D01*
G02Y685440I5980J-4560D01*
G01X-128240Y685820D01*
X-129070Y686230D01*
G37*
G36*
G01X-294980Y755820D02*
Y737780D01*
G02X-296980Y735780I-2000J0D01*
G01X-328020D01*
G02X-330020Y737780I0J2000D01*
G01Y755820D01*
G02X-328020Y757820I2000J0D01*
G01X-323570D01*
G03X-321970Y758620I0J2001D01*
G01X-319770Y761550D01*
X-319600Y762470D01*
X-319730Y762920D01*
G02X-305270I7230J2080D01*
G01X-305400Y762470D01*
X-305230Y761550D01*
X-303030Y758620D01*
G03X-301430Y757820I1600J1201D01*
G01X-296980D01*
G02X-294980Y755820I0J-2000D01*
G37*
G36*
G01X-485140Y832020D02*
Y813980D01*
G02X-487140Y811980I-2000J0D01*
G01X-518180D01*
G02X-520180Y813980I0J2000D01*
G01Y832020D01*
G02X-518180Y834020I2000J0D01*
G01X-513270D01*
G03X-511610Y834910I-4J2000D01*
G01X-509490Y838110D01*
X-509390Y839110D01*
X-509590Y839580D01*
G02X-495730I6930J2920D01*
G01X-495930Y839110D01*
X-495830Y838110D01*
X-493710Y834910D01*
G03X-492050Y834020I1664J1110D01*
G01X-487140D01*
G02X-485140Y832020I0J-2000D01*
G37*
G36*
G01X-493670Y899990D02*
X-495800Y896810D01*
X-495900Y895830D01*
X-495700Y895360D01*
G02X-509620I-6960J-2860D01*
G01X-509420Y895830D01*
X-509520Y896810D01*
X-511650Y899990D01*
G03X-513310Y900880I-1664J-1110D01*
G01X-518180D01*
G02X-520180Y902880I0J2000D01*
G01Y920920D01*
G02X-518180Y922920I2000J0D01*
G01X-487140D01*
G02X-485140Y920920I0J-2000D01*
G01Y902880D01*
G02X-487140Y900880I-2000J0D01*
G01X-492010D01*
G03X-493670Y899990I4J-2000D01*
G37*
G36*
G01X-303510D02*
X-305640Y896810D01*
X-305740Y895830D01*
X-305540Y895360D01*
G02X-319460I-6960J-2860D01*
G01X-319260Y895830D01*
X-319360Y896810D01*
X-321490Y899990D01*
G03X-323150Y900880I-1664J-1110D01*
G01X-328020D01*
G02X-330020Y902880I0J2000D01*
G01Y920920D01*
G02X-328020Y922920I2000J0D01*
G01X-296980D01*
G02X-294980Y920920I0J-2000D01*
G01Y902880D01*
G02X-296980Y900880I-2000J0D01*
G01X-301850D01*
G03X-303510Y899990I4J-2000D01*
G37*
G36*
G01X-104820Y901340D02*
Y900880D01*
X-137860D01*
G02X-139860Y902880I0J2000D01*
G01Y920920D01*
G02X-137860Y922920I2000J0D01*
G01X-104820D01*
Y922460D01*
X-104390Y921610D01*
X-101060Y919130D01*
X-100120Y918960D01*
X-99670Y919100D01*
G02Y904700I2170J-7200D01*
G01X-100120Y904840D01*
X-101060Y904670D01*
X-104390Y902190D01*
X-104820Y901340D01*
G37*
G36*
G01X-493710Y1065090D02*
X-495830Y1061890D01*
X-495930Y1060890D01*
X-495730Y1060420D01*
G02X-509590I-6930J-2920D01*
G01X-509390Y1060890D01*
X-509490Y1061890D01*
X-511610Y1065090D01*
G03X-513270Y1065980I-1664J-1110D01*
G01X-518180D01*
G02X-520180Y1067980I0J2000D01*
G01Y1086020D01*
G02X-518180Y1088020I2000J0D01*
G01X-487140D01*
G02X-485140Y1086020I0J-2000D01*
G01Y1067980D01*
G02X-487140Y1065980I-2000J0D01*
G01X-492050D01*
G03X-493710Y1065090I4J-2000D01*
G37*
G36*
G01X-303550D02*
X-305670Y1061890D01*
X-305770Y1060890D01*
X-305570Y1060420D01*
G02X-319430I-6930J-2920D01*
G01X-319230Y1060890D01*
X-319330Y1061890D01*
X-321450Y1065090D01*
G03X-323110Y1065980I-1664J-1110D01*
G01X-328020D01*
G02X-330020Y1067980I0J2000D01*
G01Y1086020D01*
G02X-328020Y1088020I2000J0D01*
G01X-296980D01*
G02X-294980Y1086020I0J-2000D01*
G01Y1067980D01*
G02X-296980Y1065980I-2000J0D01*
G01X-301890D01*
G03X-303550Y1065090I4J-2000D01*
G37*
G36*
G01X-104820Y1066300D02*
Y1065980D01*
X-137860D01*
G02X-139860Y1067980I0J2000D01*
G01Y1086020D01*
G02X-137860Y1088020I2000J0D01*
G01X-104820D01*
Y1087700D01*
X-104420Y1086880D01*
X-101190Y1084370D01*
X-100290Y1084180D01*
X-99840Y1084290D01*
G02Y1069710I1840J-7290D01*
G01X-100290Y1069820D01*
X-101190Y1069630D01*
X-104420Y1067120D01*
X-104820Y1066300D01*
G37*
G36*
G01X-580220Y1255160D02*
X-579690Y1255320D01*
G02X-590320Y1244690I4690J-15320D01*
G01X-590160Y1245220D01*
X-590420Y1246290D01*
X-593710Y1249580D01*
X-594780Y1249840D01*
X-595310Y1249680D01*
G02Y1280320I-4690J15320D01*
G01X-594780Y1280160D01*
X-593710Y1280420D01*
X-590420Y1283710D01*
X-590160Y1284780D01*
X-590320Y1285310D01*
G02X-579690Y1274680I15320J4690D01*
G01X-580220Y1274840D01*
X-581290Y1274580D01*
X-584580Y1271290D01*
X-584840Y1270220D01*
X-584680Y1269690D01*
G02Y1260310I-15320J-4690D01*
G01X-584840Y1259780D01*
X-584580Y1258710D01*
X-581290Y1255420D01*
X-580220Y1255160D01*
G37*
G36*
G01X-417280Y144340D02*
X-417230Y143400D01*
G02X-437180Y166000I-24473J-1498D01*
G01X-436250Y165820D01*
X-434420Y166170D01*
X-427080Y170730D01*
X-425960Y172220D01*
X-425700Y173130D01*
G02X-402250Y181520I14703J-4128D01*
G03X-399510Y180620I2863J4096D01*
G01X-396480Y180550D01*
G03X-393710Y181310I119J4996D01*
G02X-378560Y181470I7706J-12309D01*
G03X-373440I2560J4294D01*
G02X-362300Y183040I7438J-12470D01*
G01X-361670Y182870D01*
X-356020D01*
Y184020D01*
X-330980D01*
G02X-325980Y179020I0J-5000D01*
G01Y175950D01*
G03X-324210Y172130I5001J-3D01*
G01X-317540Y166490D01*
X-315430Y165900D01*
X-314330Y166090D01*
G02X-334780Y143380I4028J-24190D01*
G01X-334710Y144420D01*
X-335410Y146350D01*
X-341120Y152410D01*
G03X-344760Y153980I-3638J-3430D01*
G01X-356020D01*
Y155130D01*
X-361670D01*
X-362300Y154960D01*
G02X-373440Y156530I-3702J14040D01*
G03X-378560I-2560J-4294D01*
G02X-393710Y156690I-7444J12469D01*
G03X-396480Y157450I-2651J-4236D01*
G01X-399510Y157380D01*
G03X-402250Y156480I123J-4996D01*
G02X-408730Y153900I-8740J12523D01*
G01X-409660Y153760D01*
X-411280Y152830D01*
X-416720Y146120D01*
X-417280Y144340D01*
G37*
G54D23*
X-77500Y620000D03*
Y570000D03*
G54D22*
X-20000Y1170030D03*
X-237500Y472500D03*
X-287500D03*
X-730000Y1170030D03*
%LPD*%
G75*
G54D10*
X-750000Y0D03*
Y1300000D03*
X0Y0D03*
Y1300000D03*
G54D20*
G01X-645950Y746800D02*
X-627660D01*
G01X-645950Y988100D02*
X-627660D01*
G01X-645950Y1153200D02*
X-627660D01*
G01X-608400Y587900D02*
Y601690D01*
G01Y587900D02*
X-594610D01*
G01X-633800D02*
Y601690D01*
G01X-627660Y735010D02*
Y746800D01*
G01D02*
Y758590D01*
G01Y746800D02*
X-609370D01*
G01X-627660Y976310D02*
Y988100D01*
G01D02*
Y999890D01*
G01Y988100D02*
X-609370D01*
G01X-627660Y1141410D02*
Y1153200D01*
G01D02*
Y1164990D01*
G01Y1153200D02*
X-609370D01*
G01X-489190Y587500D02*
X-475400D01*
G01X-489190Y689100D02*
X-475400D01*
G01Y573710D02*
Y587500D01*
G01Y689100D02*
Y702890D01*
G01X-460000Y1246460D02*
Y1260000D01*
G01X-473540D02*
X-460000D01*
G01X-437500Y811210D02*
Y823000D01*
G01D02*
Y834790D01*
G01X-455790Y823000D02*
X-437500D01*
G01D02*
X-419210D01*
G01X-437500Y976310D02*
Y988100D01*
G01D02*
Y999890D01*
G01X-455790Y988100D02*
X-437500D01*
G01D02*
X-419210D01*
G01X-437500Y1141410D02*
Y1153200D01*
G01D02*
Y1164990D01*
G01X-455790Y1153200D02*
X-437500D01*
G01D02*
X-419210D01*
G01X-342890Y369630D02*
X-329100D01*
G01Y355840D02*
Y369630D01*
G01X-278300Y355840D02*
Y369630D01*
G01X-303700Y355840D02*
Y369630D01*
G01X-252900Y355840D02*
Y369630D01*
G01X-265630Y823000D02*
X-247340D01*
G01X-265630Y988100D02*
X-247340D01*
G01X-265630Y1153200D02*
X-247340D01*
G01Y811210D02*
Y823000D01*
G01D02*
Y834790D01*
G01Y823000D02*
X-229050D01*
G01X-247340Y976310D02*
Y988100D01*
G01D02*
Y999890D01*
G01Y988100D02*
X-229050D01*
G01X-247340Y1141410D02*
Y1153200D01*
G01D02*
Y1164990D01*
G01Y1153200D02*
X-229050D01*
G01X-144000Y1260030D02*
X-231400Y1260000D01*
G54D11*
X-779000Y371230D03*
Y471230D03*
X-730000Y60030D03*
X-732770Y559900D03*
X-741980Y895310D03*
Y995310D03*
Y1095310D03*
X-730000Y1170030D03*
X-703180Y306030D03*
X-712460Y461990D03*
X-702500Y702530D03*
X-715000Y735030D03*
X-697470Y805760D03*
X-702090Y1187010D03*
X-660180Y376740D03*
X-687100Y614450D03*
X-664700Y671390D03*
X-687100Y1039900D03*
X-660500Y429000D03*
X-652480Y716450D03*
X-661700Y887500D03*
X-658500Y1138000D03*
X-610900Y430300D03*
Y519200D03*
X-611670Y618360D03*
X-616270Y849050D03*
Y949050D03*
Y1049050D03*
X-623460Y1248790D03*
X-589470Y306030D03*
X-582100Y645410D03*
X-598200Y722400D03*
X-562500Y323000D03*
X-560100Y404900D03*
X-553750Y487450D03*
X-558630Y565330D03*
X-547400Y671600D03*
X-550000Y1265000D03*
X-534700Y354100D03*
X-502500Y75030D03*
X-496600Y404900D03*
Y455700D03*
X-505600Y512300D03*
X-502660Y842500D03*
Y892500D03*
X-511230Y961130D03*
X-502660Y1057500D03*
X-476000Y63530D03*
X-471200Y341400D03*
Y544600D03*
X-465920Y878770D03*
X-473990Y1026230D03*
X-470500Y1076000D03*
X-433100Y392200D03*
X-452150Y436650D03*
X-405000Y100030D03*
X-395000Y366800D03*
Y552000D03*
X-394000Y634030D03*
X-407700Y671600D03*
X-395000Y951000D03*
X-398990Y1026230D03*
X-411550Y1058770D03*
X-407260Y1083760D03*
X-361230Y781360D03*
X-390920Y878770D03*
X-356900Y430300D03*
X-337850Y500150D03*
X-340000Y559720D03*
X-351730Y826230D03*
X-336550Y1058770D03*
X-350250Y1132480D03*
X-312450Y436650D03*
X-312500Y765000D03*
Y892500D03*
X-323990Y1026230D03*
X-312500Y1057500D03*
X-276950Y20580D03*
X-302000Y87030D03*
X-278000Y97030D03*
X-302500Y627500D03*
X-276730Y826230D03*
X-299750Y951000D03*
X-297210Y1185520D03*
X-259000Y145030D03*
X-261650Y449350D03*
X-248030Y896090D03*
X-248990Y1026230D03*
X-244180Y1238550D03*
X-217200Y417600D03*
X-229900Y1135150D03*
X-198150Y500150D03*
X-185000Y587500D03*
X-187500Y797500D03*
Y862500D03*
X-188060Y1073770D03*
X-198150Y1211350D03*
X-166400Y265200D03*
X-168500Y317000D03*
X-166400Y366800D03*
X-160000Y384230D03*
X-175180Y780000D03*
X-162500Y797500D03*
Y862500D03*
X-175180Y879820D03*
X-178770Y924870D03*
Y999870D03*
X-154500Y1153000D03*
X-145550Y20580D03*
X-145750Y96780D03*
X-140000Y145030D03*
X-130000Y183030D03*
X-135000Y244030D03*
X-132500Y400000D03*
X-150000Y690000D03*
X-140000Y785000D03*
X-127900Y798170D03*
X-125550Y872520D03*
X-142500Y880000D03*
X-133730Y947070D03*
Y1022070D03*
X-144000Y1260030D03*
X-102000Y71000D03*
X-117900Y385000D03*
X-115600Y468400D03*
X-115000Y511030D03*
X-96270Y526100D03*
X-122500Y534030D03*
X-121970Y690000D03*
X-102500Y776570D03*
X-115000Y787500D03*
X-97500Y877500D03*
Y911900D03*
X-99700Y942920D03*
Y1017920D03*
X-98000Y1077000D03*
X-122000Y1198000D03*
X-112000Y1220500D03*
X-90200Y11200D03*
X-82000Y112000D03*
X-92500Y347500D03*
X-71000Y398030D03*
X-83430Y860000D03*
X-83770Y1091210D03*
X-68000Y1180030D03*
X-39400Y112800D03*
X-60000Y180030D03*
Y157530D03*
Y207530D03*
X-57500Y300030D03*
X-39400Y468400D03*
X-45750Y779550D03*
X-52100Y881150D03*
Y989100D03*
Y1097050D03*
X-58450Y1160550D03*
X-14000Y341400D03*
X-21270Y526100D03*
X-16900Y653100D03*
X-20000Y1170030D03*
X11400Y87400D03*
X14000Y145030D03*
X24100Y163600D03*
X-1300Y849400D03*
Y951000D03*
Y1058950D03*
Y1135150D03*
G54D21*
G01X-502660Y823000D02*
Y842500D01*
G01Y911900D02*
Y892500D01*
G01Y1077000D02*
Y1057500D01*
G01X-312500Y746800D02*
Y765000D01*
G01Y911900D02*
Y892500D01*
G01Y1077000D02*
Y1057500D01*
G01X-117900Y385000D02*
X-129130D01*
X-129900Y384230D01*
X-160000D01*
G01X-175180Y780000D02*
Y879820D01*
G01X-162500Y862500D02*
Y797500D01*
G01X-187500Y862500D02*
Y797500D01*
G01X-150000Y690000D02*
X-121970D01*
G01X-142500Y880000D02*
Y789570D01*
G03X-141040Y786040I5000J1D01*
G01X-140000Y785000D01*
G01X-122340Y746800D02*
X-106790D01*
G03X-102500Y751090I0J4290D01*
G01Y776570D01*
G01X-97500Y877500D02*
Y809570D01*
G02X-98960Y806040I-5000J1D01*
G01X-105370Y799630D01*
G02X-108900Y798170I-3531J3540D01*
G01X-127900D01*
G01X-83430Y860000D02*
Y808640D01*
G02X-84890Y805110I-5000J1D01*
G01X-101040Y788960D01*
G02X-104570Y787500I-3531J3540D01*
G01X-115000D01*
G01X-122340Y911900D02*
X-97500D01*
G01X-122340Y1077000D02*
X-98000D01*
G54D12*
X-710000Y562500D03*
X-460000Y1260000D03*
X-450000Y587500D03*
X-227500Y395030D03*
G54D13*
X-710000Y587900D03*
X-684600Y562500D03*
Y587900D03*
X-633800Y562500D03*
X-659200D03*
X-633800Y587900D03*
X-659200D03*
X-608400Y562500D03*
Y587900D03*
X-475400Y587500D03*
Y638300D03*
Y612900D03*
Y663700D03*
Y689100D03*
X-460000Y1285400D03*
X-450000Y638300D03*
Y612900D03*
Y663700D03*
Y689100D03*
X-434600Y1260000D03*
Y1285400D03*
X-409200Y1260000D03*
Y1285400D03*
X-386000Y169000D03*
X-366000D03*
X-383800Y1260000D03*
Y1285400D03*
X-333000Y1260000D03*
X-358400D03*
X-333000Y1285400D03*
X-358400D03*
X-329100Y369630D03*
Y395030D03*
X-303700Y369630D03*
Y395030D03*
X-307600Y1260000D03*
Y1285400D03*
X-278300Y369630D03*
Y395030D03*
X-282200Y1260000D03*
Y1285400D03*
X-252900Y369630D03*
Y395030D03*
X-256800Y1260000D03*
Y1285400D03*
X-227500Y369630D03*
X-231400Y1260000D03*
Y1285400D03*
G54D14*
X-627660Y746800D03*
Y823000D03*
Y911900D03*
Y988100D03*
Y1077000D03*
Y1153200D03*
X-502660Y746800D03*
Y823000D03*
Y911900D03*
Y988100D03*
Y1077000D03*
Y1153200D03*
X-437500Y746800D03*
Y823000D03*
Y911900D03*
Y988100D03*
Y1077000D03*
Y1153200D03*
X-312500Y746800D03*
Y823000D03*
Y911900D03*
Y988100D03*
Y1077000D03*
Y1153200D03*
X-247340Y746800D03*
Y823000D03*
Y911900D03*
Y988100D03*
Y1077000D03*
Y1153200D03*
X-122340Y746800D03*
Y823000D03*
Y911900D03*
Y988100D03*
Y1077000D03*
Y1153200D03*
G54D15*
X-600000Y1265000D03*
X-575000Y1240000D03*
Y1290000D03*
X-77500Y570000D03*
Y620000D03*
G54D16*
X-441700Y141900D03*
X-310300D03*
G54D17*
X-411000Y169000D03*
G54D18*
X-341000D03*
G54D19*
X-287500Y472500D03*
X-237500D03*
M02*
