G04 ================== begin FILE IDENTIFICATION RECORD ==================*
G04 Layout Name:  E:/ORCAD_sch/RZSK/PI_BSP/v3/pcb/v3.brd*
G04 Film Name:    SILK_TOP*
G04 File Format:  Gerber RS274X*
G04 File Origin:  Cadence Allegro 16.6-S002*
G04 Origin Date:  Thu Jan 31 15:15:05 2013*
G04 *
G04 Layer:  MANUFACTURING/AUTOSILK_TOP*
G04 *
G04 Offset:    (0.000 0.000)*
G04 Mirror:    No*
G04 Mode:      Positive*
G04 Rotation:  0*
G04 FullContactRelief:  No*
G04 UndefLineWidth:     0.200*
G04 ================== end FILE IDENTIFICATION RECORD ====================*
%FSLAX34Y34*MOMM*%
%IR0*IPPOS*OFA0.00000B0.00000*MIA0B0*SFA1.00000B1.00000*%
%ADD10C,.2*%
%ADD11C,.4*%
%ADD12C,.5*%
%ADD13C,.15*%
%ADD14C,.25*%
G75*
%LPD*%
G75*
G54D10*
G01X-734000Y644030D02*
X-726000D01*
G01X-734000Y676030D02*
X-726000D01*
G01X-738000Y695030D02*
X-728000D01*
G01X-738000Y711030D02*
X-728000D01*
G01X-672000Y458530D02*
Y471530D01*
G01X-688000Y458530D02*
Y471530D01*
G01X-648000Y458530D02*
Y471530D01*
G01X-632000Y458530D02*
Y471530D01*
G01X-615000Y1225000D02*
X-535000D01*
Y1305000D01*
G01D02*
X-615000D01*
Y1225000D01*
G01X-533500Y445530D02*
X-546500D01*
G01X-533500Y429530D02*
X-546500D01*
G01X-484000Y99530D02*
Y86530D01*
G01X-468000Y99530D02*
Y86530D01*
G01X-445500Y380030D02*
X-458500D01*
G01X-445500Y364030D02*
X-458500D01*
G01X-434750Y428530D02*
Y399530D01*
X-441250D01*
Y428530D01*
X-434750D01*
G01Y476530D02*
Y447530D01*
X-441250D01*
Y476530D01*
X-434750D01*
G01X-413000Y138030D02*
Y132030D01*
G01X-406000Y483530D02*
Y496530D01*
G01X-379000Y77530D02*
Y107530D01*
X-371000D01*
Y77530D01*
X-379000D01*
G01X-397000Y138030D02*
Y132030D01*
G01X-381000Y135030D02*
X-369000D01*
G01X-390000Y483530D02*
Y496530D01*
G01X-372000Y483530D02*
Y496530D01*
G01X-349000Y19530D02*
X-336000D01*
G01X-349000Y35530D02*
X-336000D01*
G01X-349000Y44530D02*
X-336000D01*
G01X-349000Y60530D02*
X-336000D01*
G01X-353000Y138030D02*
Y132030D01*
G01X-356000Y483530D02*
Y496530D01*
G01X-337000Y138030D02*
Y132030D01*
G01X-307500Y452500D02*
X-267500D01*
Y492500D01*
X-307500D01*
Y452500D01*
G01X-176500Y537000D02*
Y668000D01*
X-308500D01*
Y537000D01*
X-176500D01*
G01X-257500Y452500D02*
X-217500D01*
Y492500D01*
X-257500D01*
Y452500D01*
G01X-245750Y13530D02*
Y116530D01*
X-179250D01*
Y13530D01*
X-245750D01*
G01X-238000Y782530D02*
Y769530D01*
G01X-222000Y782530D02*
Y769530D01*
G01X-238000Y836530D02*
Y823530D01*
G01X-222000Y836530D02*
Y823530D01*
G01X-208500Y751030D02*
X-155500D01*
Y737030D01*
X-208500D01*
Y751030D01*
G01Y840030D02*
X-155500D01*
Y826030D01*
X-208500D01*
Y840030D01*
G01X-155500Y479030D02*
X-168500D01*
G01X-155500Y495030D02*
X-168500D01*
G01X-162000Y1176000D02*
X-150000D01*
G01X-162000D02*
Y1181000D01*
G01Y1197000D02*
Y1202000D01*
G01D02*
X-150000D01*
G01X-142000Y298530D02*
Y311530D01*
G01X-158000Y298530D02*
Y311530D01*
G01X-139500Y406500D02*
Y377500D01*
X-89500D01*
Y406500D01*
X-139500D01*
G01X-148500Y751030D02*
X-95500D01*
Y737030D01*
X-148500D01*
Y751030D01*
G01X-146500Y839530D02*
X-93500D01*
Y825530D01*
X-146500D01*
Y839530D01*
G01X-140000Y1188000D02*
Y1190000D01*
G01X-131500Y1232000D02*
X-118500D01*
G01X-131500Y1248000D02*
X-118500D01*
G01X-134500Y1272030D02*
X-121500D01*
G01X-134500Y1288030D02*
X-121500D01*
G01X-101500Y247030D02*
X-88500D01*
G01X-101500Y263030D02*
X-88500D01*
G01X-102000Y298530D02*
Y311530D01*
G01X-118000Y298530D02*
Y311530D01*
G01X-102500Y560000D02*
Y630000D01*
G01Y560000D02*
G03X-52500I25000J-125D01*
G01Y630000D02*
G03X-102500I-25000J125D01*
G01X-104500Y1141030D02*
X-91500D01*
G01X-104500Y1157030D02*
X-91500D01*
G01Y1188030D02*
X-104500D01*
G01X-91500Y1172030D02*
X-104500D01*
G01X-97500Y129030D02*
Y231030D01*
X-52500D01*
Y129030D01*
X-97500D01*
G01X-49500Y265030D02*
Y275030D01*
G01X-65500Y265030D02*
Y275030D01*
G01X-52500Y560000D02*
Y630000D01*
G01X-11450Y683500D02*
X-60450D01*
Y715500D01*
X-11450D01*
Y683500D01*
G01X-6000Y189030D02*
X-4000D01*
G01X-6000Y181030D02*
X-4000D01*
G01X-6000Y204030D02*
X-4000D01*
G01X-6000Y196030D02*
X-4000D01*
G01X17000Y248530D02*
Y261530D01*
G01X8000Y248530D02*
Y261530D01*
G01X-8000Y248530D02*
Y261530D01*
G01X33000Y248530D02*
Y261530D01*
G01X-785890Y112540D02*
X-785090Y111270D01*
X-784120Y110420D01*
X-783000Y110000D01*
X-781710Y110420D01*
X-780740Y111270D01*
X-779780Y112540D01*
X-779460Y114230D01*
Y122700D01*
G01X-766830Y110000D02*
Y118470D01*
G01Y116990D02*
X-767470Y117830D01*
X-768440Y118250D01*
X-769560Y118470D01*
X-770690Y118040D01*
X-771660Y117200D01*
X-772300Y115930D01*
X-772620Y114230D01*
X-772300Y112540D01*
X-771660Y111270D01*
X-770690Y110420D01*
X-769560Y110000D01*
X-768440Y110210D01*
X-767470Y110850D01*
X-766830Y111690D01*
G01X-759510Y110000D02*
Y118470D01*
G01Y116350D02*
X-758870Y117410D01*
X-757900Y118250D01*
X-756610Y118470D01*
X-755490Y118250D01*
X-754520Y117410D01*
X-754040Y115930D01*
Y110000D01*
G01X-746560Y118470D02*
Y112540D01*
X-745920Y111060D01*
X-744950Y110210D01*
X-743830Y110000D01*
X-742700Y110210D01*
X-741730Y111060D01*
X-741090Y112540D01*
G01Y110000D02*
Y118470D01*
G01X-727980Y110000D02*
Y118470D01*
G01Y116990D02*
X-728620Y117830D01*
X-729590Y118250D01*
X-730710Y118470D01*
X-731840Y118040D01*
X-732810Y117200D01*
X-733450Y115930D01*
X-733770Y114230D01*
X-733450Y112540D01*
X-732810Y111270D01*
X-731840Y110420D01*
X-730710Y110000D01*
X-729590Y110210D01*
X-728620Y110850D01*
X-727980Y111690D01*
G01X-720180Y110000D02*
Y118470D01*
G01Y116770D02*
X-719370Y117620D01*
X-718570Y118250D01*
X-717440Y118470D01*
X-716640Y118250D01*
X-715670Y117620D01*
G01X-708350Y106190D02*
X-707390Y105770D01*
X-706100Y106190D01*
X-705300Y107040D01*
X-704650Y108100D01*
X-703690Y111480D01*
X-701600Y118470D01*
G01X-706740D02*
X-703690Y111480D01*
G01X-682130Y120580D02*
X-681170Y121850D01*
X-680040Y122490D01*
X-678750Y122700D01*
X-677140Y122280D01*
X-676020Y121220D01*
X-675700Y119950D01*
X-675860Y118680D01*
X-676500Y117620D01*
X-679720Y115500D01*
X-681170Y114020D01*
X-682130Y111900D01*
X-682450Y110000D01*
X-675700D01*
G01X-666130Y122700D02*
X-667410Y122280D01*
X-668380Y121220D01*
X-669020Y119950D01*
X-669500Y118250D01*
X-669660Y116350D01*
X-669500Y114440D01*
X-669020Y112750D01*
X-668380Y111480D01*
X-667410Y110420D01*
X-666130Y110000D01*
X-664840Y110420D01*
X-663870Y111480D01*
X-663230Y112750D01*
X-662750Y114440D01*
X-662590Y116350D01*
X-662750Y118250D01*
X-663230Y119950D01*
X-663870Y121220D01*
X-664840Y122280D01*
X-666130Y122700D01*
G01X-653180Y110000D02*
Y122700D01*
X-655110Y120160D01*
G01Y110000D02*
X-651250D01*
G01X-643760Y112540D02*
X-642800Y111060D01*
X-641510Y110210D01*
X-640060Y110000D01*
X-638780Y110210D01*
X-637490Y111270D01*
X-636690Y112540D01*
X-636530Y113810D01*
X-636850Y115290D01*
X-637970Y116350D01*
X-639100Y116770D01*
X-640550D01*
G01X-639100D02*
X-638130Y117410D01*
X-637330Y118470D01*
X-637010Y119740D01*
X-637330Y121010D01*
X-638130Y122060D01*
X-639580Y122700D01*
X-641030Y122490D01*
X-642480Y121640D01*
G01X-781390Y136770D02*
X-780740Y137410D01*
X-780260Y138470D01*
X-779940Y139950D01*
X-780260Y141220D01*
X-780910Y142060D01*
X-782030Y142700D01*
X-786370D01*
Y130000D01*
X-781070D01*
X-779940Y130850D01*
X-779300Y132120D01*
X-778980Y133600D01*
X-779300Y135080D01*
X-780260Y136350D01*
X-781390Y136770D01*
X-786370D01*
G01X-773100Y131690D02*
X-771820Y130630D01*
X-770370Y130000D01*
X-769080D01*
X-767790Y130630D01*
X-766830Y131690D01*
X-766350Y133180D01*
X-766670Y134660D01*
X-767470Y135930D01*
X-768920Y136770D01*
X-770850Y137200D01*
X-771980Y138040D01*
X-772460Y139520D01*
X-772140Y141010D01*
X-771330Y142060D01*
X-770210Y142700D01*
X-769080D01*
X-767960Y142280D01*
X-766990Y141220D01*
G01X-759990Y130000D02*
Y142700D01*
X-756130D01*
X-754840Y142060D01*
X-753880Y140580D01*
X-753560Y138890D01*
X-753880Y137200D01*
X-754680Y135930D01*
X-756130Y135290D01*
X-759990D01*
G01X-745920Y134230D02*
X-741730D01*
G01X-734090Y130000D02*
Y142700D01*
X-730230D01*
X-728940Y142060D01*
X-727980Y140580D01*
X-727660Y138890D01*
X-727980Y137200D01*
X-728780Y135930D01*
X-730230Y135290D01*
X-734090D01*
G01X-719860Y142700D02*
X-716000D01*
G01X-717930D02*
Y130000D01*
G01X-719860D02*
X-716000D01*
G01X-709800Y125770D02*
X-700150D01*
G01X-692030Y142700D02*
X-693310Y142280D01*
X-694280Y141220D01*
X-694920Y139950D01*
X-695400Y138250D01*
X-695560Y136350D01*
X-695400Y134440D01*
X-694920Y132750D01*
X-694280Y131480D01*
X-693310Y130420D01*
X-692030Y130000D01*
X-690740Y130420D01*
X-689770Y131480D01*
X-689130Y132750D01*
X-688650Y134440D01*
X-688490Y136350D01*
X-688650Y138250D01*
X-689130Y139950D01*
X-689770Y141220D01*
X-690740Y142280D01*
X-692030Y142700D01*
G01X-682610Y132540D02*
X-681650Y131060D01*
X-680360Y130210D01*
X-678910Y130000D01*
X-677630Y130210D01*
X-676340Y131270D01*
X-675540Y132540D01*
X-675380Y133810D01*
X-675700Y135290D01*
X-676820Y136350D01*
X-677950Y136770D01*
X-679400D01*
G01X-677950D02*
X-676980Y137410D01*
X-676180Y138470D01*
X-675860Y139740D01*
X-676180Y141010D01*
X-676980Y142060D01*
X-678430Y142700D01*
X-679880Y142490D01*
X-681330Y141640D01*
G01X-669020Y138470D02*
X-666130Y130000D01*
X-663230Y138470D01*
G01X-656230Y140580D02*
X-655270Y141850D01*
X-654140Y142490D01*
X-652850Y142700D01*
X-651240Y142280D01*
X-650120Y141220D01*
X-649800Y139950D01*
X-649960Y138680D01*
X-650600Y137620D01*
X-653820Y135500D01*
X-655270Y134020D01*
X-656230Y131900D01*
X-656550Y130000D01*
X-649800D01*
G01X-629530D02*
Y138470D01*
G01Y136770D02*
X-628720Y137620D01*
X-627920Y138250D01*
X-626790Y138470D01*
X-625990Y138250D01*
X-625020Y137620D01*
G01X-616740Y135710D02*
X-611590D01*
X-612070Y137200D01*
X-612880Y138040D01*
X-614000Y138470D01*
X-615130Y138250D01*
X-616090Y137620D01*
X-616740Y136140D01*
X-617060Y134870D01*
Y133600D01*
X-616740Y132330D01*
X-615930Y131060D01*
X-614970Y130210D01*
X-613840Y130000D01*
X-612720Y130420D01*
X-611590Y131690D01*
G01X-604270Y138470D02*
X-601380Y130000D01*
X-598480Y138470D01*
G01X-588430Y142700D02*
X-589710Y142280D01*
X-590680Y141220D01*
X-591320Y139950D01*
X-591800Y138250D01*
X-591960Y136350D01*
X-591800Y134440D01*
X-591320Y132750D01*
X-590680Y131480D01*
X-589710Y130420D01*
X-588430Y130000D01*
X-587140Y130420D01*
X-586170Y131480D01*
X-585530Y132750D01*
X-585050Y134440D01*
X-584890Y136350D01*
X-585050Y138250D01*
X-585530Y139950D01*
X-586170Y141220D01*
X-587140Y142280D01*
X-588430Y142700D01*
G01X-785890Y150000D02*
Y162700D01*
X-782030D01*
X-780740Y162060D01*
X-779780Y160580D01*
X-779460Y158890D01*
X-779780Y157200D01*
X-780580Y155930D01*
X-782030Y155290D01*
X-785890D01*
G01X-771980Y150000D02*
Y158470D01*
G01Y156770D02*
X-771170Y157620D01*
X-770370Y158250D01*
X-769240Y158470D01*
X-768440Y158250D01*
X-767470Y157620D01*
G01X-756780Y150000D02*
X-757740Y150210D01*
X-758710Y151060D01*
X-759350Y152540D01*
X-759670Y154230D01*
X-759350Y155930D01*
X-758710Y157410D01*
X-757740Y158250D01*
X-756780Y158470D01*
X-755810Y158250D01*
X-754840Y157410D01*
X-754200Y155930D01*
X-754040Y154230D01*
X-754200Y152540D01*
X-754840Y151060D01*
X-755810Y150210D01*
X-756780Y150000D01*
G01X-747200Y151690D02*
X-745920Y150630D01*
X-744470Y150000D01*
X-743180D01*
X-741890Y150630D01*
X-740930Y151690D01*
X-740450Y153180D01*
X-740770Y154660D01*
X-741570Y155930D01*
X-743020Y156770D01*
X-744950Y157200D01*
X-746080Y158040D01*
X-746560Y159520D01*
X-746240Y161010D01*
X-745430Y162060D01*
X-744310Y162700D01*
X-743180D01*
X-742060Y162280D01*
X-741090Y161220D01*
G01X-730880Y150000D02*
X-731840Y150210D01*
X-732810Y151060D01*
X-733450Y152540D01*
X-733770Y154230D01*
X-733450Y155930D01*
X-732810Y157410D01*
X-731840Y158250D01*
X-730880Y158470D01*
X-729910Y158250D01*
X-728940Y157410D01*
X-728300Y155930D01*
X-728140Y154230D01*
X-728300Y152540D01*
X-728940Y151060D01*
X-729910Y150210D01*
X-730880Y150000D01*
G01X-718890D02*
Y160800D01*
X-718570Y161850D01*
X-717930Y162490D01*
X-716960Y162700D01*
X-715990Y162280D01*
X-715510Y161220D01*
G01X-717440Y157620D02*
X-720660D01*
G01X-704980Y162700D02*
Y150000D01*
G01X-707230Y158470D02*
X-702720D01*
G01X-694120Y154230D02*
X-689930D01*
G01X-682450Y151690D02*
X-681170Y150630D01*
X-679720Y150000D01*
X-678430D01*
X-677140Y150630D01*
X-676180Y151690D01*
X-675700Y153180D01*
X-676020Y154660D01*
X-676820Y155930D01*
X-678270Y156770D01*
X-680200Y157200D01*
X-681330Y158040D01*
X-681810Y159520D01*
X-681490Y161010D01*
X-680680Y162060D01*
X-679560Y162700D01*
X-678430D01*
X-677310Y162280D01*
X-676340Y161220D01*
G01X-669500Y146190D02*
X-668540Y145770D01*
X-667250Y146190D01*
X-666450Y147040D01*
X-665800Y148100D01*
X-664840Y151480D01*
X-662750Y158470D01*
G01X-667890D02*
X-664840Y151480D01*
G01X-655590D02*
X-654780Y150630D01*
X-653660Y150000D01*
X-652690D01*
X-651730Y150420D01*
X-651080Y151060D01*
X-650760Y151900D01*
X-650920Y153180D01*
X-651570Y153810D01*
X-654460Y155080D01*
X-655110Y156560D01*
X-654780Y157620D01*
X-654140Y158250D01*
X-653180Y158470D01*
X-652210Y158250D01*
X-651240Y157620D01*
G01X-640230Y162700D02*
Y150000D01*
G01X-642480Y158470D02*
X-637970D01*
G01X-629690Y155710D02*
X-624540D01*
X-625020Y157200D01*
X-625830Y158040D01*
X-626950Y158470D01*
X-628080Y158250D01*
X-629040Y157620D01*
X-629690Y156140D01*
X-630010Y154870D01*
Y153600D01*
X-629690Y152330D01*
X-628880Y151060D01*
X-627920Y150210D01*
X-626790Y150000D01*
X-625670Y150420D01*
X-624540Y151690D01*
G01X-619150Y150000D02*
Y158470D01*
G01Y156140D02*
X-618670Y157200D01*
X-617860Y158040D01*
X-616740Y158470D01*
X-615610Y158040D01*
X-614810Y157200D01*
X-614330Y156140D01*
Y150000D01*
G01Y156140D02*
X-613840Y157200D01*
X-613040Y158040D01*
X-611910Y158470D01*
X-610790Y158040D01*
X-609980Y157200D01*
X-609500Y155930D01*
Y150000D01*
G01X-603790Y151480D02*
X-602980Y150630D01*
X-601860Y150000D01*
X-600890D01*
X-599930Y150420D01*
X-599280Y151060D01*
X-598960Y151900D01*
X-599120Y153180D01*
X-599770Y153810D01*
X-602660Y155080D01*
X-603310Y156560D01*
X-602980Y157620D01*
X-602340Y158250D01*
X-601380Y158470D01*
X-600410Y158250D01*
X-599440Y157620D01*
G01X-784690Y671700D02*
Y659000D01*
X-778260D01*
G01X-768530D02*
Y671700D01*
X-770460Y669160D01*
G01Y659000D02*
X-766600D01*
G01X-777940Y706670D02*
X-778900Y707310D01*
X-780030Y707730D01*
X-781310D01*
X-782760Y707090D01*
X-783890Y706040D01*
X-784690Y704770D01*
X-785340Y702650D01*
X-785500Y700740D01*
X-785170Y698840D01*
X-784690Y697570D01*
X-783730Y696300D01*
X-782600Y695450D01*
X-781480Y695030D01*
X-780350D01*
X-779220Y695450D01*
X-778260Y696090D01*
X-777450Y696930D01*
G01X-768530Y695030D02*
X-767400Y695240D01*
X-766110Y695880D01*
X-765310Y696930D01*
X-764990Y698420D01*
X-765310Y699900D01*
X-766270Y701170D01*
X-767720Y701800D01*
X-769330D01*
X-770290Y702230D01*
X-771100Y703280D01*
X-771420Y704770D01*
X-770940Y706250D01*
X-769810Y707310D01*
X-768530Y707730D01*
X-767240Y707310D01*
X-766110Y706250D01*
X-765630Y704770D01*
X-765950Y703280D01*
X-766760Y702230D01*
X-767720Y701800D01*
X-769330D01*
X-770780Y701170D01*
X-771740Y699900D01*
X-772060Y698420D01*
X-771740Y696930D01*
X-770940Y695880D01*
X-769650Y695240D01*
X-768530Y695030D01*
G01X-774940Y741640D02*
X-775900Y742280D01*
X-777030Y742700D01*
X-778310D01*
X-779760Y742060D01*
X-780890Y741010D01*
X-781690Y739740D01*
X-782340Y737620D01*
X-782500Y735710D01*
X-782170Y733810D01*
X-781690Y732540D01*
X-780730Y731270D01*
X-779600Y730420D01*
X-778480Y730000D01*
X-777350D01*
X-776220Y730420D01*
X-775260Y731060D01*
X-774450Y731900D01*
G01X-765850Y730000D02*
X-765530Y732750D01*
X-765040Y735080D01*
X-764400Y737200D01*
X-763590Y739520D01*
X-762310Y742700D01*
X-768740D01*
G01X-672500Y403820D02*
X-685200D01*
Y407840D01*
X-684560Y409130D01*
X-683720Y409930D01*
X-682020Y410250D01*
X-680330Y409930D01*
X-679270Y408970D01*
X-678640Y407840D01*
Y403820D01*
G01Y407840D02*
X-672500Y410250D01*
G01Y419980D02*
X-685200D01*
X-682660Y418050D01*
G01X-672500D02*
Y421910D01*
G01Y432930D02*
X-685200D01*
X-682660Y431000D01*
G01X-672500D02*
Y434860D01*
G01X-632500Y403820D02*
X-645200D01*
Y407840D01*
X-644560Y409130D01*
X-643720Y409930D01*
X-642020Y410250D01*
X-640330Y409930D01*
X-639270Y408970D01*
X-638640Y407840D01*
Y403820D01*
G01Y407840D02*
X-632500Y410250D01*
G01Y419980D02*
X-645200D01*
X-642660Y418050D01*
G01X-632500D02*
Y421910D01*
G01X-635040Y429400D02*
X-633560Y430360D01*
X-632710Y431650D01*
X-632500Y433100D01*
X-632710Y434380D01*
X-633770Y435670D01*
X-635040Y436470D01*
X-636310Y436630D01*
X-637790Y436310D01*
X-638850Y435190D01*
X-639270Y434060D01*
Y432610D01*
G01Y434060D02*
X-639910Y435030D01*
X-640970Y435830D01*
X-642240Y436150D01*
X-643510Y435830D01*
X-644560Y435030D01*
X-645200Y433580D01*
X-644990Y432130D01*
X-644140Y430680D01*
G01X-624180Y636770D02*
X-623530Y637410D01*
X-623050Y638470D01*
X-622730Y639950D01*
X-623050Y641220D01*
X-623700Y642060D01*
X-624820Y642700D01*
X-629160D01*
Y630000D01*
X-623860D01*
X-622730Y630850D01*
X-622090Y632120D01*
X-621770Y633600D01*
X-622090Y635080D01*
X-623050Y636350D01*
X-624180Y636770D01*
X-629160D01*
G01X-615890Y631690D02*
X-614610Y630630D01*
X-613160Y630000D01*
X-611870D01*
X-610580Y630630D01*
X-609620Y631690D01*
X-609140Y633180D01*
X-609460Y634660D01*
X-610260Y635930D01*
X-611710Y636770D01*
X-613640Y637200D01*
X-614770Y638040D01*
X-615250Y639520D01*
X-614930Y641010D01*
X-614120Y642060D01*
X-613000Y642700D01*
X-611870D01*
X-610750Y642280D01*
X-609780Y641220D01*
G01X-602780Y630000D02*
Y642700D01*
X-598920D01*
X-597630Y642060D01*
X-596670Y640580D01*
X-596350Y638890D01*
X-596670Y637200D01*
X-597470Y635930D01*
X-598920Y635290D01*
X-602780D01*
G01X-622050Y648000D02*
X-615300Y660700D01*
G01X-622050D02*
X-615300Y648000D01*
G01X-608780Y658580D02*
X-607820Y659850D01*
X-606690Y660490D01*
X-605400Y660700D01*
X-603790Y660280D01*
X-602670Y659220D01*
X-602350Y657950D01*
X-602510Y656680D01*
X-603150Y655620D01*
X-606370Y653500D01*
X-607820Y652020D01*
X-608780Y649900D01*
X-609100Y648000D01*
X-602350D01*
G01X-582390Y1197030D02*
Y1209730D01*
X-578370D01*
X-577080Y1209090D01*
X-576280Y1208250D01*
X-575960Y1206550D01*
X-576280Y1204860D01*
X-577240Y1203800D01*
X-578370Y1203170D01*
X-582390D01*
G01X-578370D02*
X-575960Y1197030D01*
G01X-564290D02*
Y1209730D01*
X-570250Y1200630D01*
X-562200D01*
G01X-549690Y452530D02*
Y465230D01*
X-545670D01*
X-544380Y464590D01*
X-543580Y463750D01*
X-543260Y462050D01*
X-543580Y460360D01*
X-544540Y459300D01*
X-545670Y458670D01*
X-549690D01*
G01X-545670D02*
X-543260Y452530D01*
G01X-536260Y454010D02*
X-535130Y452950D01*
X-533850Y452530D01*
X-532560Y452950D01*
X-531430Y454220D01*
X-530630Y456130D01*
X-530310Y458030D01*
Y460360D01*
X-530630Y462270D01*
X-531430Y463960D01*
X-532400Y464810D01*
X-533530Y465230D01*
X-534810Y464810D01*
X-535780Y463960D01*
X-536420Y462690D01*
X-536740Y461000D01*
X-536420Y459520D01*
X-535620Y458030D01*
X-534650Y457190D01*
X-533530Y456970D01*
X-532240Y457400D01*
X-531270Y458460D01*
X-530310Y460360D01*
G01X-525640Y88570D02*
X-526280Y87610D01*
X-526700Y86480D01*
Y85200D01*
X-526060Y83750D01*
X-525010Y82620D01*
X-523740Y81820D01*
X-521620Y81170D01*
X-519710Y81010D01*
X-517810Y81340D01*
X-516540Y81820D01*
X-515270Y82780D01*
X-514420Y83910D01*
X-514000Y85030D01*
Y86160D01*
X-514420Y87290D01*
X-515060Y88250D01*
X-515900Y89060D01*
G01X-524580Y94930D02*
X-525850Y95890D01*
X-526490Y97020D01*
X-526700Y98310D01*
X-526280Y99920D01*
X-525220Y101040D01*
X-523950Y101360D01*
X-522680Y101200D01*
X-521620Y100560D01*
X-519500Y97340D01*
X-518020Y95890D01*
X-515900Y94930D01*
X-514000Y94610D01*
Y101360D01*
G01Y110930D02*
X-526700D01*
X-524160Y109000D01*
G01X-514000D02*
Y112860D01*
G01X-449500Y53820D02*
X-462200D01*
Y57840D01*
X-461560Y59130D01*
X-460720Y59930D01*
X-459020Y60250D01*
X-457330Y59930D01*
X-456270Y58970D01*
X-455640Y57840D01*
Y53820D01*
G01Y57840D02*
X-449500Y60250D01*
G01X-460080Y66930D02*
X-461350Y67890D01*
X-461990Y69020D01*
X-462200Y70310D01*
X-461780Y71920D01*
X-460720Y73040D01*
X-459450Y73360D01*
X-458180Y73200D01*
X-457120Y72560D01*
X-455000Y69340D01*
X-453520Y67890D01*
X-451400Y66930D01*
X-449500Y66610D01*
Y73360D01*
G01Y82610D02*
X-452250Y82930D01*
X-454580Y83420D01*
X-456700Y84060D01*
X-459020Y84870D01*
X-462200Y86150D01*
Y79720D01*
G01X-476200Y393010D02*
X-463500Y397030D01*
X-476200Y401060D01*
G01X-463500Y406450D02*
X-476200D01*
Y409660D01*
X-475560Y410950D01*
X-474720Y411920D01*
X-473450Y412720D01*
X-471970Y413360D01*
X-469850Y413520D01*
X-467730Y413360D01*
X-466250Y412720D01*
X-464980Y411920D01*
X-464130Y410950D01*
X-463500Y409660D01*
Y406450D01*
G01X-474080Y419880D02*
X-475350Y420840D01*
X-475990Y421970D01*
X-476200Y423260D01*
X-475780Y424870D01*
X-474720Y425990D01*
X-473450Y426310D01*
X-472180Y426150D01*
X-471120Y425510D01*
X-469000Y422290D01*
X-467520Y420840D01*
X-465400Y419880D01*
X-463500Y419560D01*
Y426310D01*
G01X-476200Y445010D02*
X-463500Y449030D01*
X-476200Y453060D01*
G01X-463500Y458450D02*
X-476200D01*
Y461660D01*
X-475560Y462950D01*
X-474720Y463920D01*
X-473450Y464720D01*
X-471970Y465360D01*
X-469850Y465520D01*
X-467730Y465360D01*
X-466250Y464720D01*
X-464980Y463920D01*
X-464130Y462950D01*
X-463500Y461660D01*
Y458450D01*
G01Y474930D02*
X-476200D01*
X-473660Y473000D01*
G01X-463500D02*
Y476860D01*
G01X-485140Y752540D02*
X-484340Y751270D01*
X-483370Y750420D01*
X-482250Y750000D01*
X-480960Y750420D01*
X-479990Y751270D01*
X-479030Y752540D01*
X-478710Y754230D01*
Y762700D01*
G01X-468980D02*
Y750000D01*
G01X-472670Y762700D02*
X-465280D01*
G01X-460050Y750000D02*
X-456030Y762700D01*
X-452000Y750000D01*
G01X-453450Y754440D02*
X-458600D01*
G01X-442110Y756350D02*
X-438890D01*
Y752540D01*
X-439860Y751270D01*
X-440980Y750420D01*
X-442590Y750000D01*
X-444200Y750420D01*
X-445330Y751270D01*
X-446290Y752540D01*
X-446940Y754020D01*
X-447260Y755710D01*
Y757200D01*
X-446940Y758470D01*
X-446290Y759950D01*
X-445330Y761220D01*
X-444360Y762060D01*
X-443080Y762700D01*
X-441950D01*
X-440660Y762280D01*
X-439700Y761430D01*
G01X-466050Y770000D02*
X-459300Y782700D01*
G01X-466050D02*
X-459300Y770000D01*
G01X-447790D02*
Y782700D01*
X-453750Y773600D01*
X-445700D01*
G01X-436990Y83730D02*
X-432970Y71030D01*
X-428940Y83730D01*
G01X-423550Y71030D02*
Y83730D01*
X-420340D01*
X-419050Y83090D01*
X-418080Y82250D01*
X-417280Y80980D01*
X-416640Y79500D01*
X-416480Y77380D01*
X-416640Y75260D01*
X-417280Y73780D01*
X-418080Y72510D01*
X-419050Y71660D01*
X-420340Y71030D01*
X-423550D01*
G01X-410600Y72930D02*
X-409640Y71880D01*
X-408510Y71240D01*
X-407070Y71030D01*
X-405620Y71450D01*
X-404490Y72300D01*
X-403690Y73780D01*
X-403530Y75470D01*
X-403850Y77170D01*
X-404650Y78230D01*
X-405780Y79070D01*
X-406900Y79280D01*
X-408030Y79070D01*
X-409480Y78230D01*
X-409000Y83730D01*
X-404650D01*
G01X-449520Y98000D02*
Y110700D01*
X-443410D01*
G01X-445660Y104560D02*
X-449520D01*
G01X-432230Y104770D02*
X-431580Y105410D01*
X-431100Y106470D01*
X-430780Y107950D01*
X-431100Y109220D01*
X-431750Y110060D01*
X-432870Y110700D01*
X-437210D01*
Y98000D01*
X-431910D01*
X-430780Y98850D01*
X-430140Y100120D01*
X-429820Y101600D01*
X-430140Y103080D01*
X-431100Y104350D01*
X-432230Y104770D01*
X-437210D01*
G01X-423620Y108580D02*
X-422660Y109850D01*
X-421530Y110490D01*
X-420240Y110700D01*
X-418630Y110280D01*
X-417510Y109220D01*
X-417190Y107950D01*
X-417350Y106680D01*
X-417990Y105620D01*
X-421210Y103500D01*
X-422660Y102020D01*
X-423620Y99900D01*
X-423940Y98000D01*
X-417190D01*
G01X-455630Y341400D02*
Y354100D01*
X-451610D01*
X-450320Y353460D01*
X-449520Y352620D01*
X-449200Y350920D01*
X-449520Y349230D01*
X-450480Y348170D01*
X-451610Y347540D01*
X-455630D01*
G01X-451610D02*
X-449200Y341400D01*
G01X-439470D02*
Y354100D01*
X-441400Y351560D01*
G01Y341400D02*
X-437540D01*
G01X-426520Y354100D02*
X-427800Y353680D01*
X-428770Y352620D01*
X-429410Y351350D01*
X-429890Y349650D01*
X-430050Y347750D01*
X-429890Y345840D01*
X-429410Y344150D01*
X-428770Y342880D01*
X-427800Y341820D01*
X-426520Y341400D01*
X-425230Y341820D01*
X-424260Y342880D01*
X-423620Y344150D01*
X-423140Y345840D01*
X-422980Y347750D01*
X-423140Y349650D01*
X-423620Y351350D01*
X-424260Y352620D01*
X-425230Y353680D01*
X-426520Y354100D01*
G01X-402180Y20030D02*
Y32730D01*
X-398160D01*
X-396870Y32090D01*
X-396070Y31250D01*
X-395750Y29550D01*
X-396070Y27860D01*
X-397030Y26800D01*
X-398160Y26170D01*
X-402180D01*
G01X-398160D02*
X-395750Y20030D01*
G01X-389070Y30610D02*
X-388110Y31880D01*
X-386980Y32520D01*
X-385690Y32730D01*
X-384080Y32310D01*
X-382960Y31250D01*
X-382640Y29980D01*
X-382800Y28710D01*
X-383440Y27650D01*
X-386660Y25530D01*
X-388110Y24050D01*
X-389070Y21930D01*
X-389390Y20030D01*
X-382640D01*
G01X-376600Y21930D02*
X-375640Y20880D01*
X-374510Y20240D01*
X-373070Y20030D01*
X-371620Y20450D01*
X-370490Y21300D01*
X-369690Y22780D01*
X-369530Y24470D01*
X-369850Y26170D01*
X-370650Y27230D01*
X-371780Y28070D01*
X-372900Y28280D01*
X-374030Y28070D01*
X-375480Y27230D01*
X-375000Y32730D01*
X-370650D01*
G01X-402180Y46030D02*
Y58730D01*
X-398160D01*
X-396870Y58090D01*
X-396070Y57250D01*
X-395750Y55550D01*
X-396070Y53860D01*
X-397030Y52800D01*
X-398160Y52170D01*
X-402180D01*
G01X-398160D02*
X-395750Y46030D01*
G01X-389070Y56610D02*
X-388110Y57880D01*
X-386980Y58520D01*
X-385690Y58730D01*
X-384080Y58310D01*
X-382960Y57250D01*
X-382640Y55980D01*
X-382800Y54710D01*
X-383440Y53650D01*
X-386660Y51530D01*
X-388110Y50050D01*
X-389070Y47930D01*
X-389390Y46030D01*
X-382640D01*
G01X-371130D02*
Y58730D01*
X-377090Y49630D01*
X-369040D01*
G01X-407190Y450000D02*
Y462700D01*
X-403170D01*
X-401880Y462060D01*
X-401080Y461220D01*
X-400760Y459520D01*
X-401080Y457830D01*
X-402040Y456770D01*
X-403170Y456140D01*
X-407190D01*
G01X-403170D02*
X-400760Y450000D01*
G01X-391030D02*
Y462700D01*
X-392960Y460160D01*
G01Y450000D02*
X-389100D01*
G01X-388970Y193700D02*
Y181000D01*
G01X-392660Y193700D02*
X-385270D01*
G01X-380040D02*
X-376020Y181000D01*
X-371990Y193700D01*
G01X-363070Y181000D02*
Y193700D01*
X-365000Y191160D01*
G01Y181000D02*
X-361140D01*
G01X-372190Y450000D02*
Y462700D01*
X-368170D01*
X-366880Y462060D01*
X-366080Y461220D01*
X-365760Y459520D01*
X-366080Y457830D01*
X-367040Y456770D01*
X-368170Y456140D01*
X-372190D01*
G01X-368170D02*
X-365760Y450000D01*
G01X-359080Y460580D02*
X-358120Y461850D01*
X-356990Y462490D01*
X-355700Y462700D01*
X-354090Y462280D01*
X-352970Y461220D01*
X-352650Y459950D01*
X-352810Y458680D01*
X-353450Y457620D01*
X-356670Y455500D01*
X-358120Y454020D01*
X-359080Y451900D01*
X-359400Y450000D01*
X-352650D01*
G01X-361940Y565640D02*
X-362900Y566280D01*
X-364030Y566700D01*
X-365310D01*
X-366760Y566060D01*
X-367890Y565010D01*
X-368690Y563740D01*
X-369340Y561620D01*
X-369500Y559710D01*
X-369170Y557810D01*
X-368690Y556540D01*
X-367730Y555270D01*
X-366600Y554420D01*
X-365480Y554000D01*
X-364350D01*
X-363220Y554420D01*
X-362260Y555060D01*
X-361450Y555900D01*
G01X-356060D02*
X-355100Y554850D01*
X-353970Y554210D01*
X-352530Y554000D01*
X-351080Y554420D01*
X-349950Y555270D01*
X-349150Y556750D01*
X-348990Y558440D01*
X-349310Y560140D01*
X-350110Y561200D01*
X-351240Y562040D01*
X-352360Y562250D01*
X-353490Y562040D01*
X-354940Y561200D01*
X-354460Y566700D01*
X-350110D01*
G01X-372940Y659170D02*
X-373900Y659810D01*
X-375030Y660230D01*
X-376310D01*
X-377760Y659590D01*
X-378890Y658540D01*
X-379690Y657270D01*
X-380340Y655150D01*
X-380500Y653240D01*
X-380170Y651340D01*
X-379690Y650070D01*
X-378730Y648800D01*
X-377600Y647950D01*
X-376480Y647530D01*
X-375350D01*
X-374220Y647950D01*
X-373260Y648590D01*
X-372450Y649430D01*
G01X-366580Y652820D02*
X-365460Y654300D01*
X-364490Y655150D01*
X-363200Y655570D01*
X-362080Y655150D01*
X-361270Y654300D01*
X-360630Y653030D01*
X-360470Y651550D01*
X-360630Y650280D01*
X-361270Y649010D01*
X-362240Y647950D01*
X-363360Y647530D01*
X-364650Y647950D01*
X-365780Y649220D01*
X-366420Y651130D01*
X-366580Y653240D01*
X-366260Y656000D01*
X-365780Y657480D01*
X-364970Y658960D01*
X-363850Y660020D01*
X-362720Y660230D01*
X-361590Y659810D01*
X-360790Y658750D01*
G01X-347520Y96000D02*
Y108700D01*
X-341410D01*
G01X-343660Y102560D02*
X-347520D01*
G01X-330230Y102770D02*
X-329580Y103410D01*
X-329100Y104470D01*
X-328780Y105950D01*
X-329100Y107220D01*
X-329750Y108060D01*
X-330870Y108700D01*
X-335210D01*
Y96000D01*
X-329910D01*
X-328780Y96850D01*
X-328140Y98120D01*
X-327820Y99600D01*
X-328140Y101080D01*
X-329100Y102350D01*
X-330230Y102770D01*
X-335210D01*
G01X-318570Y96000D02*
Y108700D01*
X-320500Y106160D01*
G01Y96000D02*
X-316640D01*
G01X-361180Y1187730D02*
Y1175030D01*
X-354750D01*
G01X-341480Y1186670D02*
X-342440Y1187310D01*
X-343570Y1187730D01*
X-344850D01*
X-346300Y1187090D01*
X-347430Y1186040D01*
X-348230Y1184770D01*
X-348880Y1182650D01*
X-349040Y1180740D01*
X-348710Y1178840D01*
X-348230Y1177570D01*
X-347270Y1176300D01*
X-346140Y1175450D01*
X-345020Y1175030D01*
X-343890D01*
X-342760Y1175450D01*
X-341800Y1176090D01*
X-340990Y1176930D01*
G01X-335600Y1175030D02*
Y1187730D01*
X-332390D01*
X-331100Y1187090D01*
X-330130Y1186250D01*
X-329330Y1184980D01*
X-328690Y1183500D01*
X-328530Y1181380D01*
X-328690Y1179260D01*
X-329330Y1177780D01*
X-330130Y1176510D01*
X-331100Y1175660D01*
X-332390Y1175030D01*
X-335600D01*
G01X-353850Y1196000D02*
X-347100Y1208700D01*
G01X-353850D02*
X-347100Y1196000D01*
G01X-337530D02*
Y1208700D01*
X-339460Y1206160D01*
G01Y1196000D02*
X-335600D01*
G01X-302930Y57640D02*
X-303890Y58280D01*
X-305020Y58700D01*
X-306300D01*
X-307750Y58060D01*
X-308880Y57010D01*
X-309680Y55740D01*
X-310330Y53620D01*
X-310490Y51710D01*
X-310160Y49810D01*
X-309680Y48540D01*
X-308720Y47270D01*
X-307590Y46420D01*
X-306470Y46000D01*
X-305340D01*
X-304210Y46420D01*
X-303250Y47060D01*
X-302440Y47900D01*
G01X-293520Y46000D02*
Y58700D01*
X-295450Y56160D01*
G01Y46000D02*
X-291590D01*
G01X-283300Y47480D02*
X-282170Y46420D01*
X-280890Y46000D01*
X-279600Y46420D01*
X-278470Y47690D01*
X-277670Y49600D01*
X-277350Y51500D01*
Y53830D01*
X-277670Y55740D01*
X-278470Y57430D01*
X-279440Y58280D01*
X-280570Y58700D01*
X-281850Y58280D01*
X-282820Y57430D01*
X-283460Y56160D01*
X-283780Y54470D01*
X-283460Y52990D01*
X-282660Y51500D01*
X-281690Y50660D01*
X-280570Y50440D01*
X-279280Y50870D01*
X-278310Y51930D01*
X-277350Y53830D01*
G01X-276930Y155640D02*
X-277890Y156280D01*
X-279020Y156700D01*
X-280300D01*
X-281750Y156060D01*
X-282880Y155010D01*
X-283680Y153740D01*
X-284330Y151620D01*
X-284490Y149710D01*
X-284160Y147810D01*
X-283680Y146540D01*
X-282720Y145270D01*
X-281590Y144420D01*
X-280470Y144000D01*
X-279340D01*
X-278210Y144420D01*
X-277250Y145060D01*
X-276440Y145900D01*
G01X-270570Y154580D02*
X-269610Y155850D01*
X-268480Y156490D01*
X-267190Y156700D01*
X-265580Y156280D01*
X-264460Y155220D01*
X-264140Y153950D01*
X-264300Y152680D01*
X-264940Y151620D01*
X-268160Y149500D01*
X-269610Y148020D01*
X-270570Y145900D01*
X-270890Y144000D01*
X-264140D01*
G01X-254570Y156700D02*
X-255850Y156280D01*
X-256820Y155220D01*
X-257460Y153950D01*
X-257940Y152250D01*
X-258100Y150350D01*
X-257940Y148440D01*
X-257460Y146750D01*
X-256820Y145480D01*
X-255850Y144420D01*
X-254570Y144000D01*
X-253280Y144420D01*
X-252310Y145480D01*
X-251670Y146750D01*
X-251190Y148440D01*
X-251030Y150350D01*
X-251190Y152250D01*
X-251670Y153950D01*
X-252310Y155220D01*
X-253280Y156280D01*
X-254570Y156700D01*
G01X-295600Y309650D02*
X-291740D01*
G01X-293670D02*
Y296950D01*
G01X-295600D02*
X-291740D01*
G01X-284090Y298640D02*
X-282810Y297580D01*
X-281360Y296950D01*
X-280070D01*
X-278780Y297580D01*
X-277820Y298640D01*
X-277340Y300130D01*
X-277660Y301610D01*
X-278460Y302880D01*
X-279910Y303720D01*
X-281840Y304150D01*
X-282970Y304990D01*
X-283450Y306470D01*
X-283130Y307960D01*
X-282320Y309010D01*
X-281200Y309650D01*
X-280070D01*
X-278950Y309230D01*
X-277980Y308170D01*
G01X-270980Y296950D02*
Y309650D01*
X-267120D01*
X-265830Y309010D01*
X-264870Y307530D01*
X-264550Y305840D01*
X-264870Y304150D01*
X-265670Y302880D01*
X-267120Y302240D01*
X-270980D01*
G01X-291950Y316000D02*
X-285200Y328700D01*
G01X-291950D02*
X-285200Y316000D01*
G01X-279160Y318540D02*
X-278200Y317060D01*
X-276910Y316210D01*
X-275460Y316000D01*
X-274180Y316210D01*
X-272890Y317270D01*
X-272090Y318540D01*
X-271930Y319810D01*
X-272250Y321290D01*
X-273370Y322350D01*
X-274500Y322770D01*
X-275950D01*
G01X-274500D02*
X-273530Y323410D01*
X-272730Y324470D01*
X-272410Y325740D01*
X-272730Y327010D01*
X-273530Y328060D01*
X-274980Y328700D01*
X-276430Y328490D01*
X-277880Y327640D01*
G01X-297680Y447700D02*
Y435000D01*
G01X-301370Y447700D02*
X-293980D01*
G01X-287940Y435000D02*
Y447700D01*
X-284080D01*
X-282790Y447060D01*
X-281830Y445580D01*
X-281510Y443890D01*
X-281830Y442200D01*
X-282630Y440930D01*
X-284080Y440290D01*
X-287940D01*
G01X-271780Y435000D02*
Y447700D01*
X-273710Y445160D01*
G01Y435000D02*
X-269850D01*
G01X-282710Y695030D02*
Y707730D01*
X-279500D01*
X-278210Y707090D01*
X-277240Y706250D01*
X-276440Y704980D01*
X-275800Y703500D01*
X-275640Y701380D01*
X-275800Y699260D01*
X-276440Y697780D01*
X-277240Y696510D01*
X-278210Y695660D01*
X-279500Y695030D01*
X-282710D01*
G01X-269760D02*
Y707730D01*
X-266550D01*
X-265260Y707090D01*
X-264290Y706250D01*
X-263490Y704980D01*
X-262850Y703500D01*
X-262690Y701380D01*
X-262850Y699260D01*
X-263490Y697780D01*
X-264290Y696510D01*
X-265260Y695660D01*
X-266550Y695030D01*
X-269760D01*
G01X-253280D02*
Y707730D01*
X-255210Y705190D01*
G01Y695030D02*
X-251350D01*
G01X-247680Y447700D02*
Y435000D01*
G01X-251370Y447700D02*
X-243980D01*
G01X-237940Y435000D02*
Y447700D01*
X-234080D01*
X-232790Y447060D01*
X-231830Y445580D01*
X-231510Y443890D01*
X-231830Y442200D01*
X-232630Y440930D01*
X-234080Y440290D01*
X-237940D01*
G01X-224830Y445580D02*
X-223870Y446850D01*
X-222740Y447490D01*
X-221450Y447700D01*
X-219840Y447280D01*
X-218720Y446220D01*
X-218400Y444950D01*
X-218560Y443680D01*
X-219200Y442620D01*
X-222420Y440500D01*
X-223870Y439020D01*
X-224830Y436900D01*
X-225150Y435000D01*
X-218400D01*
G01X-243500Y759820D02*
X-256200D01*
Y763840D01*
X-255560Y765130D01*
X-254720Y765930D01*
X-253020Y766250D01*
X-251330Y765930D01*
X-250270Y764970D01*
X-249640Y763840D01*
Y759820D01*
G01Y763840D02*
X-243500Y766250D01*
G01Y775980D02*
X-256200D01*
X-253660Y774050D01*
G01X-243500D02*
Y777910D01*
G01Y790870D02*
X-256200D01*
X-247100Y784910D01*
Y792960D01*
G01X-243500Y811820D02*
X-256200D01*
Y815840D01*
X-255560Y817130D01*
X-254720Y817930D01*
X-253020Y818250D01*
X-251330Y817930D01*
X-250270Y816970D01*
X-249640Y815840D01*
Y811820D01*
G01Y815840D02*
X-243500Y818250D01*
G01Y827980D02*
X-256200D01*
X-253660Y826050D01*
G01X-243500D02*
Y829910D01*
G01X-254080Y837880D02*
X-255350Y838840D01*
X-255990Y839970D01*
X-256200Y841260D01*
X-255780Y842870D01*
X-254720Y843990D01*
X-253450Y844310D01*
X-252180Y844150D01*
X-251120Y843510D01*
X-249000Y840290D01*
X-247520Y838840D01*
X-245400Y837880D01*
X-243500Y837560D01*
Y844310D01*
G01X-229500Y122030D02*
Y134730D01*
X-226290D01*
X-225000Y134090D01*
X-224030Y133250D01*
X-223230Y131980D01*
X-222590Y130500D01*
X-222430Y128380D01*
X-222590Y126260D01*
X-223230Y124780D01*
X-224030Y123510D01*
X-225000Y122660D01*
X-226290Y122030D01*
X-229500D01*
G01X-216550D02*
Y134730D01*
X-213340D01*
X-212050Y134090D01*
X-211080Y133250D01*
X-210280Y131980D01*
X-209640Y130500D01*
X-209480Y128380D01*
X-209640Y126260D01*
X-210280Y124780D01*
X-211080Y123510D01*
X-212050Y122660D01*
X-213340Y122030D01*
X-216550D01*
G01X-203600Y123930D02*
X-202640Y122880D01*
X-201510Y122240D01*
X-200070Y122030D01*
X-198620Y122450D01*
X-197490Y123300D01*
X-196690Y124780D01*
X-196530Y126470D01*
X-196850Y128170D01*
X-197650Y129230D01*
X-198780Y130070D01*
X-199900Y130280D01*
X-201030Y130070D01*
X-202480Y129230D01*
X-202000Y134730D01*
X-197650D01*
G01X-233680Y860000D02*
Y872700D01*
X-229660D01*
X-228370Y872060D01*
X-227570Y871220D01*
X-227250Y869520D01*
X-227570Y867830D01*
X-228530Y866770D01*
X-229660Y866140D01*
X-233680D01*
G01X-229660D02*
X-227250Y860000D01*
G01X-220730D02*
Y872700D01*
X-216710D01*
X-215420Y872060D01*
X-214620Y871220D01*
X-214300Y869520D01*
X-214620Y867830D01*
X-215580Y866770D01*
X-216710Y866140D01*
X-220730D01*
G01X-216710D02*
X-214300Y860000D01*
G01X-208100Y862540D02*
X-207140Y861060D01*
X-205850Y860210D01*
X-204400Y860000D01*
X-203120Y860210D01*
X-201830Y861270D01*
X-201030Y862540D01*
X-200870Y863810D01*
X-201190Y865290D01*
X-202310Y866350D01*
X-203440Y866770D01*
X-204890D01*
G01X-203440D02*
X-202470Y867410D01*
X-201670Y868470D01*
X-201350Y869740D01*
X-201670Y871010D01*
X-202470Y872060D01*
X-203920Y872700D01*
X-205370Y872490D01*
X-206820Y871640D01*
G01X-198680Y700000D02*
Y712700D01*
X-194660D01*
X-193370Y712060D01*
X-192570Y711220D01*
X-192250Y709520D01*
X-192570Y707830D01*
X-193530Y706770D01*
X-194660Y706140D01*
X-198680D01*
G01X-194660D02*
X-192250Y700000D01*
G01X-185730D02*
Y712700D01*
X-181710D01*
X-180420Y712060D01*
X-179620Y711220D01*
X-179300Y709520D01*
X-179620Y707830D01*
X-180580Y706770D01*
X-181710Y706140D01*
X-185730D01*
G01X-181710D02*
X-179300Y700000D01*
G01X-167630D02*
Y712700D01*
X-173590Y703600D01*
X-165540D01*
G01X-214200Y1192730D02*
X-210180Y1180030D01*
X-206150Y1192730D01*
G01X-197230D02*
Y1180030D01*
G01X-200920Y1192730D02*
X-193530D01*
G01X-184280Y1180030D02*
Y1192730D01*
X-186210Y1190190D01*
G01Y1180030D02*
X-182350D01*
G01X-166640Y133600D02*
X-167280Y132640D01*
X-167700Y131510D01*
Y130230D01*
X-167060Y128780D01*
X-166010Y127650D01*
X-164740Y126850D01*
X-162620Y126200D01*
X-160710Y126040D01*
X-158810Y126370D01*
X-157540Y126850D01*
X-156270Y127810D01*
X-155420Y128940D01*
X-155000Y130060D01*
Y131190D01*
X-155420Y132320D01*
X-156060Y133280D01*
X-156900Y134090D01*
G01X-155000Y143010D02*
X-167700D01*
X-165160Y141080D01*
G01X-155000D02*
Y144940D01*
G01Y155960D02*
X-155210Y157090D01*
X-155850Y158380D01*
X-156900Y159180D01*
X-158390Y159500D01*
X-159870Y159180D01*
X-161140Y158220D01*
X-161770Y156770D01*
Y155160D01*
X-162200Y154200D01*
X-163250Y153390D01*
X-164740Y153070D01*
X-166220Y153550D01*
X-167280Y154680D01*
X-167700Y155960D01*
X-167280Y157250D01*
X-166220Y158380D01*
X-164740Y158860D01*
X-163250Y158540D01*
X-162200Y157730D01*
X-161770Y156770D01*
Y155160D01*
X-161140Y153710D01*
X-159870Y152750D01*
X-158390Y152430D01*
X-156900Y152750D01*
X-155850Y153550D01*
X-155210Y154840D01*
X-155000Y155960D01*
G01X-161640Y208100D02*
X-162280Y207140D01*
X-162700Y206010D01*
Y204730D01*
X-162060Y203280D01*
X-161010Y202150D01*
X-159740Y201350D01*
X-157620Y200700D01*
X-155710Y200540D01*
X-153810Y200870D01*
X-152540Y201350D01*
X-151270Y202310D01*
X-150420Y203440D01*
X-150000Y204560D01*
Y205690D01*
X-150420Y206820D01*
X-151060Y207780D01*
X-151900Y208590D01*
G01X-150000Y217510D02*
X-162700D01*
X-160160Y215580D01*
G01X-150000D02*
Y219440D01*
G01X-162700Y230460D02*
X-162280Y229180D01*
X-161220Y228210D01*
X-159950Y227570D01*
X-158250Y227090D01*
X-156350Y226930D01*
X-154440Y227090D01*
X-152750Y227570D01*
X-151480Y228210D01*
X-150420Y229180D01*
X-150000Y230460D01*
X-150420Y231750D01*
X-151480Y232720D01*
X-152750Y233360D01*
X-154440Y233840D01*
X-156350Y234000D01*
X-158250Y233840D01*
X-159950Y233360D01*
X-161220Y232720D01*
X-162280Y231750D01*
X-162700Y230460D01*
G01X-162500Y273820D02*
X-175200D01*
Y277840D01*
X-174560Y279130D01*
X-173720Y279930D01*
X-172020Y280250D01*
X-170330Y279930D01*
X-169270Y278970D01*
X-168640Y277840D01*
Y273820D01*
G01Y277840D02*
X-162500Y280250D01*
G01Y289980D02*
X-175200D01*
X-172660Y288050D01*
G01X-162500D02*
Y291910D01*
G01Y302930D02*
X-162710Y304060D01*
X-163350Y305350D01*
X-164400Y306150D01*
X-165890Y306470D01*
X-167370Y306150D01*
X-168640Y305190D01*
X-169270Y303740D01*
Y302130D01*
X-169700Y301170D01*
X-170750Y300360D01*
X-172240Y300040D01*
X-173720Y300520D01*
X-174780Y301650D01*
X-175200Y302930D01*
X-174780Y304220D01*
X-173720Y305350D01*
X-172240Y305830D01*
X-170750Y305510D01*
X-169700Y304700D01*
X-169270Y303740D01*
Y302130D01*
X-168640Y300680D01*
X-167370Y299720D01*
X-165890Y299400D01*
X-164400Y299720D01*
X-163350Y300520D01*
X-162710Y301810D01*
X-162500Y302930D01*
G01X-177180Y458030D02*
Y470730D01*
X-173160D01*
X-171870Y470090D01*
X-171070Y469250D01*
X-170750Y467550D01*
X-171070Y465860D01*
X-172030Y464800D01*
X-173160Y464170D01*
X-177180D01*
G01X-173160D02*
X-170750Y458030D01*
G01X-161020D02*
Y470730D01*
X-162950Y468190D01*
G01Y458030D02*
X-159090D01*
G01X-150800Y459510D02*
X-149670Y458450D01*
X-148390Y458030D01*
X-147100Y458450D01*
X-145970Y459720D01*
X-145170Y461630D01*
X-144850Y463530D01*
Y465860D01*
X-145170Y467770D01*
X-145970Y469460D01*
X-146940Y470310D01*
X-148070Y470730D01*
X-149350Y470310D01*
X-150320Y469460D01*
X-150960Y468190D01*
X-151280Y466500D01*
X-150960Y465020D01*
X-150160Y463530D01*
X-149190Y462690D01*
X-148070Y462470D01*
X-146780Y462900D01*
X-145810Y463960D01*
X-144850Y465860D01*
G01X-140930Y53640D02*
X-141890Y54280D01*
X-143020Y54700D01*
X-144300D01*
X-145750Y54060D01*
X-146880Y53010D01*
X-147680Y51740D01*
X-148330Y49620D01*
X-148490Y47710D01*
X-148160Y45810D01*
X-147680Y44540D01*
X-146720Y43270D01*
X-145590Y42420D01*
X-144470Y42000D01*
X-143340D01*
X-142210Y42420D01*
X-141250Y43060D01*
X-140440Y43900D01*
G01X-131520Y42000D02*
Y54700D01*
X-133450Y52160D01*
G01Y42000D02*
X-129590D01*
G01X-118890D02*
X-118570Y44750D01*
X-118080Y47080D01*
X-117440Y49200D01*
X-116630Y51520D01*
X-115350Y54700D01*
X-121780D01*
G01X-131210Y430000D02*
Y442700D01*
X-128000D01*
X-126710Y442060D01*
X-125740Y441220D01*
X-124940Y439950D01*
X-124300Y438470D01*
X-124140Y436350D01*
X-124300Y434230D01*
X-124940Y432750D01*
X-125740Y431480D01*
X-126710Y430630D01*
X-128000Y430000D01*
X-131210D01*
G01X-118260D02*
Y442700D01*
X-115050D01*
X-113760Y442060D01*
X-112790Y441220D01*
X-111990Y439950D01*
X-111350Y438470D01*
X-111190Y436350D01*
X-111350Y434230D01*
X-111990Y432750D01*
X-112790Y431480D01*
X-113760Y430630D01*
X-115050Y430000D01*
X-118260D01*
G01X-104830Y440580D02*
X-103870Y441850D01*
X-102740Y442490D01*
X-101450Y442700D01*
X-99840Y442280D01*
X-98720Y441220D01*
X-98400Y439950D01*
X-98560Y438680D01*
X-99200Y437620D01*
X-102420Y435500D01*
X-103870Y434020D01*
X-104830Y431900D01*
X-105150Y430000D01*
X-98400D01*
G01X-125440Y589170D02*
X-126400Y589810D01*
X-127530Y590230D01*
X-128810D01*
X-130260Y589590D01*
X-131390Y588540D01*
X-132190Y587270D01*
X-132840Y585150D01*
X-133000Y583240D01*
X-132670Y581340D01*
X-132190Y580070D01*
X-131230Y578800D01*
X-130100Y577950D01*
X-128980Y577530D01*
X-127850D01*
X-126720Y577950D01*
X-125760Y578590D01*
X-124950Y579430D01*
G01X-114090Y577530D02*
Y590230D01*
X-120050Y581130D01*
X-112000D01*
G01X-138680Y700000D02*
Y712700D01*
X-134660D01*
X-133370Y712060D01*
X-132570Y711220D01*
X-132250Y709520D01*
X-132570Y707830D01*
X-133530Y706770D01*
X-134660Y706140D01*
X-138680D01*
G01X-134660D02*
X-132250Y700000D01*
G01X-125730D02*
Y712700D01*
X-121710D01*
X-120420Y712060D01*
X-119620Y711220D01*
X-119300Y709520D01*
X-119620Y707830D01*
X-120580Y706770D01*
X-121710Y706140D01*
X-125730D01*
G01X-121710D02*
X-119300Y700000D01*
G01X-109570D02*
Y712700D01*
X-111500Y710160D01*
G01Y700000D02*
X-107640D01*
G01X-131240Y1259420D02*
X-118540D01*
Y1255400D01*
X-119180Y1254110D01*
X-120020Y1253310D01*
X-121720Y1252990D01*
X-123410Y1253310D01*
X-124470Y1254270D01*
X-125100Y1255400D01*
Y1259420D01*
G01Y1255400D02*
X-131240Y1252990D01*
G01X-129340Y1246790D02*
X-130390Y1245830D01*
X-131030Y1244700D01*
X-131240Y1243260D01*
X-130820Y1241810D01*
X-129970Y1240680D01*
X-128490Y1239880D01*
X-126800Y1239720D01*
X-125100Y1240040D01*
X-124040Y1240840D01*
X-123200Y1241970D01*
X-122990Y1243090D01*
X-123200Y1244220D01*
X-124040Y1245670D01*
X-118540Y1245190D01*
Y1240840D01*
G01X-111680Y268000D02*
Y280700D01*
X-107660D01*
X-106370Y280060D01*
X-105570Y279220D01*
X-105250Y277520D01*
X-105570Y275830D01*
X-106530Y274770D01*
X-107660Y274140D01*
X-111680D01*
G01X-107660D02*
X-105250Y268000D01*
G01X-98570Y278580D02*
X-97610Y279850D01*
X-96480Y280490D01*
X-95190Y280700D01*
X-93580Y280280D01*
X-92460Y279220D01*
X-92140Y277950D01*
X-92300Y276680D01*
X-92940Y275620D01*
X-96160Y273500D01*
X-97610Y272020D01*
X-98570Y269900D01*
X-98890Y268000D01*
X-92140D01*
G01X-85620Y273290D02*
X-84500Y274770D01*
X-83530Y275620D01*
X-82240Y276040D01*
X-81120Y275620D01*
X-80310Y274770D01*
X-79670Y273500D01*
X-79510Y272020D01*
X-79670Y270750D01*
X-80310Y269480D01*
X-81280Y268420D01*
X-82400Y268000D01*
X-83690Y268420D01*
X-84820Y269690D01*
X-85460Y271600D01*
X-85620Y273710D01*
X-85300Y276470D01*
X-84820Y277950D01*
X-84010Y279430D01*
X-82890Y280490D01*
X-81760Y280700D01*
X-80630Y280280D01*
X-79830Y279220D01*
G01X-111930Y501640D02*
X-112890Y502280D01*
X-114020Y502700D01*
X-115300D01*
X-116750Y502060D01*
X-117880Y501010D01*
X-118680Y499740D01*
X-119330Y497620D01*
X-119490Y495710D01*
X-119160Y493810D01*
X-118680Y492540D01*
X-117720Y491270D01*
X-116590Y490420D01*
X-115470Y490000D01*
X-114340D01*
X-113210Y490420D01*
X-112250Y491060D01*
X-111440Y491900D01*
G01X-102520Y490000D02*
Y502700D01*
X-104450Y500160D01*
G01Y490000D02*
X-100590D01*
G01X-93100Y491900D02*
X-92140Y490850D01*
X-91010Y490210D01*
X-89570Y490000D01*
X-88120Y490420D01*
X-86990Y491270D01*
X-86190Y492750D01*
X-86030Y494440D01*
X-86350Y496140D01*
X-87150Y497200D01*
X-88280Y498040D01*
X-89400Y498250D01*
X-90530Y498040D01*
X-91980Y497200D01*
X-91500Y502700D01*
X-87150D01*
G01X-106690Y1114030D02*
Y1126730D01*
X-102670D01*
X-101380Y1126090D01*
X-100580Y1125250D01*
X-100260Y1123550D01*
X-100580Y1121860D01*
X-101540Y1120800D01*
X-102670Y1120170D01*
X-106690D01*
G01X-102670D02*
X-100260Y1114030D01*
G01X-93580Y1119320D02*
X-92460Y1120800D01*
X-91490Y1121650D01*
X-90200Y1122070D01*
X-89080Y1121650D01*
X-88270Y1120800D01*
X-87630Y1119530D01*
X-87470Y1118050D01*
X-87630Y1116780D01*
X-88270Y1115510D01*
X-89240Y1114450D01*
X-90360Y1114030D01*
X-91650Y1114450D01*
X-92780Y1115720D01*
X-93420Y1117630D01*
X-93580Y1119740D01*
X-93260Y1122500D01*
X-92780Y1123980D01*
X-91970Y1125460D01*
X-90850Y1126520D01*
X-89720Y1126730D01*
X-88590Y1126310D01*
X-87790Y1125250D01*
G01X-100690Y1192030D02*
Y1204730D01*
X-96670D01*
X-95380Y1204090D01*
X-94580Y1203250D01*
X-94260Y1201550D01*
X-94580Y1199860D01*
X-95540Y1198800D01*
X-96670Y1198170D01*
X-100690D01*
G01X-96670D02*
X-94260Y1192030D01*
G01X-84850D02*
X-84530Y1194780D01*
X-84040Y1197110D01*
X-83400Y1199230D01*
X-82590Y1201550D01*
X-81310Y1204730D01*
X-87740D01*
G01X-91500Y108030D02*
Y120730D01*
X-88290D01*
X-87000Y120090D01*
X-86030Y119250D01*
X-85230Y117980D01*
X-84590Y116500D01*
X-84430Y114380D01*
X-84590Y112260D01*
X-85230Y110780D01*
X-86030Y109510D01*
X-87000Y108660D01*
X-88290Y108030D01*
X-91500D01*
G01X-78550D02*
Y120730D01*
X-75340D01*
X-74050Y120090D01*
X-73080Y119250D01*
X-72280Y117980D01*
X-71640Y116500D01*
X-71480Y114380D01*
X-71640Y112260D01*
X-72280Y110780D01*
X-73080Y109510D01*
X-74050Y108660D01*
X-75340Y108030D01*
X-78550D01*
G01X-65120Y113320D02*
X-64000Y114800D01*
X-63030Y115650D01*
X-61740Y116070D01*
X-60620Y115650D01*
X-59810Y114800D01*
X-59170Y113530D01*
X-59010Y112050D01*
X-59170Y110780D01*
X-59810Y109510D01*
X-60780Y108450D01*
X-61900Y108030D01*
X-63190Y108450D01*
X-64320Y109720D01*
X-64960Y111630D01*
X-65120Y113740D01*
X-64800Y116500D01*
X-64320Y117980D01*
X-63510Y119460D01*
X-62390Y120520D01*
X-61260Y120730D01*
X-60130Y120310D01*
X-59330Y119250D01*
G01X-82500Y288820D02*
X-95200D01*
Y292840D01*
X-94560Y294130D01*
X-93720Y294930D01*
X-92020Y295250D01*
X-90330Y294930D01*
X-89270Y293970D01*
X-88640Y292840D01*
Y288820D01*
G01Y292840D02*
X-82500Y295250D01*
G01Y304980D02*
X-95200D01*
X-92660Y303050D01*
G01X-82500D02*
Y306910D01*
G01X-87790Y314880D02*
X-89270Y316000D01*
X-90120Y316970D01*
X-90540Y318260D01*
X-90120Y319380D01*
X-89270Y320190D01*
X-88000Y320830D01*
X-86520Y320990D01*
X-85250Y320830D01*
X-83980Y320190D01*
X-82920Y319220D01*
X-82500Y318100D01*
X-82920Y316810D01*
X-84190Y315680D01*
X-86100Y315040D01*
X-88210Y314880D01*
X-90970Y315200D01*
X-92450Y315680D01*
X-93930Y316490D01*
X-94990Y317610D01*
X-95200Y318740D01*
X-94780Y319870D01*
X-93720Y320670D01*
G01X-92230Y525730D02*
X-86120D01*
X-92230Y513030D01*
X-86120D01*
G01X-76230D02*
X-77510Y513240D01*
X-78640Y514090D01*
X-79600Y515360D01*
X-80250Y516840D01*
X-80570Y518530D01*
Y520230D01*
X-80250Y521920D01*
X-79600Y523400D01*
X-78640Y524670D01*
X-77510Y525520D01*
X-76230Y525730D01*
X-74940Y525520D01*
X-73810Y524670D01*
X-72850Y523400D01*
X-72200Y521920D01*
X-71880Y520230D01*
Y518530D01*
X-72200Y516840D01*
X-72850Y515360D01*
X-73810Y514090D01*
X-74940Y513240D01*
X-76230Y513030D01*
G01X-74940Y516420D02*
X-73010Y513030D01*
G01X-63280D02*
Y525730D01*
X-65210Y523190D01*
G01Y513030D02*
X-61350D01*
G01X-66000Y683500D02*
X-78700D01*
Y686710D01*
X-78060Y688000D01*
X-77220Y688970D01*
X-75950Y689770D01*
X-74470Y690410D01*
X-72350Y690570D01*
X-70230Y690410D01*
X-68750Y689770D01*
X-67480Y688970D01*
X-66630Y688000D01*
X-66000Y686710D01*
Y683500D01*
G01Y696450D02*
X-78700D01*
Y699660D01*
X-78060Y700950D01*
X-77220Y701920D01*
X-75950Y702720D01*
X-74470Y703360D01*
X-72350Y703520D01*
X-70230Y703360D01*
X-68750Y702720D01*
X-67480Y701920D01*
X-66630Y700950D01*
X-66000Y699660D01*
Y696450D01*
G01Y714870D02*
X-78700D01*
X-69600Y708910D01*
Y716960D01*
G01X-72930Y789110D02*
X-73890Y789750D01*
X-75020Y790170D01*
X-76300D01*
X-77750Y789530D01*
X-78880Y788480D01*
X-79680Y787210D01*
X-80330Y785090D01*
X-80490Y783180D01*
X-80160Y781280D01*
X-79680Y780010D01*
X-78720Y778740D01*
X-77590Y777890D01*
X-76470Y777470D01*
X-75340D01*
X-74210Y777890D01*
X-73250Y778530D01*
X-72440Y779370D01*
G01X-63520Y777470D02*
Y790170D01*
X-65450Y787630D01*
G01Y777470D02*
X-61590D01*
G01X-53620Y782760D02*
X-52500Y784240D01*
X-51530Y785090D01*
X-50240Y785510D01*
X-49120Y785090D01*
X-48310Y784240D01*
X-47670Y782970D01*
X-47510Y781490D01*
X-47670Y780220D01*
X-48310Y778950D01*
X-49280Y777890D01*
X-50400Y777470D01*
X-51690Y777890D01*
X-52820Y779160D01*
X-53460Y781070D01*
X-53620Y783180D01*
X-53300Y785940D01*
X-52820Y787420D01*
X-52010Y788900D01*
X-50890Y789960D01*
X-49760Y790170D01*
X-48630Y789750D01*
X-47830Y788690D01*
G01X-83680Y825000D02*
Y837700D01*
X-79660D01*
X-78370Y837060D01*
X-77570Y836220D01*
X-77250Y834520D01*
X-77570Y832830D01*
X-78530Y831770D01*
X-79660Y831140D01*
X-83680D01*
G01X-79660D02*
X-77250Y825000D01*
G01X-70730D02*
Y837700D01*
X-66710D01*
X-65420Y837060D01*
X-64620Y836220D01*
X-64300Y834520D01*
X-64620Y832830D01*
X-65580Y831770D01*
X-66710Y831140D01*
X-70730D01*
G01X-66710D02*
X-64300Y825000D01*
G01X-57620Y835580D02*
X-56660Y836850D01*
X-55530Y837490D01*
X-54240Y837700D01*
X-52630Y837280D01*
X-51510Y836220D01*
X-51190Y834950D01*
X-51350Y833680D01*
X-51990Y832620D01*
X-55210Y830500D01*
X-56660Y829020D01*
X-57620Y826900D01*
X-57940Y825000D01*
X-51190D01*
G01X-96690Y1271030D02*
Y1283730D01*
X-92670D01*
X-91380Y1283090D01*
X-90580Y1282250D01*
X-90260Y1280550D01*
X-90580Y1278860D01*
X-91540Y1277800D01*
X-92670Y1277170D01*
X-96690D01*
G01X-92670D02*
X-90260Y1271030D01*
G01X-84060Y1273570D02*
X-83100Y1272090D01*
X-81810Y1271240D01*
X-80360Y1271030D01*
X-79080Y1271240D01*
X-77790Y1272300D01*
X-76990Y1273570D01*
X-76830Y1274840D01*
X-77150Y1276320D01*
X-78270Y1277380D01*
X-79400Y1277800D01*
X-80850D01*
G01X-79400D02*
X-78430Y1278440D01*
X-77630Y1279500D01*
X-77310Y1280770D01*
X-77630Y1282040D01*
X-78430Y1283090D01*
X-79880Y1283730D01*
X-81330Y1283520D01*
X-82780Y1282670D01*
G01X-43140Y260570D02*
X-43780Y259610D01*
X-44200Y258480D01*
Y257200D01*
X-43560Y255750D01*
X-42510Y254620D01*
X-41240Y253820D01*
X-39120Y253170D01*
X-37210Y253010D01*
X-35310Y253340D01*
X-34040Y253820D01*
X-32770Y254780D01*
X-31920Y255910D01*
X-31500Y257030D01*
Y258160D01*
X-31920Y259290D01*
X-32560Y260250D01*
X-33400Y261060D01*
G01X-31500Y269980D02*
X-44200D01*
X-41660Y268050D01*
G01X-31500D02*
Y271910D01*
G01X-42080Y279880D02*
X-43350Y280840D01*
X-43990Y281970D01*
X-44200Y283260D01*
X-43780Y284870D01*
X-42720Y285990D01*
X-41450Y286310D01*
X-40180Y286150D01*
X-39120Y285510D01*
X-37000Y282290D01*
X-35520Y280840D01*
X-33400Y279880D01*
X-31500Y279560D01*
Y286310D01*
G01X-47640Y376090D02*
X-48280Y375130D01*
X-48700Y374000D01*
Y372720D01*
X-48060Y371270D01*
X-47010Y370140D01*
X-45740Y369340D01*
X-43620Y368690D01*
X-41710Y368530D01*
X-39810Y368860D01*
X-38540Y369340D01*
X-37270Y370300D01*
X-36420Y371430D01*
X-36000Y372550D01*
Y373680D01*
X-36420Y374810D01*
X-37060Y375770D01*
X-37900Y376580D01*
G01X-36000Y385500D02*
X-48700D01*
X-46160Y383570D01*
G01X-36000D02*
Y387430D01*
G01X-15440Y576640D02*
X-16400Y577280D01*
X-17530Y577700D01*
X-18810D01*
X-20260Y577060D01*
X-21390Y576010D01*
X-22190Y574740D01*
X-22840Y572620D01*
X-23000Y570710D01*
X-22670Y568810D01*
X-22190Y567540D01*
X-21230Y566270D01*
X-20100Y565420D01*
X-18980Y565000D01*
X-17850D01*
X-16720Y565420D01*
X-15760Y566060D01*
X-14950Y566900D01*
G01X-9080Y575580D02*
X-8120Y576850D01*
X-6990Y577490D01*
X-5700Y577700D01*
X-4090Y577280D01*
X-2970Y576220D01*
X-2650Y574950D01*
X-2810Y573680D01*
X-3450Y572620D01*
X-6670Y570500D01*
X-8120Y569020D01*
X-9080Y566900D01*
X-9400Y565000D01*
X-2650D01*
G01X-15440Y621640D02*
X-16400Y622280D01*
X-17530Y622700D01*
X-18810D01*
X-20260Y622060D01*
X-21390Y621010D01*
X-22190Y619740D01*
X-22840Y617620D01*
X-23000Y615710D01*
X-22670Y613810D01*
X-22190Y612540D01*
X-21230Y611270D01*
X-20100Y610420D01*
X-18980Y610000D01*
X-17850D01*
X-16720Y610420D01*
X-15760Y611060D01*
X-14950Y611900D01*
G01X-9560Y612540D02*
X-8600Y611060D01*
X-7310Y610210D01*
X-5860Y610000D01*
X-4580Y610210D01*
X-3290Y611270D01*
X-2490Y612540D01*
X-2330Y613810D01*
X-2650Y615290D01*
X-3770Y616350D01*
X-4900Y616770D01*
X-6350D01*
G01X-4900D02*
X-3930Y617410D01*
X-3130Y618470D01*
X-2810Y619740D01*
X-3130Y621010D01*
X-3930Y622060D01*
X-5380Y622700D01*
X-6830Y622490D01*
X-8280Y621640D01*
G01X15070Y149640D02*
X14110Y150280D01*
X12980Y150700D01*
X11700D01*
X10250Y150060D01*
X9120Y149010D01*
X8320Y147740D01*
X7670Y145620D01*
X7510Y143710D01*
X7840Y141810D01*
X8320Y140540D01*
X9280Y139270D01*
X10410Y138420D01*
X11530Y138000D01*
X12660D01*
X13790Y138420D01*
X14750Y139060D01*
X15560Y139900D01*
G01X24480Y138000D02*
Y150700D01*
X22550Y148160D01*
G01Y138000D02*
X26410D01*
G01X37430D02*
Y150700D01*
X35500Y148160D01*
G01Y138000D02*
X39360D01*
G01X10020Y187470D02*
X14040Y174770D01*
X18070Y187470D01*
G01X23460Y174770D02*
Y187470D01*
X26670D01*
X27960Y186830D01*
X28930Y185990D01*
X29730Y184720D01*
X30370Y183240D01*
X30530Y181120D01*
X30370Y179000D01*
X29730Y177520D01*
X28930Y176250D01*
X27960Y175400D01*
X26670Y174770D01*
X23460D01*
G01X41880D02*
Y187470D01*
X35920Y178370D01*
X43970D01*
G01X23560Y169640D02*
X22600Y170280D01*
X21470Y170700D01*
X20190D01*
X18740Y170060D01*
X17610Y169010D01*
X16810Y167740D01*
X16160Y165620D01*
X16000Y163710D01*
X16330Y161810D01*
X16810Y160540D01*
X17770Y159270D01*
X18900Y158420D01*
X20020Y158000D01*
X21150D01*
X22280Y158420D01*
X23240Y159060D01*
X24050Y159900D01*
G01X30240Y159480D02*
X31370Y158420D01*
X32650Y158000D01*
X33940Y158420D01*
X35070Y159690D01*
X35870Y161600D01*
X36190Y163500D01*
Y165830D01*
X35870Y167740D01*
X35070Y169430D01*
X34100Y170280D01*
X32970Y170700D01*
X31690Y170280D01*
X30720Y169430D01*
X30080Y168160D01*
X29760Y166470D01*
X30080Y164990D01*
X30880Y163500D01*
X31850Y162660D01*
X32970Y162440D01*
X34260Y162870D01*
X35230Y163930D01*
X36190Y165830D01*
G01X10020Y202470D02*
X14040Y189770D01*
X18070Y202470D01*
G01X23460Y189770D02*
Y202470D01*
X26670D01*
X27960Y201830D01*
X28930Y200990D01*
X29730Y199720D01*
X30370Y198240D01*
X30530Y196120D01*
X30370Y194000D01*
X29730Y192520D01*
X28930Y191250D01*
X27960Y190400D01*
X26670Y189770D01*
X23460D01*
G01X36410Y192310D02*
X37370Y190830D01*
X38660Y189980D01*
X40110Y189770D01*
X41390Y189980D01*
X42680Y191040D01*
X43480Y192310D01*
X43640Y193580D01*
X43320Y195060D01*
X42200Y196120D01*
X41070Y196540D01*
X39620D01*
G01X41070D02*
X42040Y197180D01*
X42840Y198240D01*
X43160Y199510D01*
X42840Y200780D01*
X42040Y201830D01*
X40590Y202470D01*
X39140Y202260D01*
X37690Y201410D01*
G01X8000Y281850D02*
X-4700D01*
Y285870D01*
X-4060Y287160D01*
X-3220Y287960D01*
X-1520Y288280D01*
X170Y287960D01*
X1230Y287000D01*
X1860Y285870D01*
Y281850D01*
G01Y285870D02*
X8000Y288280D01*
G01X-2580Y294960D02*
X-3850Y295920D01*
X-4490Y297050D01*
X-4700Y298340D01*
X-4280Y299950D01*
X-3220Y301070D01*
X-1950Y301390D01*
X-680Y301230D01*
X380Y300590D01*
X2500Y297370D01*
X3980Y295920D01*
X6100Y294960D01*
X8000Y294640D01*
Y301390D01*
G01X-4700Y310960D02*
X-4280Y309680D01*
X-3220Y308710D01*
X-1950Y308070D01*
X-250Y307590D01*
X1650Y307430D01*
X3560Y307590D01*
X5250Y308070D01*
X6520Y308710D01*
X7580Y309680D01*
X8000Y310960D01*
X7580Y312250D01*
X6520Y313220D01*
X5250Y313860D01*
X3560Y314340D01*
X1650Y314500D01*
X-250Y314340D01*
X-1950Y313860D01*
X-3220Y313220D01*
X-4280Y312250D01*
X-4700Y310960D01*
G01X33000Y280850D02*
X20300D01*
Y284870D01*
X20940Y286160D01*
X21780Y286960D01*
X23480Y287280D01*
X25170Y286960D01*
X26230Y286000D01*
X26860Y284870D01*
Y280850D01*
G01Y284870D02*
X33000Y287280D01*
G01X22420Y293960D02*
X21150Y294920D01*
X20510Y296050D01*
X20300Y297340D01*
X20720Y298950D01*
X21780Y300070D01*
X23050Y300390D01*
X24320Y300230D01*
X25380Y299590D01*
X27500Y296370D01*
X28980Y294920D01*
X31100Y293960D01*
X33000Y293640D01*
Y300390D01*
G01Y309960D02*
X20300D01*
X22840Y308030D01*
G01X33000D02*
Y311890D01*
G54D11*
G01X-311500Y525000D02*
G03I-2000J0D01*
G01X-138000Y1169000D02*
G03X-140000Y1171000I-2000J0D01*
G01D02*
G03X-142000Y1169000I0J-2000D01*
G01D02*
G03X-140000Y1167000I2000J0D01*
G01D02*
G03X-138000Y1169000I0J2000D01*
G01X-80500Y417500D02*
G03X-82500Y419500I-2000J0D01*
G01D02*
G03X-84500Y417500I0J-2000D01*
G01D02*
G03X-82500Y415500I2000J0D01*
G01D02*
G03X-80500Y417500I0J2000D01*
G54D12*
G01X-233250Y106530D02*
G03I-2500J0D01*
G01X-85000Y221030D02*
G03I-2500J0D01*
G01X-47950Y693500D02*
G03I-2500J0D01*
G54D13*
G01X-740000Y731030D02*
Y739030D01*
G01X-498500Y97530D02*
X-506500D01*
G01X-370000Y638030D02*
Y630030D01*
G01X-360000Y546530D02*
Y538530D01*
G01X-295000Y76530D02*
Y68530D01*
G01X-267500Y126030D02*
Y134030D01*
G01X-130000Y66030D02*
Y74030D01*
G01X-136000Y120030D02*
X-144000D01*
G01X-131000Y220030D02*
X-139000D01*
G01Y507030D02*
Y515030D01*
G01X-126500Y558030D02*
X-118500D01*
G01X-67000Y375030D02*
X-75000D01*
G01X-47000Y758500D02*
X-55000D01*
G01X-10000Y141030D02*
Y149030D01*
G01Y161030D02*
Y169030D01*
G01X-31000Y570030D02*
X-39000D01*
G01Y616030D02*
X-31000D01*
G54D14*
G01X-760000Y620000D02*
X-557500D01*
Y530000D01*
X-760000D01*
Y620000D01*
G01X-755000Y615000D02*
X-562500D01*
Y535000D01*
X-755000D01*
Y615000D01*
G01X-677500Y530000D02*
Y535000D01*
G01X-640000Y530000D02*
Y535000D01*
G01X-507500Y537500D02*
Y740000D01*
X-417500D01*
Y537500D01*
X-507500D01*
G01X-502500Y542500D02*
Y735000D01*
X-422500D01*
Y542500D01*
X-502500D01*
G01X-510000Y1317500D02*
X-180000D01*
Y1227500D01*
X-510000D01*
Y1317500D01*
G01X-505000Y1312500D02*
X-185000D01*
Y1232500D01*
X-505000D01*
Y1312500D01*
G01X-422750Y396530D02*
G03X-424000Y397780I-1250J0D01*
G01D02*
G03X-425250Y396530I0J-1250D01*
G01D02*
G03X-424000Y395280I1250J0D01*
G01D02*
G03X-422750Y396530I0J1250D01*
G01Y444530D02*
G03X-424000Y445780I-1250J0D01*
G01D02*
G03X-425250Y444530I0J-1250D01*
G01D02*
G03X-424000Y443280I1250J0D01*
G01D02*
G03X-422750Y444530I0J1250D01*
G01X-417500Y620000D02*
X-422500D01*
G01X-417500Y657500D02*
X-422500D01*
G01X-389750Y110030D02*
G03X-391000Y111280I-1250J0D01*
G01D02*
G03X-392250Y110030I0J-1250D01*
G01D02*
G03X-391000Y108780I1250J0D01*
G01D02*
G03X-389750Y110030I0J1250D01*
G01X-380250Y151780D02*
G03X-379000Y150530I1250J0D01*
G01D02*
G03X-377750Y151780I0J1250D01*
G01D02*
G03X-379000Y153030I-1250J0D01*
G01D02*
G03X-380250Y151780I0J-1250D01*
G01X-177500Y337530D02*
X-380000D01*
Y427530D01*
X-177500D01*
Y337530D01*
G01X-182500Y342530D02*
X-375000D01*
Y422530D01*
X-182500D01*
Y342530D01*
G01X-365000Y1227500D02*
Y1232500D01*
G01X-325000Y1227500D02*
Y1232500D01*
G01X-297500Y427530D02*
Y422530D01*
G01X-265250Y117530D02*
G03X-266500Y118780I-1250J0D01*
G01D02*
G03X-267750Y117530I0J-1250D01*
G01D02*
G03X-266500Y116280I1250J0D01*
G01D02*
G03X-265250Y117530I0J1250D01*
G01X-260000Y427530D02*
Y422530D01*
G01X-150550Y766520D02*
G03X-151700Y767280I-1150J-490D01*
G01D02*
G03X-152950Y766030I0J-1250D01*
G01D02*
G03X-151700Y764780I1250J0D01*
G01D02*
G03X-150550Y765540I0J1250D01*
G01X-150450Y855030D02*
G03X-151700Y856280I-1250J0D01*
G01D02*
G03X-152950Y855030I0J-1250D01*
G01D02*
G03X-151700Y853780I1250J0D01*
G01D02*
G03X-150450Y855030I0J1250D01*
G01X-115250Y229530D02*
G03X-116500Y230780I-1250J0D01*
G01D02*
G03X-117750Y229530I0J-1250D01*
G01D02*
G03X-116500Y228280I1250J0D01*
G01D02*
G03X-115250Y229530I0J1250D01*
G01X-90450Y766030D02*
G03X-91700Y767280I-1250J0D01*
G01D02*
G03X-92950Y766030I0J-1250D01*
G01D02*
G03X-91700Y764780I1250J0D01*
G01D02*
G03X-90450Y766030I0J1250D01*
G01X-88450Y854530D02*
G03X-89700Y855780I-1250J0D01*
G01D02*
G03X-90950Y854530I0J-1250D01*
G01D02*
G03X-89700Y853280I1250J0D01*
G01D02*
G03X-88450Y854530I0J1250D01*
G01X-62200Y667500D02*
G03X-63450Y668750I-1250J0D01*
G01D02*
G03X-64700Y667500I0J-1250D01*
G01D02*
G03X-63450Y666250I1250J0D01*
G01D02*
G03X-62200Y667500I0J1250D01*
G01X15000Y221030D02*
Y205030D01*
G01X7000Y213030D02*
X23000D01*
M02*
