G04 ================== begin FILE IDENTIFICATION RECORD ==================*
G04 Layout Name:  E:/ORCAD_sch/RZSK/PI_BSP/v3/pcb/v3.brd*
G04 Film Name:    TOP*
G04 File Format:  Gerber RS274X*
G04 File Origin:  Cadence Allegro 16.6-S002*
G04 Origin Date:  Thu Jan 31 15:10:19 2013*
G04 *
G04 Layer:  ETCH/TOP*
G04 Layer:  PIN/TOP*
G04 Layer:  VIA CLASS/TOP*
G04 *
G04 Offset:    (0.000 0.000)*
G04 Mirror:    No*
G04 Mode:      Positive*
G04 Rotation:  0*
G04 FullContactRelief:  No*
G04 UndefLineWidth:     0.250*
G04 ================== end FILE IDENTIFICATION RECORD ====================*
%FSLAX34Y34*MOMM*%
%IR0*IPPOS*OFA0.00000B0.00000*MIA0B0*SFA1.00000B1.00000*%
%ADD22R,1.X.6*%
%ADD31R,2.X.6*%
%ADD35R,.4X1.5*%
%ADD11C,1.*%
%ADD30R,.5X1.5*%
%ADD28R,1.5X.5*%
%ADD18C,2.2*%
%ADD25R,1.15X.6*%
%ADD29C,2.5*%
%ADD16C,1.6*%
%ADD10C,5.2*%
%ADD38R,.6X1.55*%
%ADD21C,3.6*%
%ADD24C,1.75*%
%ADD33R,1.15X1.15*%
%ADD36R,1.85X.45*%
%ADD27R,1.7X1.7*%
%ADD15R,1.55X1.55*%
%ADD34R,1.4X1.*%
%ADD14R,1.1X1.4*%
%ADD20R,1.4X1.1*%
%ADD12R,2.X3.4*%
%ADD32R,1.05X1.15*%
%ADD19R,1.X1.75*%
%ADD23R,1.8X1.4*%
%ADD17R,1.75X1.*%
%ADD13R,1.25X1.8*%
%ADD37R,1.8X1.25*%
%ADD39R,.8X.95*%
%ADD26R,.55X.55*%
%ADD40C,.4*%
%ADD41C,.5*%
%ADD42C,.25*%
%ADD43C,.45*%
%ADD44C,.75*%
%ADD45C,3.504*%
G75*
%LPD*%
G75*
G36*
G01X-789000Y298030D02*
Y624010D01*
G02X-787000Y626010I2000J0D01*
G01X-738980D01*
G03X-736980Y628010I0J2000D01*
G01Y636010D01*
G02X-734980Y638010I2000J0D01*
G01X-734480D01*
G03X-732480Y640010I0J2000D01*
G01Y680050D01*
G03X-734480Y682050I-2000J0D01*
G01X-734980D01*
G02X-736980Y684050I0J2000D01*
G01Y689010D01*
X-736730D01*
Y717050D01*
X-736980D01*
Y722240D01*
G02X-734980Y724240I2000J0D01*
G01X-724210D01*
G03X-722210Y726240I0J2000D01*
G01Y743820D01*
G03X-724210Y745820I-2000J0D01*
G01X-734980D01*
G02X-736980Y747820I0J2000D01*
G01Y773520D01*
G03X-738980Y775520I-2000J0D01*
G01X-749980D01*
G02X-751980Y777520I0J2000D01*
G01Y780480D01*
G02X-749980Y782480I2000J0D01*
G01X-717480D01*
G02X-716060Y781890I2J-2000D01*
G01X-683110Y748940D01*
G02X-682520Y747520I-1410J-1418D01*
G01Y709570D01*
G03X-678130Y698960I15020J1D01*
G01X-498550Y519380D01*
X-498540Y519370D01*
G03X-487930Y514980I10611J10630D01*
G01X-413770D01*
G02X-411770Y512980I0J-2000D01*
G01Y497010D01*
G03X-409770Y495010I2000J0D01*
G01X-386230D01*
G03X-384230Y497010I0J2000D01*
G01Y512980D01*
G02X-382230Y514980I2000J0D01*
G01X-379770D01*
G02X-377770Y512980I0J-2000D01*
G01Y497010D01*
G03X-375770Y495010I2000J0D01*
G01X-352230D01*
G03X-350230Y497010I0J2000D01*
G01Y512980D01*
G02X-348230Y514980I2000J0D01*
G01X-337020D01*
G02X-335020Y512980I0J-2000D01*
G01Y512010D01*
G03X-333020Y510010I2000J0D01*
G01X-313710D01*
G02X-311870Y508780I-5J-1999D01*
G01X-311630Y508210D01*
X-311860Y507030D01*
X-337010Y481890D01*
G02X-338430Y481300I-1418J1409D01*
G01X-348230D01*
G02X-350230Y483300I0J2000D01*
G01Y483880D01*
X-351400Y485050D01*
X-375770D01*
G03X-377770Y483050I0J-2000D01*
G01Y467010D01*
G03X-375770Y465010I2000J0D01*
G01X-348680D01*
G02X-346840Y463780I-5J-1999D01*
G01X-346600Y463210D01*
X-346830Y462030D01*
X-349480Y459390D01*
G02X-350900Y458800I-1418J1409D01*
G01X-389730D01*
G02X-391730Y460800I0J2000D01*
G01Y463010D01*
G02X-389730Y465010I2000J0D01*
G01X-386230D01*
G03X-384230Y467010I0J2000D01*
G01Y483050D01*
G03X-386230Y485050I-2000J0D01*
G01X-409770D01*
G03X-411770Y483050I0J-2000D01*
G01Y467010D01*
G03X-409770Y465010I2000J0D01*
G01X-406270D01*
G02X-404270Y463010I0J-2000D01*
G01Y460460D01*
G02X-404860Y459040I-1999J-2D01*
G01X-405100Y458800D01*
X-414480D01*
G02X-416480Y460800I0J2000D01*
G01Y477550D01*
G03X-418480Y479550I-2000J0D01*
G01X-434520D01*
G03X-436520Y477550I0J-2000D01*
G01Y472050D01*
G02X-438520Y470050I-2000J0D01*
G01X-458350D01*
X-459520Y468880D01*
Y468800D01*
X-461770D01*
G03X-463180Y468210I8J-1998D01*
G01X-487010Y444390D01*
G02X-488430Y443800I-1418J1409D01*
G01X-512980D01*
G02X-514980Y445800I0J2000D01*
G01Y449300D01*
G03X-516980Y451300I-2000J0D01*
G01X-532560D01*
X-533730Y452470D01*
Y452630D01*
X-555790Y474680D01*
G03X-557200Y475270I-1418J-1408D01*
G01X-624230D01*
G02X-626230Y477270I0J2000D01*
G01Y488050D01*
G03X-628230Y490050I-2000J0D01*
G01X-628620D01*
Y492460D01*
X-628460Y492840D01*
G03X-627530Y497320I-10340J4483D01*
G01Y549960D01*
G02X-626630Y551630I1999J0D01*
G03X-624080Y553830I-7160J10877D01*
G02X-622590Y554500I1493J-1328D01*
G01X-619610D01*
G02X-618120Y553830I-3J-1998D01*
G03X-600470Y572820I9717J8666D01*
G01X-600830Y573100D01*
X-601230Y573890D01*
X-601350Y577900D01*
X-601000Y578710D01*
X-600660Y579010D01*
G03X-617880Y594910I-7739J8894D01*
G02X-619490Y594090I-1615J1181D01*
G01X-622710D01*
G02X-624320Y594910I5J2001D01*
G03X-642690Y595640I-9478J-7011D01*
G01X-642990Y595300D01*
X-643800Y594950D01*
X-647810Y595070D01*
X-648600Y595470D01*
X-648880Y595830D01*
G03X-668920Y596570I-10326J-7930D01*
G02X-670410Y595900I-1493J1328D01*
G01X-673390D01*
G02X-674880Y596570I3J1998D01*
G03X-692410Y598320I-9718J-8669D01*
G02X-693610Y597920I-1200J1599D01*
G01X-697980D01*
G02X-699980Y599920I0J2000D01*
G01Y601740D01*
G03X-700570Y603160I-2000J2D01*
G01X-701890Y604480D01*
G02X-702480Y605900I1410J1418D01*
G01Y636010D01*
G02X-700480Y638010I2000J0D01*
G01X-699480D01*
G03X-697480Y640010I0J2000D01*
G01Y680050D01*
G03X-699480Y682050I-2000J0D01*
G01X-725520D01*
G03X-727520Y680050I0J-2000D01*
G01Y640010D01*
G03X-725520Y638010I2000J0D01*
G01X-724520D01*
G02X-722520Y636010I0J-2000D01*
G01Y597600D01*
G03X-721930Y596180I2000J-2D01*
G01X-721470Y595720D01*
X-721270Y594450D01*
X-721580Y593860D01*
G03X-721220Y581300I11580J-5953D01*
G01X-720950Y580830D01*
X-720940Y579760D01*
X-722510Y577020D01*
G03X-722770Y576030I1740J-986D01*
G01Y551730D01*
G03X-720770Y549730I2000J0D01*
G01X-718270D01*
G02X-716270Y547730I0J-2000D01*
G01Y480760D01*
G03X-715680Y479350I1998J8D01*
G01X-694360Y458020D01*
G02X-693770Y456600I-1409J-1418D01*
G01Y442010D01*
G03X-691770Y440010I2000J0D01*
G01X-688270D01*
G02X-686270Y438010I0J-2000D01*
G01Y417800D01*
G03X-685680Y416390I1998J8D01*
G01X-568740Y299440D01*
G02X-568310Y297260I-1415J-1412D01*
G01X-568540Y296700D01*
X-569540Y296030D01*
X-787000D01*
G02X-789000Y298030I0J2000D01*
G37*
G36*
G01X-60430Y1332300D02*
X-60740Y1331720D01*
G03X31690Y1239250I60737J-31719D01*
G01X32270Y1239550D01*
X33580Y1239510D01*
X37800Y1236950D01*
G02X39000Y1234810I-1300J-2135D01*
G01Y312530D01*
G02X36500Y310030I-2500J0D01*
G01X17500D01*
G02X15000Y312530I0J2500D01*
G01Y1181990D01*
G03X14270Y1183760I-2500J4D01*
G01X-6270Y1204300D01*
G03X-8040Y1205030I-1766J-1770D01*
G01X-78970D01*
G02X-80730Y1205760I5J2499D01*
G01X-89270Y1214270D01*
G02X-90000Y1216040I1771J1766D01*
G01Y1288990D01*
G03X-90730Y1290760I-2500J4D01*
G01X-110260Y1310290D01*
G03X-112030Y1311020I-1766J-1771D01*
G01X-653500Y1310060D01*
G03X-656000Y1307560I0J-2500D01*
G01Y1216070D01*
G02X-656730Y1214300I-2500J-4D01*
G01X-665270Y1205760D01*
G02X-667040Y1205030I-1766J1770D01*
G01X-736960D01*
G03X-738730Y1204300I-4J-2500D01*
G01X-759270Y1183760D01*
G03X-760000Y1181990I1770J-1766D01*
G01Y770000D01*
G03X-757500Y767500I2500J0D01*
G01X-747500D01*
G02X-745000Y765000I0J-2500D01*
G01Y748320D01*
G02X-747500Y745820I-2500J0D01*
G01X-755290D01*
G03X-757790Y743320I0J-2500D01*
G01Y726740D01*
G03X-755290Y724240I2500J0D01*
G01X-747500D01*
G02X-745000Y721740I0J-2500D01*
G01Y718320D01*
G02X-747500Y715820I-2500J0D01*
G01X-755540D01*
G03X-758040Y713320I0J-2500D01*
G01Y692740D01*
G03X-755540Y690240I2500J0D01*
G01X-747500D01*
G02X-745000Y687740I0J-2500D01*
G01Y683320D01*
G02X-747500Y680820I-2500J0D01*
G01X-758790D01*
G03X-761290Y678320I0J-2500D01*
G01Y641740D01*
G03X-758790Y639240I2500J0D01*
G01X-747500D01*
G02X-745000Y636740I0J-2500D01*
G01Y636530D01*
G02X-747500Y634030I-2500J0D01*
G01X-786500D01*
G02X-789000Y636530I0J2500D01*
G01Y1234810D01*
G02X-787800Y1236950I2500J5D01*
G01X-783580Y1239510D01*
X-782270Y1239550D01*
X-781690Y1239250D01*
G03X-689260Y1331720I31693J60751D01*
G01X-689570Y1332300D01*
X-689530Y1333610D01*
X-686970Y1337830D01*
G02X-684830Y1339030I2136J-1301D01*
G01X-65170D01*
G02X-63030Y1337830I4J-2501D01*
G01X-60470Y1333610D01*
X-60430Y1332300D01*
G37*
G36*
G01X-486440Y535610D02*
X-661890Y711060D01*
G02X-662480Y712480I1410J1418D01*
G01Y750430D01*
G03X-666870Y761040I-15020J-1D01*
G01X-666880Y761050D01*
X-703960Y798130D01*
G03X-714430Y802520I-10612J-10629D01*
G01X-714480D01*
X-749980D01*
G02X-751980Y804520I0J2000D01*
G01Y1178880D01*
G02X-751390Y1180290I1998J-8D01*
G01X-735260Y1196420D01*
G02X-733850Y1197010I1418J-1408D01*
G01X-663510D01*
G03X-662090Y1197600I2J2000D01*
G01X-648570Y1211120D01*
G03X-647980Y1212540I-1410J1418D01*
G01Y1300060D01*
G02X-645980Y1302060I2000J0D01*
G01X-593290Y1302150D01*
G02X-591610Y1301240I3J-2000D01*
G01X-589500Y1297990D01*
X-589420Y1296990D01*
X-589630Y1296520D01*
G03X-590320Y1285310I14630J-6527D01*
G01X-590160Y1284780D01*
X-590420Y1283710D01*
X-593710Y1280420D01*
X-594780Y1280160D01*
X-595310Y1280320D01*
G03X-595130Y1249740I-4690J-15318D01*
G01X-594590Y1249910D01*
X-593510Y1249650D01*
X-590350Y1246490D01*
X-590090Y1245410D01*
X-590260Y1244870D01*
G03X-560770Y1232650I15263J-4859D01*
G02X-558990Y1233730I1777J-921D01*
G01X-448160D01*
G02X-446320Y1232500I-5J-1999D01*
G01X-446080Y1231930D01*
X-446310Y1230750D01*
X-455210Y1221860D01*
G02X-456630Y1221270I-1418J1409D01*
G01X-545410D01*
G03X-546170Y1221120I0J-2000D01*
G01X-551250Y1219040D01*
G03X-551910Y1218600I758J-1853D01*
G01X-605680Y1164820D01*
G03X-606270Y1163410I1408J-1418D01*
G01Y748860D01*
G03X-605680Y747450I1998J8D01*
G01X-532980Y674740D01*
G02X-532390Y673320I-1409J-1418D01*
G01Y597220D01*
G03X-529100Y589260I11271J-2D01*
G01X-529090D01*
X-496260Y556420D01*
G03X-488470Y553130I7960J7980D01*
G01X-488390D01*
X-413860D01*
G03X-412450Y553720I-8J1998D01*
G01X-398520Y567640D01*
G02X-397100Y568230I1418J-1409D01*
G01X-337020D01*
G02X-335020Y566230I0J-2000D01*
G01Y551550D01*
G02X-337020Y549550I-2000J0D01*
G01X-338980D01*
G02X-340980Y551550I0J2000D01*
G01Y552550D01*
G03X-342980Y554550I-2000J0D01*
G01X-360850D01*
X-362020Y553380D01*
Y553320D01*
X-375790D01*
G03X-377790Y551320I0J-2000D01*
G01Y537020D01*
G02X-379790Y535020I-2000J0D01*
G01X-485020D01*
G02X-486440Y535610I-2J2000D01*
G37*
G36*
G01X-174290Y319350D02*
X-167180Y326450D01*
G02X-165000Y326880I1412J-1415D01*
G01X-164440Y326650D01*
X-163770Y325650D01*
Y313300D01*
G02X-165770Y311300I-2000J0D01*
G01X-562030D01*
G02X-563450Y311890I-2J1999D01*
G01X-673140Y421580D01*
G02X-673730Y423000I1409J1418D01*
G01Y438010D01*
G02X-671730Y440010I2000J0D01*
G01X-668230D01*
G03X-666230Y442010I0J2000D01*
G01Y452730D01*
G02X-664230Y454730I2000J0D01*
G01X-655770D01*
G02X-653770Y452730I0J-2000D01*
G01Y442010D01*
G03X-651770Y440010I2000J0D01*
G01X-648270D01*
G02X-646270Y438010I0J-2000D01*
G01Y424570D01*
G03X-642980Y416610I11271J-2D01*
G01X-642970D01*
X-545710Y319350D01*
G03X-544300Y318760I1418J1408D01*
G01X-175700D01*
G03X-174290Y319350I-8J1998D01*
G37*
G36*
G01X-540520Y331890D02*
X-633140Y424510D01*
G02X-633730Y425930I1409J1418D01*
G01Y438010D01*
G02X-631730Y440010I2000J0D01*
G01X-628230D01*
G03X-626230Y442010I0J2000D01*
G01Y452730D01*
G02X-624230Y454730I2000J0D01*
G01X-591900D01*
G02X-590480Y454140I2J-1999D01*
G01X-568180Y431850D01*
G03X-566770Y431260I1418J1408D01*
G01X-566190D01*
X-565020Y430090D01*
Y425760D01*
G03X-563020Y423760I2000J0D01*
G01X-548270D01*
G02X-546270Y421760I0J-2000D01*
G01Y410760D01*
G03X-545680Y409350I1998J8D01*
G01X-502680Y366350D01*
G03X-501270Y365760I1418J1408D01*
G01X-479020D01*
G02X-477020Y363760I0J-2000D01*
G01Y360260D01*
G03X-475020Y358260I2000J0D01*
G01X-458940D01*
X-457770Y357090D01*
Y356930D01*
X-447180Y346350D01*
G03X-445770Y345760I1418J1408D01*
G01X-294230D01*
G03X-292820Y346350I-8J1998D01*
G01X-284730Y354430D01*
Y354950D01*
X-281390Y357810D01*
X-280550Y358050D01*
X-280110Y357980D01*
G03X-268820Y362620I1810J11650D01*
G02X-267210Y363440I1615J-1181D01*
G01X-263990D01*
G02X-262380Y362620I-5J-2001D01*
G03X-248300Y358770I9483J7008D01*
G01X-247930Y358930D01*
X-247520D01*
G02X-245520Y356930I0J-2000D01*
G01Y356680D01*
X-235180Y346350D01*
G03X-233770Y345760I1418J1408D01*
G01X-206230D01*
G03X-204820Y346350I-8J1998D01*
G01X-171820Y379350D01*
G03X-171230Y380760I-1408J1418D01*
G01Y381180D01*
X-168670D01*
X-167740Y380630D01*
X-167480Y380140D01*
G03X-159070Y375760I7476J4091D01*
G02X-157740Y375440I225J-1987D01*
G01X-156690Y374740D01*
G02X-155870Y373600I-1111J-1664D01*
G03X-152980Y368610I10873J2965D01*
G01X-147890Y363530D01*
Y363520D01*
G03X-145060Y361470I7946J7991D01*
G01X-144560Y361210D01*
X-143970Y360250D01*
Y353270D01*
G02X-145970Y351270I-2000J0D01*
G01X-155430D01*
G03X-163390Y347980I-2J-11271D01*
G01X-179480Y331890D01*
G02X-180900Y331300I-1418J1409D01*
G01X-539100D01*
G02X-540520Y331890I-2J1999D01*
G37*
G36*
G01X-560770Y1247350D02*
G03X-579870Y1255260I-14232J-7350D01*
G01X-580410Y1255090D01*
X-581490Y1255350D01*
X-584650Y1258510D01*
X-584910Y1259590D01*
X-584740Y1260130D01*
G03X-584680Y1269690I-15260J4876D01*
G01X-584840Y1270220D01*
X-584580Y1271290D01*
X-581290Y1274580D01*
X-580220Y1274840D01*
X-579690Y1274680D01*
G03X-560770Y1282650I4686J15319D01*
G02X-558990Y1283730I1777J-921D01*
G01X-530930D01*
G02X-529510Y1283140I2J-1999D01*
G01X-515890Y1269530D01*
Y1269520D01*
G03X-507930Y1266230I7958J7981D01*
G01X-473540D01*
G02X-471540Y1264230I0J-2000D01*
G01Y1248270D01*
G02X-473540Y1246270I-2000J0D01*
G01X-558990D01*
G02X-560770Y1247350I-3J2001D01*
G37*
G36*
G01X-497490Y378890D02*
X-533140Y414540D01*
G02X-533730Y415960I1409J1418D01*
G01Y421760D01*
G02X-531730Y423760I2000J0D01*
G01X-516980D01*
G03X-514980Y425760I0J2000D01*
G01Y429260D01*
G02X-512980Y431260I2000J0D01*
G01X-483230D01*
G03X-481820Y431850I-8J1998D01*
G01X-460240Y453420D01*
G02X-458820Y454010I1418J-1409D01*
G01X-438520D01*
G02X-436520Y452010I0J-2000D01*
G01Y446510D01*
G03X-434520Y444510I2000J0D01*
G01X-416270D01*
G02X-414270Y442510I0J-2000D01*
G01Y433550D01*
G02X-416270Y431550I-2000J0D01*
G01X-434520D01*
G03X-436520Y429550I0J-2000D01*
G01Y424050D01*
G02X-438520Y422050I-2000J0D01*
G01X-457520D01*
G03X-459520Y420050I0J-2000D01*
G01Y408010D01*
G03X-457520Y406010I2000J0D01*
G01X-456940D01*
X-455770Y404840D01*
Y395960D01*
G02X-456360Y394540I-1999J-2D01*
G01X-457180Y393710D01*
G03X-457770Y392300I1408J-1418D01*
G01Y387800D01*
G02X-459770Y385800I-2000J0D01*
G01X-475020D01*
G03X-477020Y383800I0J-2000D01*
G01Y380300D01*
G02X-479020Y378300I-2000J0D01*
G01X-496070D01*
G02X-497490Y378890I-2J1999D01*
G37*
G36*
G01X-239750Y706140D02*
X-271820Y738210D01*
G03X-273230Y738800I-1418J-1408D01*
G01X-331970D01*
G02X-333390Y739390I-2J1999D01*
G01X-396910Y802900D01*
X-397060Y803260D01*
G03X-403400Y807440I-6340J-2718D01*
G01X-510210D01*
G02X-511630Y808030I-2J1999D01*
G01X-520640Y817040D01*
G02X-521230Y818460I1409J1418D01*
G01Y1084100D01*
G02X-520640Y1085520I1999J2D01*
G01X-512990Y1093170D01*
G02X-511570Y1093760I1418J-1409D01*
G01X-403950D01*
G03X-402540Y1094350I-8J1998D01*
G01X-251120Y1245770D01*
G03X-250530Y1247180I-1408J1418D01*
G01Y1247460D01*
G02X-249630Y1249130I1999J0D01*
G03X-247080Y1251330I-7160J10877D01*
G02X-245590Y1252000I1493J-1328D01*
G01X-242610D01*
G02X-241120Y1251330I-3J-1998D01*
G03X-222730Y1269720I9720J8670D01*
G02X-223400Y1271210I1328J1493D01*
G01Y1274190D01*
G02X-222730Y1275680I1998J-3D01*
G03X-221330Y1277150I-8701J9688D01*
G02X-219780Y1277880I1545J-1271D01*
G01X-209340D01*
G02X-207930Y1277290I-8J-1999D01*
G01X-169110Y1238470D01*
G02X-168520Y1237060I-1409J-1418D01*
G01Y1201020D01*
G02X-170520Y1199020I-2000J0D01*
G01X-171020D01*
G03X-173020Y1197020I0J-2000D01*
G01Y1180980D01*
G03X-171020Y1178980I2000J0D01*
G01X-154020D01*
G02X-152020Y1176980I0J-2000D01*
G01Y1171980D01*
G03X-150020Y1169980I2000J0D01*
G01X-129980D01*
G03X-127980Y1171980I0J2000D01*
G01Y1172560D01*
X-126810Y1173730D01*
X-125020D01*
G02X-123020Y1171730I0J-2000D01*
G01Y1137260D01*
G03X-121020Y1135260I2000J0D01*
G01X-104980D01*
G03X-102980Y1137260I0J2000D01*
G01Y1191800D01*
G03X-104980Y1193800I-2000J0D01*
G01X-121020D01*
G03X-123020Y1191800I0J-2000D01*
G01Y1188270D01*
G02X-125020Y1186270I-2000J0D01*
G01X-125980D01*
G02X-127980Y1188270I0J2000D01*
G01Y1188850D01*
X-129150Y1190020D01*
X-129210D01*
Y1204790D01*
G03X-131210Y1206790I-2000J0D01*
G01X-151480D01*
G02X-153480Y1208790I0J2000D01*
G01Y1224230D01*
G02X-151480Y1226230I2000J0D01*
G01X-131980D01*
G03X-129980Y1228230I0J2000D01*
G01Y1251770D01*
G03X-131980Y1253770I-2000J0D01*
G01X-132130D01*
X-132940Y1254150D01*
X-135480Y1257190D01*
X-135700Y1258050D01*
X-135620Y1258490D01*
G03Y1261550I-8381J1530D01*
G01X-135700Y1261990D01*
X-135470Y1262840D01*
X-133440Y1265270D01*
G03X-132980Y1266550I-1541J1276D01*
G01Y1291800D01*
G03X-134980Y1293800I-2000J0D01*
G01X-151020D01*
G03X-153020Y1291800I0J-2000D01*
G01Y1267430D01*
X-151850Y1266260D01*
X-151630D01*
Y1263840D01*
X-151800Y1263460D01*
G03X-150500Y1254520I7800J-3430D01*
G02X-150020Y1253220I-1520J-1300D01*
G01Y1249520D01*
G02X-152020Y1247520I-2000J0D01*
G01X-156060D01*
G02X-157470Y1248110I8J1999D01*
G01X-198630Y1289260D01*
G03X-207310Y1292920I-8847J-8858D01*
G01X-207380D01*
X-219780D01*
G02X-221330Y1293650I-5J2001D01*
G03X-241120Y1294070I-10075J-8249D01*
G02X-242610Y1293400I-1493J1328D01*
G01X-245590D01*
G02X-247080Y1294070I3J1998D01*
G03X-259420Y1298150I-9712J-8672D01*
G01X-259910Y1298050D01*
X-260870Y1298340D01*
X-261860Y1299320D01*
G02X-262290Y1301500I1418J1412D01*
G01X-262060Y1302070D01*
X-261060Y1302740D01*
X-115140Y1302990D01*
G02X-113720Y1302410I12J-2000D01*
G01X-108520Y1297210D01*
G02X-108090Y1295030I-1418J-1412D01*
G01X-108330Y1294470D01*
X-109320Y1293800D01*
X-121020D01*
G03X-123020Y1291800I0J-2000D01*
G01Y1268260D01*
G03X-121020Y1266260I2000J0D01*
G01X-104980D01*
G03X-102980Y1268260I0J2000D01*
G01Y1270510D01*
G02X-100980Y1272510I2000J0D01*
G01X-100020D01*
G02X-98020Y1270510I0J-2000D01*
G01Y1254540D01*
G02X-100020Y1252540I-2000J0D01*
G01X-116790D01*
G03X-118790Y1250540I0J-2000D01*
G01Y1229460D01*
G03X-116790Y1227460I2000J0D01*
G01X-100020D01*
G02X-98020Y1225460I0J-2000D01*
G01Y1212500D01*
G03X-97430Y1211080I2001J-1D01*
G01X-83900Y1197590D01*
G03X-82490Y1197010I1409J1421D01*
G01X-11150D01*
G02X-9740Y1196420I-8J-1998D01*
G01X6390Y1180290D01*
G02X6980Y1178880I-1408J-1418D01*
G01Y722020D01*
G02X4980Y720020I-2000J0D01*
G01X-8110D01*
G02X-10110Y722020I0J2000D01*
G01Y736040D01*
G03X-12110Y738040I-2000J0D01*
G01X-36980D01*
G02X-38980Y740040I0J2000D01*
G01Y759350D01*
X-40150Y760520D01*
X-40210D01*
Y774290D01*
G03X-42210Y776290I-2000J0D01*
G01X-59230D01*
G02X-61230Y778290I0J2000D01*
G01Y1132730D01*
G03X-63330Y1139030I-10511J-4D01*
G02X-63730Y1140230I1599J1200D01*
G01Y1145320D01*
G03X-64320Y1146730I-1998J-8D01*
G01X-72880Y1155300D01*
X-72980D01*
Y1160800D01*
G03X-74980Y1162800I-2000J0D01*
G01X-91020D01*
G03X-93020Y1160800I0J-2000D01*
G01Y1137260D01*
G03X-91020Y1135260I2000J0D01*
G01X-76420D01*
X-75460Y1134660D01*
X-75200Y1134140D01*
G03X-74170Y1132430I9519J4569D01*
G02X-73770Y1131240I-1599J-1200D01*
G01Y1064340D01*
G02X-75770Y1062340I-2000J0D01*
G01X-76430D01*
X-77480Y1063110D01*
X-77680Y1063740D01*
G03X-80450Y1068320I-10753J-3376D01*
G01X-89210Y1077080D01*
X-89500Y1077670D01*
X-89540Y1078010D01*
G03X-99010Y1068540I-8460J-1010D01*
G01X-98670Y1068500D01*
X-98080Y1068210D01*
X-90290Y1060420D01*
G02X-89700Y1059000I-1409J-1418D01*
G01Y923830D01*
G02X-90520Y922210I-2001J-5D01*
G01X-93520Y920020D01*
X-94450Y919870D01*
X-94910Y920020D01*
G03X-104200Y906630I-2594J-8118D01*
G02X-103770Y905400I-1569J-1239D01*
G01Y884000D01*
G02X-104200Y882770I-1999J9D01*
G03X-92800Y870390I6694J-5275D01*
G01X-92550Y870560D01*
X-92000Y870720D01*
X-91700D01*
G02X-89700Y868720I0J-2000D01*
G01Y866500D01*
G02X-90130Y865270I-1999J9D01*
G03X-91880Y861050I6707J-5254D01*
G01X-91980Y860290D01*
X-93100Y859300D01*
X-150510D01*
X-151680Y860470D01*
Y860580D01*
X-153660Y862360D01*
X-153990Y863010D01*
X-154030Y863380D01*
G03X-155800Y867770I-8476J-866D01*
G02X-156230Y869000I1569J1239D01*
G01Y880040D01*
G02X-155000Y881880I1999J-5D01*
G01X-154430Y882120D01*
X-153250Y881890D01*
X-151290Y879920D01*
X-151000Y879330D01*
X-150960Y878990D01*
G03X-141490Y888460I8460J1010D01*
G01X-141830Y888500D01*
X-142420Y888790D01*
X-143140Y889510D01*
G02X-143730Y890930I1409J1418D01*
G01Y1027930D01*
G03X-147020Y1035890I-11271J2D01*
G01X-147030D01*
X-171610Y1060480D01*
G03X-179400Y1063770I-7960J-7980D01*
G01X-179480D01*
X-306000D01*
G02X-307230Y1064200I9J1999D01*
G03X-320390Y1054280I-5271J-6696D01*
G01X-320200Y1053810D01*
X-320300Y1052830D01*
X-322430Y1049650D01*
G02X-324090Y1048770I-1658J1121D01*
G01X-484230D01*
G02X-485650Y1049360I-2J1999D01*
G01X-493870Y1057580D01*
X-494160Y1058170D01*
X-494200Y1058510D01*
G03X-503670Y1049040I-8460J-1010D01*
G01X-503330Y1049000D01*
X-502740Y1048710D01*
X-493550Y1039520D01*
G03X-485760Y1036230I7960J7980D01*
G01X-485680D01*
X-185930D01*
G02X-184510Y1035640I2J-1999D01*
G01X-169360Y1020490D01*
G02X-168770Y1019070I-1409J-1418D01*
G01Y892110D01*
G02X-169500Y890560I-2000J-5D01*
G01X-172230Y888310D01*
X-173090Y888090D01*
X-173540Y888180D01*
G03X-180450Y886520I-1646J-8361D01*
G02X-181680Y886090I-1239J1569D01*
G01X-296390D01*
G02X-297810Y886680I-2J1999D01*
G01X-303710Y892580D01*
X-304000Y893170D01*
X-304040Y893510D01*
G03X-313510Y884040I-8460J-1010D01*
G01X-313170Y884000D01*
X-312580Y883710D01*
X-305710Y876840D01*
G03X-297920Y873550I7960J7980D01*
G01X-297840D01*
X-192860D01*
G02X-190860Y871550I0J-2000D01*
G01Y871010D01*
X-191380Y870100D01*
X-191840Y869830D01*
G03X-192770Y869200I4304J-7355D01*
G02X-194000Y868770I-1239J1569D01*
G01X-469230D01*
G02X-470650Y869360I-2J1999D01*
G01X-493870Y892580D01*
X-494160Y893170D01*
X-494200Y893510D01*
G03X-503670Y884040I-8460J-1010D01*
G01X-503330Y884000D01*
X-502740Y883710D01*
X-478550Y859530D01*
Y859520D01*
G03X-470590Y856230I7958J7981D01*
G01X-245770D01*
G02X-243770Y854230I0J-2000D01*
G01Y837010D01*
G03X-241770Y835010I2000J0D01*
G01X-218230D01*
G03X-216230Y837010I0J2000D01*
G01Y837590D01*
X-215060Y838760D01*
X-210320D01*
Y838260D01*
X-150320D01*
Y837760D01*
X-90850D01*
X-89680Y838930D01*
Y839340D01*
X-84110Y833770D01*
G02X-83520Y832350I-1409J-1418D01*
G01Y735210D01*
G02X-84110Y733790I-1999J-2D01*
G01X-88270Y729630D01*
G02X-90450Y729200I-1412J1415D01*
G01X-91010Y729430D01*
X-91680Y730430D01*
Y736800D01*
G03X-93680Y738800I-2000J0D01*
G01X-210320D01*
G03X-212320Y736800I0J-2000D01*
G01Y718690D01*
G02X-212910Y717270I-1999J-2D01*
G01X-220820Y709360D01*
G02X-223000Y708930I-1412J1415D01*
G01X-223560Y709160D01*
X-224230Y710160D01*
Y717000D01*
X-223930Y717740D01*
X-223730Y717930D01*
Y749010D01*
G02X-221730Y751010I2000J0D01*
G01X-213490D01*
X-212320Y749840D01*
Y749260D01*
X-93680D01*
G03X-91680Y751260I0J2000D01*
G01Y770820D01*
G03X-92170Y772130I-2001J-2D01*
G01X-93890Y774110D01*
X-94130Y774930D01*
X-94070Y775370D01*
G03X-95800Y781840I-8433J1211D01*
G02X-96230Y783070I1569J1239D01*
G01Y803760D01*
G02X-94230Y805760I2000J0D01*
G01X-91680D01*
G03X-89680Y807760I0J2000D01*
G01Y825300D01*
G03X-91680Y827300I-2000J0D01*
G01X-151680D01*
Y827800D01*
X-210320D01*
G03X-212320Y825800I0J-2000D01*
G01X-213070Y825050D01*
X-242850D01*
G02X-244270Y825640I-2J1999D01*
G01X-264110Y845480D01*
G03X-271900Y848770I-7960J-7980D01*
G01X-271980D01*
X-496160D01*
G02X-497390Y849200I9J1999D01*
G03Y835800I-5270J-6700D01*
G02X-496160Y836230I1239J-1569D01*
G01X-273430D01*
G02X-272010Y835640I2J-1999D01*
G01X-245710Y809350D01*
G03X-244300Y808760I1418J1408D01*
G01X-243770D01*
Y782300D01*
G02X-245770Y780300I-2000J0D01*
G01X-301400D01*
X-301570D01*
G03X-309360Y777010I170J-11270D01*
G01X-312580Y773790D01*
X-313170Y773500D01*
X-313510Y773460D01*
G03X-304040Y763990I1010J-8460D01*
G01X-304000Y764330D01*
X-303710Y764920D01*
X-301460Y767170D01*
G02X-300040Y767760I1418J-1409D01*
G01X-245770D01*
G02X-243770Y765760I0J-2000D01*
G01Y753010D01*
G03X-241770Y751010I2000J0D01*
G01X-238270D01*
G02X-236270Y749010I0J-2000D01*
G01Y723560D01*
X-236570Y722820D01*
X-236770Y722630D01*
Y707990D01*
G02X-238000Y706150I-1999J5D01*
G01X-238570Y705910D01*
X-239750Y706140D01*
G37*
G36*
G01X-426980Y380300D02*
Y383800D01*
G03X-428980Y385800I-2000J0D01*
G01X-442540D01*
G02X-444380Y387030I5J1999D01*
G01X-444620Y387600D01*
X-444390Y388780D01*
X-443820Y389350D01*
G03X-443230Y390760I-1408J1418D01*
G01Y404010D01*
G02X-441230Y406010I2000J0D01*
G01X-438520D01*
G02X-436520Y404010I0J-2000D01*
G01Y398510D01*
G03X-434520Y396510I2000J0D01*
G01X-417650D01*
X-416480Y397680D01*
Y398260D01*
X-415730D01*
G03X-414320Y398850I-8J1998D01*
G01X-402320Y410850D01*
G03X-401730Y412260I-1408J1418D01*
G01Y443600D01*
G02X-401140Y445020I1999J2D01*
G01X-400490Y445670D01*
G02X-399070Y446260I1418J-1409D01*
G01X-345700D01*
G03X-344290Y446850I-8J1998D01*
G01X-338780Y452350D01*
G02X-336600Y452780I1412J-1415D01*
G01X-336040Y452550D01*
X-335370Y451550D01*
Y407570D01*
G02X-336270Y405900I-1999J0D01*
G03X-339970Y402200I7170J-10870D01*
G02X-341640Y401300I-1670J1099D01*
G01X-397770D01*
G03X-399180Y400710I8J-1998D01*
G01X-421010Y378890D01*
G02X-422430Y378300I-1418J1409D01*
G01X-424980D01*
G02X-426980Y380300I0J2000D01*
G37*
G36*
G01X-415490Y629360D02*
X-423140Y637010D01*
G02X-423730Y638430I1409J1418D01*
G01Y667030D01*
G03X-427020Y674990I-11271J2D01*
G01X-437060Y685030D01*
X-437350Y685990D01*
X-437250Y686480D01*
G03X-438100Y694390I-12751J2630D01*
G01X-438310Y694860D01*
X-438230Y695860D01*
X-436120Y699100D01*
G02X-434450Y700010I1676J-1089D01*
G01X-419740D01*
G02X-418320Y699420I2J-1999D01*
G01X-369610Y650710D01*
G02X-369020Y649290I-1409J-1418D01*
G01Y648050D01*
G02X-371020Y646050I-2000J0D01*
G01X-372020Y645050D01*
Y644820D01*
X-385790D01*
G03X-387790Y642820I0J-2000D01*
G01Y630770D01*
G02X-389790Y628770I-2000J0D01*
G01X-414070D01*
G02X-415490Y629360I-2J1999D01*
G37*
G36*
G01X-426980Y360300D02*
Y363760D01*
G02X-424980Y365760I2000J0D01*
G01X-417230D01*
G03X-415820Y366350I-8J1998D01*
G01X-393990Y388170D01*
G02X-392570Y388760I1418J-1409D01*
G01X-341640D01*
G02X-339970Y387860I0J-1999D01*
G03X-337030Y384710I10856J7185D01*
G01X-336670Y384430D01*
X-336270Y383640D01*
X-336150Y379630D01*
X-336500Y378820D01*
X-336840Y378520D01*
G03X-339540Y364160I7742J-8889D01*
G01X-339300Y363690D01*
X-339330Y362640D01*
X-341370Y359260D01*
G02X-343090Y358300I-1709J1042D01*
G01X-424980D01*
G02X-426980Y360300I0J2000D01*
G37*
G36*
G01X-319380Y403700D02*
G03X-321930Y405900I-9710J-8677D01*
G02X-322830Y407570I1099J1670D01*
G01Y457490D01*
G02X-322240Y458910I1999J2D01*
G01X-320970Y460190D01*
X-311170Y469980D01*
G02X-309230Y470490I1410J-1419D01*
G01X-305360Y469430D01*
X-304600Y468670D01*
X-304470Y468140D01*
G03X-270790Y477760I16970J4356D01*
G01X-270960Y478300D01*
X-270690Y479380D01*
X-248930Y501140D01*
G02X-246750Y501570I1412J-1415D01*
G01X-246190Y501340D01*
X-245520Y500340D01*
Y495920D01*
G03X-244930Y494510I1998J8D01*
G01X-244820Y494400D01*
X-244520Y493660D01*
Y489810D01*
G02X-245600Y488040I-1999J5D01*
G03X-223470Y462000I8105J-15536D01*
G01X-223080Y462530D01*
X-221860Y462910D01*
X-217640Y461510D01*
G02X-216270Y459610I-631J-1899D01*
G01Y452460D01*
G02X-216860Y451040I-1999J-2D01*
G01X-228010Y439890D01*
G02X-229430Y439300I-1418J1409D01*
G01X-288740D01*
G03X-290150Y438710I8J-1998D01*
G01X-309380Y419480D01*
G03X-309970Y418070I1408J-1418D01*
G01Y407570D01*
G02X-310870Y405900I-1999J0D01*
G03X-313420Y403700I7160J-10877D01*
G02X-314910Y403030I-1493J1328D01*
G01X-317890D01*
G02X-319380Y403700I3J1998D01*
G37*
G36*
G01X-327000Y523030D02*
Y539480D01*
G02X-322000Y544480I5000J0D01*
G01X-313980D01*
G03X-308980Y549480I0J5000D01*
G01Y610340D01*
G02X-307850Y613500I4999J-6D01*
G01X-303310Y619070D01*
X-301840Y619960D01*
X-300990Y620130D01*
G03Y634870I-1510J7370D01*
G01X-301840Y635040D01*
X-303310Y635930D01*
X-307850Y641500D01*
G02X-308980Y644660I3869J3166D01*
G01Y663980D01*
G02X-303980Y668980I5000J0D01*
G01X-181020D01*
G02X-176020Y663980I0J-5000D01*
G01Y604990D01*
G02X-177380Y601560I-5000J-2D01*
G01X-182750Y595860D01*
X-184470Y595060D01*
X-185440Y595010D01*
G03X-185170Y579980I440J-7510D01*
G02X-182750Y579290I-117J-4998D01*
G03X-179960Y578200I4816J8212D01*
G01X-178230Y577820D01*
X-176020Y575080D01*
Y541020D01*
G02X-181020Y536020I-5000J0D01*
G01X-303520D01*
G03X-308520Y531020I0J-5000D01*
G01Y523030D01*
G02X-313520Y518030I-5000J0D01*
G01X-322000D01*
G02X-327000Y523030I0J5000D01*
G37*
G36*
G01X-207020Y498390D02*
X-207030D01*
X-215230Y506600D01*
G02X-215660Y508780I1415J1412D01*
G01X-215430Y509340D01*
X-214430Y510010D01*
X-186020D01*
G02X-184020Y508010I0J-2000D01*
G01Y502800D01*
G02X-186020Y500800I-2000J0D01*
G01X-187020Y499800D01*
Y475260D01*
G03X-185020Y473260I2000J0D01*
G01X-184020Y472260D01*
Y452770D01*
G02X-184610Y451350I-1999J-2D01*
G01X-208930Y427020D01*
G03X-209520Y425610I1408J-1418D01*
G01Y398370D01*
G02X-210110Y396950I-1999J-2D01*
G01X-211320Y395740D01*
G02X-213500Y395310I-1412J1415D01*
G01X-214060Y395540D01*
X-214730Y396540D01*
Y405800D01*
G03X-216730Y407800I-2000J0D01*
G01X-221230D01*
Y408150D01*
X-229800Y416710D01*
G03X-231210Y417300I-1418J-1408D01*
G01X-285770D01*
G03X-287180Y416710I8J-1998D01*
G01X-294020Y409880D01*
G02X-296200Y409450I-1412J1415D01*
G01X-296760Y409680D01*
X-297430Y410680D01*
Y412870D01*
G02X-296840Y414290I1999J2D01*
G01X-284960Y426170D01*
G02X-283540Y426760I1418J-1409D01*
G01X-224230D01*
G03X-222820Y427350I-8J1998D01*
G01X-204320Y445850D01*
G03X-203730Y447260I-1408J1418D01*
G01Y490430D01*
G03X-207020Y498390I-11271J2D01*
G37*
G36*
G01X-175000Y-17970D02*
Y11790D01*
G02X-173000Y13790I2000J0D01*
G01X-154210D01*
G03X-152210Y15790I0J2000D01*
G01Y24090D01*
X-151040Y25260D01*
X-150980D01*
Y26810D01*
G02X-150390Y28230I1999J2D01*
G01X-149100Y29520D01*
G02X-147680Y30110I1418J-1409D01*
G01X-103650D01*
G03X-102240Y30700I-8J1998D01*
G01X-53820Y79120D01*
G03X-53230Y80530I-1408J1418D01*
G01Y128510D01*
G02X-51230Y130510I2000J0D01*
G01X-27730D01*
G03X-25730Y132510I0J2000D01*
G01Y133010D01*
X-9150D01*
X-7980Y134180D01*
Y134240D01*
X5790D01*
G03X7790Y136240I0J2000D01*
G01Y173260D01*
G02X9790Y175260I2000J0D01*
G01X10020D01*
G03X12020Y177260I0J2000D01*
G01Y177590D01*
X13190Y178760D01*
X19270D01*
G03X20680Y179350I-8J1998D01*
G01X30680Y189350D01*
G03X31270Y190760I-1408J1418D01*
G01Y228010D01*
G02X33270Y230010I2000J0D01*
G01X37000D01*
G02X39000Y228010I0J-2000D01*
G01Y63510D01*
G02X38020Y61790I-2001J1D01*
G01X34590Y59770D01*
X33540Y59750D01*
X33070Y60010D01*
G03X-66840Y-15090I-33072J-60011D01*
G01X-66740Y-15540D01*
X-66940Y-16420D01*
X-69180Y-19220D01*
G02X-70740Y-19970I-1561J1250D01*
G01X-173000D01*
G02X-175000Y-17970I0J2000D01*
G37*
G36*
G01Y119500D02*
Y296760D01*
G02X-173000Y298760I2000J0D01*
G01X-165770D01*
G02X-163770Y296760I0J-2000D01*
G01Y282010D01*
G03X-161770Y280010I2000J0D01*
G01X-158270D01*
G02X-156270Y278010I0J-2000D01*
G01Y202010D01*
G03X-155680Y200600I1998J8D01*
G01X-145680Y190600D01*
G03X-144270Y190010I1418J1408D01*
G01X-126270D01*
G02X-124270Y188010I0J-2000D01*
G01Y132510D01*
G03X-122270Y130510I2000J0D01*
G01X-104270D01*
G02X-102430Y129280I-5J-1999D01*
G01X-102190Y128710D01*
X-102420Y127530D01*
X-110820Y119140D01*
G02X-112240Y118550I-1418J1409D01*
G01X-125980D01*
G02X-127980Y120550I0J2000D01*
G01Y120880D01*
X-129150Y122050D01*
X-129210D01*
Y135820D01*
G03X-131210Y137820I-2000J0D01*
G01X-148790D01*
G03X-150790Y135820I0J-2000D01*
G01Y123220D01*
X-151960Y122050D01*
X-152020D01*
Y119500D01*
G02X-154020Y117500I-2000J0D01*
G01X-173000D01*
G02X-175000Y119500I0J2000D01*
G37*
G36*
G01X-149100Y49740D02*
X-149910Y50550D01*
G02Y53380I1412J1415D01*
G01X-145870Y57420D01*
G02X-144450Y58010I1418J-1409D01*
G01X-129150D01*
X-127980Y59180D01*
Y59240D01*
X-114210D01*
G03X-112210Y61240I0J2000D01*
G01Y78820D01*
G03X-114210Y80820I-2000J0D01*
G01X-126810D01*
X-127980Y81990D01*
Y82050D01*
X-142580D01*
X-150880Y90350D01*
X-150980D01*
Y90930D01*
X-152150Y92100D01*
X-152210D01*
Y99010D01*
G02X-150210Y101010I2000J0D01*
G01X-129980D01*
G03X-127980Y103010I0J2000D01*
G01Y103340D01*
X-126810Y104510D01*
X-106420D01*
G03X-105010Y105100I-8J1998D01*
G01X-75680Y134420D01*
G02X-73500Y134850I1412J-1415D01*
G01X-72940Y134620D01*
X-72270Y133620D01*
Y88430D01*
G02X-72860Y87010I-1999J-2D01*
G01X-110130Y49740D01*
G02X-111550Y49150I-1418J1409D01*
G01X-147680D01*
G02X-149100Y49740I-2J1999D01*
G37*
G36*
G01X-84490Y208380D02*
X-84570Y208460D01*
G03X-85980Y209050I-1418J-1408D01*
G01X-93730D01*
G02X-95730Y211050I0J2000D01*
G01Y227550D01*
G03X-97730Y229550I-2000J0D01*
G01X-101730D01*
G02X-103730Y231550I0J2000D01*
G01Y239260D01*
G02X-101730Y241260I2000J0D01*
G01X-101150D01*
X-99980Y242430D01*
Y266800D01*
G03X-101980Y268800I-2000J0D01*
G01X-102560D01*
X-103730Y269970D01*
Y278010D01*
G02X-101730Y280010I2000J0D01*
G01X-98230D01*
G03X-96230Y282010I0J2000D01*
G01Y298050D01*
G03X-98230Y300050I-2000J0D01*
G01X-121770D01*
G03X-123770Y298050I0J-2000D01*
G01Y282010D01*
G03X-121770Y280010I2000J0D01*
G01X-118270D01*
G02X-116270Y278010I0J-2000D01*
G01Y270800D01*
G02X-118270Y268800I-2000J0D01*
G01X-118850D01*
X-120020Y267630D01*
Y243260D01*
G03X-118020Y241260I2000J0D01*
G01X-117440D01*
X-116270Y240090D01*
Y231550D01*
G02X-118270Y229550I-2000J0D01*
G01X-122210D01*
G02X-124210Y231550I0J2000D01*
G01Y235820D01*
G03X-126210Y237820I-2000J0D01*
G01X-141730D01*
G02X-143730Y239820I0J2000D01*
G01Y278010D01*
G02X-141730Y280010I2000J0D01*
G01X-138230D01*
G03X-136230Y282010I0J2000D01*
G01Y297590D01*
X-135060Y298760D01*
X-134900D01*
X-126820Y306850D01*
G03X-126230Y308260I-1408J1418D01*
G01Y308840D01*
X-125060Y310010D01*
X-98230D01*
G03X-96230Y312010I0J2000D01*
G01Y328050D01*
G03X-98230Y330050I-2000J0D01*
G01X-101730D01*
G02X-103730Y332050I0J2000D01*
G01Y339070D01*
G02X-103140Y340490I1999J2D01*
G01X-102220Y341410D01*
G03X-98930Y349370I-7981J7958D01*
G01Y351980D01*
G02X-96930Y353980I2000J0D01*
G01X-87480D01*
G03X-85480Y355980I0J2000D01*
G01Y356010D01*
X-60980D01*
G03X-58980Y358010I0J2000D01*
G01Y358340D01*
X-57810Y359510D01*
X4980D01*
G02X6980Y357510I0J-2000D01*
G01Y315270D01*
G02X6390Y313850I-1999J-2D01*
G01X-40570Y266890D01*
G02X-41990Y266300I-1418J1409D01*
G01X-67980D01*
G02X-69980Y268300I0J2000D01*
G01Y268800D01*
X-88020D01*
G03X-90020Y266800I0J-2000D01*
G01Y243260D01*
G03X-88020Y241260I2000J0D01*
G01X-73520D01*
G02X-71680Y240030I-5J-1999D01*
G01X-71440Y239460D01*
X-71670Y238280D01*
X-81430Y228520D01*
G03X-82020Y227110I1408J-1418D01*
G01Y210740D01*
G02X-83250Y208900I-1999J5D01*
G01X-84490Y208380D01*
G37*
G36*
G01X-58980Y375550D02*
Y375880D01*
X-60150Y377050D01*
X-60210D01*
Y390820D01*
G03X-62210Y392820I-2000J0D01*
G01X-79790D01*
G03X-81790Y390820I0J-2000D01*
G01Y381020D01*
G02X-83790Y379020I-2000J0D01*
G01X-105540D01*
G02X-107060Y379720I0J2001D01*
G01X-109320Y382380D01*
X-109560Y383210D01*
X-109490Y383650D01*
G03X-126310I-8410J1350D01*
G01X-126240Y383210D01*
X-126480Y382380D01*
X-128740Y379720D01*
G02X-130260Y379020I-1520J1301D01*
G01X-141730D01*
G02X-143730Y381020I0J2000D01*
G01Y404210D01*
G02X-141730Y406210I2000J0D01*
G01X-138790D01*
X-137620Y405040D01*
Y404980D01*
X-87480D01*
G03X-85480Y406980I0J2000D01*
G01Y409230D01*
G02X-83480Y411230I2000J0D01*
G01X-33260D01*
G03X-31850Y411820I-8J1998D01*
G01X3570Y447230D01*
G02X5750Y447660I1412J-1415D01*
G01X6310Y447430D01*
X6980Y446430D01*
Y375550D01*
G02X4980Y373550I-2000J0D01*
G01X-56980D01*
G02X-58980Y375550I0J2000D01*
G37*
G36*
G01X-140730Y453720D02*
Y471260D01*
G02X-138730Y473260I2000J0D01*
G01X-138150D01*
X-136980Y474430D01*
Y498240D01*
G02X-134980Y500240I2000J0D01*
G01X-123210D01*
G03X-121210Y502240I0J2000D01*
G01Y519820D01*
G03X-123210Y521820I-2000J0D01*
G01X-135810D01*
X-136980Y522990D01*
Y523050D01*
X-139230D01*
G02X-141230Y525050I0J2000D01*
G01Y556950D01*
G03X-141240Y557430I-11270J5D01*
G01Y557510D01*
G02X-139240Y559510I2000J0D01*
G01X-136520D01*
G02X-134520Y557510I0J-2000D01*
G01Y557180D01*
X-133350Y556010D01*
X-133290D01*
Y542240D01*
G03X-131290Y540240I2000J0D01*
G01X-113710D01*
G03X-111710Y542240I0J2000D01*
G01Y554840D01*
X-110540Y556010D01*
X-110480D01*
Y575050D01*
G03X-112480Y577050I-2000J0D01*
G01X-132520D01*
G03X-134520Y575050I0J-2000D01*
G01Y574660D01*
X-135750Y574150D01*
G02X-137930Y574580I-768J1845D01*
G01X-141360Y578000D01*
Y578010D01*
G03X-142520Y579020I-8456J-8541D01*
G02X-143220Y581150I1225J1582D01*
G01X-142980Y582020D01*
G02X-141050Y583480I1926J-541D01*
G01X-106400D01*
G02X-104400Y581480I0J-2000D01*
G01Y538100D01*
G03X-102400Y536100I2000J0D01*
G01X-15500D01*
Y536000D01*
X-13270D01*
G02X-11270Y534000I0J-2000D01*
G01Y470510D01*
G02X-11860Y469090I-1999J-2D01*
G01X-29080Y451870D01*
G02X-30500Y451280I-1418J1409D01*
G01X-130000D01*
G03X-134970Y450130I-10J-11272D01*
G01X-135430Y449900D01*
X-136460Y449950D01*
X-139790Y452020D01*
G02X-140730Y453720I1060J1696D01*
G37*
G36*
G01X-25730Y211800D02*
Y227550D01*
G03X-27730Y229550I-2000J0D01*
G01X-55730D01*
G02X-57570Y230780I5J1999D01*
G01X-57810Y231350D01*
X-57580Y232530D01*
X-51070Y239040D01*
G03X-50480Y240450I-1408J1418D01*
G01Y241760D01*
G02X-48480Y243760I2000J0D01*
G01X-45480D01*
G03X-43480Y245760I0J2000D01*
G01Y246010D01*
G02X-41480Y248010I2000J0D01*
G01X-40420D01*
G03X-39010Y248600I-8J1998D01*
G01X-17180Y270420D01*
G02X-15000Y270850I1412J-1415D01*
G01X-14440Y270620D01*
X-13770Y269620D01*
Y262010D01*
G03X-11770Y260010I2000J0D01*
G01X37000D01*
G02X39000Y258010I0J-2000D01*
G01Y252050D01*
G02X37000Y250050I-2000J0D01*
G01X-11770D01*
G03X-13770Y248050I0J-2000D01*
G01Y232010D01*
G03X-11770Y230010I2000J0D01*
G01X-8270D01*
G02X-6270Y228010I0J-2000D01*
G01Y225760D01*
G03X-5680Y224350I1998J8D01*
G01X-3860Y222520D01*
G02X-3270Y221100I-1409J-1418D01*
G01Y211800D01*
G02X-5270Y209800I-2000J0D01*
G01X-23730D01*
G02X-25730Y211800I0J2000D01*
G37*
%LPC*%
G75*
G36*
G01X-726040Y715820D02*
X-709960D01*
G02X-707960Y713820I0J-2000D01*
G01Y692240D01*
G02X-709960Y690240I-2000J0D01*
G01X-726040D01*
G02X-728040Y692240I0J2000D01*
G01Y713820D01*
G02X-726040Y715820I2000J0D01*
G37*
G36*
G01X-89790Y1192570D02*
X-76210D01*
G02X-74210Y1190570I0J-2000D01*
G01Y1169490D01*
G02X-76210Y1167490I-2000J0D01*
G01X-89790D01*
G02X-91790Y1169490I0J2000D01*
G01Y1190570D01*
G02X-89790Y1192570I2000J0D01*
G37*
G36*
G01X-68290Y295070D02*
X-46710D01*
G02X-44710Y293070I0J-2000D01*
G01Y276990D01*
G02X-46710Y274990I-2000J0D01*
G01X-68290D01*
G02X-70290Y276990I0J2000D01*
G01Y293070D01*
G02X-68290Y295070I2000J0D01*
G37*
G54D45*
X-730000Y1170030D03*
X-20000D03*
%LPD*%
G75*
G54D10*
X-750000Y0D03*
Y1300000D03*
X0Y0D03*
Y1300000D03*
G54D20*
X-502500Y89030D03*
Y106030D03*
X-140000Y111530D03*
Y128530D03*
X-135000Y211530D03*
Y228530D03*
X-122500Y549530D03*
Y566530D03*
X-71000Y383530D03*
Y366530D03*
X-35000Y561530D03*
Y578530D03*
Y607530D03*
Y624530D03*
X-51000Y750000D03*
Y767000D03*
G54D11*
G01X-765000Y792500D02*
X-714570D01*
G02X-711040Y791040I-1J-5000D01*
G01X-673960Y753960D01*
G02X-672500Y750430I-3540J-3531D01*
G01Y709570D01*
G03X-671040Y706040I5000J1D01*
G01X-491460Y526460D01*
G03X-487930Y525000I3531J3540D01*
G01X-398000D01*
G01X-684600Y587900D02*
X-710000D01*
G01X-712500Y660030D02*
Y600920D01*
X-710000Y598420D01*
Y587900D01*
G01X-460000Y1285400D02*
Y1320000D01*
G01X-365000Y525000D02*
X-398000D01*
G01X-315030D02*
X-365000D01*
G01X-314000Y526030D02*
X-315030Y525000D01*
X-779000Y371230D03*
Y471230D03*
X-730000Y60030D03*
X-732770Y559900D03*
X-741980Y895310D03*
Y995310D03*
Y1095310D03*
X-730000Y1170030D03*
X-703180Y306030D03*
X-712460Y461990D03*
X-702500Y702530D03*
X-715000Y735030D03*
X-697470Y805760D03*
X-702090Y1187010D03*
X-660180Y376740D03*
X-687100Y614450D03*
X-664700Y671390D03*
X-687100Y1039900D03*
X-660500Y429000D03*
X-652480Y716450D03*
X-661700Y887500D03*
X-658500Y1138000D03*
X-610900Y430300D03*
Y519200D03*
X-611670Y618360D03*
X-616270Y849050D03*
Y949050D03*
Y1049050D03*
X-623460Y1248790D03*
X-589470Y306030D03*
X-582100Y645410D03*
X-598200Y722400D03*
X-562500Y323000D03*
X-560100Y404900D03*
X-553750Y487450D03*
X-558630Y565330D03*
X-547400Y671600D03*
X-534700Y354100D03*
X-502500Y75030D03*
X-496600Y404900D03*
Y455700D03*
X-505600Y512300D03*
X-502660Y842500D03*
Y892500D03*
X-511230Y961130D03*
X-502660Y1057500D03*
X-476000Y63530D03*
X-471200Y341400D03*
Y544600D03*
X-465920Y878770D03*
X-473990Y1026230D03*
X-470500Y1076000D03*
X-433100Y392200D03*
X-452150Y436650D03*
X-405000Y100030D03*
X-395000Y366800D03*
Y552000D03*
X-394000Y634030D03*
X-407700Y671600D03*
X-395000Y951000D03*
X-398990Y1026230D03*
X-411550Y1058770D03*
X-407260Y1083760D03*
X-361230Y781360D03*
X-390920Y878770D03*
X-356900Y430300D03*
X-337850Y500150D03*
X-340000Y559720D03*
X-351730Y826230D03*
X-336550Y1058770D03*
X-350250Y1132480D03*
X-312450Y436650D03*
X-312500Y765000D03*
Y892500D03*
X-323990Y1026230D03*
X-312500Y1057500D03*
X-276950Y20580D03*
X-302000Y87030D03*
X-278000Y97030D03*
X-302500Y627500D03*
X-276730Y826230D03*
X-299750Y951000D03*
X-297210Y1185520D03*
X-259000Y145030D03*
X-261650Y449350D03*
X-248030Y896090D03*
X-248990Y1026230D03*
X-244180Y1238550D03*
X-217200Y417600D03*
X-229900Y1135150D03*
X-198150Y500150D03*
X-185000Y587500D03*
X-187500Y797500D03*
Y862500D03*
X-188060Y1073770D03*
X-198150Y1211350D03*
X-166400Y265200D03*
X-168500Y317000D03*
X-166400Y366800D03*
X-160000Y384230D03*
X-175180Y780000D03*
X-162500Y797500D03*
Y862500D03*
X-175180Y879820D03*
X-178770Y924870D03*
Y999870D03*
X-154500Y1153000D03*
X-145550Y20580D03*
X-145750Y96780D03*
X-140000Y145030D03*
X-130000Y183030D03*
X-135000Y244030D03*
X-132500Y400000D03*
X-150000Y690000D03*
X-140000Y785000D03*
X-127900Y798170D03*
X-125550Y872520D03*
X-142500Y880000D03*
X-133730Y947070D03*
Y1022070D03*
X-144000Y1260030D03*
X-102000Y71000D03*
X-117900Y385000D03*
X-115600Y468400D03*
X-115000Y511030D03*
X-96270Y526100D03*
X-122500Y534030D03*
X-121970Y690000D03*
X-102500Y776570D03*
X-115000Y787500D03*
X-97500Y877500D03*
Y911900D03*
X-99700Y942920D03*
Y1017920D03*
X-98000Y1077000D03*
X-122000Y1198000D03*
X-112000Y1220500D03*
X-90200Y11200D03*
X-82000Y112000D03*
X-92500Y347500D03*
X-71000Y398030D03*
X-83430Y860000D03*
X-83770Y1091210D03*
X-68000Y1180030D03*
X-39400Y112800D03*
X-60000Y180030D03*
Y157530D03*
Y207530D03*
X-57500Y300030D03*
X-39400Y468400D03*
X-45750Y779550D03*
X-52100Y881150D03*
Y989100D03*
Y1097050D03*
X-58450Y1160550D03*
X-14000Y341400D03*
X-21270Y526100D03*
X-16900Y653100D03*
X-20000Y1170030D03*
X11400Y87400D03*
X14000Y145030D03*
X24100Y163600D03*
X-1300Y849400D03*
Y951000D03*
Y1058950D03*
Y1135150D03*
G54D12*
X-747500Y660030D03*
X-712500D03*
G54D21*
X-441700Y141900D03*
X-310300D03*
G54D30*
X-278500Y525000D03*
X-286500D03*
X-294500D03*
X-302500D03*
Y680000D03*
X-294500D03*
X-286500D03*
X-278500D03*
X-254500Y525000D03*
X-262500D03*
X-270500D03*
Y680000D03*
X-262500D03*
X-254500D03*
X-222500Y525000D03*
X-230500D03*
X-238500D03*
X-246500D03*
Y680000D03*
X-238500D03*
X-230500D03*
X-222500D03*
X-190500Y525000D03*
X-198500D03*
X-206500D03*
X-214500D03*
Y680000D03*
X-206500D03*
X-198500D03*
X-190500D03*
X-182500Y525000D03*
Y680000D03*
G54D40*
G01X-361500Y634030D02*
X-362000D01*
Y650960D01*
G03X-363460Y654490I-5000J-1D01*
G01X-414540Y705570D01*
G03X-418070Y707030I-3531J-3540D01*
G01X-478930D01*
G03X-482460Y705570I1J-5000D01*
G01X-494540Y693490D01*
G03X-496000Y689960I3540J-3531D01*
G01Y623100D01*
G03X-494540Y619570I5000J1D01*
G01X-488000Y613030D01*
X-486810D01*
X-486680Y612900D01*
X-475400D01*
G01X-351500Y542530D02*
X-330810D01*
X-330780Y542500D01*
X-320000D01*
G01Y550500D02*
X-330780D01*
X-340000Y559720D01*
G01X-320000Y638500D02*
X-328480D01*
G03X-332010Y637040I1J-5000D01*
G01X-333560Y635490D01*
G02X-337090Y634030I-3531J3540D01*
G01X-361500D01*
G01X-320000Y630500D02*
X-307570D01*
G02X-304040Y629040I-1J-5000D01*
G01X-302500Y627500D01*
G01X-303570Y638500D02*
X-320000D01*
G01X-287500Y472500D02*
X-247960Y512040D01*
G03X-246500Y515570I-3540J3531D01*
G01Y525000D01*
G01X-300040Y639960D02*
G02X-303570Y638500I-3531J3540D01*
G01X-177000Y487030D02*
Y449030D01*
X-202500Y423530D01*
Y394630D01*
X-227500Y369630D01*
G01X-237500Y472500D02*
Y497000D01*
X-238500Y498000D01*
Y525000D01*
G01X-185000Y545000D02*
X-171460Y531460D01*
G02X-170000Y527930I-3540J-3531D01*
G01Y517070D01*
G02X-171460Y513540I-5000J1D01*
G01X-177000Y508000D01*
Y487030D01*
G01X-185500Y574500D02*
X-165000D01*
G01X-122500Y566530D02*
X-139810D01*
X-146320Y573040D01*
G03X-149850Y574500I-3531J-3540D01*
G01X-165000D01*
G01X-77500Y570000D02*
X-96540Y589040D01*
G03X-100070Y590500I-3531J-3540D01*
G01X-165000D01*
G01Y582500D02*
X-177930D01*
G02X-181460Y583960I1J5000D01*
G01X-185000Y587500D01*
G01X-117070Y582500D02*
X-165000D01*
G01X-77500Y620000D02*
X-97540Y599960D01*
G02X-101070Y598500I-3531J3540D01*
G01X-165000D01*
G01X-75000Y180030D02*
Y145030D01*
X-108500Y111530D01*
X-140000D01*
G01X-23000Y592030D02*
X-17460Y586490D01*
G02X-16000Y582960I-3540J-3531D01*
G01Y556100D01*
G02X-17460Y552570I-5000J1D01*
G01X-25540Y544490D01*
X-76990D01*
X-113540Y581040D01*
G01D02*
G03X-117070Y582500I-3531J-3540D01*
G01X-23000Y592030D02*
X-18460Y596570D01*
G03X-17000Y600100I-3540J3531D01*
G01Y627960D01*
G03X-18460Y631490I-5000J-1D01*
G01X-26970Y640000D01*
X-85430D01*
G03X-88960Y638540I1J-5000D01*
G01X-118540Y608960D01*
G02X-122070Y607500I-3531J3540D01*
G01X-75000Y180030D02*
Y190030D01*
G01D02*
Y225030D01*
X-57500Y242530D01*
Y255030D01*
G01X-71000Y366530D02*
X19500D01*
G01X-35000Y561530D02*
X-54750D01*
X-63220Y570000D01*
X-77500D01*
G01X-35000Y624530D02*
X-58690D01*
X-63220Y620000D01*
X-77500D01*
G01X17500Y315030D02*
X-42500Y255030D01*
X-57500D01*
G01X17000Y713000D02*
X-51000D01*
X-55000Y717000D01*
Y726500D01*
G01X-51000Y750000D02*
Y741530D01*
X-55000Y737530D01*
Y726500D01*
G01X-35000Y607530D02*
Y592030D01*
G01Y578530D02*
Y592030D01*
G01D02*
X-23000D01*
G01X-16900Y672500D02*
Y653100D01*
G01X19500Y366530D02*
X20000Y366030D01*
G54D13*
X-748000Y703030D03*
X-718000D03*
G54D31*
X-259000Y20580D03*
Y33280D03*
Y45980D03*
Y58680D03*
Y71380D03*
Y84080D03*
Y96780D03*
Y109480D03*
X-166000Y33280D03*
Y20580D03*
Y58680D03*
Y45980D03*
Y84080D03*
Y71380D03*
Y109480D03*
Y96780D03*
G54D22*
X-449500Y414030D03*
X-426500Y423530D03*
Y404530D03*
Y452530D03*
X-449500Y462030D03*
X-426500Y471530D03*
G54D41*
G01X-703000Y703030D02*
X-702500Y702530D01*
G01X-502500Y89030D02*
Y75030D01*
G01Y106030D02*
Y125030D01*
X-495000Y132530D01*
X-476500D01*
X-476000Y133030D01*
G01Y78030D02*
Y63530D01*
G01Y133030D02*
Y108030D01*
G01X-441700Y141900D02*
X-467130D01*
X-476000Y133030D01*
G01X-405000Y121530D02*
Y100030D01*
G01X-411000Y169000D02*
X-405000Y163000D01*
Y148530D01*
G01X-378500Y634030D02*
X-394000D01*
G01X-345000Y121530D02*
Y100030D01*
G01X-272500Y109480D02*
X-308050D01*
X-317500Y100030D01*
X-345000D01*
G01X-341000Y169000D02*
X-345000Y165000D01*
Y148530D01*
G01X-303500Y72530D02*
Y84030D01*
X-302500Y85030D01*
Y86530D01*
X-302000Y87030D01*
G01X-259000Y109480D02*
X-272500D01*
G01X-276000Y130030D02*
Y112980D01*
X-272500Y109480D01*
G01X-259000Y130030D02*
Y145030D01*
G01X-231400Y1285400D02*
X-207470D01*
G02X-203940Y1283940I-1J-5000D01*
G01X-160000Y1240000D01*
G01X-161000Y1189000D02*
Y1237590D01*
G02X-160000Y1240000I3400J2D01*
G01X-140000D02*
X-160000D01*
G01X-130500Y511030D02*
X-115000D01*
G01X-122000Y1198000D02*
X-140000D01*
G01X-143000Y1280030D02*
X-144000Y1279030D01*
Y1260030D01*
G01X-122500Y549530D02*
Y534030D01*
G01X-113000Y1280030D02*
X-84000D01*
G01X-71000Y383530D02*
Y398030D01*
G01X-83000Y1180030D02*
X-68000D01*
G01X-57500Y285030D02*
Y300030D01*
G54D23*
X-405000Y121530D03*
Y148530D03*
X-345000Y121530D03*
Y148530D03*
G54D32*
X-188350Y728030D03*
Y760030D03*
Y817030D03*
Y849030D03*
X-175650Y728030D03*
Y760030D03*
Y817030D03*
Y849030D03*
X-128350Y728030D03*
Y760030D03*
X-126350Y816530D03*
Y848530D03*
X-115650Y728030D03*
Y760030D03*
X-113650Y816530D03*
Y848530D03*
G54D14*
X-731500Y735030D03*
X-748500D03*
X-368500Y542530D03*
X-378500Y634030D03*
X-351500Y542530D03*
X-361500Y634030D03*
X-303500Y72530D03*
X-286500D03*
X-276000Y130030D03*
X-259000D03*
X-138500Y70030D03*
X-130500Y511030D03*
X-147500D03*
X-121500Y70030D03*
X-18500Y145030D03*
Y165030D03*
X-1500Y145030D03*
Y165030D03*
G54D42*
G01X-710000Y562500D02*
Y482530D01*
X-688470Y461000D01*
X-588470D01*
X-565000Y437530D01*
X-555000D01*
G01X-111550Y366500D02*
Y353020D01*
G02X-113010Y349490I-5000J1D01*
G01X-131040Y331460D01*
G03X-132500Y327930I3540J-3531D01*
G01Y310030D01*
X-137500Y305030D01*
X-565460D01*
X-680000Y419570D01*
Y450030D01*
G01Y480030D02*
Y486980D01*
G03X-681460Y490510I-5000J-1D01*
G01X-683140Y492190D01*
G02X-684600Y495720I3540J3531D01*
G01Y562500D01*
G01X-680000Y478000D02*
Y480030D01*
G01X-130600Y366500D02*
Y356470D01*
G02X-132060Y352940I-5000J1D01*
G01X-138540Y346460D01*
G02X-142070Y345000I-3531J3540D01*
G01X-155430D01*
G03X-158960Y343540I1J-5000D01*
G01X-177470Y325030D01*
X-542530D01*
X-638540Y421040D01*
G02X-640000Y424570I3540J3531D01*
G01Y450030D01*
G01X-659200Y562500D02*
Y474210D01*
X-653990Y469000D01*
X-558970D01*
X-540000Y450030D01*
Y412530D01*
X-499500Y372030D01*
X-467000D01*
G01X-640000Y480030D02*
Y486980D01*
G02X-638540Y490510I5000J-1D01*
G01X-635260Y493790D01*
G03X-633800Y497320I-3540J3531D01*
G01Y562500D01*
G01X-640000Y478000D02*
Y480030D01*
G01X-320000Y582500D02*
X-402510D01*
X-420610Y564400D01*
X-486220D01*
G02X-489750Y565860I1J5000D01*
G01X-519660Y595770D01*
G02X-521120Y599300I3540J3531D01*
G01Y676760D01*
G03X-522580Y680290I-5000J-1D01*
G01X-595000Y752710D01*
Y1159560D01*
X-546010Y1208550D01*
X-542490Y1210000D01*
X-450750D01*
G03X-447220Y1211460I-1J5000D01*
G01X-410660Y1248020D01*
G03X-409200Y1251550I-3540J3531D01*
G01Y1260000D01*
G01X-320000Y574500D02*
X-400530D01*
X-415630Y559400D01*
X-488300D01*
G02X-491830Y560860I1J5000D01*
G01X-524660Y593690D01*
G02X-526120Y597220I3540J3531D01*
G01Y674680D01*
G03X-527580Y678210I-5000J-1D01*
G01X-600000Y750630D01*
Y1161640D01*
X-548080Y1213560D01*
X-544570Y1215000D01*
X-455270D01*
G03X-451740Y1216460I-1J5000D01*
G01X-423360Y1244840D01*
G03X-421900Y1248370I-3540J3531D01*
G01Y1270630D01*
G03X-423360Y1274160I-5000J-1D01*
G01X-434600Y1285400D01*
G01X-320000Y590500D02*
X-404530D01*
X-425630Y569400D01*
X-484140D01*
G02X-487670Y570860I1J5000D01*
G01X-514660Y597850D01*
G02X-516120Y601380I3540J3531D01*
G01Y672590D01*
X-516110Y672600D01*
Y678830D01*
G03X-517570Y682360I-5000J-1D01*
G01X-590000Y754790D01*
Y1157480D01*
X-543940Y1203540D01*
G02X-540410Y1205000I3531J-3540D01*
G01X-446650D01*
G03X-443120Y1206460I-1J5000D01*
G01X-397960Y1251620D01*
G03X-396500Y1255150I-3540J3531D01*
G01Y1270630D01*
G03X-397960Y1274160I-5000J-1D01*
G01X-409200Y1285400D01*
G01X-320000Y646500D02*
X-331930D01*
G02X-335460Y647960I1J5000D01*
G01X-402530Y715030D01*
X-527500D01*
X-582500Y770030D01*
Y1133770D01*
X-528740Y1187530D01*
X-431240D01*
X-383800Y1234970D01*
Y1260000D01*
G01X-600000Y1265000D02*
X-575000Y1240000D01*
G01X-320000Y654500D02*
X-332850D01*
G02X-336380Y655960I1J5000D01*
G01X-400450Y720030D01*
X-525420D01*
X-577500Y772110D01*
Y1131690D01*
X-526660Y1182530D01*
X-429160D01*
X-371100Y1240590D01*
Y1270630D01*
G03X-372560Y1274160I-5000J-1D01*
G01X-383800Y1285400D01*
G01X-302500Y680000D02*
X-346250D01*
X-396290Y730030D01*
X-520000D01*
X-567500Y777530D01*
Y1127530D01*
X-522500Y1172530D01*
X-425000D01*
X-345700Y1251830D01*
Y1270630D01*
G03X-347160Y1274160I-5000J-1D01*
G01X-358400Y1285400D01*
G01X-320000Y662500D02*
X-333770D01*
G02X-337300Y663960I1J5000D01*
G01X-398370Y725030D01*
X-522500D01*
X-572500Y775030D01*
Y1129610D01*
X-524580Y1177530D01*
X-427080D01*
X-358400Y1246210D01*
Y1260000D01*
G01X-286500Y680000D02*
Y689430D01*
G03X-287960Y692960I-5000J-1D01*
G01X-296040Y701040D01*
G03X-299570Y702500I-3531J-3540D01*
G01X-347890D01*
X-417920Y772530D01*
X-526500D01*
X-555000Y801030D01*
Y1106690D01*
X-530930Y1130760D01*
X-415930D01*
X-320000Y1226690D01*
Y1270330D01*
G03X-321460Y1273860I-5000J-1D01*
G01X-333000Y1285400D01*
G01X-294500Y680000D02*
Y687950D01*
G03X-295960Y691480I-5000J-1D01*
G01X-300520Y696040D01*
G03X-304050Y697500I-3531J-3540D01*
G01X-349970D01*
X-420000Y767530D01*
X-528580D01*
X-560000Y798950D01*
Y1108770D01*
X-533010Y1135760D01*
X-418010D01*
X-333000Y1220770D01*
Y1260000D01*
G01X-278500Y680000D02*
Y691430D01*
G03X-279960Y694960I-5000J-1D01*
G01X-291040Y706040D01*
G03X-294570Y707500I-3531J-3540D01*
G01X-345810D01*
X-415840Y777530D01*
X-524420D01*
X-550000Y803110D01*
Y1104610D01*
X-528850Y1125760D01*
X-413850D01*
X-307600Y1232010D01*
Y1260000D01*
G01X-575000Y1240000D02*
X-439600D01*
G03X-434600Y1245000I0J5000D01*
G01Y1260000D01*
G01X-575000Y1290000D02*
X-529570D01*
G02X-526040Y1288540I-1J-5000D01*
G01X-511460Y1273960D01*
G03X-507930Y1272500I3531J3540D01*
G01X-452500D01*
G03X-447500Y1277500I0J5000D01*
G01Y1295000D01*
G02X-442500Y1300000I5000J0D01*
G01X-273470D01*
G02X-269940Y1298540I-1J-5000D01*
G01X-256800Y1285400D01*
G01X-449500Y462030D02*
X-450000Y462530D01*
X-460000D01*
X-485000Y437530D01*
X-525000D01*
G01X-238500Y680000D02*
Y696030D01*
X-275000Y732530D01*
X-335400D01*
X-402770Y799900D01*
Y800540D01*
G03X-403400Y801170I-630J0D01*
G01X-513640D01*
X-527500Y815030D01*
Y1087530D01*
X-515000Y1100030D01*
X-405720D01*
X-256800Y1248950D01*
Y1260000D01*
G01X-254500Y680000D02*
Y697030D01*
X-280000Y722530D01*
X-339990D01*
X-406830Y789370D01*
G03X-410360Y790830I-3531J-3540D01*
G01X-517460D01*
X-537500Y810870D01*
Y1092530D01*
X-520000Y1110030D01*
X-409880D01*
X-282200Y1237710D01*
Y1260000D01*
G01X-270500Y680000D02*
Y693430D01*
G03X-271960Y696960I-5000J-1D01*
G01X-286040Y711040D01*
G03X-289570Y712500I-3531J-3540D01*
G01X-343730D01*
X-413760Y782530D01*
X-522340D01*
X-545000Y805190D01*
Y1102530D01*
X-526770Y1120760D01*
X-411770D01*
X-294900Y1237630D01*
Y1270630D01*
G03X-296360Y1274160I-5000J-1D01*
G01X-307600Y1285400D01*
G01X-246500Y680000D02*
Y696530D01*
X-277500Y727530D01*
X-337910D01*
X-405090Y794710D01*
G03X-408620Y796170I-3531J-3540D01*
G01X-515720D01*
X-532500Y812950D01*
Y1089610D01*
X-517080Y1105030D01*
X-407800D01*
X-269500Y1243330D01*
Y1270630D01*
G03X-270960Y1274160I-5000J-1D01*
G01X-282200Y1285400D01*
G01X-502660Y842500D02*
X-272070D01*
G02X-268540Y841040I-1J-5000D01*
G01X-242530Y815030D01*
X-230000D01*
G01X-502660Y892500D02*
X-474120Y863960D01*
G03X-470590Y862500I3531J3540D01*
G01X-187500D01*
G01X-162500D02*
Y1020430D01*
G03X-163960Y1023960I-5000J-1D01*
G01X-181040Y1041040D01*
G03X-184570Y1042500I-3531J-3540D01*
G01X-485590D01*
G02X-489120Y1043960I1J5000D01*
G01X-502660Y1057500D01*
G01X-476000Y108030D02*
X-476980Y109010D01*
G01X-320000Y606500D02*
X-423930D01*
G03X-427460Y605040I1J-5000D01*
G01X-430540Y601960D01*
G02X-434070Y600500I-3531J3540D01*
G01X-454930D01*
G02X-458460Y601960I1J5000D01*
G01X-461040Y604540D01*
G02X-462500Y608070I3540J3531D01*
G01Y623730D01*
G02X-461040Y627260I5000J-1D01*
G01X-450000Y638300D01*
G01X-449500Y414030D02*
Y392530D01*
X-451500Y390530D01*
Y359530D01*
X-444000Y352030D01*
X-296000D01*
X-291000Y357030D01*
Y404030D01*
X-284000Y411030D01*
X-232980D01*
X-227500Y405550D01*
Y395030D01*
G01X-437000Y372030D02*
X-419000D01*
X-396000Y395030D01*
X-329100D01*
G01X-320000Y598500D02*
X-419430D01*
G03X-422960Y597040I1J-5000D01*
G01X-431040Y588960D01*
G02X-434570Y587500I-3531J3540D01*
G01X-450000D01*
G01X-320000Y614500D02*
X-436750D01*
G03X-438680Y613700I-3J-2720D01*
G02X-440610Y612900I-1927J1920D01*
G01X-450000D01*
G01X-320000Y622500D02*
X-415430D01*
G02X-418960Y623960I1J5000D01*
G01X-428540Y633540D01*
G02X-430000Y637070I3540J3531D01*
G01Y667030D01*
G03X-431460Y670560I-5000J-1D01*
G01X-450000Y689100D01*
G01X-388000Y92530D02*
X-397500D01*
X-405000Y100030D01*
G01X-426500Y404530D02*
X-417500D01*
X-408000Y414030D01*
Y447030D01*
X-402500Y452530D01*
G01X-398000Y475030D02*
Y457030D01*
X-402500Y452530D01*
G01X-426500D02*
X-402500D01*
G01X-294500Y525000D02*
Y507570D01*
G02X-295960Y504040I-5000J1D01*
G01X-347470Y452530D01*
X-402500D01*
G01X-357500Y27530D02*
X-364290D01*
X-366790Y30030D01*
Y35030D01*
X-377500Y45740D01*
Y104530D01*
G01X-357500Y52530D02*
X-364290D01*
X-366790Y50030D01*
Y46490D01*
X-368250Y45030D01*
X-369710D01*
X-372500Y47820D01*
Y104530D01*
G01X-388000Y102030D02*
X-380000D01*
X-377500Y104530D01*
G01X-379000Y126030D02*
Y120490D01*
X-377500Y118990D01*
Y104530D01*
G01X-362000Y102030D02*
X-370000D01*
X-372500Y104530D01*
G01X-371000Y126030D02*
Y120490D01*
X-372500Y118990D01*
Y104530D01*
G01X-386000Y169000D02*
X-379000Y162000D01*
Y144030D01*
G01X-366000Y169000D02*
X-371000Y164000D01*
Y144030D01*
G01X-398000Y505030D02*
Y525000D01*
G01X-362000Y92530D02*
X-352500D01*
X-345000Y100030D01*
G01X-302500Y525000D02*
Y509600D01*
G02X-303960Y506070I-5000J1D01*
G01X-333540Y476490D01*
G02X-337070Y475030I-3531J3540D01*
G01X-364000D01*
G01Y505030D02*
Y524000D01*
X-365000Y525000D01*
G01X-259000Y33280D02*
X-270790D01*
X-273890Y36380D01*
X-312810D01*
X-313210Y36780D01*
X-315710D01*
X-318210Y34280D01*
Y30030D01*
X-320710Y27530D01*
X-327500D01*
G01X-259000Y45980D02*
X-270790D01*
X-273890Y42880D01*
X-310110D01*
X-310510Y43280D01*
X-315710D01*
X-318210Y45780D01*
Y50030D01*
X-320710Y52530D01*
X-327500D01*
G01X-286500Y525000D02*
Y505570D01*
G02X-287960Y502040I-5000J1D01*
G01X-325400Y464620D01*
X-329100Y460920D01*
Y395030D01*
G01X-201550Y774030D02*
X-301400D01*
G03X-304930Y772570I1J-5000D01*
G01X-312500Y765000D01*
G01X-175180Y879820D02*
X-297750D01*
G02X-301280Y881280I1J5000D01*
G01X-312500Y892500D01*
G01Y1057500D02*
X-179570D01*
G02X-176040Y1056040I-1J-5000D01*
G01X-151460Y1031460D01*
G02X-150000Y1027930I-3540J-3531D01*
G01Y889570D01*
G03X-148540Y886040I5000J1D01*
G01X-142500Y880000D01*
G01X-277500Y72530D02*
X-286500D01*
G01X-222500Y525000D02*
Y507070D01*
G03X-221040Y503540I5000J1D01*
G01X-211460Y493960D01*
G02X-210000Y490430I-3540J-3531D01*
G01Y449030D01*
X-226000Y433030D01*
X-286970D01*
X-303700Y416300D01*
Y395030D01*
G01X-147000Y487030D02*
Y448530D01*
X-177500Y418030D01*
Y382530D01*
X-208000Y352030D01*
X-232000D01*
X-239250Y359280D01*
Y376280D01*
X-245000Y382030D01*
X-265300D01*
X-278300Y395030D01*
G01X-300000Y640000D02*
X-300040Y639960D01*
G01X-259000Y20580D02*
X-276950D01*
G01X-259000Y58680D02*
X-273650D01*
X-277500Y62530D01*
Y72530D01*
G01X-259000Y71380D02*
X-276350D01*
X-277500Y72530D01*
G01X-259000Y84080D02*
X-273450D01*
X-277500Y80030D01*
Y72530D01*
G01X-259000Y96780D02*
X-277750D01*
X-278000Y97030D01*
G01X-230500Y680000D02*
Y720030D01*
X-230000Y720530D01*
Y761030D01*
G01X-222500Y680000D02*
Y698810D01*
X-201550Y719760D01*
Y728030D01*
G01X-230000Y815030D02*
Y791030D01*
G01Y845030D02*
X-213820D01*
X-209820Y849030D01*
X-201550D01*
G01X-198500Y680000D02*
Y691030D01*
X-185500Y704030D01*
X-176500D01*
X-162500Y718030D01*
Y719710D01*
X-162450Y719760D01*
Y728030D01*
G01X-206500Y680000D02*
Y691030D01*
X-175650Y721880D01*
Y728030D01*
G01X-214500Y680000D02*
Y693610D01*
X-188350Y719760D01*
Y728030D01*
G01X-190500Y680000D02*
Y690020D01*
X-182490Y698030D01*
X-171000D01*
X-153000Y716030D01*
X-145000D01*
X-142500Y718530D01*
Y718810D01*
X-141550Y719760D01*
Y728030D01*
G01X-188350Y760030D02*
X-187500Y760880D01*
Y797500D01*
G01X-201550Y817030D02*
Y774030D01*
G01D02*
Y760030D01*
G01X-188350Y817030D02*
X-187500Y816180D01*
Y797500D01*
G01X-201550Y849030D02*
X-188350D01*
G01X-166000Y33280D02*
X-154210D01*
X-151110Y36380D01*
X-105420D01*
X-59500Y82300D01*
Y134300D01*
X-56020Y137780D01*
X-40000D01*
G01X-166000Y45980D02*
X-154210D01*
X-151110Y42880D01*
X-108120D01*
X-66000Y85000D01*
Y137000D01*
X-58720Y144280D01*
X-40000D01*
G01X-166000Y58680D02*
X-153480D01*
X-150000Y62160D01*
Y70030D01*
G01X-166000Y71380D02*
X-151350D01*
X-150000Y70030D01*
G01X-166000Y84080D02*
X-153480D01*
X-150000Y80600D01*
Y70030D01*
G01X-140000Y111530D02*
X-149520D01*
X-151570Y109480D01*
X-166000D01*
G01X-160000Y384230D02*
Y415010D01*
G02X-158540Y418540I5000J-1D01*
G01X-133530Y443550D01*
G02X-130000Y445010I3531J-3540D01*
G01X-29140D01*
G03X-25610Y446470I-1J5000D01*
G01X-6460Y465620D01*
G03X-5000Y469150I-3540J3531D01*
G01Y682930D01*
G03X-6460Y686460I-5000J-1D01*
G01X-8260Y688260D01*
G03X-10040Y689000I-1780J-1771D01*
G01X-79300D01*
G03X-81080Y688260I0J-2511D01*
G01X-145380Y623960D01*
G02X-148910Y622500I-3531J3540D01*
G01X-165000D01*
G01X-147500Y511030D02*
Y556950D01*
G03X-148960Y560480I-5000J-1D01*
G01X-153520Y565040D01*
G03X-157050Y566500I-3531J-3540D01*
G01X-165000D01*
G01Y630500D02*
X-147990D01*
G03X-144460Y631960I-1J5000D01*
G01X-81160Y695260D01*
G02X-79380Y696000I1780J-1771D01*
G01X-9960D01*
G02X-8180Y695260I0J-2511D01*
G01X-1460Y688540D01*
G02X0Y685010I-3540J-3531D01*
G01Y467070D01*
G02X-1460Y463540I-5000J1D01*
G01X-23530Y441470D01*
G02X-27060Y440010I-3531J3540D01*
G01X-127920D01*
G03X-131450Y438550I1J-5000D01*
G01X-148540Y421460D01*
G03X-150000Y417930I3540J-3531D01*
G01Y376570D01*
G03X-148540Y373040I5000J1D01*
G01X-143460Y367960D01*
G03X-139930Y366500I3531J3540D01*
G01X-136950D01*
G01X-42300Y672500D02*
Y660520D01*
G02X-43760Y656990I-5000J1D01*
G01X-49260Y651490D01*
G02X-52790Y650030I-3531J3540D01*
G01X-93930D01*
G03X-95710Y649290I0J-2511D01*
G01X-133480Y611520D01*
G02X-145600Y606500I-12124J12130D01*
G01X-165000D01*
G01X-55000Y672500D02*
Y659500D01*
G02X-57500Y657000I-2500J0D01*
G01X-95240D01*
G03X-103540Y653570I-4J-11747D01*
G01X-141150Y615960D01*
G02X-144680Y614500I-3531J3540D01*
G01X-165000D01*
G01Y638500D02*
X-151490D01*
G03X-147960Y639960I-1J5000D01*
G01X-84660Y703260D01*
G02X-82880Y704000I1780J-1771D01*
G01X-7540D01*
G02X-5760Y703260I0J-2511D01*
G01X6040Y691460D01*
G02X7500Y687930I-3540J-3531D01*
G01Y460030D01*
X-35030Y417500D01*
X-92500D01*
G01X-165000Y646500D02*
X-153100D01*
G03X-149570Y647960I-1J5000D01*
G01X-68960Y728570D01*
G03X-67500Y732100I-3540J3531D01*
G01Y1132720D01*
G03X-68740Y1135720I-4240J4D01*
G02X-70000Y1138760I3030J3037D01*
G01Y1143550D01*
X-75480Y1149030D01*
X-83000D01*
G01X-165000Y654500D02*
X-157050D01*
G03X-153520Y655960I-1J5000D01*
G01X-135210Y674270D01*
G03X-133750Y677800I-3540J3531D01*
G01Y691560D01*
G02X-132290Y695080I4976J-1D01*
G01X-102450Y724920D01*
Y728030D01*
G01X-182500Y662500D02*
X-180310D01*
Y664720D01*
G01D02*
X-156490Y688540D01*
X-154270D01*
G02X-150740Y690000I3531J-3540D01*
G01X-150000D01*
G01X-182500Y680000D02*
X-177480D01*
X-147450Y710030D01*
X-135000D01*
X-132500Y712530D01*
Y713030D01*
X-127500Y718030D01*
Y727180D01*
X-128350Y728030D01*
G01X-165000Y662500D02*
X-162070D01*
G03X-158540Y663960I-1J5000D01*
G01X-141460Y681040D01*
G03X-140000Y684570I-3540J3531D01*
G01Y695330D01*
G02X-138540Y698860I5000J-1D01*
G01X-117460Y720000D01*
X-115650Y721810D01*
Y728030D01*
G01X-162450Y760030D02*
X-162500Y760080D01*
Y797500D01*
G01X-175650Y760030D02*
X-175180Y760500D01*
Y780000D01*
G01X-175650Y817030D02*
X-175180Y816560D01*
Y780000D01*
G01X-162450Y817030D02*
X-162500Y816980D01*
Y797500D01*
G01X-188350Y849030D02*
X-175650D01*
G01D02*
X-162450D01*
G01X-139550Y848530D02*
X-153680D01*
X-154180Y849030D01*
X-162450D01*
G01X-138500Y70030D02*
X-150000D01*
G01X-135000Y211530D02*
X-133500D01*
X-124750Y202780D01*
X-110000D01*
G01Y183280D02*
X-110250Y183030D01*
X-130000D01*
G01X-110000Y196280D02*
X-142500D01*
X-150000Y203780D01*
Y290030D01*
G01X-124250Y366500D02*
Y349820D01*
G02X-125710Y346290I-5000J1D01*
G01X-134470Y337530D01*
X-140020D01*
X-150000Y327550D01*
Y320030D01*
G01X-136950Y417500D02*
Y404450D01*
G01D02*
X-132500Y400000D01*
G01X-147000Y487030D02*
Y498300D01*
X-147500Y498800D01*
Y511030D01*
G01X-128350Y760030D02*
X-127900Y760480D01*
Y798170D01*
G01X-141550Y760030D02*
X-140000Y761580D01*
Y785000D01*
G01X-139550Y816530D02*
X-140000Y816080D01*
Y785000D01*
G01X-126350Y848530D02*
X-139550D01*
G01X-140000Y1180000D02*
X-120550D01*
X-120520Y1180030D01*
X-113000D01*
G01X-75000Y190030D02*
X-87750Y202780D01*
X-110000D01*
G01Y222280D02*
Y255030D01*
G01D02*
Y290030D01*
G01X-105200Y366500D02*
Y349370D01*
G02X-106660Y345840I-5000J1D01*
G01X-110000Y342500D01*
Y320030D01*
G01X-98850Y366500D02*
Y355920D01*
G03X-97390Y352390I5000J1D01*
G01X-117900Y366500D02*
Y385000D01*
G01X-121970Y690000D02*
X-119030D01*
X-77250Y731780D01*
Y835780D01*
X-89500Y848030D01*
X-99950D01*
X-100450Y848530D01*
G01X-102450Y760030D02*
X-102500Y760080D01*
Y776570D01*
G01X-100450Y816530D02*
X-102500Y814480D01*
Y776570D01*
G01X-115650Y760030D02*
X-115000Y760680D01*
Y787500D01*
G01X-126350Y816530D02*
X-127900Y814980D01*
Y798170D01*
G01X-113650Y816530D02*
X-115000Y815180D01*
Y787500D01*
G01X-113650Y848530D02*
X-126350D01*
G01X-100450D02*
X-113650D01*
G01X-113000Y1149030D02*
Y1180030D01*
G01X-40000Y170280D02*
X-65250D01*
X-75000Y180030D01*
G01X-80000Y255030D02*
X-57500D01*
G01X-97390Y352390D02*
X-92500Y347500D01*
G01X-71000Y366530D02*
X-70970Y366500D01*
X-92500D01*
G01X-83430Y860000D02*
Y1060360D01*
G03X-84890Y1063890I-5000J-1D01*
G01X-98000Y1077000D01*
G01X-97500Y911900D02*
Y877500D01*
G01X-18500Y145030D02*
X-25000D01*
X-27000Y147030D01*
Y148090D01*
X-29690Y150780D01*
X-40000D01*
G01Y163780D02*
X-39750Y164030D01*
X-26000D01*
X-25000Y165030D01*
G01D02*
X-30250Y170280D01*
X-40000D01*
G01Y157280D02*
X-40250Y157530D01*
X-60000D01*
G01Y180030D02*
X-56750Y176780D01*
X-40000D01*
G01X-60000Y207530D02*
X-55250Y202780D01*
X-40000D01*
G01X-58450Y215050D02*
X-56880D01*
X-51110Y209280D01*
X-40000D01*
G01Y183280D02*
X-21270D01*
X-19520Y185030D01*
X-13000D01*
G01X-40000Y189780D02*
X-28230D01*
X-22500Y195510D01*
Y198010D01*
X-20480Y200030D01*
X-13000D01*
G01X-18500Y165030D02*
X-25000D01*
G01X25000Y240030D02*
Y192530D01*
X17500Y185030D01*
X3000D01*
G01X0Y240030D02*
Y227530D01*
X3000Y224530D01*
Y200030D01*
G01X0Y270030D02*
X25000D01*
G01D02*
Y312530D01*
G54D15*
X-710000Y562500D03*
X-460000Y1260000D03*
X-450000Y587500D03*
X-227500Y395030D03*
G54D33*
X-201550Y728030D03*
Y760030D03*
Y817030D03*
Y849030D03*
X-162450Y728030D03*
Y760030D03*
Y817030D03*
Y849030D03*
X-141550Y728030D03*
Y760030D03*
X-139550Y816530D03*
Y848530D03*
X-102450Y728030D03*
Y760030D03*
X-100450Y816530D03*
Y848530D03*
G54D24*
X-411000Y169000D03*
G54D43*
G01X-730040Y703030D02*
X-718000D01*
G01X-731500Y722240D02*
Y735030D01*
G01D02*
Y747820D01*
G01Y735030D02*
X-720210D01*
G01X-718000Y688240D02*
Y703030D01*
G01D02*
Y717820D01*
G01Y703030D02*
X-705960D01*
G01X-608400Y587900D02*
Y601690D01*
G01Y587900D02*
X-594610D01*
G01X-368500Y542530D02*
Y555320D01*
G01X-379790Y542530D02*
X-368500D01*
G01X-378500Y634030D02*
Y646820D01*
G01X-166000Y11790D02*
Y20580D01*
G01D02*
X-150210D01*
G01X-166000Y96780D02*
X-150210D01*
G01X-140000Y128530D02*
Y139820D01*
G01X-152790Y128530D02*
X-140000D01*
G01D02*
X-127210D01*
G01X-135000Y228530D02*
Y239820D01*
G01X-130500Y498240D02*
Y511030D01*
G01D02*
Y523820D01*
G01X-135290Y549530D02*
X-122500D01*
G01X-140000Y1198000D02*
Y1208790D01*
G01X-121500Y57240D02*
Y70030D01*
G01D02*
Y82820D01*
G01Y70030D02*
X-110210D01*
G01X-122500Y549530D02*
X-109710D01*
G01X-110000Y1225460D02*
Y1240000D01*
G01D02*
Y1254540D01*
G01X-120790Y1240000D02*
X-110000D01*
G01X-72290Y285030D02*
X-57500D01*
G01X-83790Y383530D02*
X-71000D01*
G01D02*
X-58210D01*
G01X-83000Y1165490D02*
Y1180030D01*
G01D02*
Y1194570D01*
G01X-93790Y1180030D02*
X-83000D01*
G01X-57500Y272990D02*
Y285030D01*
G01D02*
X-42710D01*
G01X-42300Y726500D02*
X-37050Y740040D01*
G01X-51000Y767000D02*
Y778290D01*
G01Y767000D02*
X-38210D01*
G01X-16900Y726500D02*
Y740040D01*
G01Y726500D02*
X-8110D01*
G01X-29600D02*
Y740040D01*
G01X-1500Y132240D02*
Y145030D01*
G01D02*
X9790D01*
G01X-1500Y165030D02*
X9790D01*
G54D34*
X-161000Y1189000D03*
X-140000Y1198000D03*
Y1180000D03*
G54D16*
X-710000Y587900D03*
X-684600Y562500D03*
Y587900D03*
X-633800Y562500D03*
X-659200D03*
X-633800Y587900D03*
X-659200D03*
X-608400Y562500D03*
Y587900D03*
X-475400Y587500D03*
Y638300D03*
Y612900D03*
Y663700D03*
Y689100D03*
X-460000Y1285400D03*
X-450000Y638300D03*
Y612900D03*
Y663700D03*
Y689100D03*
X-434600Y1260000D03*
Y1285400D03*
X-409200Y1260000D03*
Y1285400D03*
X-386000Y169000D03*
X-366000D03*
X-383800Y1260000D03*
Y1285400D03*
X-333000Y1260000D03*
X-358400D03*
X-333000Y1285400D03*
X-358400D03*
X-329100Y369630D03*
Y395030D03*
X-303700Y369630D03*
Y395030D03*
X-307600Y1260000D03*
Y1285400D03*
X-278300Y369630D03*
Y395030D03*
X-282200Y1260000D03*
Y1285400D03*
X-252900Y369630D03*
Y395030D03*
X-256800Y1260000D03*
Y1285400D03*
X-227500Y369630D03*
X-231400Y1260000D03*
Y1285400D03*
G54D25*
X-388000Y83030D03*
Y92530D03*
Y102030D03*
X-362000Y92530D03*
Y83030D03*
Y102030D03*
G54D44*
G01X-763790Y660030D02*
X-747500D01*
G01X-760540Y703030D02*
X-748000D01*
G01X-760290Y735030D02*
X-748500D01*
G01X-747500Y636740D02*
Y660030D01*
G01D02*
Y683320D01*
G01X-748000Y687740D02*
Y703030D01*
G01X-748500Y721740D02*
Y735030D01*
G01X-748000Y703030D02*
Y718320D01*
G01X-748500Y735030D02*
Y748320D01*
G54D26*
X-371000Y126030D03*
Y144030D03*
X-379000Y126030D03*
Y144030D03*
G54D17*
X-680000Y450030D03*
Y480030D03*
X-640000Y450030D03*
Y480030D03*
X-476000Y78030D03*
Y108030D03*
X-398000Y475030D03*
Y505030D03*
X-364000Y475030D03*
Y505030D03*
X-230000Y761030D03*
Y815030D03*
Y791030D03*
Y845030D03*
X-150000Y290030D03*
Y320030D03*
X-110000Y290030D03*
Y320030D03*
X25000Y240030D03*
X0D03*
X25000Y270030D03*
X0D03*
G54D35*
X-130600Y366500D03*
X-136950D03*
Y417500D03*
X-130600D03*
X-98850Y366500D03*
X-105200D03*
X-111550D03*
X-117900D03*
X-124250D03*
Y417500D03*
X-117900D03*
X-111550D03*
X-105200D03*
X-98850D03*
X-92500Y366500D03*
Y417500D03*
G54D27*
X-341000Y169000D03*
G54D36*
X-110000Y137780D03*
Y144280D03*
Y150780D03*
Y157280D03*
Y163780D03*
Y170280D03*
Y176780D03*
Y183280D03*
Y189780D03*
Y196280D03*
Y202780D03*
Y209280D03*
Y215780D03*
Y222280D03*
X-40000Y150780D03*
Y144280D03*
Y137780D03*
Y176780D03*
Y170280D03*
Y163780D03*
Y157280D03*
Y209280D03*
Y202780D03*
Y196280D03*
Y189780D03*
Y183280D03*
Y222280D03*
Y215780D03*
G54D18*
X-600000Y1265000D03*
X-575000Y1240000D03*
Y1290000D03*
X-77500Y570000D03*
Y620000D03*
G54D37*
X-57500Y255030D03*
Y285030D03*
G54D19*
X-555000Y437530D03*
X-525000D03*
X-467000Y372030D03*
X-437000D03*
X-357500Y27530D03*
Y52530D03*
X-327500Y27530D03*
Y52530D03*
X-177000Y487030D03*
X-147000D03*
X-140000Y1240000D03*
X-143000Y1280030D03*
X-110000Y255030D03*
X-113000Y1149030D03*
Y1180030D03*
X-110000Y1240000D03*
X-113000Y1280030D03*
X-80000Y255030D03*
X-83000Y1149030D03*
Y1180030D03*
G54D28*
X-320000Y542500D03*
Y550500D03*
Y558500D03*
Y566500D03*
Y574500D03*
Y582500D03*
Y590500D03*
Y598500D03*
Y606500D03*
Y614500D03*
Y622500D03*
Y630500D03*
Y638500D03*
Y646500D03*
Y654500D03*
Y662500D03*
X-165000Y542500D03*
Y566500D03*
Y558500D03*
Y550500D03*
Y598500D03*
Y590500D03*
Y582500D03*
Y574500D03*
Y630500D03*
Y622500D03*
Y614500D03*
Y606500D03*
Y662500D03*
Y654500D03*
Y646500D03*
Y638500D03*
G54D38*
X-42300Y672500D03*
X-55000D03*
Y726500D03*
X-42300D03*
X-16900Y672500D03*
X-29600D03*
Y726500D03*
X-16900D03*
G54D29*
X-287500Y472500D03*
X-237500D03*
G54D39*
X-13000Y185030D03*
Y200030D03*
X3000Y185030D03*
Y200030D03*
M02*
