M48
METRIC,TZ
T01C.5
T02C1.
T03C1.1
T04C1.2
T05C2.5
T06C3.2
;LEADER: 12 
;HEADER: 
;CODE  : ASCII 
;FILE  : v3-bl-1-2.drl for  ... layers 1 and 2
;T01 Holesize 1. = 0.500000 Tolerance = +0.000000/-0.000000 PLATED MM Quantity = 164
;T02 Holesize 2. = 1.000000 Tolerance = +0.000000/-0.000000 PLATED MM Quantity = 55
;T03 Holesize 3. = 1.100000 Tolerance = +0.000000/-0.000000 PLATED MM Quantity = 4
;T04 Holesize 4. = 1.200000 Tolerance = +0.000000/-0.000000 PLATED MM Quantity = 2
;T05 Holesize 5. = 2.500000 Tolerance = +0.000000/-0.000000 PLATED MM Quantity = 2
;T06 Holesize 6. = 3.200000 Tolerance = +0.000000/-0.000000 PLATED MM Quantity = 4
%
G90
T01
X-144000Y1260030
X-502500Y75030
X-405000Y100030
X-259000Y145030
X-278000Y97030
X-302000Y87030
X-276950Y20580
X-476000Y63530
X-312500Y765000
X-117900Y385000
X-160000Y384230
X-312500Y1057500
X-142500Y880000
X-140000Y785000
X-83430Y860000
X-98000Y1077000
X-115000Y787500
X-97500Y911900
X-127900Y798170
X-97500Y877500
X-57500Y300030
X-60000Y207530
X14000Y145030
X24100Y163600
X-135000Y244030
X-145550Y20580
X-102000Y71000
X-71000Y398030
X-122500Y534030
X-68000Y1180030
X-395000Y552000
X-715000Y735030
X-702500Y702530
X-394000Y634030
X-92500Y347500
X-132500Y400000
X-185000Y587500
X-302500Y627500
X-340000Y559720
X-112000Y1220500
X-122000Y1198000
X-16900Y653100
X-115000Y511030
X-130000Y183030
X-140000Y145030
X-145750Y96780
X-60000Y157530
Y180030
X-465920Y878770
X-390920
X-248030Y896090
X-178770Y924870
Y999870
X-248990Y1026230
R03X-75000
X-511230Y961130
X-244180Y1238550
X-297210Y1185520
X-350250Y1132480
X-407260Y1083760
X-470500Y1076000
X-411550Y1058770
X-336550
X-188060Y1073770
X-133730Y1022070
Y947070
X-125550Y872520
X-99700Y942920
Y1017920
X-83770Y1091210
X-276730Y826230
X-351730
X-361230Y781360
X-616270Y849050
R02Y100000
X-623460Y1248790
X-702090Y1187010
X-741980Y1095310
R02Y-100000
X-697470Y805760
X-652480Y716450
X-582100Y645410
X-589470Y306030
X-660180Y376740
X-712460Y461990
X-732770Y559900
X-779000Y471230
Y371230
X-703180Y306030
X-505600Y512300
X-558630Y565330
X-611670Y618360
X-664700Y671390
X-21270Y526100
X-96270
X-658500Y1138000
X-687100Y1039900
X-661700Y887500
X-547400Y671600
X-598200Y722400
X-471200Y544600
X-610900Y519200
Y430300
X-560100Y404900
X-534700Y354100
X-471200Y341400
X-166400Y366800
X-395000
X-356900Y430300
X-433100Y392200
X-14000Y341400
X-166400Y265200
X-39400Y112800
X11400Y87400
X-90200Y11200
X-39400Y468400
X-115600
X-198150Y500150
X-217200Y417600
X-312450Y436650
X-261650Y449350
X-337850Y500150
X-496600Y455700
X-45750Y779550
X-1300Y849400
X-52100Y881150
X-1300Y951000
X-52100Y989100
X-1300Y1058950
X-52100Y1097050
X-1300Y1135150
X-58450Y1160550
X-198150Y1211350
X-154500Y1153000
X-229900Y1135150
X-395000Y951000
X-299750
X-687100Y614450
X-553750Y487450
X-452150Y436650
X-496600Y404900
X-407700Y671600
X-660500Y429000
X-562500Y323000
X-168500Y317000
X-82000Y112000
X-550000Y1265000
X-102500Y776570
X-502660Y842500
Y892500
X-187500Y862500
Y797500
X-175180Y780000
Y879820
X-312500Y892500
X-502660Y1057500
X-162500Y862500
Y797500
X-150000Y690000
X-121970
T02
X-575000Y1290000
X-600000Y1265000
X-575000Y1240000
X-460000Y1260000
Y1285400
X-434600Y1260000
Y1285400
X-409200Y1260000
Y1285400
X-383800Y1260000
Y1285400
X-358400Y1260000
Y1285400
X-333000Y1260000
Y1285400
X-307600Y1260000
Y1285400
X-282200Y1260000
Y1285400
X-256800Y1260000
Y1285400
X-231400Y1260000
Y1285400
X-710000Y562500
Y587900
X-684600Y562500
Y587900
X-659200Y562500
Y587900
X-633800Y562500
Y587900
X-608400Y562500
Y587900
X-227500Y395030
Y369630
X-252900Y395030
Y369630
X-278300Y395030
Y369630
X-303700Y395030
Y369630
X-329100Y395030
Y369630
X-450000Y587500
X-475400
X-450000Y612900
X-475400
X-450000Y638300
X-475400
X-450000Y663700
X-475400
X-450000Y689100
X-475400
X-77500Y570000
Y620000
T03
X-341000Y169000
X-366000
X-386000
X-411000
T04
X-287500Y472500
X-237500
T05
X-441700Y141900
X-310300
T06
X-750000Y0
Y1300000
X0
X0Y0
M30
